<?xml version="1.0" encoding="UTF-8"?>
<!DOCTYPE svg PUBLIC "-//W3C//DTD SVG 1.1//EN" "http://www.w3.org/Graphics/SVG/1.1/DTD/svg11.dtd">
<svg width="150" height="51" viewBox="0 0 150 51" version="1.1" xmlns="http://www.w3.org/2000/svg" xmlns:xlink="http://www.w3.org/1999/xlink">
<title>Group</title>
<desc>Created using Figma</desc>
<g id="Canvas" transform="translate(-2957 311)">
<g id="Group">
<g id="Vector">
<use xlink:href="#path0_fill" transform="translate(2957.64 -310.153)" fill="#414242"/>
</g>
<g id="Vector">
<use xlink:href="#path1_fill" transform="translate(2970.53 -300.809)" fill="#414242"/>
</g>
<g id="Vector">
<use xlink:href="#path2_fill" transform="translate(3000.75 -306.545)" fill="#414242"/>
</g>
<g id="Vector">
<use xlink:href="#path3_fill" transform="translate(3023.69 -300.809)" fill="#414242"/>
</g>
<g id="Vector">
<use xlink:href="#path4_fill" transform="translate(3051.07 -300.809)" fill="#414242"/>
</g>
<g id="Vector">
<use xlink:href="#path5_fill" transform="translate(3080.52 -300.809)" fill="#414242"/>
</g>
<g id="Vector">
<use xlink:href="#path6_fill" transform="translate(3102.05 -310.153)" fill="#414242"/>
</g>
</g>
</g>
<defs>
<path id="path0_fill" d="M 0 9.63918L 0 34.5946C 0 37.3149 4.31693 37.3149 4.31693 37.3149L 4.31693 12.3003C 4.31693 9.69831 0.29568 9.63918 0 9.63918ZM 3.37076 0L 0 0L 0 3.54816C 0 4.08039 0.413952 4.49434 0.946177 4.49434L 4.31693 4.49434L 4.31693 0.946177C 4.31693 0.473088 3.84384 0 3.37076 0Z"/>
<path id="path1_fill" d="M 11.5315 0C 8.45646 0 6.09101 1.12359 3.54816 1.12359C 2.42458 1.12359 1.24186 0.946177 0 0.29568L 0 25.2511C 0 27.9714 4.31693 27.9714 4.31693 27.9714L 4.31693 4.73088C 4.31693 4.73088 6.85978 3.6073 10.8219 3.6073C 15.6119 3.6073 17.3269 5.55879 17.3269 8.87041L 17.3269 25.2511C 17.3269 27.9122 21.6438 27.9714 21.6438 27.9714L 21.6438 8.10164C 21.6438 1.71495 16.4398 0 11.5315 0Z"/>
<path id="path2_fill" d="M 0 0L 0 25.3102C 0 30.7508 3.72557 34.0032 9.52091 34.0032C 13.897 34.0032 18.273 32.17 18.273 28.5036C 18.273 27.3209 17.8591 26.0199 16.8538 24.4823C 16.8538 28.1488 13.6604 30.2185 9.93486 30.2185C 5.67706 30.2185 4.31693 27.6757 4.31693 23.7727L 4.31693 10.9402L 12.8917 10.9402C 15.5528 10.9402 15.6119 7.2146 15.6119 7.2146L 4.31693 7.2146L 4.31693 2.72026C 4.31693 0.0591361 0 0 0 0Z"/>
<path id="path3_fill" d="M 9.87572 12.3594C 7.56942 12.3594 4.31693 11.4724 4.31693 11.3541L 4.31693 9.46177C 4.31693 5.7362 6.09101 3.48903 10.881 3.48903C 15.2571 3.48903 16.7946 5.38138 16.7946 8.16078C 16.7946 10.7628 15.0206 12.3594 9.87572 12.3594ZM 10.881 0C 4.02125 0 0 3.25248 0 8.693L 0 19.574C 0 25.0146 4.2578 28.267 11.0584 28.267C 16.3807 28.267 21.4073 26.3155 21.4073 22.5308C 21.4073 21.4073 20.9933 20.1654 20.0471 18.7461C 20.0471 22.5308 16.085 24.4823 11.4133 24.4823C 6.38669 24.4823 4.31693 22.5308 4.31693 18.7461L 4.31693 14.8432C 5.55879 15.7302 8.39732 16.1441 10.2305 16.1441C 18.1548 16.1441 21.1116 12.4777 21.1116 8.16078C 21.1116 3.25248 17.6817 0 10.881 0Z"/>
<path id="path4_fill" d="M 11.3541 16.2033C 6.32756 16.2033 5.0857 14.0152 5.0857 10.2305L 5.0857 8.81127C 5.0857 5.0857 6.32756 3.42989 11.1176 3.42989C 15.0797 3.42989 17.5634 4.73088 17.5634 4.73088L 17.5634 10.2305C 17.5634 14.0152 16.3216 16.2033 11.3541 16.2033ZM 10.3488 0C 5.44052 0 0.768769 2.18803 0.768769 7.98337L 0.768769 11.0584C 0.768769 13.2465 1.36013 15.0797 2.48371 16.499C 1.06445 18.0956 0 19.6332 0 21.7029C 0 27.4391 4.73088 27.8531 9.40263 27.8531L 12.0638 27.8531C 15.9076 27.8531 18.687 28.2079 18.687 31.6378C 18.687 34.6537 17.0903 37.1374 11.3541 37.1374C 5.26311 37.1374 1.83322 34.9494 1.83322 31.1647C 0.827905 32.584 0.413952 33.885 0.413952 35.0085C 0.413952 38.7341 5.26311 40.6265 11.3541 40.6265C 19.3375 40.6265 23.0039 36.8418 23.0039 31.4012C 23.0039 24.6006 17.3269 24.2458 12.182 24.2458L 10.4079 24.2458C 5.97274 24.2458 3.96212 23.891 3.96212 20.9933C 3.96212 20.2245 4.13952 19.2784 4.37607 18.0956C 4.37607 18.0956 6.62324 19.7514 11.3541 19.7514C 18.1548 19.7514 21.8803 16.499 21.8803 11.0584L 21.8803 0.177408C 20.5793 0.827905 19.3375 1.00531 18.1548 1.00531C 15.6711 1.00531 13.3056 0 10.3488 0Z"/>
<path id="path5_fill" d="M 10.3488 0C 7.39201 0 5.55879 1.12359 3.25248 1.12359C 2.30631 1.12359 1.24186 0.946177 0 0.29568L 0 25.2511C 0 27.9714 4.31693 27.9714 4.31693 27.9714L 4.31693 4.73088C 4.31693 4.73088 6.62324 3.84384 9.46177 3.84384C 12.596 3.84384 15.198 5.20397 15.198 8.21991C 16.2033 6.80065 16.6764 5.67706 16.6764 4.37607C 16.6764 1.4784 14.1335 0 10.3488 0Z"/>
<path id="path6_fill" d="M 0.0591361 9.63918C 0 9.63918 0 9.63918 0 9.63918L 0 34.5946C 0 37.3149 4.31693 37.3149 4.31693 37.3149L 4.31693 12.3003C 4.31693 9.69831 0.354816 9.63918 0.0591361 9.63918ZM 3.42989 0L 0 0L 0 3.54816C 0 4.08039 0.473088 4.49434 1.00531 4.49434L 4.31693 4.49434L 4.31693 0.946177C 4.31693 0.473088 3.90298 0 3.42989 0Z"/>
</defs>
</svg>
