<?xml version="1.0" encoding="UTF-8"?>
<!DOCTYPE svg PUBLIC "-//W3C//DTD SVG 1.1//EN" "http://www.w3.org/Graphics/SVG/1.1/DTD/svg11.dtd">
<!-- Creator: CorelDRAW X8 -->
<svg xmlns="http://www.w3.org/2000/svg" xml:space="preserve" width="12.7mm" height="12.7mm" version="1.1" style="shape-rendering:geometricPrecision; text-rendering:geometricPrecision; image-rendering:optimizeQuality; fill-rule:evenodd; clip-rule:evenodd"
viewBox="0 0 90 90"
 xmlns:xlink="http://www.w3.org/1999/xlink">
 <defs>
  <style type="text/css">
   <![CDATA[
    .fil0 {fill:#7A3773;fill-rule:nonzero}
   ]]>
  </style>
 </defs>
 <g id="Layer_x0020_1">
  <metadata id="CorelCorpID_0Corel-Layer"/>
  <path class="fil0" d="M37 74l12 0 0 -29 8 0c0,0 1,-5 1,-10l-9 0 0 -6c0,-1 2,-3 3,-3l6 0 0 -10 -8 0c-13,0 -13,10 -13,11l0 8 -5 0 0 10 5 0 0 29z"/>
  <path class="fil0" d="M0 0l0 90 90 0 0 -90 -90 0zm84 84l-78 0 0 -78 78 0 0 78z"/>
 </g>
</svg>
