<?xml version="1.0" encoding="UTF-8"?>
<!DOCTYPE svg PUBLIC "-//W3C//DTD SVG 1.1//EN" "http://www.w3.org/Graphics/SVG/1.1/DTD/svg11.dtd">
<!-- Creator: CorelDRAW X8 -->
<svg xmlns="http://www.w3.org/2000/svg" xml:space="preserve" width="38.7979mm" height="38.798mm" version="1.1" style="shape-rendering:geometricPrecision; text-rendering:geometricPrecision; image-rendering:optimizeQuality; fill-rule:evenodd; clip-rule:evenodd"
viewBox="0 0 3880 3880"
 xmlns:xlink="http://www.w3.org/1999/xlink">
 <defs>
  <style type="text/css">
   <![CDATA[
    .fil2 {fill:none}
    .fil0 {fill:#EB7337}
    .fil1 {fill:#D06339}
    .fil5 {fill:white}
    .fil4 {fill:#A80F61;fill-rule:nonzero}
    .fil3 {fill:#C7217A;fill-rule:nonzero}
   ]]>
  </style>
   <clipPath id="id0">
    <path d="M1940 0c1071,0 1940,869 1940,1940 0,1071 -869,1940 -1940,1940 -1071,0 -1940,-869 -1940,-1940 0,-1071 869,-1940 1940,-1940z"/>
   </clipPath>
 </defs>
 <g id="Layer_x0020_1">
  <metadata id="CorelCorpID_0Corel-Layer"/>
  <path class="fil0" d="M1940 0c1071,0 1940,869 1940,1940 0,1071 -869,1940 -1940,1940 -1071,0 -1940,-869 -1940,-1940 0,-1071 869,-1940 1940,-1940z"/>
  <g style="clip-path:url(#id0)">
   <g id="_1692696395136">
    <polygon id="1" class="fil1" points="2795,1100 1976,3091 2789,3735 3921,3758 4124,2294 "/>
   </g>
  </g>
  <path class="fil2" d="M1940 0c1071,0 1940,869 1940,1940 0,1071 -869,1940 -1940,1940 -1071,0 -1940,-869 -1940,-1940 0,-1071 869,-1940 1940,-1940z"/>
  <path class="fil3" d="M1994 1343l-6 10c-101,-174 -275,-279 -471,-279 -298,0 -536,245 -566,581 -1,6 -4,22 -4,48l0 12c0,38 5,92 21,161 44,184 144,351 290,484l730 662 6 -6 0 -1673z"/>
  <path class="fil4" d="M1989 1343l6 10c101,-174 276,-279 471,-279 298,0 536,245 567,581 1,6 3,22 3,48l0 12c0,38 -5,92 -21,161 -43,184 -144,351 -290,484l-730 662 -6 -6 0 -1673z"/>
  <g>
   <path class="fil5" d="M1992 1238c48,-60 105,-110 170,-148 91,-54 195,-83 304,-83 168,0 319,68 432,184 110,113 184,271 202,454 0,5 2,14 3,27l0 0c0,6 1,16 1,30l0 1 0 12 0 0c0,22 -2,48 -5,77 -4,29 -9,62 -18,99 -23,99 -62,193 -114,281 -53,87 -118,167 -197,237l1 1 -730 662 -45 41 -4 -4 -4 4 -45 -41 -730 -662 0 -1c-78,-70 -144,-150 -196,-237 -53,-88 -91,-182 -115,-281 -8,-37 -14,-70 -17,-99 -4,-29 -5,-55 -5,-77l-1 0 0 -12 1 -1c0,-14 0,-24 1,-30l0 0c1,-13 2,-22 3,-27 17,-183 91,-341 201,-454 114,-116 265,-184 432,-184 110,0 214,29 305,83 64,38 122,88 170,148zm3 115c101,-174 276,-279 471,-279 298,0 536,245 567,581 1,6 3,22 3,48l0 12c0,38 -5,92 -21,161 -43,184 -144,351 -290,484l-730 662 -3 -3 -4 3 -730 -662c-146,-133 -246,-300 -290,-484 -16,-69 -21,-123 -21,-161l0 -12c0,-26 3,-42 4,-48 30,-336 268,-581 566,-581 196,0 370,105 471,279l1 -2 0 -8 3 4 2 -4 0 8 1 2z"/>
  </g>
 </g>
</svg>
