<?xml version="1.0" encoding="UTF-8"?>
<!DOCTYPE svg PUBLIC "-//W3C//DTD SVG 1.1//EN" "http://www.w3.org/Graphics/SVG/1.1/DTD/svg11.dtd">
<!-- Creator: CorelDRAW X8 -->
<svg xmlns="http://www.w3.org/2000/svg" xml:space="preserve" width="12.7mm" height="12.7mm" version="1.1" style="shape-rendering:geometricPrecision; text-rendering:geometricPrecision; image-rendering:optimizeQuality; fill-rule:evenodd; clip-rule:evenodd"
viewBox="0 0 143 143"
 xmlns:xlink="http://www.w3.org/1999/xlink">
 <defs>
  <style type="text/css">
   <![CDATA[
    .fil0 {fill:#7A3773}
    .fil1 {fill:#7A3773;fill-rule:nonzero}
   ]]>
  </style>
 </defs>
 <g id="Layer_x0020_1">
  <metadata id="CorelCorpID_0Corel-Layer"/>
  <g id="_1692592282848">
   <path class="fil0" d="M54 102c-17,0 -30,-14 -30,-30 0,-17 13,-31 30,-31 8,0 15,3 21,8l-9 8c-2,-2 -6,-5 -12,-5 -10,0 -19,9 -19,20 0,10 9,19 19,19 12,0 17,-9 18,-13l-18 0 0 -11 29 0c0,2 0,3 0,5 0,18 -11,30 -29,30z"/>
   <polygon class="fil0" points="119,76 111,76 111,85 102,85 102,76 93,76 93,67 102,67 102,58 111,58 111,67 119,67 "/>
  </g>
  <path class="fil1" d="M0 0l0 143 143 0 0 -143 -143 0zm134 134l-125 0 0 -125 125 0 0 125z"/>
 </g>
</svg>
