<?xml version="1.0" encoding="UTF-8"?>
<!DOCTYPE svg PUBLIC "-//W3C//DTD SVG 1.1//EN" "http://www.w3.org/Graphics/SVG/1.1/DTD/svg11.dtd">
<!-- Creator: CorelDRAW X8 -->
<svg xmlns="http://www.w3.org/2000/svg" xml:space="preserve" width="53.7355mm" height="22.0377mm" version="1.1" style="shape-rendering:geometricPrecision; text-rendering:geometricPrecision; image-rendering:optimizeQuality; fill-rule:evenodd; clip-rule:evenodd"
viewBox="0 0 5320 2182"
 xmlns:xlink="http://www.w3.org/1999/xlink">
 <defs>
  <style type="text/css">
   <![CDATA[
    .fil1 {fill:#CCCCCC;fill-rule:nonzero}
    .fil0 {fill:#E6E6E6;fill-rule:nonzero}
   ]]>
  </style>
 </defs>
 <g id="Layer_x0020_1">
  <metadata id="CorelCorpID_0Corel-Layer"/>
  <g id="_1693026224768">
   <path class="fil0" d="M1 345c-1,0 -1,0 -1,0l0 894c0,96 154,96 154,96l0 -894c0,-94 -143,-96 -153,-96zm120 -345l-121 0 0 127c0,19 15,35 35,35l119 0 0 -127c0,-18 -15,-35 -33,-35z"/>
   <path class="fil0" d="M875 335c-110,0 -195,41 -287,41 -39,0 -81,-8 -126,-31l0 894c0,96 155,96 155,96l0 -830c0,0 90,-41 231,-41 171,0 233,70 233,189l0 586c0,94 154,96 154,96l0 -711c0,-227 -185,-289 -360,-289z"/>
   <path class="fil0" d="M1543 129l0 906c0,194 133,310 340,310 156,0 314,-66 314,-197 0,-40 -16,-88 -52,-142 0,131 -114,204 -247,204 -152,0 -200,-90 -200,-229l0 -461 306 0c94,0 96,-133 96,-133l-402 0 0 -160c0,-96 -155,-98 -155,-98z"/>
   <path class="fil0" d="M2717 777c-83,0 -199,-31 -201,-35l0 -68c0,-134 64,-213 236,-213 158,0 211,67 211,165 0,95 -63,151 -246,151zm35 -442c-245,0 -390,116 -390,310l0 390c0,194 153,310 397,310 189,0 370,-69 370,-204 0,-41 -15,-85 -50,-135 0,135 -141,204 -308,204 -179,0 -255,-69 -255,-204l0 -141c47,33 147,46 212,46 284,0 390,-129 390,-285 0,-175 -122,-291 -366,-291z"/>
   <path class="fil0" d="M3748 915c-179,0 -224,-79 -224,-214l0 -52c0,-133 45,-190 216,-190 141,0 231,46 231,46l0 196c0,135 -44,214 -223,214zm-35 -580c-175,0 -343,77 -343,285l0 110c0,79 21,145 62,195 -52,58 -91,112 -91,187 0,204 170,219 337,219l95 0c139,0 237,12 237,135 0,108 -56,197 -262,197 -218,0 -339,-79 -339,-214 -37,52 -52,98 -52,139 0,133 173,200 391,200 287,0 416,-135 416,-329 0,-245 -202,-257 -385,-257l-64 0c-160,0 -231,-13 -231,-117 0,-27 6,-60 15,-102 0,0 79,57 249,57 244,0 377,-115 377,-310l0 -389c-48,23 -92,31 -134,31 -89,0 -172,-37 -278,-37z"/>
   <path class="fil0" d="M4765 335c-106,0 -171,41 -252,41 -35,0 -74,-8 -118,-31l0 894c0,96 154,96 154,96l0 -830c0,0 83,-33 185,-33 112,0 205,50 205,156 36,-50 53,-90 53,-137 0,-104 -92,-156 -227,-156z"/>
   <path class="fil0" d="M5167 345c-1,0 -1,0 -1,0l0 894c0,96 154,96 154,96l0 -894c0,-94 -143,-96 -153,-96zm120 -345l-121 0 0 127c0,19 15,35 35,35l119 0 0 -127c0,-18 -15,-35 -33,-35z"/>
  </g>
  <g id="_1693026226752">
   <path class="fil1" d="M93 1566c-44,0 -71,21 -71,55l0 69c0,35 27,55 71,55 43,0 84,-20 56,-60 0,24 -25,36 -54,36 -32,0 -45,-12 -45,-36l0 -59c0,-24 13,-36 45,-36 24,0 48,12 48,36 27,-39 -10,-60 -50,-60z"/>
   <path class="fil1" d="M273 1723c-38,0 -46,-14 -46,-38l0 -59c0,-24 8,-38 46,-38 39,0 47,14 47,38l0 59c0,24 -8,38 -47,38zm0 -157c-50,0 -74,21 -74,55l0 69c0,35 24,55 74,55 50,0 74,-20 74,-55l0 -69c0,-34 -24,-55 -74,-55z"/>
   <path class="fil1" d="M472 1566c-20,0 -35,7 -51,7 -7,0 -15,-1 -23,-5l0 159c0,17 28,17 28,17l0 -148c0,0 16,-7 41,-7 30,0 41,12 41,34l0 104c0,16 27,17 27,17l0 -126c0,-41 -32,-52 -63,-52z"/>
   <path class="fil1" d="M650 1645c-15,0 -36,-6 -36,-7l0 -12c0,-24 11,-38 42,-38 28,0 37,12 37,30 0,17 -11,27 -43,27zm6 -79c-44,0 -69,21 -69,55l0 69c0,35 27,55 70,55 34,0 66,-12 66,-36 0,-7 -3,-15 -9,-24 0,24 -25,36 -55,36 -32,0 -45,-12 -45,-36l0 -25c8,6 26,8 38,8 50,0 69,-22 69,-50 0,-31 -22,-52 -65,-52z"/>
   <path class="fil1" d="M838 1566c-44,0 -71,21 -71,55l0 69c0,35 27,55 71,55 43,0 84,-20 56,-60 0,24 -24,36 -54,36 -32,0 -45,-12 -45,-36l0 -59c0,-24 13,-36 45,-36 24,0 48,12 48,36 27,-39 -10,-60 -50,-60z"/>
   <path class="fil1" d="M948 1530l0 160c0,35 23,55 60,55 28,0 56,-11 56,-34 0,-8 -3,-16 -9,-26 0,23 -21,36 -44,36 -27,0 -36,-16 -36,-40l0 -82 55 0c16,0 17,-24 17,-24l-72 0 0 -28c0,-17 -27,-17 -27,-17z"/>
   <path class="fil1" d="M1158 1724c-30,0 -41,-13 -41,-29 0,-40 75,-25 81,-48l0 67c0,0 -15,10 -40,10zm-1 -158c-33,0 -62,12 -62,35 0,8 3,16 9,25 0,-24 22,-36 53,-36 32,0 40,12 40,30 -12,33 -107,9 -107,75 0,37 32,50 63,50 19,0 33,-6 49,-6 7,0 14,1 22,5l0 -123c0,-34 -23,-55 -67,-55z"/>
   <path class="fil1" d="M1351 1566c-20,0 -35,7 -51,7 -7,0 -15,-1 -23,-5l0 159c0,17 28,17 28,17l0 -148c0,0 16,-7 41,-7 30,0 41,12 41,34l0 104c0,16 28,17 28,17l0 -126c0,-41 -33,-52 -64,-52z"/>
   <path class="fil1" d="M1538 1723c-35,0 -45,-12 -45,-37l0 -61c0,-25 16,-37 37,-37 23,0 46,14 46,34l0 93c0,0 -12,8 -38,8zm38 -237l0 0 0 68c0,23 3,31 3,31 0,0 -12,-19 -53,-19 -32,0 -60,20 -60,54l0 71c0,35 25,54 68,54 17,0 32,-6 46,-6 6,0 15,1 23,5l0 -238c0,-20 -23,-20 -27,-20z"/>
   <path class="fil1" d="M1728 1723c-38,0 -46,-14 -46,-38l0 -59c0,-24 8,-38 46,-38 39,0 47,14 47,38l0 59c0,24 -8,38 -47,38zm0 -157c-50,0 -74,21 -74,55l0 69c0,35 24,55 74,55 50,0 74,-20 74,-55l0 -69c0,-34 -24,-55 -74,-55z"/>
   <path class="fil1" d="M2029 1723c-23,0 -46,-14 -46,-33l0 -94c0,0 12,-8 37,-8 36,0 46,13 46,38l0 60c0,26 -16,37 -37,37zm-8 -157c-20,0 -32,6 -45,6 -6,0 -12,-1 -20,-4l0 237c0,20 23,21 27,21 0,0 0,0 0,0l0 -21 0 -47c0,-24 -3,-31 -3,-31 0,0 12,18 53,18 32,0 60,-20 60,-54l0 -70c0,-35 -25,-55 -72,-55z"/>
   <path class="fil1" d="M2204 1645c-15,0 -35,-6 -36,-7l0 -12c0,-24 11,-38 42,-38 28,0 38,12 38,30 0,17 -12,27 -44,27zm6 -79c-43,0 -69,21 -69,55l0 69c0,35 27,55 70,55 34,0 66,-12 66,-36 0,-7 -3,-15 -9,-24 0,24 -25,36 -55,36 -31,0 -45,-12 -45,-36l0 -25c8,6 26,8 38,8 50,0 69,-22 69,-50 0,-31 -22,-52 -65,-52z"/>
   <path class="fil1" d="M2382 1566c-44,0 -67,19 -67,54 0,71 110,22 110,72 0,17 -8,29 -43,29 -36,0 -57,-12 -57,-36 -7,10 -9,19 -9,27 0,23 30,33 66,33 46,0 70,-20 70,-52 0,-79 -110,-33 -110,-73 0,-21 8,-30 40,-30 35,0 53,13 53,36 7,-10 10,-19 10,-27 0,-23 -28,-33 -63,-33z"/>
   <path class="fil1" d="M2553 1566c-43,0 -67,19 -67,54 0,71 110,22 110,72 0,17 -8,29 -43,29 -35,0 -57,-12 -57,-36 -6,10 -9,19 -9,27 0,23 30,33 66,33 47,0 71,-20 71,-52 0,-79 -110,-33 -110,-73 0,-21 7,-30 39,-30 35,0 54,13 54,36 6,-10 9,-19 9,-27 0,-23 -28,-33 -63,-33z"/>
   <path class="fil1" d="M2739 1723c-39,0 -47,-14 -47,-38l0 -59c0,-24 8,-38 47,-38 38,0 46,14 46,38l0 59c0,24 -8,38 -46,38zm0 -157c-51,0 -74,21 -74,55l0 69c0,35 23,55 74,55 50,0 73,-20 73,-55l0 -69c0,-34 -23,-55 -73,-55z"/>
   <path class="fil1" d="M2925 1724c-29,0 -41,-13 -41,-29 0,-40 75,-25 81,-48l0 67c0,0 -15,10 -40,10zm0 -158c-34,0 -63,12 -63,35 0,8 3,16 9,25 0,-24 22,-36 54,-36 31,0 39,12 39,30 -12,33 -107,9 -107,75 0,37 32,50 63,50 19,0 33,-6 49,-6 7,0 14,1 23,5l0 -123c0,-34 -24,-55 -67,-55z"/>
   <path class="fil1" d="M3101 1566c-43,0 -67,19 -67,54 0,71 110,22 110,72 0,17 -7,29 -43,29 -35,0 -56,-12 -56,-36 -7,10 -10,19 -10,27 0,23 30,33 66,33 47,0 71,-20 71,-52 0,-79 -110,-33 -110,-73 0,-21 8,-30 39,-30 36,0 54,13 54,36 7,-10 10,-19 10,-27 0,-23 -28,-33 -64,-33z"/>
   <path class="fil1" d="M93 1922c-44,0 -71,21 -71,55l0 69c0,35 27,56 71,56 43,0 84,-21 56,-61 0,24 -25,37 -54,37 -32,0 -45,-13 -45,-37l0 -58c0,-24 13,-37 45,-37 24,0 48,13 48,37 27,-40 -10,-61 -50,-61z"/>
   <path class="fil1" d="M273 2079c-38,0 -46,-14 -46,-38l0 -58c0,-24 8,-38 46,-38 39,0 47,14 47,38l0 58c0,24 -8,38 -47,38zm0 -157c-50,0 -74,21 -74,55l0 69c0,35 24,56 74,56 50,0 74,-21 74,-56l0 -69c0,-34 -24,-55 -74,-55z"/>
   <path class="fil1" d="M472 1922c-20,0 -35,8 -51,8 -7,0 -15,-2 -23,-6l0 159c0,17 28,17 28,17l0 -148c0,0 16,-7 41,-7 30,0 41,13 41,34l0 104c0,16 27,17 27,17l0 -126c0,-41 -32,-52 -63,-52z"/>
   <path class="fil1" d="M650 2001c-15,0 -36,-6 -36,-6l0 -12c0,-24 11,-38 42,-38 28,0 37,12 37,29 0,17 -11,27 -43,27zm6 -79c-44,0 -69,21 -69,55l0 69c0,35 27,56 70,56 34,0 66,-13 66,-37 0,-7 -3,-15 -9,-24 0,24 -25,37 -55,37 -32,0 -45,-13 -45,-37l0 -25c8,6 26,9 38,9 50,0 69,-23 69,-51 0,-31 -22,-52 -65,-52z"/>
   <path class="fil1" d="M838 1922c-44,0 -71,21 -71,55l0 69c0,35 27,56 71,56 43,0 84,-21 56,-61 0,24 -24,37 -54,37 -32,0 -45,-13 -45,-37l0 -58c0,-24 13,-37 45,-37 24,0 48,13 48,37 27,-40 -10,-61 -50,-61z"/>
   <path class="fil1" d="M948 1886l0 160c0,35 23,56 60,56 28,0 56,-12 56,-35 0,-8 -3,-16 -9,-26 0,24 -21,37 -44,37 -27,0 -36,-16 -36,-41l0 -82 55 0c16,0 17,-23 17,-23l-72 0 0 -29c0,-17 -27,-17 -27,-17z"/>
   <path class="fil1" d="M1158 2080c-30,0 -41,-13 -41,-28 0,-41 75,-26 81,-49l0 67c0,0 -15,10 -40,10zm-1 -158c-33,0 -62,12 -62,36 0,7 3,15 9,25 0,-24 22,-37 53,-37 32,0 40,13 40,30 -12,33 -107,9 -107,75 0,37 32,51 63,51 19,0 33,-7 49,-7 7,0 14,1 22,5l0 -123c0,-34 -23,-55 -67,-55z"/>
   <path class="fil1" d="M1351 1922c-20,0 -35,8 -51,8 -7,0 -15,-2 -23,-6l0 159c0,17 28,17 28,17l0 -148c0,0 16,-7 41,-7 30,0 41,13 41,34l0 104c0,16 28,17 28,17l0 -126c0,-41 -33,-52 -64,-52z"/>
   <path class="fil1" d="M1538 2079c-35,0 -45,-12 -45,-37l0 -60c0,-26 16,-37 37,-37 23,0 46,13 46,33l0 93c0,0 -12,8 -38,8zm38 -237l0 0 0 68c0,23 3,31 3,31 0,0 -12,-19 -53,-19 -32,0 -60,21 -60,54l0 71c0,35 25,55 68,55 17,0 32,-7 46,-7 6,0 15,1 23,5l0 -237c0,-21 -23,-21 -27,-21z"/>
   <path class="fil1" d="M1728 2079c-38,0 -46,-14 -46,-38l0 -58c0,-24 8,-38 46,-38 39,0 47,14 47,38l0 58c0,24 -8,38 -47,38zm0 -157c-50,0 -74,21 -74,55l0 69c0,35 24,56 74,56 50,0 74,-21 74,-56l0 -69c0,-34 -24,-55 -74,-55z"/>
   <path class="fil1" d="M2029 2079c-23,0 -46,-13 -46,-33l0 -94c0,0 12,-7 37,-7 36,0 46,12 46,37l0 60c0,26 -16,37 -37,37zm-8 -157c-20,0 -32,7 -45,7 -6,0 -12,-2 -20,-5l0 237c0,21 23,21 27,21l0 0 0 -21 0 -47c0,-23 -3,-31 -3,-31 0,0 12,19 53,19 32,0 60,-21 60,-55l0 -70c0,-35 -25,-55 -72,-55z"/>
   <path class="fil1" d="M2210 1922c-19,0 -31,8 -45,8 -6,0 -13,-2 -21,-6l0 159c0,17 28,17 28,17l0 -148c0,0 14,-5 32,-5 20,0 37,9 37,27 6,-9 9,-16 9,-24 0,-18 -16,-28 -40,-28z"/>
   <path class="fil1" d="M2345 2079c-39,0 -47,-14 -47,-38l0 -58c0,-24 8,-38 47,-38 38,0 46,14 46,38l0 58c0,24 -8,38 -46,38zm0 -157c-51,0 -74,21 -74,55l0 69c0,35 23,56 74,56 50,0 73,-21 73,-56l0 -69c0,-34 -23,-55 -73,-55z"/>
   <path class="fil1" d="M2543 2079c-23,0 -46,-13 -46,-33l0 -94c0,0 12,-7 37,-7 36,0 46,12 46,37l0 60c0,26 -16,37 -37,37zm-8 -157c-20,0 -32,7 -45,7 -6,0 -13,-2 -20,-5l0 237c0,21 23,21 27,21l0 0 0 -21 0 -47c0,-23 -3,-31 -3,-31 0,0 12,19 53,19 32,0 60,-21 60,-55l0 -70c0,-35 -25,-55 -72,-55z"/>
   <path class="fil1" d="M2729 2079c-39,0 -47,-14 -47,-38l0 -58c0,-24 8,-38 47,-38 38,0 46,14 46,38l0 58c0,24 -8,38 -46,38zm0 -157c-51,0 -74,21 -74,55l0 69c0,35 23,56 74,56 50,0 73,-21 73,-56l0 -69c0,-34 -23,-55 -73,-55zm18 -85c1,2 2,5 2,7 0,8 -7,16 -15,24l-20 19c-13,12 15,17 15,17l28 -23c28,-23 4,-40 -10,-44z"/>
   <path class="fil1" d="M2911 1922c-44,0 -67,19 -67,54 0,72 110,23 110,72 0,17 -8,30 -43,30 -36,0 -57,-13 -57,-37 -7,11 -9,19 -9,27 0,24 30,34 66,34 46,0 70,-21 70,-52 0,-80 -110,-34 -110,-74 0,-21 8,-30 40,-30 35,0 53,13 53,37 7,-11 10,-20 10,-28 0,-23 -28,-33 -63,-33z"/>
   <path class="fil1" d="M3026 1924l-1 0 0 159c0,17 28,17 28,17l0 -159c0,-17 -26,-17 -27,-17zm21 -61l-22 0 0 22c0,4 3,7 7,7l21 0 0 -23c0,-3 -3,-6 -6,-6z"/>
   <path class="fil1" d="M3108 1886l0 160c0,35 23,56 60,56 27,0 55,-12 55,-35 0,-8 -2,-16 -9,-26 0,24 -20,37 -44,37 -27,0 -35,-16 -35,-41l0 -82 54 0c17,0 17,-23 17,-23l-71 0 0 -29c0,-17 -27,-17 -27,-17z"/>
   <path class="fil1" d="M3327 2079c-39,0 -47,-14 -47,-38l0 -58c0,-24 8,-38 47,-38 38,0 46,14 46,38l0 58c0,24 -8,38 -46,38zm0 -157c-51,0 -74,21 -74,55l0 69c0,35 23,56 74,56 50,0 74,-21 74,-56l0 -69c0,-34 -24,-55 -74,-55z"/>
   <path class="fil1" d="M3509 1922c-44,0 -67,19 -67,54 0,72 110,23 110,72 0,17 -8,30 -43,30 -36,0 -57,-13 -57,-37 -7,11 -9,19 -9,27 0,24 30,34 66,34 46,0 70,-21 70,-52 0,-80 -110,-34 -110,-74 0,-21 8,-30 40,-30 35,0 53,13 53,37 7,-11 10,-20 10,-28 0,-23 -28,-33 -63,-33z"/>
  </g>
 </g>
</svg>
