<?xml version="1.0" encoding="UTF-8"?>
<!DOCTYPE svg PUBLIC "-//W3C//DTD SVG 1.1//EN" "http://www.w3.org/Graphics/SVG/1.1/DTD/svg11.dtd">
<!-- Creator: CorelDRAW X8 -->
<svg xmlns="http://www.w3.org/2000/svg" xml:space="preserve" width="22.7845mm" height="5.9919mm" version="1.1" style="shape-rendering:geometricPrecision; text-rendering:geometricPrecision; image-rendering:optimizeQuality; fill-rule:evenodd; clip-rule:evenodd"
viewBox="0 0 260 68"
 xmlns:xlink="http://www.w3.org/1999/xlink">
 <defs>
  <style type="text/css">
   <![CDATA[
    .str0 {stroke:#E6E6E6;stroke-width:0.869268}
    .fil1 {fill:#FEFEFE;fill-rule:nonzero}
    .fil15 {fill:#FFCE3E;fill-rule:nonzero}
    .fil13 {fill:#F9A631;fill-rule:nonzero}
    .fil17 {fill:#F58634;fill-rule:nonzero}
    .fil7 {fill:#EB7337;fill-rule:nonzero}
    .fil6 {fill:#E4A437;fill-rule:nonzero}
    .fil10 {fill:#D65339;fill-rule:nonzero}
    .fil14 {fill:#C33538;fill-rule:nonzero}
    .fil11 {fill:#C93680;fill-rule:nonzero}
    .fil9 {fill:#B13437;fill-rule:nonzero}
    .fil4 {fill:#BD3378;fill-rule:nonzero}
    .fil8 {fill:#3D322C;fill-rule:nonzero}
    .fil3 {fill:#8560A7;fill-rule:nonzero}
    .fil16 {fill:#423C2F;fill-rule:nonzero}
    .fil12 {fill:#7A3773;fill-rule:nonzero}
    .fil5 {fill:#512A45;fill-rule:nonzero}
    .fil0 {fill:#414242;fill-rule:nonzero}
    .fil2 {fill:#673C81;fill-rule:nonzero}
    .fil18 {fill:#CCCCCC;fill-rule:nonzero}
   ]]>
  </style>
 </defs>
 <g id="Layer_x0020_1">
  <metadata id="CorelCorpID_0Corel-Layer"/>
  <g id="_1693001840656">
   <path class="fil0 str0" d="M56 33c0,0 0,0 0,0 1,0 1,0 1,0 0,0 -1,0 -1,0zm0 -2c0,0 0,1 0,1 1,0 1,-1 0,-1 0,0 0,0 0,0zm0 -2c0,1 0,1 0,1 1,0 0,-1 0,-1 0,0 0,0 0,0zm0 -1c0,0 0,0 0,0 0,0 0,-1 0,-1 0,0 0,0 0,1zm-1 -2c0,0 0,0 1,0 0,0 0,-1 -1,0 0,0 0,0 0,0zm0 -2c0,0 0,0 0,0 0,0 0,0 0,0 0,0 0,0 0,0zm-1 -2c0,1 0,1 0,1 1,0 0,-1 0,-1 0,0 0,0 0,0zm-1 -1c0,0 0,0 1,0 0,0 0,-1 -1,-1 0,1 0,1 0,1zm-1 -2c0,0 0,1 1,0 0,0 0,0 -1,0 0,0 0,0 0,0zm-1 -1c0,0 0,0 1,0 0,0 0,-1 -1,-1 0,0 0,1 0,1zm-1 -2c0,0 0,1 1,0 0,0 -1,0 -1,0 0,0 0,0 0,0zm-1 -1c0,0 0,0 0,0 1,0 0,-1 0,0 0,0 0,0 0,0zm-1 -1c0,0 0,0 0,0 0,-1 0,-1 0,-1 0,0 0,0 0,1zm-2 -2c0,0 1,1 1,0 0,0 -1,0 -1,0 0,0 0,0 0,0zm-1 -1c0,0 0,1 0,0 0,0 0,0 0,0 0,0 0,0 0,0zm-2 -1c0,0 1,1 1,0 0,0 -1,0 -1,0 0,0 0,0 0,0zm-1 -1c0,0 0,1 0,0 0,0 0,0 0,0 0,0 0,0 0,0zm-2 0c0,0 0,0 0,0 1,-1 0,-1 0,-1 0,0 0,1 0,1zm-2 -1c0,0 1,0 1,0 0,0 -1,-1 -1,0 0,0 0,0 0,0zm-1 -1c0,1 0,1 0,0 0,0 -1,0 -1,0 0,0 0,0 1,0zm-2 0c0,0 0,0 0,0 0,0 0,0 0,0 0,0 0,0 0,0zm-2 0c0,0 0,0 0,0 0,-1 0,-1 0,0 0,0 0,0 0,0zm-2 0c0,0 1,0 1,-1 0,0 -1,0 -1,0 0,1 0,1 0,1zm-2 0c0,0 1,0 1,-1 0,0 -1,0 -1,0 0,1 0,1 0,1zm-2 0c1,0 1,0 1,-1 0,0 -1,0 -1,1 0,0 0,0 0,0l0 0zm-1 0c0,0 0,0 0,0 0,-1 -1,-1 -1,0 0,0 1,0 1,0zm-2 0c0,0 0,0 0,0 0,0 0,0 0,0 0,0 0,0 0,0zm-2 1c0,0 1,0 0,-1 0,0 0,0 0,1 0,0 0,0 0,0zm-2 0c1,0 1,0 1,0 0,0 -1,0 -1,0 0,0 0,0 0,0zm-1 1c0,0 0,0 0,0 0,-1 -1,0 -1,0 0,0 1,0 1,0zm-2 1c0,0 0,0 0,0 0,-1 0,0 0,0 0,0 0,0 0,0zm-1 1c0,0 0,0 0,-1 0,0 -1,1 -1,1 0,0 0,0 1,0zm-2 1c0,0 0,0 0,-1 0,0 0,1 0,1 0,0 0,0 0,0zm-1 1c0,0 0,0 0,0 0,-1 -1,0 -1,0 0,0 0,0 1,0zm-2 1c0,0 1,0 0,0 0,0 0,0 0,0 0,0 0,0 0,0zm-1 2c0,-1 0,-1 0,-1 0,0 -1,0 0,1 0,0 0,0 0,0zm-1 1c0,0 0,0 0,0 0,-1 -1,0 0,0 0,0 0,0 0,0zm-1 1c0,0 0,0 0,0 0,0 -1,0 -1,1 1,0 1,0 1,-1zm-1 2c0,0 0,0 0,0 0,-1 -1,0 0,0 0,0 0,0 0,0zm-1 2c0,-1 0,-1 0,-1 0,0 -1,1 0,1 0,0 0,0 0,0zm-1 1c0,0 0,0 0,0 0,0 0,0 0,0 0,0 0,0 0,0zm0 2c0,0 0,0 0,0 -1,-1 -1,0 -1,0 0,0 1,0 1,0zm-1 2c0,0 0,-1 0,-1 0,0 0,1 0,1 0,0 0,0 0,0zm0 2c0,-1 0,-1 0,-1 -1,0 -1,1 -1,1 1,0 1,0 1,0zm-1 1c0,0 1,0 0,0 0,0 0,1 0,1 0,0 0,-1 0,-1zm0 2c0,0 0,0 0,0 0,0 0,0 0,0 0,0 0,0 0,0zm0 2c0,0 0,0 0,0 0,0 0,0 0,0 0,0 0,0 0,0zm0 2c0,0 0,-1 0,-1 0,0 0,1 0,1 0,0 0,0 0,0zm1 2c0,-1 0,-1 -1,-1 0,0 0,1 1,1 0,0 0,0 0,0zm0 1c0,0 0,0 0,0 0,0 0,1 0,1 0,0 0,0 0,-1zm1 2c0,0 0,0 -1,0 0,0 0,1 0,0 1,0 1,0 1,0zm0 2c0,0 0,0 0,0 0,0 0,0 0,0 0,0 0,0 0,0zm1 2c0,-1 0,-1 0,-1 -1,0 0,1 0,1 0,0 0,0 0,0zm1 1c0,0 0,0 -1,0 0,0 0,1 1,0 0,0 0,0 0,0zm1 2c0,0 0,-1 -1,0 0,0 0,0 1,0 0,0 0,0 0,0zm1 1c0,0 0,0 -1,0 0,0 1,1 1,1 0,-1 0,-1 0,-1zm1 2c0,0 0,-1 0,-1 -1,1 0,1 0,1 0,0 0,0 0,0zm1 1c0,0 0,0 0,0 0,0 0,0 0,0 0,0 0,0 0,0zm2 1c-1,0 -1,0 -1,0 0,0 0,1 1,0 0,0 0,0 0,0l0 0zm1 1c0,0 0,0 0,0 -1,0 0,1 0,1 0,0 0,-1 0,-1zm2 1c-1,0 -1,0 -1,0 0,1 0,1 1,1 0,0 0,-1 0,-1zm1 1c0,0 0,0 0,0 0,1 0,1 0,1 0,-1 0,-1 0,-1zm2 1c0,0 -1,0 -1,0 0,0 1,1 1,0 0,0 0,0 0,0zm1 1c0,0 0,0 0,0 0,0 0,0 1,0 0,0 0,0 -1,0zm2 0c0,0 0,0 0,0 0,1 0,1 0,1 0,0 0,-1 0,-1zm2 1c0,0 0,0 -1,0 0,0 1,0 1,0 0,0 0,0 0,0zm2 0c0,0 -1,0 -1,0 0,1 1,1 1,0 0,0 0,0 0,0zm2 0c-1,0 -1,0 -1,1 0,0 1,0 1,0 0,0 0,-1 0,-1zm1 1c0,0 0,-1 0,0 0,0 1,0 1,0 0,0 -1,0 -1,0zm2 -1c0,0 0,0 0,1 0,0 0,0 0,0 0,0 0,-1 0,-1zm2 0c0,0 0,0 0,1 0,0 0,0 0,0 0,-1 0,-1 0,-1zm2 0c0,0 -1,0 -1,0 0,1 1,0 1,0 0,0 0,0 0,0zm2 0c-1,0 -1,0 -1,0 0,0 1,0 1,0 0,0 0,0 0,0zm1 -1c0,0 0,0 0,0 0,1 1,1 1,0 0,0 -1,0 -1,0zm2 -1c0,1 0,1 0,1 0,0 0,0 0,0 0,-1 0,-1 0,-1zm2 0c0,0 -1,0 -1,0 1,0 1,0 1,0 0,0 0,0 0,0zm1 -1c0,0 0,0 0,0 0,0 1,0 1,0 0,0 -1,0 -1,0zm2 -1c0,0 -1,0 0,0 0,0 0,0 0,0 0,0 0,0 0,0l0 0zm1 -1c0,0 0,0 0,0 0,0 1,0 1,0 -1,0 -1,0 -1,0zm2 -1c0,0 -1,0 0,0 0,0 0,0 0,0 0,-1 0,-1 0,0l0 0zm1 -2c0,0 0,1 0,1 0,0 0,-1 0,-1 0,0 0,0 0,0zm1 -1c0,0 0,0 0,0 0,1 1,0 0,0 0,0 0,0 0,0zm1 -2c0,1 0,1 0,1 0,0 1,0 1,-1 -1,0 -1,0 -1,0zm1 -1c0,0 0,0 0,0 1,1 1,0 1,0 -1,0 -1,0 -1,0l0 0zm1 -2c0,1 0,1 0,1 0,0 1,-1 0,-1 0,0 0,0 0,0zm1 -1c0,0 0,0 0,0 0,0 1,0 0,0 0,0 0,0 0,0zm1 -2c0,0 0,0 0,0 0,1 0,0 0,0 0,0 0,0 0,0zm0 -2c0,0 0,1 0,1 1,0 1,-1 0,-1 0,0 0,0 0,0zm1 -1c0,0 0,0 0,0 0,0 0,-1 0,-1 0,0 0,0 0,1zm0 -2c0,0 0,0 0,0 0,0 1,0 0,0 0,0 0,0 0,0zm0 -2c0,0 0,0 0,0 1,0 1,0 0,0 0,0 0,0 0,0z"/>
   <path class="fil1" d="M55 21c2,-2 3,-4 4,-8 0,0 -4,6 -12,6 0,0 8,-2 11,-8 0,0 1,-1 -2,-6 0,0 -3,-3 -3,-5 0,0 -5,14 -12,23 0,0 0,0 0,0 0,0 0,0 0,0l0 1c0,0 -1,0 -1,0l0 0c0,0 0,0 0,0l-1 1c0,0 0,1 0,1l0 0c-1,0 -1,1 -1,1l-1 1c0,0 0,0 0,0l0 0c0,0 0,1 0,1l0 0 0 0 0 0c-2,2 -6,6 -8,8 0,0 -1,1 -2,2l0 0c-1,0 -1,1 -1,1 -2,1 -3,3 -5,4 -14,11 -21,14 -21,14 0,1 2,0 2,0 3,-2 10,-6 10,-6 5,-3 7,-1 7,-1 4,1 7,0 7,0 -4,0 -5,-2 -5,-2 7,3 8,1 8,1 -4,0 -5,-2 -5,-2 7,2 11,-1 14,-3 4,-2 7,-4 11,-9 0,0 -6,5 -13,4 8,-1 14,-6 14,-6 -11,4 -16,-1 -16,-1 3,2 4,2 7,2 10,0 11,-5 11,-5 -4,3 -7,1 -7,1 5,-2 8,-6 10,-10z"/>
   <g>
    <path class="fil2" d="M1 58c0,0 0,0 0,0 0,0 0,0 0,0zm-1 0c0,0 0,0 1,0 -1,0 -1,0 -1,0zm12 -6l0 0 0 0zm0 0c0,0 0,0 0,0 0,0 0,0 0,0zm11 0c0,0 0,0 0,0 0,0 0,0 0,0zm-4 -1c2,0 3,1 4,1 -1,0 -2,-1 -4,-1zm0 0c0,0 0,0 0,0 0,0 0,0 0,0zm8 0l0 0 0 0zm-10 -1c2,0 2,1 2,1 0,0 0,-1 -2,-1zm0 0l0 0 0 0zm4 -1c3,1 5,2 6,2 -1,0 -3,-1 -6,-2zm0 0c0,0 0,0 0,0 0,0 0,0 0,0zm0 0c0,0 0,0 0,0 0,0 0,0 0,0zm3 -1c1,0 2,0 3,0 -1,0 -2,0 -3,0zm12 -2c0,0 0,0 0,0 0,0 0,0 0,0zm0 0c0,0 0,0 0,0 0,0 0,0 0,0zm2 -1l0 0c-1,0 -1,1 -2,1 1,0 1,-1 2,-1z"/>
   </g>
   <path class="fil2" d="M21 44l0 0c-14,11 -21,14 -21,14 0,0 0,0 0,0 0,0 0,0 1,0l0 0c0,0 0,0 0,0 0,0 1,0 1,0 3,-2 10,-6 10,-6 0,0 0,0 0,0l0 0c0,0 0,0 0,0 0,0 0,0 0,0 2,-1 4,-2 5,-2l0 0 0 0c2,0 2,1 2,1 0,0 0,0 0,0 0,0 0,0 0,0 0,0 0,0 0,0 2,0 3,1 4,1 0,0 0,0 0,0 0,0 0,0 0,0 2,0 3,-1 3,-1 -4,0 -5,-2 -5,-2 0,0 0,0 0,0 0,0 0,0 0,0 0,0 0,0 0,0 0,0 0,0 0,0 0,0 0,0 0,0 3,1 5,2 6,2 0,0 0,0 0,0l0 0c2,0 2,-1 2,-1 -4,0 -5,-2 -5,-2 0,0 0,0 0,0 1,0 2,0 3,0 0,1 1,1 2,1 3,0 5,-2 7,-3 0,0 0,0 0,0 0,0 0,0 0,0 0,0 0,0 0,0 0,0 0,0 0,0 1,0 1,-1 2,-1 -3,0 -5,1 -7,1 -6,0 -10,-2 -10,-2zm5 -4c-2,1 -3,3 -5,4 0,0 0,0 0,0 1,-1 3,-3 5,-4z"/>
   <path class="fil1" d="M40 4c-5,8 -3,15 -3,15 -2,-2 -1,-12 -1,-12 -1,4 -2,8 -2,11 0,-3 0,-7 1,-10 0,0 -4,3 -6,10 -1,1 -3,3 -3,6 0,0 0,-4 -1,-5 0,0 0,3 -2,5 0,0 -2,6 -1,12 0,0 -1,-3 0,-10 0,0 -1,1 -1,3 0,-1 0,-1 0,-2 0,0 -1,2 -3,5 0,0 -2,2 -1,8 0,0 -2,-2 -1,-8 0,0 -3,3 -3,10 0,0 1,4 -1,8 0,0 4,-3 8,-7 1,-1 2,-2 3,-2 2,-2 4,-4 6,-6l0 0c0,0 0,0 0,0l0 0c2,-2 4,-4 6,-7l0 0c1,0 1,-1 2,-1 0,0 0,0 0,0l0 0c10,-12 16,-27 16,-27 -1,1 -6,1 -6,1 -6,0 -7,3 -7,3z"/>
   <g>
    <path class="fil3" d="M12 50l0 0 0 0zm0 0l0 0zm0 0c0,0 0,0 0,0 0,0 0,0 0,0zm0 0c0,0 0,0 0,0 0,0 0,0 0,0zm0 0c0,0 0,0 0,0 0,0 0,0 0,0zm0 0c0,0 0,0 0,0 0,0 0,0 0,0zm11 -9c0,0 0,0 0,0 -1,0 -2,1 -3,2 0,0 0,0 0,0 -4,4 -8,7 -8,7 0,0 6,-4 11,-9zm-2 -14c0,0 0,0 0,0l0 0z"/>
   </g>
   <path class="fil3" d="M23 41c-1,1 -3,2 -3,2 1,-1 2,-2 3,-2zm-2 -14c0,0 0,0 0,0 0,0 -1,2 -3,5 0,0 -2,2 -1,8 0,0 -1,-2 -1,-5 0,-1 0,-2 0,-3 0,0 -3,3 -3,10 0,0 0,0 0,0 0,2 0,5 -1,8 0,0 0,0 0,0l0 0c0,0 0,0 0,0l0 0c0,0 0,0 0,0 0,0 0,0 0,0 0,0 0,0 0,0 0,0 0,0 0,0 0,0 0,0 0,0 0,0 0,0 0,0 0,0 0,0 0,0 0,0 0,0 0,0 0,0 0,0 0,0 0,0 4,-3 8,-7 -2,-5 -1,-11 1,-14 0,-1 0,-1 0,-2 0,0 0,0 0,0 0,0 0,0 0,0z"/>
   <path class="fil4" d="M48 37c-3,4 -6,6 -10,8 0,0 0,0 0,0 4,-2 7,-4 10,-8zm0 0c0,0 0,0 0,0 0,0 0,0 0,0zm0 0c0,0 0,0 0,0 0,0 0,0 0,0zm0 0c0,0 0,0 0,0 0,0 0,0 0,0zm0 0c0,0 0,0 0,0 0,0 0,0 0,0zm0 -1c0,0 0,0 0,1 0,-1 0,-1 0,-1zm0 0c0,0 0,0 0,0 0,0 0,0 0,0zm0 0c0,0 0,0 0,0 0,0 0,0 0,0zm0 0c0,0 0,0 0,0 0,0 0,0 0,0zm1 0c0,0 0,0 0,0 0,0 0,0 0,0zm0 0c0,0 0,0 0,0 0,0 0,0 0,0z"/>
   <path class="fil4" d="M49 36l0 0c0,0 -5,4 -11,4 -1,0 -1,0 -2,0 -1,0 -1,0 -2,0 -3,0 -5,0 -7,-1 -1,0 -1,1 -1,1 0,0 4,3 10,3 1,0 2,0 3,0 0,0 0,1 -1,2 4,-2 7,-4 10,-8l0 0c0,0 0,0 0,0 0,0 0,0 0,0 0,0 0,0 0,0l0 0c0,0 0,0 0,0 0,0 0,0 0,0 0,0 0,0 0,0 0,0 0,0 0,0 0,-1 0,-1 0,-1 0,0 0,0 0,0 0,0 0,0 0,0l0 0c0,0 0,0 0,0 0,0 0,0 0,0 0,0 0,0 0,0 0,0 1,0 1,0 0,0 0,0 0,0 0,0 0,0 0,0 0,0 0,0 0,0z"/>
   <path class="fil5" d="M38 45l0 0c0,0 0,0 0,0l0 0c0,0 0,0 0,0l0 0z"/>
   <path class="fil5" d="M26 40c-2,1 -4,3 -5,4 0,0 4,2 10,2 2,0 4,-1 7,-1 0,0 0,0 0,0 1,-1 1,-2 1,-2 -1,0 -2,0 -3,0 -6,0 -10,-3 -10,-3z"/>
   <path class="fil4" d="M28 38c0,0 -1,1 -1,1 0,0 0,0 0,0 0,0 1,-1 1,-1zm0 0c0,0 0,0 0,0 0,0 0,0 0,0zm0 0c0,0 0,0 0,0 0,0 0,0 0,0zm1 -1c0,0 0,0 0,0 0,0 0,0 0,0zm0 0c0,0 0,0 0,0 0,0 0,0 0,0zm0 0c0,0 0,0 0,0 0,0 0,0 0,0zm0 0c0,0 0,0 0,0 0,0 0,0 0,0zm0 0c0,0 0,0 0,0 0,0 0,0 0,0zm0 0c0,0 0,0 0,0 0,0 0,0 0,0zm0 0c0,0 0,0 0,0 0,0 0,0 0,0z"/>
   <path class="fil4" d="M29 37c0,0 0,0 0,0 0,0 0,0 0,0 0,0 0,0 0,0 0,0 0,0 0,0l0 0c0,0 0,0 0,0 0,0 0,0 0,0 0,0 0,0 0,0 0,0 0,0 0,0 0,0 0,0 0,0 0,0 0,0 0,0 0,0 0,0 0,0 -1,0 -1,1 -1,1 0,0 0,0 0,0 0,0 0,0 0,0 0,0 0,0 0,0 0,0 0,0 0,0 0,0 -1,1 -1,1 0,0 0,-1 2,-2z"/>
   <g>
    <path class="fil6" d="M58 13c0,4 -1,6 -3,8 0,0 0,0 0,0 2,-2 3,-4 3,-8zm0 0c0,0 0,0 0,0 0,0 0,0 0,0zm0 0c0,0 0,0 0,0 0,0 0,0 0,0zm0 0c0,0 0,0 0,0 0,0 0,0 0,0zm0 0c0,0 0,0 0,0 0,0 0,0 0,0zm0 0c0,0 0,0 0,0 0,0 0,0 0,0zm0 0c0,0 0,0 0,0 0,0 0,0 0,0zm1 0c-1,0 -1,0 -1,0 0,0 0,0 1,0zm-6 -13c0,0 0,0 0,0 0,0 0,0 0,0zm0 0l0 0 0 0zm0 0c0,0 0,0 0,0 0,0 0,0 0,0zm0 0l0 0c0,0 0,0 0,0 0,0 0,0 0,0 0,2 3,5 3,5 2,3 2,4 2,5 0,-1 0,-2 -2,-5 0,0 -3,-3 -3,-5z"/>
   </g>
   <path class="fil6" d="M53 0c0,0 0,0 0,0 0,0 0,0 0,0 0,0 0,0 0,0 0,0 0,0 0,0l0 0c0,0 0,0 0,0 0,0 0,0 0,0 0,0 -5,14 -12,23 1,-1 1,-1 2,-1 0,0 1,-1 6,-2 0,0 5,0 8,-4 0,0 0,2 -2,5 2,-2 3,-4 3,-8 0,0 0,0 0,0 0,0 0,0 0,0 0,0 0,0 0,0 0,0 0,0 0,0 0,0 0,0 0,0 0,0 0,0 0,0 0,0 0,0 0,0 0,0 0,0 0,0 0,0 0,0 0,0 0,0 0,0 0,0 0,0 0,0 0,0 0,0 0,0 0,0 0,0 0,0 0,0 0,0 0,0 1,0 0,0 0,0 0,0 0,0 -4,6 -12,6 0,0 8,-2 11,-8 0,0 0,0 0,-1 0,-1 0,-2 -2,-5 0,0 -3,-3 -3,-5z"/>
   <path class="fil7" d="M54 23c-2,3 -4,6 -9,8 5,-2 7,-5 9,-8 0,0 0,0 0,0zm1 -2c0,0 0,0 0,0 0,1 0,1 -1,1 0,0 0,0 0,0 1,0 1,0 1,-1z"/>
   <path class="fil8" d="M54 22c0,0 0,1 0,1 0,0 0,0 0,0 0,0 0,-1 0,-1 0,0 0,0 0,0z"/>
   <g>
    <path class="fil7" d="M41 36c0,0 0,0 0,0l0 0c0,0 0,0 0,0zm0 0c0,0 0,0 0,0 0,0 0,0 0,0zm0 -1c0,0 0,0 0,0 0,0 0,0 0,0zm0 0c0,0 0,0 0,0 0,0 0,0 0,0zm8 -1c0,0 0,0 0,0 0,0 0,0 0,0zm1 0c0,0 -6,5 -14,6 0,0 0,0 0,0 8,-1 14,-6 14,-6zm0 0c0,0 0,0 0,0 0,0 0,0 0,0zm0 0l0 0 0 0zm0 0c0,0 0,0 0,0 0,0 0,0 0,0l0 0zm0 0c0,0 0,0 0,0 0,0 0,0 0,0l0 0zm0 0c0,0 0,0 0,0 0,0 0,0 0,0zm0 0c0,0 -1,0 -1,0 0,0 1,0 1,0zm-16 -1c0,0 3,3 7,3 -4,0 -7,-3 -7,-3zm13 -1c0,0 0,0 0,0 0,0 0,0 0,0zm-2 -1l0 0c0,0 1,1 2,1 -1,0 -2,-1 -2,-1zm0 0c0,0 0,0 0,0 0,0 0,0 0,0zm0 0c0,0 0,0 0,0 0,0 0,0 0,0zm0 0c0,0 0,0 0,0 0,0 0,0 0,0zm0 0c0,0 0,0 0,0 0,0 0,0 0,0zm0 0c0,0 0,0 0,0 0,0 0,0 0,0zm0 0c0,0 0,0 0,0 0,0 0,0 0,0zm0 0c0,0 0,0 0,0 0,0 0,0 0,0zm0 0c0,0 0,0 0,0 0,0 0,0 0,0zm0 0c0,0 0,0 0,0 0,0 0,0 0,0zm0 0c0,0 0,0 0,0 0,0 0,0 0,0zm0 0c0,0 0,0 0,0 0,0 0,0 0,0zm0 0c0,0 0,0 0,0 0,0 0,0 0,0zm0 0c0,0 0,0 0,0 0,0 0,0 0,0zm0 0c0,0 0,0 0,0 0,0 0,0 0,0zm-8 -2c0,0 0,0 0,0 -2,2 -6,6 -8,8 2,-2 6,-6 8,-8l0 0 0 0zm0 -1c0,0 0,0 0,1 0,0 0,0 0,0l0 -1c0,0 0,0 0,0zm4 -5l0 0c-1,1 -3,4 -4,5l0 0 3 -3 0 -1c0,0 0,0 0,0l1 0c0,0 0,0 0,0l0 0 0 -1zm0 0c0,0 0,0 0,0 0,0 0,0 0,0 0,0 0,0 0,0z"/>
   </g>
   <path class="fil7" d="M37 29c0,0 0,0 0,0 0,0 0,0 0,0l0 0 0 0zm0 -1l0 0c0,0 0,0 0,0 0,0 0,0 0,0l0 0zm3 -4c0,0 0,0 0,0l0 1 0 -1zm1 0l0 0c0,0 0,0 0,0l0 0zm0 -1c0,0 0,0 0,0 0,0 0,0 0,0 0,0 0,0 0,0 0,0 0,0 0,0 0,0 0,0 0,0zm14 -2c-6,7 -18,8 -18,8 -2,2 -6,6 -8,8 2,2 5,3 7,3 0,0 0,0 0,0 0,0 0,0 0,0 8,-1 14,-6 14,-6 0,0 0,0 0,0 0,0 0,0 0,0 0,0 0,0 0,0l0 0 0 0c0,0 0,0 0,0l0 0c0,0 0,0 0,0l0 0c0,0 0,0 0,0l0 0c0,0 -1,0 -1,0 0,0 0,0 0,0 0,0 0,0 0,0 -3,1 -6,2 -8,2 0,0 0,0 0,0 0,0 0,0 0,0 0,0 0,0 0,0l0 0 0 0c0,0 0,0 0,0 -4,0 -7,-3 -7,-3 3,2 4,2 7,2 0,0 0,0 0,0l0 0c0,0 0,0 0,0 10,0 11,-5 11,-5 -2,1 -4,2 -5,2 0,0 0,0 0,0l0 0c-1,0 -2,-1 -2,-1 0,0 0,0 0,0 0,0 0,0 0,0 0,0 0,0 0,0 0,0 0,0 0,0 0,0 0,0 0,0 0,0 0,0 0,0 0,0 0,0 0,0 0,0 0,0 0,0 0,0 0,0 0,0 0,0 0,0 0,0 0,0 0,0 0,0 0,0 0,0 0,0 0,0 0,0 0,0 0,0 0,0 0,0 0,0 0,0 0,0 0,0 0,0 0,0 0,0 0,0 0,0 0,0 0,0 0,0 0,0 0,0 0,0 0,0 0,0 0,0 0,0 0,0 0,0 0,0 0,0 0,0 0,0 0,0 0,0 0,0 0,0 0,0 0,0 0,0 0,0 0,0 0,0 0,0 0,0 0,0 0,0 0,0 0,0 0,0 5,-2 7,-5 9,-8 0,0 0,-1 0,-1 1,0 1,0 1,-1z"/>
   <path class="fil7" d="M27 39c0,0 0,0 0,0l0 0c0,0 0,0 0,0z"/>
   <path class="fil7" d="M27 39l0 0c0,0 0,0 0,0z"/>
   <path class="fil9" d="M27 39c0,0 0,0 0,0 0,0 0,0 0,0l0 0c0,0 0,0 0,0z"/>
   <path class="fil9" d="M29 37l0 0c-2,1 -2,2 -2,2 0,0 0,0 0,0l0 0 0 0c2,1 4,1 7,1 1,0 1,0 2,0 -2,0 -5,-1 -7,-3z"/>
   <path class="fil10" d="M37 29l0 0 0 0 0 0 0 0zm0 -1l0 1c0,-1 0,-1 0,-1l0 0c0,0 0,0 0,0zm3 -3l-3 3 1 -1c0,0 0,-1 1,-1l0 0c0,0 0,-1 0,-1l1 0zm1 -1l-1 0c0,0 0,0 0,0l0 0c0,0 1,0 1,0zm0 -1l0 0 0 1 0 -1c0,0 0,0 0,0zm14 -2c0,0 0,0 0,0 0,0 0,0 0,0 0,0 0,0 0,0 0,0 0,0 0,0z"/>
   <path class="fil10" d="M57 16c-3,4 -8,4 -8,4 -5,1 -6,2 -6,2 -1,0 -1,0 -2,1 0,0 0,0 0,0 0,0 0,0 0,0l0 1 0 0c0,0 -1,0 -1,0l0 0c0,0 0,0 0,0l0 1 -1 0c0,0 0,1 0,1l0 0c-1,0 -1,1 -1,1l-1 1 0 0c0,0 0,0 0,0l0 0c0,0 0,0 0,1l0 0 0 0 0 0 0 0c0,0 12,-1 18,-8 0,0 0,0 0,0 0,0 0,0 0,0 2,-3 2,-5 2,-5z"/>
   <g>
    <path class="fil11" d="M29 35l0 0c-2,2 -4,4 -6,6 0,0 0,0 0,0 2,-2 4,-4 6,-6zm0 0c0,0 0,0 0,0 0,0 0,0 0,0zm0 0c0,0 0,0 0,0 0,0 0,0 0,0zm-7 -9c0,0 -1,1 -1,3l0 0c0,-2 1,-3 1,-3zm0 0l0 0 0 0zm0 0l0 0 0 0zm0 0l0 0 0 0zm0 0l0 0 0 0zm4 -2c0,0 0,0 0,0 0,0 0,0 0,0zm0 0c0,0 0,0 0,0 0,0 0,0 0,0zm0 0c0,0 0,0 0,0 0,0 0,0 0,0zm0 0c0,0 0,0 0,0 0,0 0,0 0,0zm0 0c0,0 0,0 0,0 0,0 0,0 0,0zm0 0c0,0 0,0 0,0 0,0 0,0 0,0zm0 0c0,0 0,0 0,0 0,0 0,0 0,0zm0 0c0,0 0,0 0,0 0,0 0,0 0,0zm0 -1c0,1 0,1 0,1 0,0 0,0 0,-1zm0 0c0,0 0,0 0,0 0,0 0,0 0,0zm0 0c0,0 0,0 0,0 0,0 0,0 0,0zm0 0c0,0 0,0 0,0 0,0 0,0 0,0zm3 -5c-1,1 -3,3 -3,5 0,-2 2,-4 3,-5 0,0 0,0 0,0z"/>
   </g>
   <path class="fil11" d="M29 18c-1,1 -3,3 -3,5 0,0 0,0 0,0 0,0 0,0 0,0 0,0 0,0 0,0 0,0 0,0 0,0 0,0 0,0 0,0 0,0 0,0 0,0 0,0 0,0 0,0 0,1 0,1 0,1 0,0 0,0 0,0 0,0 0,0 0,0 0,0 0,0 0,0 0,0 0,0 0,0 0,0 0,0 0,0 0,0 0,0 0,0 0,0 0,0 0,0 0,0 0,0 0,0 0,0 0,0 0,0 0,0 0,0 0,0 0,0 0,0 0,0 0,0 0,0 0,0 0,0 0,0 0,0 0,0 0,0 0,0 0,0 0,0 0,0 0,0 0,0 0,0 0,0 0,-1 0,-1 0,-1 -1,-3 -1,-4 0,0 0,3 -2,5 0,0 -1,4 -1,9 0,1 0,2 0,3 0,0 0,-1 0,-4 0,-2 0,-4 0,-6l0 0 0 0c0,0 0,0 0,0l0 0c0,0 0,0 0,0l0 0 0 0 0 0c0,0 0,0 0,0 0,0 -1,1 -1,3l0 0c0,0 0,0 0,0 0,8 2,11 2,11 0,0 0,1 0,1 2,-2 4,-4 6,-6l0 0c0,0 0,0 0,0 0,0 0,0 0,0 0,0 0,0 0,0 0,0 0,0 0,0 0,0 0,0 0,0 0,0 0,0 0,0 -2,-7 -2,-12 0,-17z"/>
   <path class="fil12" d="M20 43c0,0 0,0 0,0l0 0c0,0 0,0 0,0zm3 -2c0,0 0,0 0,0 0,0 0,0 0,0 0,0 0,0 0,0 0,0 0,0 0,0z"/>
   <path class="fil12" d="M21 29c-2,3 -3,9 -1,14l0 0c0,0 0,0 0,0 0,0 2,-1 3,-2 0,0 0,0 0,0 0,0 0,0 0,0 0,0 0,-1 0,-1 0,0 -2,-3 -2,-11z"/>
   <path class="fil13" d="M30 34c0,0 0,1 -1,1l0 0c1,0 1,-1 1,-1zm0 0c0,0 0,0 0,0 0,0 0,0 0,0zm5 -6c-1,1 -2,2 -2,3 0,-1 1,-2 2,-3 0,0 0,0 0,0zm-1 -17l0 0zm0 0c0,0 0,0 0,0 0,0 0,0 0,0zm0 0c0,0 0,0 0,0 0,0 0,0 0,0zm0 0c0,0 0,0 0,0 0,0 0,0 0,0zm0 0c0,0 0,0 0,0 0,0 0,0 0,0zm0 0c0,0 0,0 0,0 0,0 0,0 0,0zm0 0c0,0 0,0 0,0 0,0 0,0 0,0zm0 0c0,0 0,0 0,0 0,0 0,0 0,0zm0 0c0,0 0,0 0,0 0,0 0,0 0,0zm0 0c0,0 0,0 0,0 0,0 0,0 0,0zm0 0c0,0 0,0 0,0 0,0 0,0 0,0zm1 -3c-1,1 -4,4 -6,10 0,0 0,0 0,0 2,-6 5,-9 6,-10zm0 0l0 0c0,1 0,2 -1,3 1,-1 1,-2 1,-3z"/>
   <path class="fil13" d="M35 8c0,0 0,0 0,0 -1,1 -4,4 -6,10 0,-1 1,-1 1,-1 -4,10 -1,17 -1,18l0 0 0 0c1,0 1,-1 1,-1 0,0 0,0 0,0 0,0 0,0 0,0 1,-1 2,-2 3,-3 0,-1 1,-2 2,-3 0,0 -2,-2 -1,-10 0,-2 0,-4 0,-7l0 0c0,0 0,0 0,0 0,0 0,0 0,0 0,0 0,0 0,0 0,0 0,0 0,0 0,0 0,0 0,0 0,0 0,0 0,0 0,0 0,0 0,0 0,0 0,0 0,0 0,0 0,0 0,0 0,0 0,0 0,0 0,0 0,0 0,0 0,0 0,0 0,0 0,0 0,0 0,0 0,0 0,0 0,0 0,0 0,0 0,0 0,0 0,0 0,0 0,0 0,0 0,0 0,0 0,0 0,0 0,0 0,0 0,0 0,0 0,0 0,0l0 0c1,-1 1,-2 1,-3l0 0z"/>
   <path class="fil14" d="M29 18c0,0 0,0 0,0 0,0 0,0 0,0 0,0 0,0 0,0 0,0 0,0 0,0z"/>
   <path class="fil14" d="M30 17c0,0 -1,0 -1,1 0,0 0,0 0,0 0,0 0,0 0,0 -2,5 -2,10 0,17 0,0 0,0 0,0 0,-1 -3,-8 1,-18z"/>
   <path class="fil13" d="M37 27c0,0 0,0 0,0l0 0c0,0 0,0 0,0zm0 0z"/>
   <path class="fil13" d="M37 27l0 0c0,0 0,0 0,0z"/>
   <path class="fil15" d="M47 13c0,0 0,0 0,0 -3,4 -6,9 -10,14 0,0 0,0 0,0 4,-5 7,-10 10,-14zm6 -13c0,0 -2,6 -6,12 0,0 0,0 0,0 4,-6 6,-12 6,-12zm0 0c0,0 0,0 0,0 0,0 0,0 0,0zm0 0c0,0 0,0 0,0 0,0 0,0 0,0zm0 0c0,0 0,0 0,0 0,0 0,0 0,0zm0 0c0,0 0,0 0,0 0,0 0,0 0,0z"/>
   <path class="fil16" d="M47 12c0,0 0,0 0,1 0,0 0,0 0,0 0,-1 0,-1 0,-1 0,0 0,0 0,0z"/>
   <path class="fil15" d="M36 8c-1,4 -2,7 -2,10 0,0 0,0 0,0 0,-3 1,-6 2,-10zm0 -1c0,0 0,0 0,1 0,-1 0,-1 0,-1zm0 0c0,0 0,0 0,0 0,0 0,0 0,0zm0 0c0,0 0,0 0,0 0,0 0,0 0,0zm0 0c0,0 0,0 0,0 0,0 0,0 0,0zm0 0c0,0 0,0 0,0 0,0 0,0 0,0zm0 0c0,0 0,0 0,0 0,0 0,0 0,0zm0 0c0,0 0,0 0,0 0,0 0,0 0,0zm0 0c0,0 0,0 0,0 0,0 0,0 0,0zm0 0c0,0 0,0 0,0 0,0 0,0 0,0zm0 0c0,0 0,0 0,0 0,0 0,0 0,0zm0 0c0,0 0,0 0,0 0,0 0,0 0,0z"/>
   <path class="fil15" d="M53 0c-1,1 -6,1 -6,1 -6,0 -7,3 -7,3 0,0 0,0 0,0 -3,5 -3,10 -3,12 0,2 0,3 0,3 -1,0 -1,-3 -1,-5 0,-3 0,-7 0,-7 0,0 0,0 0,0 0,0 0,0 0,0 0,0 0,0 0,0 0,0 0,0 0,0 0,0 0,0 0,0 0,0 0,0 0,0 0,0 0,0 0,0 0,0 0,0 0,0 0,0 0,0 0,0 0,0 0,0 0,0 0,0 0,0 0,0 0,0 0,0 0,0 0,0 0,0 0,0 0,0 0,0 0,0 0,0 0,0 0,0 0,0 0,0 0,0 0,0 0,0 0,0 0,0 0,0 0,0 0,0 0,0 0,0 0,0 0,0 0,0 0,0 0,0 0,1l0 0c-1,4 -2,7 -2,10 0,0 0,0 0,0l0 0c1,5 3,9 3,9 4,-5 7,-10 10,-14 0,-1 0,-1 0,-1 4,-6 6,-12 6,-12l0 0c0,0 0,0 0,0 0,0 0,0 0,0 0,0 0,0 0,0 0,0 0,0 0,0 0,0 0,0 0,0 0,0 0,0 0,0 0,0 0,0 0,0z"/>
   <path class="fil15" d="M35 28l0 0c0,0 0,0 0,0l0 0zm0 0c0,0 0,0 0,0 0,0 0,0 0,0zm0 0c0,0 0,0 0,0 0,0 0,0 0,0zm2 -1c0,0 0,0 0,0 -1,0 -1,1 -2,1 1,0 1,-1 2,-1z"/>
   <path class="fil15" d="M37 27c-1,0 -1,1 -2,1l0 0c0,0 0,0 0,0 0,0 0,0 0,0 0,0 0,0 0,0 0,0 0,0 0,0 1,0 1,-1 2,-1z"/>
   <path class="fil17" d="M35 28l0 0 0 0 0 0zm2 -1c0,0 0,0 0,0 0,0 0,0 0,0 0,0 0,0 0,0l0 0zm0 0l0 0 0 0 0 0 0 0z"/>
   <path class="fil17" d="M34 18c-1,8 1,10 1,10l0 0 0 0c1,0 1,-1 2,-1 0,0 0,0 0,0 0,0 0,0 0,0l0 0 0 0c0,0 -2,-4 -3,-9z"/>
  </g>
  <g>
   <path class="fil18" d="M89 22c0,0 0,0 0,0l0 29c0,3 4,3 4,3l0 -29c0,-3 -4,-3 -4,-3zm3 -11l-3 0 0 4c0,0 0,1 1,1l3 0 0 -4c0,-1 0,-1 -1,-1z"/>
   <path class="fil18" d="M117 22c-4,0 -7,1 -10,1 -1,0 -2,0 -4,-1l0 29c0,3 5,3 5,3l0 -27c0,0 3,-1 8,-1 5,0 7,2 7,6l0 19c0,3 5,3 5,3l0 -23c0,-7 -6,-9 -11,-9z"/>
   <path class="fil18" d="M138 15l0 29c0,6 5,10 11,10 5,0 10,-2 10,-6 0,-2 0,-3 -1,-5 0,4 -4,7 -8,7 -5,0 -7,-3 -7,-8l0 -14 10 0c3,0 3,-5 3,-5l-13 0 0 -5c0,-3 -5,-3 -5,-3z"/>
   <path class="fil18" d="M176 36c-3,0 -6,-1 -6,-1l0 -3c0,-4 2,-6 7,-6 5,0 7,2 7,5 0,3 -2,5 -8,5zm1 -14c-8,0 -12,3 -12,10l0 12c0,6 5,10 12,10 7,0 12,-2 12,-7 0,-1 0,-2 -1,-4 0,4 -5,7 -10,7 -6,0 -8,-3 -8,-7l0 -4c1,1 4,1 6,1 10,0 13,-4 13,-9 0,-6 -4,-9 -12,-9z"/>
   <path class="fil18" d="M209 40c-6,0 -7,-2 -7,-7l0 -1c0,-5 1,-6 7,-6 5,0 7,1 7,1l0 6c0,5 -1,7 -7,7zm-1 -18c-6,0 -11,2 -11,9l0 3c0,3 1,5 2,7 -2,1 -3,3 -3,6 0,6 6,7 11,7l3 0c5,0 8,0 8,4 0,3 -2,6 -9,6 -7,0 -11,-2 -11,-7 -1,2 -1,4 -1,5 0,4 5,6 12,6 10,0 14,-4 14,-10 0,-8 -7,-9 -13,-9l-2 0c-5,0 -7,0 -7,-3 0,-1 0,-2 0,-4 0,0 3,2 8,2 8,0 12,-3 12,-10l0 -12c-1,0 -3,1 -4,1 -3,0 -5,-1 -9,-1z"/>
   <path class="fil18" d="M242 22c-3,0 -5,1 -8,1 -1,0 -2,0 -4,-1l0 29c0,3 5,3 5,3l0 -27c0,0 3,-1 6,-1 4,0 7,2 7,5 1,-2 1,-3 1,-4 0,-4 -3,-5 -7,-5z"/>
   <path class="fil18" d="M255 22c0,0 0,0 0,0l0 29c0,3 5,3 5,3l0 -29c0,-3 -5,-3 -5,-3zm4 -11l-4 0 0 4c0,0 0,1 1,1l4 0 0 -4c0,-1 -1,-1 -1,-1z"/>
  </g>
 </g>
</svg>
