<?xml version="1.0" encoding="UTF-8"?>
<!DOCTYPE svg PUBLIC "-//W3C//DTD SVG 1.1//EN" "http://www.w3.org/Graphics/SVG/1.1/DTD/svg11.dtd">
<!-- Creator: CorelDRAW X8 -->
<svg xmlns="http://www.w3.org/2000/svg" xml:space="preserve" width="42.6075mm" height="43.6431mm" version="1.1" style="shape-rendering:geometricPrecision; text-rendering:geometricPrecision; image-rendering:optimizeQuality; fill-rule:evenodd; clip-rule:evenodd"
viewBox="0 0 1047 1072"
 xmlns:xlink="http://www.w3.org/1999/xlink">
 <defs>
  <style type="text/css">
   <![CDATA[
    .fil1 {fill:#FEFEFE;fill-rule:nonzero}
    .fil15 {fill:#FFCE3E;fill-rule:nonzero}
    .fil13 {fill:#F9A631;fill-rule:nonzero}
    .fil17 {fill:#F58634;fill-rule:nonzero}
    .fil7 {fill:#EB7337;fill-rule:nonzero}
    .fil6 {fill:#E4A437;fill-rule:nonzero}
    .fil10 {fill:#D65339;fill-rule:nonzero}
    .fil14 {fill:#C33538;fill-rule:nonzero}
    .fil11 {fill:#C93680;fill-rule:nonzero}
    .fil9 {fill:#B13437;fill-rule:nonzero}
    .fil4 {fill:#BD3378;fill-rule:nonzero}
    .fil8 {fill:#3D322C;fill-rule:nonzero}
    .fil3 {fill:#8560A7;fill-rule:nonzero}
    .fil16 {fill:#423C2F;fill-rule:nonzero}
    .fil12 {fill:#7A3773;fill-rule:nonzero}
    .fil5 {fill:#512A45;fill-rule:nonzero}
    .fil0 {fill:#414242;fill-rule:nonzero}
    .fil2 {fill:#673C81;fill-rule:nonzero}
   ]]>
  </style>
 </defs>
 <g id="Layer_x0020_1">
  <metadata id="CorelCorpID_0Corel-Layer"/>
  <path class="fil0" d="M1006 591c0,0 0,0 0,1 0,1 0,2 0,3 0,2 2,4 4,4 2,0 3,-2 3,-4 0,-1 0,-2 0,-3l0 -1c0,-2 -1,-4 -3,-4 -2,0 -4,2 -4,4zm-1 -33c0,1 0,2 0,4 0,2 2,3 4,3 2,0 4,-2 4,-4 -1,-1 -1,-2 -1,-3 0,-2 -2,-4 -4,-4 -2,0 -3,2 -3,4zm-3 -32c0,1 0,2 0,3 0,2 2,4 4,3 2,0 4,-2 3,-4 0,-1 0,-2 0,-3 0,-2 -2,-4 -4,-4 -2,1 -4,3 -3,5zm-6 -33c0,2 0,3 1,4 0,2 2,3 4,3 2,-1 3,-3 3,-5 0,-1 -1,-2 -1,-3 0,-2 -2,-3 -4,-3 -2,0 -3,2 -3,4zm-8 -31c0,1 1,2 1,3 1,2 3,3 5,3 2,-1 3,-3 2,-5 0,-1 -1,-2 -1,-3 0,-2 -2,-3 -4,-3 -2,1 -3,3 -3,5zm-10 -31c0,1 1,2 1,3 1,2 3,3 5,2 2,0 3,-2 2,-4 0,-2 -1,-3 -1,-4 -1,-2 -3,-3 -5,-2 -2,1 -3,3 -2,5zm-12 -31c0,1 1,3 1,4 1,2 3,2 5,2 2,-1 3,-3 2,-5 0,-1 -1,-2 -1,-4 -1,-1 -3,-2 -5,-1 -2,0 -3,3 -2,4zm-14 -29c0,1 1,2 1,3 1,2 4,3 5,2 2,-1 3,-3 2,-5 -1,-1 -1,-2 -2,-3 -1,-2 -3,-3 -5,-2 -2,1 -2,3 -1,5zm-17 -28c1,1 2,2 2,3 1,2 4,2 5,1 2,-1 3,-3 2,-5 -1,-1 -2,-2 -2,-3 -1,-2 -4,-2 -5,-1 -2,1 -3,3 -2,5zm-18 -27c1,1 2,2 2,3 2,1 4,2 6,0 1,-1 2,-3 0,-5 0,-1 -1,-2 -2,-3 -1,-1 -3,-2 -5,0 -1,1 -2,3 -1,5zm-20 -26c1,1 2,2 3,3 1,1 3,1 5,0 1,-1 2,-3 0,-5 0,-1 -1,-2 -2,-3 -1,-1 -4,-2 -5,0 -2,1 -2,3 -1,5zm-21 -25c1,1 1,2 2,3 2,2 4,2 5,0 2,-1 2,-4 1,-5 -1,-1 -2,-2 -3,-3 -1,-1 -4,-1 -5,0 -2,2 -2,4 0,5zm-24 -22c1,0 2,1 3,2 1,1 4,1 5,0 2,-2 1,-4 0,-5 -1,-1 -2,-2 -3,-3 -1,-1 -4,-1 -5,0 -1,2 -1,4 0,6zm-25 -22c1,1 2,2 3,3 2,1 4,1 5,-1 2,-2 2,-4 0,-5 -1,-1 -2,-2 -3,-2 -2,-2 -4,-1 -5,0 -1,2 -1,4 0,5zm-26 -19c1,1 2,1 3,2 2,1 4,1 5,-1 1,-2 1,-4 -1,-5 -1,-1 -2,-1 -3,-2 -1,-1 -4,-1 -5,1 -1,1 0,4 1,5zm-27 -18c1,1 2,1 3,2 2,1 4,1 5,-1 1,-2 0,-4 -1,-5 -1,-1 -2,-1 -4,-2 -1,-1 -4,-1 -5,1 -1,2 0,4 2,5zm-29 -15c1,0 2,1 3,1 2,1 4,0 5,-1 1,-2 0,-4 -1,-5 -1,-1 -3,-1 -4,-2 -1,-1 -4,0 -5,2 -1,1 0,4 2,5zm-30 -14c1,0 3,1 4,1 2,1 4,0 4,-2 1,-1 0,-4 -1,-4 -2,-1 -3,-1 -4,-2 -2,-1 -4,0 -5,2 0,2 0,4 2,5zm-30 -12c1,1 2,1 3,2 2,0 4,-1 5,-3 0,-2 -1,-4 -2,-4 -2,-1 -3,-1 -4,-2 -2,0 -4,1 -5,3 0,2 1,4 3,4zm-32 -9c2,0 3,1 4,1 2,0 4,-1 4,-3 1,-2 0,-4 -2,-4 -1,0 -3,-1 -4,-1 -2,-1 -4,1 -4,2 -1,2 0,4 2,5zm-31 -7c1,0 2,0 3,0 2,1 4,0 4,-2 1,-2 0,-4 -2,-5 -2,0 -3,0 -4,0 -2,-1 -4,1 -4,2 -1,2 1,4 3,5zm-33 -5c1,0 3,0 4,0 2,1 4,-1 4,-3 0,-2 -1,-4 -3,-4 -1,0 -3,0 -4,0 -2,-1 -4,1 -4,3 0,2 1,4 3,4zm-32 -3c1,0 2,0 3,0 2,0 4,-1 4,-3 0,-2 -1,-4 -3,-4 -1,0 -3,0 -4,0 -2,0 -4,1 -4,3 0,2 2,4 4,4zm-33 0c1,0 3,0 4,0 2,0 3,-2 3,-4 0,-2 -1,-4 -3,-4 -2,0 -3,0 -4,0 -2,0 -4,2 -4,4 0,2 2,4 4,4zm-33 1c2,0 3,0 4,0 2,0 4,-2 3,-4 0,-2 -1,-3 -3,-3 -2,0 -3,0 -4,0 -2,0 -4,2 -3,4 0,2 1,3 3,3l0 0zm-32 4c1,0 2,0 4,0 2,-1 3,-2 3,-4 -1,-2 -2,-4 -4,-4 -2,1 -3,1 -4,1 -2,0 -3,2 -3,4 0,2 2,4 4,3zm-32 6c1,0 2,0 4,0 2,-1 3,-3 2,-5 0,-2 -2,-3 -4,-3 -1,1 -2,1 -4,1 -2,1 -3,3 -2,5 0,2 2,3 4,2zm-32 9c2,-1 3,-1 4,-1 2,-1 3,-3 2,-5 0,-2 -2,-3 -4,-2 -1,0 -3,0 -4,1 -2,0 -3,2 -2,4 0,2 2,3 4,3zm-30 10c1,0 2,0 3,-1 2,-1 3,-3 2,-5 -1,-2 -3,-2 -5,-2 -1,1 -2,1 -3,2 -2,0 -3,2 -2,4 1,2 3,3 5,2zm-30 13c1,0 2,-1 3,-1 2,-1 2,-3 2,-5 -1,-2 -3,-3 -5,-2 -1,0 -2,1 -4,1 -1,1 -2,3 -1,5 0,2 3,3 5,2zm-30 15c1,-1 3,-1 4,-2 1,-1 2,-3 1,-5 -1,-2 -3,-2 -5,-1 -1,0 -2,1 -3,1 -2,1 -3,4 -2,5 1,2 4,3 5,2zm-28 16c1,0 2,-1 3,-2 2,-1 3,-3 2,-5 -2,-1 -4,-2 -5,-1 -2,1 -3,2 -4,2 -1,1 -2,4 -1,5 1,2 4,3 5,1zm-26 19c1,-1 1,-1 2,-2 2,-1 2,-4 1,-5 -1,-2 -3,-2 -5,-1 -1,1 -2,1 -3,2 -1,1 -2,4 -1,5 2,2 4,2 6,1zm-26 20c1,0 2,-1 3,-2 1,-1 2,-4 0,-5 -1,-2 -3,-2 -5,-1 -1,1 -2,2 -3,3 -1,1 -1,3 0,5 1,2 4,2 5,0zm-24 23c1,-1 2,-2 3,-3 1,-1 1,-4 0,-5 -2,-2 -4,-2 -6,0 0,1 -1,1 -2,2 -2,2 -2,4 0,5 1,2 4,2 5,1l0 0zm-22 23c0,-1 1,-2 2,-3 1,-1 1,-3 0,-5 -2,-1 -4,-1 -5,1 -1,1 -2,1 -3,2 -1,2 -1,4 0,6 2,1 4,1 6,-1zm-21 25c0,-1 1,-2 2,-2 1,-2 1,-4 -1,-6 -1,-1 -4,-1 -5,1 -1,1 -1,2 -2,3 -1,2 -1,4 1,5 1,1 3,1 5,-1zm-19 27c0,-1 1,-2 2,-3 1,-2 0,-4 -1,-5 -2,-1 -4,-1 -5,1 -1,1 -2,2 -2,3 -2,2 -1,4 1,5 1,1 4,1 5,-1zm-17 28c0,-1 1,-2 1,-3 1,-2 1,-4 -1,-5 -2,-1 -4,-1 -5,1 -1,1 -1,2 -2,3 -1,2 0,4 2,5 1,1 4,1 5,-1zm-16 29c1,-1 1,-2 2,-4 1,-1 0,-4 -2,-4 -2,-1 -4,-1 -5,1 0,1 -1,2 -1,4 -1,1 0,4 1,4 2,1 4,1 5,-1zm-13 30c1,-1 1,-3 2,-4 0,-2 -1,-4 -2,-4 -2,-1 -4,0 -5,2 -1,1 -1,2 -2,3 0,2 1,4 2,5 2,0 4,0 5,-2zm-11 31c1,-2 1,-3 1,-4 1,-2 0,-4 -2,-5 -2,0 -4,1 -5,3 0,1 0,2 -1,3 0,2 1,4 3,5 1,0 4,-1 4,-2zm-9 31c1,-1 1,-2 1,-4 1,-2 -1,-4 -2,-4 -2,-1 -4,1 -5,3 0,1 -1,2 -1,3 0,2 1,4 3,5 2,0 4,-1 4,-3zm-6 32c0,-1 0,-2 0,-4 1,-2 -1,-4 -3,-4 -2,0 -4,1 -4,3 0,1 0,2 -1,4 0,2 1,4 3,4 2,0 4,-1 5,-3zm-5 32c0,-1 0,-2 1,-3 0,-2 -2,-4 -4,-4 -2,-1 -3,1 -4,3 0,1 0,2 0,4 0,2 1,3 3,4 2,0 4,-2 4,-4zm-2 33c0,-1 0,-3 0,-4 0,-2 -1,-4 -3,-4 -2,0 -4,2 -4,4 0,1 0,2 0,4 0,2 1,3 3,3 2,0 4,-1 4,-3zm0 32c0,-1 0,-2 0,-3 0,-2 -2,-4 -4,-4 -2,0 -3,2 -3,4 0,1 0,3 0,4 0,2 2,3 4,3 2,0 3,-1 3,-4zm2 33c0,-1 0,-2 0,-4 0,-2 -2,-3 -4,-3 -2,0 -4,2 -3,4 0,1 0,3 0,4 0,2 2,3 4,3 2,0 4,-2 3,-4zm5 32c0,-1 -1,-2 -1,-3 0,-2 -2,-4 -4,-3 -2,0 -3,2 -3,4 0,1 0,2 1,4 0,2 2,3 4,3 2,-1 3,-3 3,-5zm7 32c-1,-1 -1,-2 -1,-3 -1,-2 -3,-3 -5,-3 -2,1 -3,3 -2,5 0,1 0,2 0,3 1,2 3,3 5,3 2,-1 3,-3 3,-5zm8 32c0,-1 0,-3 -1,-4 0,-2 -2,-3 -4,-2 -2,1 -3,3 -3,5 1,1 1,2 1,3 1,2 3,3 5,2 2,0 3,-2 2,-4zm12 31c-1,-2 -1,-3 -2,-4 -1,-2 -3,-3 -5,-2 -1,1 -2,3 -2,5 1,1 1,2 2,3 0,2 3,3 4,2 2,0 3,-3 3,-4zm13 29c-1,-1 -1,-2 -2,-3 -1,-2 -3,-3 -5,-2 -2,1 -2,3 -1,5 0,1 1,2 1,4 1,1 3,2 5,1 2,-1 3,-3 2,-5zm15 29c-1,-1 -1,-2 -2,-3 -1,-2 -3,-2 -5,-1 -2,1 -2,3 -1,5 0,1 1,2 2,3 1,2 3,2 5,1 1,-1 2,-3 1,-5zm17 28c-1,-1 -1,-2 -2,-3 -1,-2 -3,-2 -5,-1 -2,1 -2,3 -1,5 1,1 1,2 2,3 1,2 3,2 5,1 2,-1 2,-3 1,-5zm19 26c-1,-1 -1,-1 -2,-2 -1,-2 -4,-2 -5,-1 -2,1 -2,3 -1,5 1,1 2,2 2,3 2,2 4,2 5,1 2,-2 2,-4 1,-6zm21 26c-1,-1 -2,-2 -2,-3 -2,-2 -4,-2 -6,0 -1,1 -1,3 0,5 1,1 2,2 2,2 2,2 4,2 6,1 1,-2 1,-4 0,-5zm22 23c0,-1 -1,-1 -2,-2 -2,-2 -4,-2 -5,0 -2,1 -2,3 0,5 1,1 1,2 2,2 2,2 4,2 5,0 2,-1 2,-3 0,-5zm24 22c0,0 -1,-1 -2,-2 -2,-1 -4,-1 -5,0 -2,2 -2,4 0,6 1,0 2,1 3,2 1,1 4,1 5,0 1,-2 1,-4 -1,-6l0 0zm26 21c-1,-1 -2,-2 -3,-2 -2,-2 -4,-1 -5,0 -1,2 -1,4 1,5 1,1 2,2 3,3 1,1 4,0 5,-1 1,-2 1,-4 -1,-5zm27 18c-1,0 -2,-1 -3,-2 -2,-1 -4,0 -5,1 -1,2 -1,4 1,5 1,1 2,2 3,2 2,2 4,1 5,-1 1,-1 1,-4 -1,-5zm28 17c-1,-1 -2,-1 -3,-2 -2,-1 -4,0 -5,2 -1,1 -1,4 1,5 1,0 2,1 3,1 2,1 4,1 5,-1 1,-2 1,-4 -1,-5zm29 15c-1,-1 -2,-1 -3,-2 -2,-1 -4,0 -5,2 -1,2 0,4 2,5 1,0 2,1 3,1 2,1 4,0 5,-1 1,-2 0,-4 -2,-5zm30 12c-1,0 -2,-1 -3,-1 -2,-1 -4,0 -5,2 0,2 0,4 2,5 1,0 3,1 4,1 2,1 4,0 5,-2 0,-2 -1,-4 -3,-5zm31 11c-1,0 -2,-1 -3,-1 -2,-1 -4,0 -5,2 0,2 1,4 3,5 1,0 2,1 3,1 2,0 4,-1 5,-3 0,-2 -1,-4 -3,-4zm32 8c-1,0 -2,0 -4,-1 -2,0 -4,1 -4,3 0,2 1,4 3,4 1,1 2,1 3,1 2,1 4,0 5,-2 0,-2 -1,-4 -3,-5zm32 6c-1,0 -2,0 -4,0 -2,-1 -3,1 -4,3 0,2 1,4 3,4 1,0 3,0 4,1 2,0 4,-2 4,-4 0,-2 -1,-3 -3,-4zm32 4c-1,0 -2,0 -3,0 -2,0 -4,1 -4,3 0,2 1,4 3,4 1,0 3,0 4,0 2,1 4,-1 4,-3 0,-2 -2,-4 -4,-4zm33 2c-1,0 -2,0 -4,0 -2,0 -3,1 -3,3 0,2 1,4 3,4 2,0 3,0 4,0 2,0 4,-1 4,-3 0,-2 -2,-4 -4,-4zm33 -1c-1,0 -3,0 -4,0 -2,1 -3,2 -3,4 0,2 1,4 3,4 2,0 3,0 4,0 2,-1 4,-2 4,-4 -1,-2 -2,-4 -4,-4zm32 -3c-1,1 -2,1 -3,1 -2,0 -4,2 -4,4 1,2 2,3 4,3 2,0 3,0 4,0 2,-1 4,-2 3,-4 0,-2 -2,-4 -4,-4zm33 -5c-2,1 -3,1 -4,1 -2,0 -3,2 -3,4 0,2 2,4 4,3 2,0 3,0 4,0 2,-1 3,-3 3,-5 -1,-2 -2,-3 -4,-3zm31 -7c-1,0 -2,1 -3,1 -2,1 -3,3 -3,5 1,1 3,3 5,2 1,0 2,0 3,-1 2,0 3,-2 3,-4 -1,-2 -3,-3 -5,-3zm32 -9c-2,0 -3,0 -4,1 -2,1 -3,3 -2,5 1,1 3,2 5,2 1,-1 2,-1 3,-1 2,-1 3,-3 2,-5 0,-2 -2,-3 -4,-2zm30 -12c-1,1 -2,1 -3,2 -2,0 -3,2 -2,4 1,2 3,3 5,2 1,0 2,-1 3,-1 2,-1 3,-3 2,-5 -1,-2 -3,-3 -5,-2zm30 -14c-1,1 -2,2 -3,2 -2,1 -3,3 -2,5 1,2 3,3 5,2 1,-1 2,-1 3,-2 2,-1 3,-3 2,-5 -1,-2 -3,-2 -5,-2zm28 -15c-1,0 -2,1 -3,2 -2,1 -2,3 -1,5 1,1 3,2 5,1 1,-1 2,-1 3,-2 2,-1 2,-3 1,-5 -1,-2 -3,-2 -5,-1zm28 -18c-1,1 -2,2 -3,2 -2,1 -2,4 -1,5 1,2 3,2 5,1 1,0 2,-1 3,-2 2,-1 2,-3 1,-5 -1,-2 -4,-2 -5,-1l0 0zm26 -19c-1,0 -2,1 -3,2 -1,1 -2,3 0,5 1,2 3,2 5,1 1,-1 2,-2 3,-3 1,-1 1,-3 0,-5 -1,-1 -3,-2 -5,0zm25 -22c-1,1 -2,2 -3,3 -1,1 -2,4 0,5 1,2 4,2 5,0 1,-1 2,-1 3,-2 1,-2 1,-4 0,-5 -1,-2 -4,-2 -5,-1l0 0zm23 -22c-1,0 -2,1 -2,2 -2,2 -2,4 0,5 1,2 3,2 5,0 1,-1 2,-2 2,-2 2,-2 2,-4 0,-6 -1,-1 -4,-1 -5,1zm22 -25c-1,1 -2,2 -3,3 -1,1 -1,4 1,5 1,1 4,1 5,0 1,-1 2,-2 2,-3 2,-2 1,-4 0,-5 -2,-2 -4,-1 -5,0zm20 -26c-1,1 -2,2 -2,3 -2,2 -1,4 0,5 2,1 4,1 6,-1 0,-1 1,-2 2,-3 1,-1 0,-3 -1,-5 -2,-1 -4,0 -5,1zm18 -27c-1,1 -1,2 -2,3 -1,2 -1,4 1,5 2,1 4,1 5,-1 1,-1 1,-2 2,-3 1,-2 1,-4 -1,-5 -2,-1 -4,-1 -5,1l0 0zm16 -28c-1,1 -1,2 -2,3 -1,2 0,4 2,5 2,1 4,0 5,-2 0,-1 1,-2 2,-3 0,-2 0,-4 -2,-5 -2,-1 -4,0 -5,2zm14 -30c0,1 -1,2 -1,4 -1,1 0,4 2,4 1,1 4,0 4,-1 1,-2 1,-3 2,-4 1,-2 0,-4 -2,-5 -2,-1 -4,0 -5,2zm12 -30c0,1 0,2 -1,3 -1,2 0,4 2,5 2,1 4,0 5,-2 0,-1 1,-3 1,-4 1,-2 0,-4 -2,-4 -2,-1 -4,0 -5,2zm10 -31c0,1 0,2 -1,3 0,2 1,4 3,5 2,0 4,-1 4,-3 1,-1 1,-2 1,-3 1,-2 0,-4 -2,-5 -2,0 -4,1 -5,3zm8 -32c0,1 0,2 -1,4 0,2 1,3 3,4 2,0 4,-1 5,-3 0,-1 0,-2 0,-4 1,-1 -1,-3 -3,-4 -1,0 -3,1 -4,3zm6 -32c0,1 -1,2 -1,3 0,2 1,4 3,5 2,0 4,-2 4,-4 1,-1 1,-2 1,-3 0,-2 -1,-4 -3,-4 -2,-1 -4,1 -4,3zm3 -33c0,2 0,3 0,4 0,2 1,4 3,4 2,0 4,-1 4,-3 0,-2 0,-3 0,-4 1,-2 -1,-4 -3,-4 -2,0 -4,1 -4,3z"/>
  <g id="_1555291650928">
   <path class="fil1" d="M982 382c33,-37 57,-85 65,-147 0,0 -56,97 -213,108 0,0 152,-44 195,-139 0,0 30,-22 -23,-107 0,0 -52,-66 -58,-97 0,0 -80,244 -210,408 -3,3 -5,5 -5,5 -1,2 -3,4 -5,7l-3 3c0,1 -1,3 -2,4l-2 3c-1,1 -2,2 -3,3l-12 16c-4,6 -9,13 -14,19l-1 2c-3,4 -6,7 -8,11l-18 23c-1,1 -1,2 -2,3l-2 2c0,1 0,1 -1,1l-1 2 0 1 -1 1c-28,35 -103,110 -147,152 0,0 -15,14 -35,32l0 0c-4,4 -10,9 -15,14 -34,29 -55,50 -85,74 -254,207 -376,246 -376,246 1,16 35,0 35,0 53,-22 182,-99 182,-99 79,-51 131,-24 131,-24 65,27 123,4 123,4 -70,-8 -104,-38 -104,-38 133,52 148,20 148,20 -62,0 -87,-41 -87,-41 119,43 205,-14 248,-55 68,-21 137,-66 192,-149 0,0 -91,78 -218,66 145,-19 239,-116 239,-116 -183,89 -275,-1 -275,-1 46,22 63,28 112,28 182,3 212,-98 212,-98 -71,58 -136,34 -136,34 93,-41 148,-118 180,-181z"/>
   <g>
    <path class="fil2" d="M11 1039c-1,0 -1,0 -1,0 0,0 0,0 1,0zm-11 -7c1,5 4,7 9,7 -5,0 -8,-2 -9,-7zm219 -100l0 0 0 0zm1 -1c0,1 -1,1 -1,1 0,0 1,0 1,-1zm195 -9c0,0 0,0 0,0 0,0 0,0 0,0zm-66 -12c24,9 47,12 66,12 -19,0 -42,-3 -66,-12zm-1 -1c0,0 0,1 0,1 0,0 0,-1 0,-1zm136 -4l0 0 0 0zm-174 -3c23,0 37,7 38,7 -1,0 -15,-7 -38,-7zm0 0l0 0 0 0zm63 -25c55,21 89,28 110,28 -21,0 -55,-7 -110,-28zm-1 0c0,0 0,0 1,0 -1,0 -1,0 -1,0zm-3 -2c0,1 1,1 2,1 -1,0 -2,0 -2,-1zm66 -18c16,5 32,9 47,11 -15,-2 -31,-6 -47,-11zm213 -34c0,0 0,0 0,0 0,0 0,0 0,0zm0 -1c0,0 0,0 0,0 0,0 0,0 0,0zm28 -23l0 0c-8,8 -17,16 -28,23 11,-7 20,-15 28,-23z"/>
   </g>
   <path class="fil2" d="M376 786l0 0c-254,207 -376,246 -376,246 0,0 0,0 0,0 1,5 4,7 9,7l1 0c0,0 0,0 1,0 10,-1 24,-7 24,-7 53,-22 182,-99 182,-99 1,0 1,-1 2,-1l0 0c0,0 0,0 0,0 0,0 1,0 1,-1 37,-23 68,-29 90,-29l0 0 0 0c23,0 37,7 38,7 0,0 0,0 0,0 0,0 0,1 0,1 1,0 1,0 1,0 24,9 47,12 66,12 0,0 0,0 0,0 0,0 0,0 0,0 33,0 56,-9 56,-9 -70,-8 -104,-38 -104,-38 1,0 1,0 2,0 0,1 1,1 2,1 0,0 1,1 1,1 0,0 0,0 1,0 0,0 0,0 0,0 55,21 89,28 110,28 0,0 1,0 1,0l0 0c26,0 31,-10 31,-10 -62,0 -87,-41 -87,-41 2,1 5,2 7,3 16,5 32,9 47,11 10,1 20,2 29,2 58,0 104,-23 137,-47 0,0 0,0 0,0 0,-1 0,-1 0,-1 0,0 0,0 0,0 0,0 0,0 0,0 11,-7 20,-15 28,-23 -43,14 -85,19 -124,19 -99,0 -176,-32 -176,-32zm85 -74c-33,29 -54,49 -83,73 -1,0 -1,1 -2,1 17,-13 54,-46 85,-74z"/>
   <path class="fil1" d="M713 71c-81,145 -55,277 -55,277 -29,-41 -7,-224 -7,-224 -22,81 -34,147 -39,199 -7,-54 -5,-117 20,-182 0,0 -81,62 -120,186 -17,20 -41,53 -54,99 0,0 7,-62 -18,-91 0,0 -1,50 -22,94 0,0 -38,115 -18,221 0,0 -28,-59 -1,-192 0,0 -16,24 -31,62 0,-12 0,-25 1,-39 0,0 -11,41 -51,84 0,0 -35,38 -15,148 0,0 -36,-40 -16,-137 0,0 -46,52 -49,169 0,0 6,69 -30,145 0,0 72,-49 156,-119 16,-14 33,-29 50,-44 34,-30 77,-69 103,-94l0 0c4,-4 8,-8 11,-11l0 -1c20,-22 66,-72 102,-111l0 0c9,-11 19,-22 28,-33 1,0 1,-1 1,-1l0 0c175,-206 289,-476 289,-476 -26,13 -112,16 -112,16 -105,3 -123,55 -123,55z"/>
   <g>
    <path class="fil3" d="M208 890l0 0 0 0zm0 0l0 0zm0 0c0,0 0,0 0,0 0,0 0,0 0,0zm0 0c0,0 0,0 0,0 0,0 0,0 0,0zm0 0c0,0 0,0 0,0 0,0 0,0 0,0zm0 0c0,0 0,0 0,0 0,0 0,0 0,0zm206 -163c0,0 0,0 0,0 -17,15 -34,30 -50,44 0,0 0,0 0,0 -81,68 -151,116 -156,119 6,-4 106,-72 206,-163zm-45 -245c0,0 0,0 0,0l0 0z"/>
   </g>
   <path class="fil3" d="M414 727c-27,24 -49,42 -50,44 16,-14 33,-29 50,-44zm-45 -246c0,0 0,0 0,0 -1,3 -13,43 -51,84 0,0 -35,38 -15,148 0,0 -22,-24 -22,-82 0,-16 2,-34 6,-55 0,0 -46,52 -49,169 0,0 0,5 0,14 0,24 -3,75 -30,131 0,0 0,0 0,0l0 0c0,0 0,0 0,0l0 0c0,0 0,0 0,0 0,0 0,0 0,0 0,0 0,0 0,0 0,0 0,0 0,0 0,0 0,0 0,0 0,0 0,0 0,0 0,0 0,0 0,0 0,0 0,0 0,0 0,0 0,0 0,0 5,-3 75,-51 156,-119 -42,-98 -20,-192 4,-251 0,-12 0,-25 1,-38 0,0 0,0 0,0 0,0 0,0 0,-1z"/>
   <path class="fil4" d="M865 656c-55,79 -122,122 -189,143 0,0 0,0 0,0 67,-21 134,-64 189,-143zm0 -1c0,0 0,0 0,1 0,-1 0,-1 0,-1zm1 -1c0,0 -1,1 -1,1 0,0 1,-1 1,-1zm0 0c0,0 0,0 0,0 0,0 0,0 0,0zm0 -1c0,0 0,0 0,1 0,-1 0,-1 0,-1zm1 0c0,0 0,0 -1,0 1,0 1,0 1,0zm0 -1c0,0 0,0 0,1 0,-1 0,-1 0,-1zm0 0c0,0 0,0 0,0 0,0 0,0 0,0zm1 -1c0,0 -1,1 -1,1 0,0 1,-1 1,-1zm0 0c0,0 0,0 0,0 0,0 0,0 0,0zm0 -1c0,0 0,1 0,1 0,0 0,-1 0,-1z"/>
   <path class="fil4" d="M868 650l0 0c0,0 -78,67 -191,67 -9,0 -18,0 -27,-1 -16,2 -32,3 -49,3 -39,0 -81,-6 -125,-21 -4,4 -10,9 -15,14 0,0 73,58 191,58 17,0 35,-1 53,-4 0,0 -10,15 -29,33 67,-21 134,-64 189,-143l0 0c0,-1 0,-1 0,-1 0,0 0,0 0,0 0,0 1,-1 1,-1l0 0c0,0 0,0 0,0 0,0 0,0 0,0 0,-1 0,-1 0,-1 0,0 0,0 0,0 1,0 1,0 1,0 0,0 0,0 0,0 0,-1 0,-1 0,-1l0 0c0,0 0,0 0,0 0,0 0,0 0,0 0,0 1,-1 1,-1 0,0 0,0 0,0 0,0 0,0 0,0 0,0 0,0 0,0 0,0 0,-1 0,-1z"/>
   <path class="fil5" d="M676 799l0 0c0,0 0,0 0,0l0 0c0,0 0,0 0,0l0 0z"/>
   <path class="fil5" d="M461 712c-31,28 -68,61 -85,74 0,0 77,32 176,32 39,0 81,-5 124,-19 0,0 0,0 0,0 19,-18 29,-33 29,-33 -18,3 -36,4 -53,4 -118,0 -191,-58 -191,-58z"/>
   <path class="fil4" d="M498 678c-6,6 -13,12 -22,20 0,0 0,0 0,0 9,-8 16,-14 22,-20zm0 0c0,0 0,0 0,0 0,0 0,0 0,0zm1 0c0,0 0,0 0,0 0,0 0,0 0,0zm11 -11c0,0 0,0 0,0 0,0 0,0 0,0zm1 0c0,0 0,0 0,0 0,0 0,0 0,0zm0 -1c0,0 0,0 0,0 0,0 0,0 0,0zm0 0c0,0 0,0 0,0 0,0 0,0 0,0zm0 0c0,0 0,0 0,0 0,0 0,0 0,0zm0 0c0,0 0,0 0,0 0,0 0,0 0,0zm0 0c0,0 0,0 0,0 0,0 0,0 0,0z"/>
   <path class="fil4" d="M511 666c0,0 0,0 0,0 0,0 0,0 0,0 0,0 0,0 0,0 0,0 0,0 0,0l0 0c0,0 0,0 0,0 0,0 0,0 0,0 0,0 0,0 0,0 0,1 0,1 0,1 0,0 0,0 0,0 0,0 -1,0 -1,0 0,0 0,0 0,0 -1,1 -5,5 -11,11 0,0 0,0 0,0 0,0 -1,0 -1,0 0,0 0,0 0,0 0,0 0,0 0,0 -6,6 -13,12 -22,20 1,-1 15,-13 35,-32z"/>
   <g>
    <path class="fil6" d="M1046 241c-8,59 -32,105 -64,141 0,0 0,0 0,0 32,-36 56,-82 64,-141zm0 -1c0,0 0,0 0,1 0,-1 0,-1 0,-1zm0 -1c0,1 0,1 0,1 0,0 0,0 0,-1zm0 0c0,0 0,0 0,0 0,0 0,0 0,0zm0 -1c0,0 0,0 0,0 0,0 0,0 0,0zm0 -1c0,0 0,0 0,1 0,-1 0,-1 0,-1zm1 -1c-1,1 -1,1 -1,1 0,0 0,0 1,-1zm0 0c0,0 0,0 0,0 0,0 0,0 0,0zm-99 -236c0,0 0,0 0,0 0,0 0,0 0,0zm0 0l0 0 0 0zm0 0c0,0 0,0 0,0 0,0 0,0 0,0zm0 0l0 0c0,0 0,0 0,0 0,0 0,0 0,0 6,31 58,97 58,97 25,40 32,66 32,83 0,-17 -7,-43 -32,-83 0,0 -52,-66 -58,-97z"/>
   </g>
   <path class="fil6" d="M948 0c0,0 0,0 0,0 0,0 0,0 0,0 0,0 0,0 0,0 0,0 0,0 0,0l0 0c0,0 0,0 0,0 0,0 0,0 0,0 -2,7 -82,246 -210,407 6,-7 18,-18 34,-22 0,0 19,-9 106,-20 0,0 80,-8 142,-86 0,0 -9,46 -38,103 32,-36 56,-82 64,-141 0,0 0,0 0,0 0,-1 0,-1 0,-1 0,0 0,0 0,0 0,0 0,0 0,-1 0,0 0,0 0,0 0,0 0,0 0,0 0,0 0,-1 0,-1 0,0 0,0 0,0 0,0 0,0 0,0 0,-1 0,-1 0,-1 0,0 0,0 0,0 0,0 0,0 1,-1 0,0 0,0 0,0 0,0 0,0 0,0 0,-1 0,-1 0,-1 0,0 -56,97 -213,108 0,0 152,-44 195,-139 0,0 9,-6 9,-24 0,-17 -7,-43 -32,-83 0,0 -52,-66 -58,-97z"/>
   <path class="fil7" d="M969 406c-32,56 -82,117 -160,154 78,-37 128,-98 160,-154 0,0 0,0 0,0zm13 -24c0,0 0,0 0,0 -3,6 -6,11 -9,17 0,0 0,0 0,0 3,-6 6,-11 9,-17z"/>
   <path class="fil8" d="M973 399c-1,2 -2,4 -4,7 0,0 0,0 0,0 2,-3 3,-5 4,-7 0,0 0,0 0,0z"/>
   <g>
    <path class="fil7" d="M739 639c0,0 -1,0 -2,0l0 0c1,0 2,0 2,0zm1 0c0,0 0,0 0,0 0,0 0,0 0,0zm-8 -12c0,0 0,0 0,0 0,0 0,0 0,0zm-6 0c2,0 4,0 6,0 -2,0 -4,0 -6,0zm156 -24c-1,0 -2,1 -2,1 0,0 1,-1 2,-1zm7 -3c-3,3 -97,97 -239,116 0,0 0,0 0,0 142,-19 236,-113 239,-116zm0 0c0,0 0,0 0,0 0,0 0,0 0,0zm0 0l0 0 0 0zm0 0c0,0 0,0 0,0 0,0 0,0 0,0l0 0zm0 0c0,0 0,0 0,0 0,0 0,0 0,0l0 0zm0 0c0,0 0,0 0,0 0,0 0,0 0,0zm0 0c-2,1 -5,2 -7,3 2,-1 5,-2 7,-3zm-275 -1c0,0 40,38 118,40 -78,-2 -118,-40 -118,-40zm223 -31c0,0 -1,0 -1,0 0,0 1,0 1,0zm-35 -5l0 0c0,0 13,5 34,5 -21,0 -34,-5 -34,-5zm0 0c0,0 0,0 0,0 0,0 0,0 0,0zm1 0c0,0 0,0 0,0 0,0 0,0 0,0zm1 0c-1,0 -1,0 -1,0 0,0 0,0 1,0zm0 -1c0,0 0,0 0,1 0,-1 0,-1 0,-1zm1 0c-1,0 -1,0 -1,0 0,0 0,0 1,0zm0 0c0,0 0,0 0,0 0,0 0,0 0,0zm1 0c0,0 -1,0 -1,0 0,0 1,0 1,0zm0 -1c0,0 0,1 0,1 0,0 0,-1 0,-1zm1 0c0,0 -1,0 -1,0 0,0 1,0 1,0zm0 0c0,0 0,0 0,0 0,0 0,0 0,0zm1 0c0,0 0,0 -1,0 1,0 1,0 1,0zm0 -1c0,0 0,1 0,1 0,0 0,-1 0,-1zm1 0c0,0 0,0 -1,0 1,0 1,0 1,0zm0 0c0,0 0,0 0,0 0,0 0,0 0,0zm-149 -48c-1,1 -2,2 -2,2 -28,35 -103,110 -147,152 44,-42 119,-117 147,-152l1 -2 1 0zm5 -8c-2,3 -3,5 -4,6 0,0 0,0 0,0l4 -6c0,0 0,0 0,0zm68 -91l0 0c-9,12 -46,62 -65,87l1 -2 44 -58 5 -7c0,0 0,0 0,0l7 -9c0,0 0,-1 0,-1l1 0 7 -10zm5 -5c-3,3 -5,5 -5,5 0,0 2,-2 5,-5 0,0 0,0 0,0z"/>
   </g>
   <path class="fil7" d="M661 510c0,0 0,0 0,0 -1,1 -1,1 -1,2l-1 0 2 -2zm8 -12l-1 2c-1,1 -2,3 -3,4 0,0 0,0 0,0l4 -6zm49 -65c0,0 0,0 0,0l-5 7 5 -7zm8 -10l-1 0c0,1 0,1 0,1l1 -1zm12 -16c0,0 0,0 0,1 0,0 0,0 0,0 -3,3 -5,5 -5,5 0,0 0,0 0,0 2,-2 3,-4 5,-6zm244 -25c-112,127 -324,132 -324,132 -28,35 -103,110 -147,152 49,31 96,46 139,50 0,0 0,0 0,0 0,0 0,0 0,0 142,-19 236,-113 239,-116 0,0 0,0 0,0 0,0 0,0 0,0 0,0 0,0 0,0l0 0 0 0c0,0 0,0 0,0l0 0c0,0 0,0 0,0l0 0c0,0 0,0 0,0l0 0c-2,1 -5,2 -7,3 0,0 0,0 0,0 -1,0 -2,1 -2,1 -56,26 -102,35 -140,35 0,0 0,0 0,0 0,0 0,0 -1,0 0,0 -1,0 -2,0l0 0 0 0c-2,0 -3,0 -5,0 -78,-2 -118,-40 -118,-40 46,22 63,28 112,28 2,0 4,0 6,0l0 0c0,0 0,0 0,0 176,0 206,-98 206,-98 -39,32 -75,39 -101,39 0,0 -1,0 -1,0l0 0c-21,0 -34,-5 -34,-5 0,0 0,0 0,0 0,0 1,0 1,0 0,0 0,0 0,0 0,0 0,0 0,0 0,0 0,0 1,0 0,0 0,0 0,0 0,-1 0,-1 0,-1 0,0 0,0 0,0 0,0 0,0 1,0 0,0 0,0 0,0 0,0 0,0 0,0 0,0 0,0 0,0 0,0 1,0 1,0 0,0 0,0 0,0 0,0 0,-1 0,-1 0,0 0,0 0,0 0,0 1,0 1,0 0,0 0,0 0,0 0,0 0,0 0,0 0,0 0,0 0,0 1,0 1,0 1,0 0,0 0,0 0,0 0,0 0,-1 0,-1 0,0 0,0 0,0 1,0 1,0 1,0 0,0 0,0 0,0 0,0 0,0 0,0 0,0 0,0 0,0 78,-37 128,-98 160,-154 2,-3 3,-5 4,-7 3,-6 6,-11 9,-17z"/>
   <path class="fil7" d="M476 698c0,0 0,0 0,0l0 0c0,0 0,0 0,0z"/>
   <path class="fil7" d="M476 698l0 0c0,0 0,0 0,0z"/>
   <path class="fil9" d="M476 698c0,0 0,0 0,0 0,0 0,0 0,0l0 0c0,0 0,0 0,0z"/>
   <path class="fil9" d="M511 666l0 0c-20,19 -34,31 -35,32 0,0 0,0 0,0l0 0 0 0c44,15 86,21 125,21 17,0 33,-1 49,-3 -43,-4 -90,-19 -139,-50z"/>
   <path class="fil10" d="M659 512l-1 2 1 -1 0 -1 0 0zm6 -8l-4 6c0,0 0,0 0,-1l2 -2c1,-1 1,-2 2,-3zm48 -64l-44 58 14 -17c2,-4 5,-7 8,-11l1 -2c5,-6 10,-13 14,-19l7 -9zm12 -16l-7 9c1,-1 2,-2 3,-3l2 -3c1,-1 2,-2 2,-3zm8 -11l0 0 -7 10 2 -3c2,-3 4,-5 5,-7zm249 -31c0,0 0,0 0,0 0,0 0,0 0,0 0,0 0,0 0,0 0,0 0,0 0,0z"/>
   <path class="fil10" d="M1020 279c-62,78 -142,86 -142,86 -87,11 -106,20 -106,20 -16,4 -28,15 -34,22 -2,2 -3,4 -5,6 -1,2 -3,4 -5,7l-2 3 -1 1c0,1 -1,2 -2,3l-2 3c-1,1 -2,2 -3,3l-5 7 -7 9c-4,6 -9,13 -14,19l-1 2c-3,4 -6,7 -8,11l-14 17 -4 6c-1,1 -1,2 -2,3l-2 2c0,1 0,1 0,1l-2 2 0 0 0 1 -1 1c0,0 212,-5 324,-132 0,0 0,0 0,0 0,0 0,0 0,0 29,-57 38,-103 38,-103z"/>
   <g>
    <path class="fil11" d="M517 633l0 0c-26,25 -69,64 -103,94 0,0 0,0 0,0 34,-30 77,-69 103,-94zm10 -11c-2,2 -5,5 -8,9 3,-4 6,-7 8,-9zm1 0c0,0 0,0 0,0 0,0 0,0 0,0zm-129 -164c0,1 -16,24 -31,62l0 0c15,-38 31,-61 31,-62zm0 0l0 0 0 0zm0 0l0 0 0 0zm0 0l0 0 0 0zm0 0l0 0 0 0zm59 -33c0,0 0,0 0,1 0,-1 0,-1 0,-1zm0 0c0,0 0,0 0,0 0,0 0,0 0,0zm0 -1c0,0 0,0 0,0 0,0 0,0 0,0zm0 0c0,0 0,0 0,0 0,0 0,0 0,0zm0 -1c0,0 0,0 0,0 0,0 0,0 0,0zm1 -1c0,0 -1,1 -1,1 0,0 1,-1 1,-1zm0 -1c0,0 0,1 0,1 0,0 0,-1 0,-1zm0 0c0,0 0,0 0,0 0,0 0,0 0,0zm0 -1c0,0 0,1 0,1 0,0 0,-1 0,-1zm0 0c0,0 0,0 0,0 0,0 0,0 0,0zm1 -2c0,1 0,1 -1,2 1,-1 1,-1 1,-2zm0 0c0,0 0,0 0,0 0,0 0,0 0,0zm52 -91c-16,19 -38,49 -52,91 14,-42 36,-72 52,-91 0,0 0,0 0,0z"/>
   </g>
   <path class="fil11" d="M512 327c-16,19 -38,49 -52,91 0,0 0,0 0,0 0,0 0,0 0,0 0,0 0,0 0,0 0,1 0,1 -1,2 0,0 0,0 0,0 0,0 0,0 0,0 0,0 0,0 0,0 0,0 0,1 0,1 0,0 0,0 0,0 0,0 0,0 0,0 0,0 0,0 0,0 0,0 0,1 0,1 0,0 0,0 0,0 0,0 -1,1 -1,1 0,0 0,0 0,0 0,0 0,0 0,0 0,0 0,0 0,1 0,0 0,0 0,0 0,0 0,0 0,0 0,0 0,0 0,0 0,0 0,0 0,1 0,0 0,0 0,0 0,0 0,0 0,0 0,0 0,0 0,1 0,0 1,-9 1,-21 0,-20 -3,-52 -19,-70 0,0 -1,50 -22,94 0,0 -24,72 -24,155 0,22 2,44 6,66 0,0 -13,-27 -12,-85 0,-28 3,-63 11,-107l0 0 0 0c0,0 0,0 0,0l0 0c0,0 0,0 0,0l0 0 0 0 0 0c0,0 0,0 0,0 0,1 -16,24 -31,62l0 0c0,0 0,0 0,0 0,142 50,203 50,203 -1,1 -3,3 -4,4 34,-30 77,-69 103,-94l0 0c1,-1 1,-2 2,-2 3,-4 6,-7 9,-9 0,0 0,0 0,0 0,0 0,0 0,0 0,0 0,-1 0,-1 -7,7 -11,12 -11,12 -38,-127 -30,-228 -5,-306z"/>
   <path class="fil12" d="M364 771c0,0 0,0 0,0l0 0c0,0 0,0 0,0zm50 -44c0,0 0,0 0,0 0,0 0,0 0,0 0,0 0,0 0,0 0,0 0,0 0,0z"/>
   <path class="fil12" d="M368 520c-24,59 -46,153 -4,251l0 0c0,0 0,0 0,0 1,-2 23,-20 50,-44 0,0 0,0 0,0 0,0 0,0 0,0 1,-1 3,-3 4,-4 0,0 -50,-61 -50,-203z"/>
   <path class="fil13" d="M540 608c-5,5 -9,9 -12,13l0 0c3,-4 7,-8 12,-13zm1 -1c-1,0 -1,0 -1,0 0,0 1,0 1,0zm89 -97c-15,16 -31,34 -46,50 15,-16 31,-34 46,-50 0,0 0,0 0,0zm-16 -305l0 0zm1 -1c0,0 0,0 0,0 0,0 0,0 0,0zm0 -1c0,0 0,0 0,0 0,0 0,0 0,0zm0 -1c0,0 0,0 0,1 0,-1 0,-1 0,-1zm0 0c0,0 0,0 0,0 0,0 0,0 0,0zm0 -1c0,0 0,0 0,0 0,0 0,0 0,0zm0 -1c0,0 0,0 0,0 0,0 0,0 0,0zm0 -1c0,0 0,1 0,1 0,0 0,-1 0,-1zm1 -1c0,1 0,1 -1,1 1,0 1,0 1,-1zm0 0c0,0 0,0 0,0 0,0 0,0 0,0zm0 -2c0,1 0,1 0,2 0,-1 0,-1 0,-2zm13 -52c-16,13 -83,74 -117,183 0,0 0,0 0,0 34,-109 101,-170 117,-183zm3 -3l0 0c-7,19 -12,37 -16,55 4,-18 9,-36 16,-55z"/>
   <path class="fil13" d="M632 141c0,0 -1,1 -3,3 -16,13 -83,74 -117,183 12,-14 21,-21 21,-21 -61,169 -9,307 -5,315l0 0 0 0c3,-4 7,-8 12,-13 0,0 0,-1 0,-1 0,0 0,0 1,0 11,-13 27,-29 43,-47 15,-16 31,-34 46,-50 -2,-2 -34,-45 -18,-187 -5,-36 -5,-76 2,-118l0 0c0,0 0,-1 1,-1 0,0 0,0 0,0 0,0 0,-1 0,-1 0,0 0,0 0,0 0,0 0,0 0,0 0,-1 0,-1 0,-1 0,0 0,0 0,0 0,0 0,0 0,0 0,-1 0,-1 0,-1 0,0 0,0 0,0 0,0 0,0 0,-1 0,0 0,0 0,0 0,0 0,0 0,0 0,0 0,-1 0,-1 0,0 0,0 0,0 1,0 1,0 1,-1 0,0 0,0 0,0 0,0 0,0 0,0 0,0 0,0 0,0 0,-1 0,-1 0,-2l0 0c4,-18 9,-36 16,-55l0 0z"/>
   <path class="fil14" d="M512 327c0,0 0,0 0,0 0,0 0,0 0,0 0,0 0,0 0,0 0,0 0,0 0,0z"/>
   <path class="fil14" d="M533 306c0,0 -9,7 -21,21 0,0 0,0 0,0 0,0 0,0 0,0 -25,78 -33,179 5,306 0,0 4,-5 11,-12 -4,-8 -56,-146 5,-315z"/>
   <path class="fil13" d="M659 476c0,0 0,0 0,0l0 0c0,0 0,0 0,0zm0 0z"/>
   <path class="fil13" d="M659 476l0 0c0,0 0,0 0,0z"/>
   <path class="fil15" d="M834 224c0,0 0,0 0,0 -47,81 -106,171 -175,252 0,0 0,0 0,0 69,-81 128,-171 175,-252zm114 -224c-2,5 -43,101 -112,220 0,0 0,0 0,0 69,-119 110,-215 112,-220zm0 0c0,0 0,0 0,0 0,0 0,0 0,0zm0 0c0,0 0,0 0,0 0,0 0,0 0,0zm0 0c0,0 0,0 0,0 0,0 0,0 0,0zm0 0c0,0 0,0 0,0 0,0 0,0 0,0z"/>
   <path class="fil16" d="M836 220c-1,1 -2,3 -2,4 0,0 0,0 0,0 0,-1 1,-3 2,-4 0,0 0,0 0,0z"/>
   <path class="fil15" d="M648 134c-20,77 -31,139 -36,189 0,0 0,0 0,0 5,-50 16,-112 36,-189zm1 -1c-1,1 -1,1 -1,1 0,0 0,0 1,-1zm0 -1c0,1 0,1 0,1 0,0 0,0 0,-1zm0 -1c0,1 0,1 0,1 0,0 0,0 0,-1zm0 0c0,0 0,0 0,0 0,0 0,0 0,0zm1 -1c-1,0 -1,0 -1,0 0,0 0,0 1,0zm0 -1c0,0 0,0 0,0 0,0 0,0 0,0zm0 -1c0,0 0,0 0,1 0,-1 0,-1 0,-1zm0 -1c0,0 0,0 0,1 0,-1 0,-1 0,-1zm1 -1c-1,0 -1,0 -1,1 0,-1 0,-1 1,-1zm0 -1c0,0 0,0 0,1 0,-1 0,-1 0,-1zm0 -1c0,0 0,0 0,1 0,-1 0,-1 0,-1z"/>
   <path class="fil15" d="M948 0c-26,13 -112,16 -112,16 -103,3 -122,53 -123,55 0,0 0,0 0,0 -49,89 -59,172 -59,224 0,33 4,53 4,53 -12,-17 -15,-55 -15,-96 0,-62 8,-128 8,-128 0,0 0,0 0,1 0,0 0,0 0,0 0,0 0,0 0,1 0,0 0,0 0,0 -1,0 -1,0 -1,1 0,0 0,0 0,0 0,0 0,0 0,1 0,0 0,0 0,0 0,0 0,0 0,1 0,0 0,0 0,0 0,0 0,0 0,0 0,1 0,1 0,1 -1,0 -1,0 -1,0 0,0 0,1 0,1 0,0 0,0 0,0 0,0 0,0 0,0 0,1 0,1 0,1 0,0 0,0 0,0 0,1 0,1 0,1 0,0 0,0 0,0 -1,1 -1,1 -1,1l0 0c-20,77 -31,139 -36,189 0,0 0,0 0,0l0 0c11,89 47,152 47,153 69,-81 128,-171 175,-252 0,-1 1,-3 2,-4 69,-119 110,-215 112,-220l0 0c0,0 0,0 0,0 0,0 0,0 0,0 0,0 0,0 0,0 0,0 0,0 0,0 0,0 0,0 0,0 0,0 0,0 0,0 0,0 0,0 0,0z"/>
   <path class="fil15" d="M630 510l0 0c0,0 0,0 0,0l0 0zm0 -1c0,0 0,0 0,1 0,-1 0,-1 0,-1zm1 -1c0,0 0,0 0,1 0,-1 0,-1 0,-1zm28 -32c0,0 0,1 -1,1 -9,11 -17,21 -27,31 10,-11 19,-21 28,-32z"/>
   <path class="fil15" d="M658 477c-8,9 -18,21 -28,33l0 0c0,-1 0,-1 0,-1 0,0 1,0 1,0 0,-1 0,-1 0,-1 0,0 0,0 0,0 10,-10 18,-20 27,-31z"/>
   <path class="fil17" d="M630 510l0 0 0 0 0 0zm29 -34c0,0 0,1 -1,1 0,0 0,0 0,0 1,0 1,-1 1,-1l0 0zm0 0l0 0 0 0 0 0 0 0z"/>
   <path class="fil17" d="M612 323c-16,142 16,185 18,187l0 0 0 0c10,-12 20,-24 28,-33 0,0 0,0 0,0 1,0 1,-1 1,-1l0 0 0 0c0,-1 -36,-64 -47,-153z"/>
    
  </g>
 </g>
</svg>
