<?xml version="1.0" encoding="UTF-8"?>
<!DOCTYPE svg PUBLIC "-//W3C//DTD SVG 1.1//EN" "http://www.w3.org/Graphics/SVG/1.1/DTD/svg11.dtd">
<!-- Creator: CorelDRAW X8 -->
<svg xmlns="http://www.w3.org/2000/svg" xml:space="preserve" width="38.7979mm" height="38.798mm" version="1.1" style="shape-rendering:geometricPrecision; text-rendering:geometricPrecision; image-rendering:optimizeQuality; fill-rule:evenodd; clip-rule:evenodd"
viewBox="0 0 919 919"
 xmlns:xlink="http://www.w3.org/1999/xlink">
 <defs>
  <style type="text/css">
   <![CDATA[
    .str0 {stroke:white;stroke-width:16.048}
    .fil2 {fill:none}
    .fil0 {fill:#EB7337}
    .fil1 {fill:#61217D}
    .fil3 {fill:#994AE3}
    .fil5 {fill:#E6E6E6}
    .fil4 {fill:white}
   ]]>
  </style>
   <clipPath id="id0">
    <path d="M460 0c253,0 459,206 459,460 0,253 -206,459 -459,459 -254,0 -460,-206 -460,-459 0,-254 206,-460 460,-460z"/>
   </clipPath>
 </defs>
 <g id="Layer_x0020_1">
  <metadata id="CorelCorpID_0Corel-Layer"/>
  <path class="fil0" d="M460 0c253,0 459,206 459,460 0,253 -206,459 -459,459 -254,0 -460,-206 -460,-459 0,-254 206,-460 460,-460z"/>
  <g style="clip-path:url(#id0)">
   <g id="_1692696388448">
    <rect class="fil1 str0" x="263" y="-92" width="393" height="1104"/>
   </g>
  </g>
  <path class="fil2" d="M460 0c253,0 459,206 459,460 0,253 -206,459 -459,459 -254,0 -460,-206 -460,-459 0,-254 206,-460 460,-460z"/>
  <circle class="fil3 str0" cx="460" cy="460" r="307"/>
  <circle class="fil4" cx="460" cy="460" r="264"/>
  <rect class="fil1" x="452" y="669" width="16.0503" height="35.2471"/>
  <rect class="fil1" transform="matrix(9.25314E-16 -0.0349379 0.0466049 1.23431E-15 210.884 467.665)" width="459" height="756"/>
  <rect class="fil1" transform="matrix(9.25314E-16 -0.0349379 0.0466049 1.23431E-15 672.147 467.665)" width="459" height="756"/>
  <path class="fil5" d="M460 460l0 -264c70,0 137,28 187,78l-187 186z"/>
  <rect class="fil1" x="452" y="217" width="16.0503" height="35.2471"/>
  <rect class="fil1" x="452" y="377" width="16.0503" height="117.906"/>
  <rect class="fil1" transform="matrix(0.0271086 0.0288428 -0.223356 0.209927 590.446 320.214)" width="459" height="756"/>
 </g>
</svg>
