<?xml version="1.0" encoding="UTF-8"?>
<!DOCTYPE svg PUBLIC "-//W3C//DTD SVG 1.1//EN" "http://www.w3.org/Graphics/SVG/1.1/DTD/svg11.dtd">
<!-- Creator: CorelDRAW X8 -->
<svg xmlns="http://www.w3.org/2000/svg" xml:space="preserve" width="38.7979mm" height="38.798mm" version="1.1" style="shape-rendering:geometricPrecision; text-rendering:geometricPrecision; image-rendering:optimizeQuality; fill-rule:evenodd; clip-rule:evenodd"
viewBox="0 0 1747 1747"
 xmlns:xlink="http://www.w3.org/1999/xlink">
 <defs>
  <style type="text/css">
   <![CDATA[
    .fil0 {fill:#EB7337}
    .fil6 {fill:#D06439}
    .fil2 {fill:white}
    .fil4 {fill:#D06439;fill-rule:nonzero}
    .fil3 {fill:#8560A7;fill-rule:nonzero}
    .fil5 {fill:#8B3BA8;fill-rule:nonzero}
    .fil1 {fill:#9A56B3;fill-rule:nonzero}
   ]]>
  </style>
 </defs>
 <g id="Layer_x0020_1">
  <metadata id="CorelCorpID_0Corel-Layer"/>
  <circle class="fil0" cx="874" cy="874" r="874"/>
  <g id="_1692696409536">
   <g>
    <path class="fil1" d="M869 854c100,0 180,-98 180,-218 0,-121 -26,-219 -180,-219 -153,0 -180,98 -180,219 0,120 81,218 180,218z"/>
    <path id="1" class="fil2" d="M869 854c100,0 180,-98 180,-218 0,-121 -26,-219 -180,-219 -153,0 -180,98 -180,219 0,120 81,218 180,218zm151 -45c-38,47 -92,76 -151,76 -59,0 -112,-29 -151,-76 -36,-44 -59,-106 -59,-173 0,-66 7,-126 37,-172 32,-48 84,-77 173,-77 89,0 142,29 173,77 30,46 38,106 38,172 0,67 -23,129 -60,173z"/>
   </g>
   <g>
    <path class="fil3" d="M529 1188c0,-4 0,-4 0,-4l0 1c0,1 0,2 0,3z"/>
    <path id="1" class="fil2" d="M560 1185l0 2 0 0 0 0 0 1 -31 0 0 27 0 0 0 -27 -30 0 0 -1 0 0 0 -2 0 0 0 -1 0 0 0 -30 30 0 0 0 29 0 2 29 0 0 0 1 0 0 0 0 0 1 0 0zm-31 3c0,-4 0,-4 0,-4l0 1c0,1 0,2 0,3z"/>
   </g>
   <g>
    <path class="fil1" d="M1209 1179c-4,-210 -31,-270 -241,-308 0,0 -30,38 -99,38 -69,0 -98,-38 -98,-38 -208,37 -237,96 -241,301 -1,17 -1,18 -1,16 0,3 0,10 0,22 0,0 50,101 340,101 290,0 340,-101 340,-101 0,-8 0,-13 0,-16 0,1 0,-2 0,-15z"/>
    <path id="1" class="fil2" d="M771 871c-208,37 -237,96 -241,301 -1,17 -1,18 -1,16 0,3 0,10 0,22 0,0 50,101 340,101 290,0 340,-101 340,-101 0,-8 0,-13 0,-16 0,1 0,-2 0,-15 -4,-210 -31,-270 -241,-308 0,0 -30,38 -99,38 -69,0 -98,-38 -98,-38zm419 71c39,53 47,125 49,237l0 0c0,6 0,10 0,12l0 0 0 1 0 0c6,67 -9,103 -26,110 -6,14 -12,14 -18,-2 -6,-4 -11,-13 -15,-24 -51,31 -144,65 -311,65 -171,0 -265,-36 -315,-68 -4,16 -10,27 -17,34 -6,15 -12,16 -18,4 -17,-6 -30,-46 -20,-125l0 0 0 0c0,-3 0,-7 0,-14 2,-109 12,-180 50,-231 39,-53 104,-80 216,-100l18 -3 11 14c0,0 21,26 75,26 54,0 75,-26 75,-26l11 -14 18 3c113,20 178,48 217,101z"/>
   </g>
   <path class="fil4" d="M463 1188c0,-4 0,-4 0,-4l0 1c0,1 0,2 0,3z"/>
   <path class="fil5" d="M869 854l-1 0 0 -437 1 0c154,0 180,98 180,219 0,120 -81,218 -180,218z"/>
   <path class="fil4" d="M1209 1188c0,-4 0,-4 0,-4l0 1c0,1 0,2 0,3z"/>
   <path class="fil5" d="M868 909l1 0c69,0 99,-38 99,-38 207,37 237,96 240,301 1,17 1,18 1,16 0,3 0,10 0,22 0,0 -50,101 -340,101l-1 0 0 -402z"/>
   <g>
    <polygon class="fil6" points="307,437 575,437 575,491 360,491 360,704 307,704 "/>
    <polygon class="fil6" points="1440,1330 1172,1330 1172,1276 1388,1276 1388,1062 1440,1062 "/>
    <polygon class="fil6" points="1440,437 1172,437 1172,491 1388,491 1388,704 1440,704 "/>
    <polygon class="fil6" points="307,1330 575,1330 575,1276 360,1276 360,1062 307,1062 "/>
   </g>
  </g>
 </g>
</svg>
