<?xml version="1.0" encoding="UTF-8"?>
<!DOCTYPE svg PUBLIC "-//W3C//DTD SVG 1.1//EN" "http://www.w3.org/Graphics/SVG/1.1/DTD/svg11.dtd">
<!-- Creator: CorelDRAW X8 -->
<svg xmlns="http://www.w3.org/2000/svg" xml:space="preserve" width="12.5953mm" height="4.2334mm" version="1.1" style="shape-rendering:geometricPrecision; text-rendering:geometricPrecision; image-rendering:optimizeQuality; fill-rule:evenodd; clip-rule:evenodd"
viewBox="0 0 127 43"
 xmlns:xlink="http://www.w3.org/1999/xlink">
 <defs>
  <style type="text/css">
   <![CDATA[
    .fil0 {fill:#E6E6E6;fill-rule:nonzero}
   ]]>
  </style>
 </defs>
 <g id="Layer_x0020_1">
  <metadata id="CorelCorpID_0Corel-Layer"/>
  <g id="_1693294360272">
   <path class="fil0" d="M0 8c0,0 0,0 0,0l0 22c0,2 4,2 4,2l0 -21c0,-3 -4,-3 -4,-3zm3 -8l-3 0 0 3c0,0 0,1 1,1l3 0 0 -3c0,-1 -1,-1 -1,-1z"/>
   <path class="fil0" d="M21 8c-3,0 -5,1 -7,1 -1,0 -2,0 -3,-1l0 22c0,2 4,2 4,2l0 -20c0,0 2,-1 5,-1 4,0 6,2 6,5l0 14c0,2 3,2 3,2l0 -17c0,-6 -4,-7 -8,-7z"/>
   <path class="fil0" d="M37 3l0 22c0,4 3,7 8,7 4,0 7,-1 7,-5 0,-1 0,-2 -1,-3 0,3 -3,5 -6,5 -3,0 -4,-2 -4,-6l0 -11 7 0c2,0 2,-3 2,-3l-9 0 0 -4c0,-2 -4,-2 -4,-2z"/>
   <path class="fil0" d="M65 19c-2,0 -5,-1 -5,-1l0 -2c0,-3 2,-5 6,-5 3,0 5,2 5,4 0,2 -2,4 -6,4zm1 -11c-6,0 -10,3 -10,7l0 10c0,4 4,7 10,7 4,0 9,-2 9,-5 0,-1 -1,-2 -2,-3 0,3 -3,5 -7,5 -4,0 -6,-2 -6,-5l0 -3c1,0 4,1 5,1 7,0 9,-3 9,-7 0,-4 -3,-7 -8,-7z"/>
   <path class="fil0" d="M89 22c-4,0 -5,-2 -5,-5l0 -2c0,-3 1,-4 5,-4 4,0 6,1 6,1l0 5c0,3 -1,5 -6,5zm0 -14c-5,0 -9,2 -9,7l0 2c0,2 1,4 2,5 -1,1 -2,3 -2,5 0,4 4,5 8,5l2 0c3,0 6,0 6,3 0,3 -2,5 -7,5 -5,0 -8,-2 -8,-5 -1,1 -1,2 -1,3 0,3 4,5 9,5 7,0 10,-4 10,-8 0,-6 -4,-6 -9,-6l-1 0c-4,0 -6,-1 -6,-3 0,-1 0,-2 0,-3 0,0 2,2 6,2 6,0 9,-3 9,-8l0 -9c-1,1 -2,1 -3,1 -2,0 -4,-1 -6,-1z"/>
   <path class="fil0" d="M114 8c-3,0 -4,1 -6,1 -1,0 -2,0 -3,-1l0 22c0,2 4,2 4,2l0 -20c0,0 2,-1 4,-1 3,0 5,1 5,4 1,-1 1,-2 1,-3 0,-3 -2,-4 -5,-4z"/>
   <path class="fil0" d="M123 8c0,0 0,0 0,0l0 22c0,2 4,2 4,2l0 -21c0,-3 -3,-3 -4,-3zm3 -8l-3 0 0 3c0,0 1,1 1,1l3 0 0 -3c0,-1 0,-1 -1,-1z"/>
  </g>
 </g>
</svg>
