<?xml version="1.0" encoding="UTF-8"?>
<!DOCTYPE svg PUBLIC "-//W3C//DTD SVG 1.1//EN" "http://www.w3.org/Graphics/SVG/1.1/DTD/svg11.dtd">
<!-- Creator: CorelDRAW X8 -->
<svg xmlns="http://www.w3.org/2000/svg" xml:space="preserve" width="7.7104mm" height="7.747mm" version="1.1" style="shape-rendering:geometricPrecision; text-rendering:geometricPrecision; image-rendering:optimizeQuality; fill-rule:evenodd; clip-rule:evenodd"
viewBox="0 0 31 31"
 xmlns:xlink="http://www.w3.org/1999/xlink">
 <defs>
  <style type="text/css">
   <![CDATA[
    .str0 {stroke:white;stroke-width:1.68392}
    .fil0 {fill:none}
    .fil1 {fill:white;fill-rule:nonzero}
   ]]>
  </style>
 </defs>
 <g id="Layer_x0020_1">
  <metadata id="CorelCorpID_0Corel-Layer"/>
  <g id="_1693001842768">
   <circle class="fil0 str0" cx="15" cy="15" r="14"/>
   <path class="fil1" d="M15 19l0 0c2,0 3,-1 4,-2 2,-2 1,-5 1,-6 0,-2 -1,-3 -2,-4 -1,0 -2,-1 -3,-1l0 0c0,0 -1,1 -2,1 -1,1 -2,2 -3,4 0,1 0,4 2,6 1,1 2,2 3,2zm-3 -7c0,0 0,0 0,0 0,-4 2,-4 3,-4l0 0c2,0 4,0 4,4 0,0 0,0 0,0 0,0 0,3 -1,4 -1,1 -2,1 -3,2l0 0c-1,-1 -2,-1 -2,-2 -2,-1 -1,-4 -1,-4z"/>
   <path class="fil1" d="M25 25l0 0c0,0 0,0 0,-1 0,0 0,-3 -2,-3 0,0 0,0 0,0 -2,-1 -4,-2 -4,-2 0,0 -1,0 -1,0 0,0 0,1 0,1 0,0 2,1 4,2 2,0 2,1 2,3 0,0 0,0 0,0 0,0 0,1 0,1 -1,1 -4,3 -9,3 -4,0 -7,-2 -8,-3 0,0 0,-1 0,-1 0,0 0,0 0,0 0,-2 0,-3 1,-3 2,-1 4,-2 4,-2 1,0 1,-1 1,-1 -1,0 -1,0 -1,0 0,0 -2,1 -4,2 0,0 0,0 0,0 -2,0 -2,3 -2,3 0,1 0,1 0,1l0 0c0,0 0,1 0,2 0,0 0,0 0,0 0,0 4,4 9,4 6,0 9,-4 10,-4 0,0 0,0 0,0 0,-1 0,-2 0,-2z"/>
  </g>
 </g>
</svg>
