<?xml version="1.0" encoding="UTF-8"?>
<!DOCTYPE svg PUBLIC "-//W3C//DTD SVG 1.1//EN" "http://www.w3.org/Graphics/SVG/1.1/DTD/svg11.dtd">
<!-- Creator: CorelDRAW X8 -->
<svg xmlns="http://www.w3.org/2000/svg" xml:space="preserve" width="68.5166mm" height="73.464mm" version="1.1" style="shape-rendering:geometricPrecision; text-rendering:geometricPrecision; image-rendering:optimizeQuality; fill-rule:evenodd; clip-rule:evenodd"
viewBox="0 0 6460 6926"
 xmlns:xlink="http://www.w3.org/1999/xlink">
 <defs>
  <style type="text/css">
   <![CDATA[
    .str0 {stroke:white;stroke-width:63.8545;stroke-dasharray:63.854549 191.563646}
    .fil2 {fill:none}
    .fil3 {fill:#FEFEFE;fill-rule:nonzero}
    .fil17 {fill:#FFCE3E;fill-rule:nonzero}
    .fil15 {fill:#F9A631;fill-rule:nonzero}
    .fil19 {fill:#F58634;fill-rule:nonzero}
    .fil9 {fill:#EB7337;fill-rule:nonzero}
    .fil8 {fill:#E4A437;fill-rule:nonzero}
    .fil12 {fill:#D65339;fill-rule:nonzero}
    .fil16 {fill:#C33538;fill-rule:nonzero}
    .fil13 {fill:#C93680;fill-rule:nonzero}
    .fil11 {fill:#B13437;fill-rule:nonzero}
    .fil6 {fill:#BD3378;fill-rule:nonzero}
    .fil10 {fill:#3D322C;fill-rule:nonzero}
    .fil5 {fill:#8560A7;fill-rule:nonzero}
    .fil18 {fill:#423C2F;fill-rule:nonzero}
    .fil14 {fill:#7A3773;fill-rule:nonzero}
    .fil7 {fill:#512A45;fill-rule:nonzero}
    .fil4 {fill:#673C81;fill-rule:nonzero}
    .fil1 {fill:#CCCCCC;fill-rule:nonzero}
    .fil0 {fill:#E6E6E6;fill-rule:nonzero}
   ]]>
  </style>
 </defs>
 <g id="Layer_x0020_1">
  <metadata id="CorelCorpID_0Corel-Layer"/>
  <g id="_2023264580432">
   <g>
    <path class="fil0" d="M724 2706c-1,0 -1,0 -1,0l0 851c0,92 147,92 147,92l0 -851c0,-90 -136,-92 -146,-92zm115 -329l-116 0 0 121c0,19 15,34 33,34l114 0 0 -122c0,-16 -15,-33 -31,-33z"/>
    <path class="fil0" d="M1556 2697c-105,0 -185,38 -273,38 -37,0 -78,-7 -120,-29l0 851c0,92 147,92 147,92l0 -791c0,0 86,-38 220,-38 164,0 222,66 222,179l0 558c0,90 147,92 147,92l0 -677c0,-217 -176,-275 -343,-275z"/>
    <path class="fil0" d="M2193 2500l0 863c0,185 126,295 323,295 148,0 299,-62 299,-187 0,-39 -15,-84 -50,-136 0,125 -108,195 -235,195 -145,0 -191,-87 -191,-219l0 -438 292 0c90,0 92,-127 92,-127l-384 0 0 -152c0,-92 -146,-94 -146,-94z"/>
    <path class="fil0" d="M3310 3117c-79,0 -189,-30 -191,-33l0 -64c0,-129 61,-204 224,-204 151,0 202,64 202,158 0,90 -61,143 -235,143zm33 -420c-233,0 -371,110 -371,295l0 371c0,185 145,295 378,295 180,0 353,-66 353,-194 0,-39 -15,-81 -48,-129 0,129 -134,195 -294,195 -170,0 -242,-66 -242,-195l0 -134c44,31 140,44 202,44 270,0 371,-123 371,-271 0,-167 -116,-277 -349,-277z"/>
    <path class="fil0" d="M4292 3249c-171,0 -213,-75 -213,-204l0 -49c0,-127 42,-182 205,-182 134,0 221,44 221,44l0 187c0,129 -43,204 -213,204zm-33 -552c-167,0 -327,73 -327,271l0 105c0,75 20,137 59,185 -50,55 -86,107 -86,178 0,195 161,209 321,209l90 0c132,0 225,11 225,129 0,102 -53,187 -249,187 -208,0 -323,-75 -323,-204 -35,50 -50,94 -50,132 0,127 165,191 373,191 273,0 396,-128 396,-314 0,-233 -193,-244 -367,-244l-60 0c-153,0 -221,-13 -221,-112 0,-25 6,-56 15,-97 0,0 75,55 237,55 233,0 359,-110 359,-295l0 -371c-45,22 -88,30 -128,30 -84,0 -163,-35 -264,-35z"/>
    <path class="fil0" d="M5261 2697c-101,0 -164,38 -241,38 -33,0 -70,-7 -112,-29l0 851c0,92 147,92 147,92l0 -791c0,0 79,-31 176,-31 107,0 195,48 195,149 35,-48 51,-87 51,-131 0,-99 -88,-148 -216,-148z"/>
    <path class="fil0" d="M5643 2706c-1,0 -1,0 -1,0l0 851c0,92 147,92 147,92l0 -851c0,-90 -136,-92 -146,-92zm115 -329l-116 0 0 121c0,19 15,34 33,34l114 0 0 -122c0,-16 -15,-33 -31,-33z"/>
   </g>
   <g>
    <path class="fil1" d="M811 3869c-41,0 -67,19 -67,52l0 66c0,33 26,52 67,52 42,0 80,-19 54,-57 0,23 -24,35 -52,35 -30,0 -43,-12 -43,-35l0 -56c0,-23 13,-34 43,-34 24,0 46,11 46,34 26,-38 -10,-57 -48,-57z"/>
    <path class="fil1" d="M983 4018c-37,0 -44,-13 -44,-36l0 -56c0,-23 7,-36 44,-36 37,0 44,13 44,36l0 56c0,23 -7,36 -44,36zm0 -149c-48,0 -70,19 -70,52l0 66c0,33 22,52 70,52 48,0 70,-19 70,-52l0 -66c0,-33 -22,-52 -70,-52z"/>
    <path class="fil1" d="M1172 3869c-19,0 -33,7 -49,7 -6,0 -13,-2 -21,-6l0 152c0,16 26,16 26,16l0 -141c0,0 16,-6 39,-6 29,0 40,11 40,32l0 99c0,15 26,16 26,16l0 -120c0,-39 -31,-49 -61,-49z"/>
    <path class="fil1" d="M1342 3943c-14,0 -34,-5 -34,-5l0 -12c0,-23 10,-36 39,-36 27,0 36,11 36,28 0,16 -10,25 -41,25zm5 -74c-41,0 -65,19 -65,52l0 66c0,33 25,52 67,52 32,0 62,-11 62,-34 0,-7 -2,-14 -8,-23 0,23 -24,35 -52,35 -31,0 -43,-12 -43,-35l0 -24c8,6 24,8 36,8 47,0 65,-22 65,-48 0,-30 -20,-49 -62,-49z"/>
    <path class="fil1" d="M1521 3869c-42,0 -67,19 -67,52l0 66c0,33 25,52 67,52 41,0 80,-19 54,-57 0,23 -24,35 -52,35 -31,0 -43,-12 -43,-35l0 -56c0,-23 12,-34 43,-34 23,0 45,11 45,34 26,-38 -9,-57 -47,-57z"/>
    <path class="fil1" d="M1626 3834l0 153c0,33 22,52 57,52 26,0 53,-11 53,-33 0,-7 -3,-15 -9,-24 0,22 -19,35 -42,35 -25,0 -33,-16 -33,-39l0 -78 51 0c16,0 17,-22 17,-22l-68 0 0 -27c0,-17 -26,-17 -26,-17z"/>
    <path class="fil1" d="M1825 4019c-28,0 -38,-13 -38,-27 0,-39 71,-25 77,-46l0 64c0,0 -15,9 -39,9zm0 -150c-31,0 -59,11 -59,33 0,7 2,15 8,24 0,-23 21,-34 51,-34 30,0 38,11 38,28 -12,31 -102,9 -102,72 0,35 30,47 60,47 18,0 31,-5 46,-5 7,0 14,1 22,4l0 -117c0,-33 -23,-52 -64,-52z"/>
    <path class="fil1" d="M2009 3869c-18,0 -33,7 -48,7 -7,0 -14,-2 -22,-6l0 152c0,16 26,16 26,16l0 -141c0,0 16,-6 40,-6 29,0 39,11 39,32l0 99c0,15 26,16 26,16l0 -120c0,-39 -31,-49 -61,-49z"/>
    <path class="fil1" d="M2188 4018c-34,0 -43,-11 -43,-35l0 -58c0,-24 15,-35 35,-35 22,0 43,13 43,32l0 88c0,0 -11,8 -35,8zm36 -226l-1 0 0 65c0,22 4,30 4,30 0,0 -12,-18 -51,-18 -31,0 -57,19 -57,51l0 68c0,33 24,51 65,51 16,0 30,-5 43,-5 6,0 15,1 22,4l0 -226c0,-19 -22,-20 -25,-20z"/>
    <path class="fil1" d="M2369 4018c-37,0 -45,-13 -45,-36l0 -56c0,-23 8,-36 45,-36 36,0 44,13 44,36l0 56c0,23 -8,36 -44,36zm0 -149c-48,0 -71,19 -71,52l0 66c0,33 23,52 71,52 47,0 70,-19 70,-52l0 -66c0,-33 -23,-52 -70,-52z"/>
    <path class="fil1" d="M2655 4018c-22,0 -44,-13 -44,-32l0 -88c0,0 12,-8 36,-8 33,0 43,12 43,35l0 58c0,25 -15,35 -35,35zm-7 -149c-20,0 -31,6 -44,6 -5,0 -11,-1 -19,-5l0 226c0,20 23,20 26,20 0,0 0,0 0,0l0 -20 0 -45c0,-22 -3,-29 -3,-29 0,0 12,17 51,17 31,0 57,-19 57,-51l0 -67c0,-33 -24,-52 -68,-52z"/>
    <path class="fil1" d="M2821 3943c-13,0 -33,-5 -33,-5l0 -12c0,-23 10,-36 39,-36 27,0 36,11 36,28 0,16 -11,25 -42,25zm6 -74c-41,0 -65,19 -65,52l0 66c0,33 25,52 67,52 32,0 62,-11 62,-34 0,-7 -2,-14 -8,-23 0,23 -24,35 -52,35 -31,0 -43,-12 -43,-35l0 -24c7,6 24,8 35,8 48,0 66,-22 66,-48 0,-30 -20,-49 -62,-49z"/>
    <path class="fil1" d="M2991 3869c-42,0 -64,18 -64,51 0,68 105,21 105,68 0,17 -8,29 -41,29 -34,0 -54,-12 -54,-35 -6,10 -9,18 -9,25 0,23 29,32 63,32 44,0 67,-19 67,-49 0,-76 -105,-32 -105,-70 0,-20 8,-28 38,-28 33,0 51,12 51,34 6,-10 9,-19 9,-26 0,-22 -27,-31 -60,-31z"/>
    <path class="fil1" d="M3154 3869c-41,0 -64,18 -64,51 0,68 105,21 105,68 0,17 -7,29 -41,29 -33,0 -54,-12 -54,-35 -6,10 -9,18 -9,25 0,23 29,32 63,32 45,0 67,-19 67,-49 0,-76 -105,-32 -105,-70 0,-20 8,-28 38,-28 34,0 51,12 51,34 7,-10 9,-19 9,-26 0,-22 -26,-31 -60,-31z"/>
    <path class="fil1" d="M3331 4018c-37,0 -45,-13 -45,-36l0 -56c0,-23 8,-36 45,-36 37,0 44,13 44,36l0 56c0,23 -7,36 -44,36zm0 -149c-48,0 -71,19 -71,52l0 66c0,33 23,52 71,52 48,0 70,-19 70,-52l0 -66c0,-33 -22,-52 -70,-52z"/>
    <path class="fil1" d="M3508 4019c-28,0 -39,-13 -39,-27 0,-39 71,-25 78,-46l0 64c0,0 -15,9 -39,9zm0 -150c-32,0 -60,11 -60,33 0,7 3,15 9,24 0,-23 21,-34 51,-34 30,0 38,11 38,28 -12,31 -103,9 -103,72 0,35 31,47 61,47 18,0 31,-5 46,-5 7,0 14,1 22,4l0 -117c0,-33 -23,-52 -64,-52z"/>
    <path class="fil1" d="M3676 3869c-41,0 -64,18 -64,51 0,68 105,21 105,68 0,17 -7,29 -41,29 -33,0 -54,-12 -54,-35 -6,10 -9,18 -9,25 0,23 29,32 63,32 45,0 67,-19 67,-49 0,-76 -105,-32 -105,-70 0,-20 8,-28 38,-28 34,0 51,12 51,34 7,-10 9,-19 9,-26 0,-22 -26,-31 -60,-31z"/>
    <path class="fil1" d="M811 4208c-41,0 -67,20 -67,52l0 66c0,33 26,53 67,53 42,0 80,-20 54,-58 0,23 -24,35 -52,35 -30,0 -43,-12 -43,-35l0 -56c0,-23 13,-34 43,-34 24,0 46,11 46,34 26,-37 -10,-57 -48,-57z"/>
    <path class="fil1" d="M983 4357c-37,0 -44,-13 -44,-36l0 -56c0,-23 7,-36 44,-36 37,0 44,13 44,36l0 56c0,23 -7,36 -44,36zm0 -149c-48,0 -70,20 -70,52l0 66c0,33 22,53 70,53 48,0 70,-20 70,-53l0 -66c0,-32 -22,-52 -70,-52z"/>
    <path class="fil1" d="M1172 4208c-19,0 -33,7 -49,7 -6,0 -13,-2 -21,-5l0 151c0,16 26,16 26,16l0 -140c0,0 16,-7 39,-7 29,0 40,12 40,32l0 99c0,16 26,16 26,16l0 -120c0,-39 -31,-49 -61,-49z"/>
    <path class="fil1" d="M1342 4283c-14,0 -34,-6 -34,-6l0 -12c0,-23 10,-36 39,-36 27,0 36,12 36,28 0,16 -10,26 -41,26zm5 -75c-41,0 -65,20 -65,52l0 66c0,33 25,53 67,53 32,0 62,-12 62,-35 0,-7 -2,-14 -8,-23 0,23 -24,35 -52,35 -31,0 -43,-12 -43,-35l0 -24c8,6 24,8 36,8 47,0 65,-22 65,-48 0,-29 -20,-49 -62,-49z"/>
    <path class="fil1" d="M1521 4208c-42,0 -67,20 -67,52l0 66c0,33 25,53 67,53 41,0 80,-20 54,-58 0,23 -24,35 -52,35 -31,0 -43,-12 -43,-35l0 -56c0,-23 12,-34 43,-34 23,0 45,11 45,34 26,-37 -9,-57 -47,-57z"/>
    <path class="fil1" d="M1626 4173l0 153c0,33 22,53 57,53 26,0 53,-12 53,-34 0,-6 -3,-15 -9,-24 0,22 -19,35 -42,35 -25,0 -33,-16 -33,-39l0 -78 51 0c16,0 17,-22 17,-22l-68 0 0 -27c0,-17 -26,-17 -26,-17z"/>
    <path class="fil1" d="M1825 4358c-28,0 -38,-13 -38,-27 0,-39 71,-24 77,-46l0 64c0,0 -15,9 -39,9zm0 -150c-31,0 -59,11 -59,34 0,6 2,14 8,23 0,-23 21,-34 51,-34 30,0 38,11 38,28 -12,31 -102,9 -102,72 0,35 30,48 60,48 18,0 31,-6 46,-6 7,0 14,1 22,4l0 -117c0,-32 -23,-52 -64,-52z"/>
    <path class="fil1" d="M2009 4208c-18,0 -33,7 -48,7 -7,0 -14,-2 -22,-5l0 151c0,16 26,16 26,16l0 -140c0,0 16,-7 40,-7 29,0 39,12 39,32l0 99c0,16 26,16 26,16l0 -120c0,-39 -31,-49 -61,-49z"/>
    <path class="fil1" d="M2188 4357c-34,0 -43,-11 -43,-35l0 -58c0,-24 15,-35 35,-35 22,0 43,13 43,32l0 88c0,0 -11,8 -35,8zm36 -226l-1 0 0 65c0,22 4,30 4,30 0,0 -12,-18 -51,-18 -31,0 -57,19 -57,51l0 68c0,33 24,52 65,52 16,0 30,-6 43,-6 6,0 15,1 22,4l0 -226c0,-19 -22,-20 -25,-20z"/>
    <path class="fil1" d="M2369 4357c-37,0 -45,-13 -45,-36l0 -56c0,-23 8,-36 45,-36 36,0 44,13 44,36l0 56c0,23 -8,36 -44,36zm0 -149c-48,0 -71,20 -71,52l0 66c0,33 23,53 71,53 47,0 70,-20 70,-53l0 -66c0,-32 -23,-52 -70,-52z"/>
    <path class="fil1" d="M2655 4357c-22,0 -44,-13 -44,-32l0 -88c0,0 12,-8 36,-8 33,0 43,12 43,36l0 57c0,25 -15,35 -35,35zm-7 -149c-20,0 -31,6 -44,6 -5,0 -11,-1 -19,-4l0 226c0,19 23,19 26,19l0 0 0 -19 0 -46c0,-22 -3,-29 -3,-29 0,0 12,18 51,18 31,0 57,-20 57,-52l0 -67c0,-33 -24,-52 -68,-52z"/>
    <path class="fil1" d="M2827 4208c-18,0 -29,7 -42,7 -6,0 -13,-2 -20,-5l0 151c0,16 26,16 26,16l0 -140c0,0 14,-6 31,-6 19,0 35,9 35,26 6,-8 9,-15 9,-23 0,-17 -16,-26 -39,-26z"/>
    <path class="fil1" d="M2956 4357c-37,0 -45,-13 -45,-36l0 -56c0,-23 8,-36 45,-36 36,0 44,13 44,36l0 56c0,23 -8,36 -44,36zm0 -149c-48,0 -71,20 -71,52l0 66c0,33 23,53 71,53 48,0 70,-20 70,-53l0 -66c0,-32 -22,-52 -70,-52z"/>
    <path class="fil1" d="M3144 4357c-21,0 -43,-13 -43,-32l0 -88c0,0 11,-8 35,-8 34,0 43,12 43,36l0 57c0,25 -15,35 -35,35zm-7 -149c-19,0 -30,6 -43,6 -6,0 -12,-1 -19,-4l0 226c0,19 22,19 26,19l0 0 0 -19 0 -46c0,-22 -3,-29 -3,-29 0,0 11,18 50,18 31,0 57,-20 57,-52l0 -67c0,-33 -23,-52 -68,-52z"/>
    <path class="fil1" d="M3321 4357c-36,0 -44,-13 -44,-36l0 -56c0,-23 8,-36 44,-36 37,0 45,13 45,36l0 56c0,23 -8,36 -45,36zm0 -149c-48,0 -70,20 -70,52l0 66c0,33 22,53 70,53 48,0 71,-20 71,-53l0 -66c0,-32 -23,-52 -71,-52zm18 -82c1,3 2,5 2,8 0,7 -7,15 -15,22l-18 18c-13,12 14,16 14,16l26 -21c27,-23 4,-38 -9,-43z"/>
    <path class="fil1" d="M3495 4208c-42,0 -64,18 -64,51 0,68 105,22 105,68 0,17 -8,29 -41,29 -34,0 -55,-12 -55,-35 -6,10 -8,18 -8,25 0,23 28,33 63,33 44,0 67,-20 67,-50 0,-75 -105,-32 -105,-70 0,-20 7,-28 38,-28 33,0 50,12 50,34 7,-10 10,-19 10,-26 0,-22 -27,-31 -60,-31z"/>
    <path class="fil1" d="M3604 4210l0 0 0 151c0,16 26,16 26,16l0 -151c0,-16 -24,-16 -26,-16zm20 -59l-20 0 0 22c0,3 3,6 6,6l20 0 0 -22c0,-3 -3,-6 -6,-6z"/>
    <path class="fil1" d="M3682 4173l0 153c0,33 23,53 57,53 27,0 53,-12 53,-34 0,-6 -2,-15 -8,-24 0,22 -20,35 -42,35 -26,0 -34,-16 -34,-39l0 -78 52 0c16,0 16,-22 16,-22l-68 0 0 -27c0,-17 -26,-17 -26,-17z"/>
    <path class="fil1" d="M3891 4357c-37,0 -44,-13 -44,-36l0 -56c0,-23 7,-36 44,-36 37,0 44,13 44,36l0 56c0,23 -7,36 -44,36zm0 -149c-48,0 -71,20 -71,52l0 66c0,33 23,53 71,53 48,0 70,-20 70,-53l0 -66c0,-32 -22,-52 -70,-52z"/>
    <path class="fil1" d="M4064 4208c-41,0 -64,18 -64,51 0,68 105,22 105,68 0,17 -7,29 -41,29 -33,0 -54,-12 -54,-35 -6,10 -9,18 -9,25 0,23 29,33 63,33 45,0 67,-20 67,-50 0,-75 -105,-32 -105,-70 0,-20 8,-28 38,-28 34,0 51,12 51,34 6,-10 9,-19 9,-26 0,-22 -26,-31 -60,-31z"/>
   </g>
  </g>
  <path class="fil2 str0" d="M4065 607c1395,377 2363,1643 2363,3088 0,1767 -1432,3199 -3199,3199 -1767,0 -3199,-1432 -3199,-3199 0,-1668 1282,-3056 2944,-3189"/>
  <g id="_2023264523984">
   <path class="fil3" d="M3856 550c48,-54 82,-123 93,-212 0,0 -79,140 -306,156 0,0 219,-64 281,-200 0,0 43,-32 -33,-154 0,0 -75,-96 -83,-140 0,0 -117,351 -304,587 -4,5 -6,8 -6,8 -2,2 -4,5 -7,10l-4 5c-1,1 -2,3 -4,4l-3 5c-1,1 -2,3 -4,5l-16 22c-7,9 -14,19 -21,28l-2 3c-4,5 -8,10 -12,15l-25 33c-1,2 -2,3 -3,4l-3 4c0,1 -1,1 -1,2l-2 2 0 1 -1 1c-40,51 -148,159 -212,220 0,0 -21,20 -50,46l0 0c-7,6 -14,13 -22,20 -49,42 -79,72 -122,107 -365,297 -541,353 -541,353 1,23 50,0 50,0 76,-31 262,-142 262,-142 114,-73 188,-34 188,-34 94,38 177,6 177,6 -100,-12 -149,-56 -149,-56 192,76 213,30 213,30 -90,0 -125,-59 -125,-59 171,61 295,-21 356,-79 99,-32 198,-96 278,-215 0,0 -132,112 -315,94 209,-27 344,-167 344,-167 -263,128 -395,-1 -395,-1 65,32 91,40 160,41 262,3 306,-141 306,-141 -102,83 -196,49 -196,49 133,-60 213,-170 259,-261z"/>
   <g>
    <path class="fil4" d="M2458 1495c-1,0 -1,0 -2,0 1,0 1,0 2,0zm-15 -9c0,7 6,9 13,9 -7,0 -13,-2 -13,-9zm315 -144l0 0 0 0zm1 -1c0,0 -1,0 -1,1 0,-1 1,-1 1,-1zm281 -14c0,0 0,0 0,0 0,0 0,0 0,0zm-95 -17c34,13 67,17 95,17 -28,0 -61,-4 -95,-17zm-2 -1c0,0 1,0 1,0 0,0 -1,0 -1,0zm197 -6l0 0 0 0zm-251 -4c34,0 53,9 54,10 -1,-1 -20,-10 -54,-10zm0 0l0 0 0 0zm91 -36c78,30 127,39 157,40 -30,-1 -79,-10 -157,-40zm-2 -1c0,0 0,0 1,0 -1,0 -1,0 -1,0zm-5 -2c1,1 2,1 3,1 -1,0 -2,0 -3,-1zm96 -27c23,8 46,13 67,16 -21,-3 -44,-8 -67,-16zm306 -49c0,0 0,0 0,0 0,0 0,0 0,0zm1 0c-1,0 -1,0 -1,0 0,0 0,0 1,0zm39 -33l0 0c-11,10 -24,21 -39,33 15,-12 28,-23 39,-33z"/>
   </g>
   <path class="fil4" d="M2984 1132l0 0c-365,297 -541,353 -541,353 0,0 0,0 0,1 0,7 6,9 13,9l0 0c1,0 1,0 2,0 15,0 35,-10 35,-10 76,-31 262,-142 262,-142 1,0 2,-1 3,-1l0 0c0,0 0,0 0,0 0,-1 1,-1 1,-1 54,-33 98,-42 130,-42l0 0 0 0c34,0 53,9 54,10 0,0 0,0 0,0 0,0 1,0 1,0 0,1 0,1 1,1 34,13 67,17 95,17 0,0 0,0 0,0 0,0 0,0 0,0 48,0 80,-12 80,-12 -100,-12 -149,-56 -149,-56 1,1 2,1 2,1 1,1 2,1 3,1 1,1 1,1 2,1 0,0 0,0 1,0 0,0 0,1 1,1 78,30 127,39 157,40 1,0 2,0 3,0l0 0c37,0 44,-14 44,-14 -90,0 -125,-59 -125,-59 3,1 7,2 10,3 23,8 46,13 67,16 15,2 29,3 42,3 83,0 150,-33 197,-68 0,0 0,0 0,0 0,0 0,0 0,0 0,0 0,0 1,0 0,0 0,0 0,0 15,-12 28,-23 39,-33 -61,19 -122,26 -178,26 -142,0 -253,-45 -253,-45zm122 -107c-48,41 -78,71 -120,105 0,0 -1,1 -2,2 24,-19 77,-67 122,-107z"/>
   <path class="fil3" d="M3469 103c-116,207 -79,397 -79,397 -42,-59 -10,-322 -10,-322 -32,117 -49,211 -57,286 -10,-77 -6,-168 30,-261 0,0 -117,89 -174,268 -24,28 -58,76 -78,142 0,0 11,-89 -26,-131 0,0 -1,73 -30,135 0,0 -55,166 -26,319 0,0 -41,-85 -2,-276 0,0 -23,33 -45,88 0,-17 1,-36 2,-55 0,0 -17,59 -73,120 0,0 -51,55 -22,214 0,0 -52,-58 -23,-197 0,0 -67,73 -71,243 0,0 9,99 -43,208 0,0 104,-70 224,-171 24,-20 48,-41 73,-64 49,-43 111,-99 148,-135l0 0c5,-6 11,-12 15,-16l0 -1c29,-31 95,-103 147,-160l0 0c14,-16 28,-31 41,-47 1,-1 1,-1 2,-2l0 0c251,-296 416,-685 416,-685 -38,19 -162,22 -162,22 -152,5 -177,81 -177,81z"/>
   <g>
    <path class="fil5" d="M2742 1281l0 0 0 0zm0 0l0 0zm0 0c0,0 0,0 0,0 0,0 0,0 0,0zm0 0c0,0 0,0 0,0 0,0 0,0 0,0zm1 0c0,0 -1,0 -1,0 0,0 1,0 1,0zm0 -1c0,0 0,0 0,1 0,-1 0,-1 0,-1zm296 -234c0,0 0,0 0,0 -25,23 -49,44 -73,64 0,0 0,0 0,0 -116,98 -217,166 -223,170 7,-5 152,-103 296,-234zm-65 -352c0,0 0,0 0,0l0 0z"/>
   </g>
   <path class="fil5" d="M3039 1046c-40,35 -70,62 -73,64 24,-20 48,-41 73,-64zm-65 -353c0,0 0,0 0,0 -2,4 -19,61 -73,120 0,0 -51,55 -22,214 0,0 -32,-36 -32,-118 0,-23 3,-49 9,-79 0,0 -67,73 -71,243 0,0 1,7 1,20 0,34 -6,108 -44,188 0,0 0,0 0,0l0 0c0,0 0,0 0,0l0 0c0,0 0,0 0,0 0,0 0,0 0,0 0,0 0,0 0,0 0,0 0,0 0,0 0,0 0,0 0,0 0,0 1,0 1,0 0,0 0,0 0,0 0,0 0,-1 0,-1 0,0 0,0 0,0 6,-4 107,-72 223,-170 -60,-142 -28,-277 6,-362 0,-17 1,-35 2,-54 0,0 0,0 0,0 0,-1 0,-1 0,-1z"/>
   <path class="fil6" d="M3687 944c-78,114 -175,176 -272,207 0,0 0,0 0,0 97,-31 194,-93 272,-207zm1 -1c0,0 0,0 -1,1 1,-1 1,-1 1,-1zm1 -1c-1,0 -1,0 -1,1 0,-1 0,-1 1,-1zm0 -1c0,0 0,0 0,1 0,-1 0,-1 0,-1zm1 -1c0,0 -1,1 -1,1 0,0 1,-1 1,-1zm0 0c0,0 0,0 0,0 0,0 0,0 0,0zm1 -1c-1,0 -1,0 -1,0 0,0 0,0 1,0zm0 -1c0,0 0,1 0,1 0,0 0,-1 0,-1zm1 0c-1,0 -1,0 -1,0 0,0 0,0 1,0zm0 -1c0,0 0,0 0,0 0,0 0,0 0,0zm1 -1c-1,0 -1,0 -1,1 0,-1 0,-1 1,-1z"/>
   <path class="fil6" d="M3693 936l0 0c-1,0 -114,96 -276,96 -12,0 -26,0 -39,-2 -23,3 -46,5 -70,5 -56,0 -116,-9 -180,-30 -7,6 -14,13 -22,20 0,0 105,83 275,83 25,0 50,-2 77,-6 0,0 -15,22 -43,49 97,-31 194,-93 272,-207l0 0c1,-1 1,-1 1,-1 0,0 0,0 0,0 0,-1 0,-1 1,-1l0 0c0,-1 0,-1 0,-1 0,0 0,0 0,0 0,0 1,-1 1,-1 0,0 0,0 0,0 0,0 0,0 0,0 0,-1 0,0 0,-1 0,0 0,0 1,0l0 0c0,0 0,-1 0,-1 0,0 0,0 0,0 0,0 0,0 1,0 0,-1 0,-1 0,-1 0,0 0,0 0,0 0,0 0,0 0,0 0,-1 0,-1 1,-1z"/>
   <path class="fil7" d="M3415 1151l0 0c0,0 0,0 0,0l0 0c0,0 0,0 0,0l0 0z"/>
   <path class="fil7" d="M3106 1025c-45,40 -98,88 -122,107 0,0 111,45 253,45 56,0 117,-7 178,-26 0,0 0,0 0,0 28,-27 43,-49 43,-49 -27,4 -52,6 -77,6 -170,0 -275,-83 -275,-83z"/>
   <path class="fil6" d="M3159 976c-8,8 -19,18 -31,29 0,0 0,0 0,0 12,-11 23,-21 31,-29zm1 0c0,0 0,0 -1,0 1,0 1,0 1,0zm1 -1c0,0 -1,0 -1,0 0,0 1,0 1,0zm16 -15c0,0 0,0 0,0 0,0 0,0 0,0zm1 0c0,0 0,0 0,0 0,0 0,0 0,0zm0 -1c0,0 0,0 0,0 0,0 0,0 0,0zm0 0c0,0 0,0 0,0 0,0 0,0 0,0zm0 0c0,0 0,0 0,0 0,0 0,0 0,0zm0 0c0,0 0,0 0,0 0,0 0,0 0,0zm0 0c0,0 0,0 0,0 0,0 0,0 0,0z"/>
   <path class="fil6" d="M3178 959c0,0 0,0 0,0 0,0 0,0 0,0 0,0 0,0 0,0 0,0 0,0 0,0l0 0c0,0 0,0 0,0 0,0 0,0 0,0 0,0 0,0 0,0 0,0 0,1 0,1 0,0 0,0 0,0 -1,0 -1,0 -1,0 0,0 0,0 0,0 -2,2 -8,8 -16,15 0,0 -1,0 -1,0 0,1 0,1 0,1 0,0 0,0 -1,0 0,0 0,0 0,0 -8,8 -19,18 -31,29 1,-1 22,-19 50,-46z"/>
   <g>
    <path class="fil8" d="M3948 347c-12,84 -46,151 -92,203 0,0 0,0 0,0 46,-52 80,-118 92,-203zm0 -1c0,0 0,0 0,0 0,0 0,0 0,0zm0 -1c0,0 0,0 0,0 0,0 0,0 0,0zm1 -1c0,0 -1,0 -1,0 0,0 1,0 1,0zm0 -2c0,1 0,1 0,1 0,0 0,0 0,-1zm0 -1c0,1 0,1 0,1 0,0 0,0 0,-1zm0 -1c0,1 0,1 0,1 0,0 0,0 0,-1zm0 -1c0,0 0,1 0,1 0,0 0,-1 0,-1zm-141 -339c0,0 0,0 0,0 0,0 0,0 0,0zm0 0l0 0 0 0zm0 0c0,0 0,0 0,0 0,0 0,0 0,0zm0 0l0 0c0,0 0,0 0,0 0,0 0,0 0,0 8,44 83,140 83,140 36,58 45,95 45,119 0,-24 -9,-61 -45,-119 0,0 -75,-96 -83,-140z"/>
   </g>
   <path class="fil8" d="M3808 0c0,0 0,0 0,0 0,0 0,0 0,0 0,0 0,0 0,0 0,0 0,0 0,0l0 0c0,0 0,0 0,0 0,0 0,0 0,0 -4,11 -119,354 -303,586 8,-10 25,-26 48,-32 0,0 29,-13 153,-29 0,0 116,-11 205,-124 0,0 -13,67 -55,149 46,-52 80,-119 92,-203 0,0 0,-1 0,-1 0,0 0,0 0,0 0,0 0,-1 0,-1 0,0 0,0 0,0 0,-1 0,-1 0,-1 0,0 1,0 1,0 0,-1 0,-1 0,-1 0,0 0,0 0,-1 0,0 0,0 0,0 0,0 0,0 0,-1 0,0 0,0 0,0 0,0 0,0 0,-1 0,0 0,0 0,0 0,0 0,-1 0,-1 0,0 0,0 0,-1 0,0 -79,140 -306,156 0,0 219,-64 281,-200 0,0 12,-9 12,-35 0,-24 -9,-61 -45,-119 0,0 -75,-96 -83,-140z"/>
   <path class="fil9" d="M3838 584c-46,81 -119,169 -230,222 111,-53 184,-141 230,-222 0,0 0,0 0,0zm18 -34c0,0 0,0 0,0 -4,8 -8,16 -12,24 0,0 0,0 0,0 4,-8 8,-16 12,-24z"/>
   <path class="fil10" d="M3844 574c-2,3 -4,7 -6,10 0,0 0,0 0,0 2,-3 4,-7 6,-10 0,0 0,0 0,0z"/>
   <g>
    <path class="fil9" d="M3507 920c-1,0 -2,0 -3,0l0 0c1,0 2,0 3,0zm1 0c0,0 0,0 0,0 0,0 0,0 0,0zm-12 -17c0,0 0,0 0,0 0,0 0,0 0,0zm-9 0c3,0 6,0 9,0 -3,0 -6,0 -9,0zm226 -35c-2,0 -3,1 -4,1 1,0 2,-1 4,-1zm9 -5c-5,5 -139,140 -344,167 0,0 0,0 0,0 205,-27 339,-162 344,-167zm0 0c0,0 0,0 0,0 0,0 0,0 0,0zm0 0l0 0 0 0zm0 0c0,0 0,0 0,0 0,0 0,0 0,0l0 0zm0 0c0,0 0,0 0,0 0,0 0,0 0,0l0 0zm0 0c0,0 0,0 0,0 0,0 0,0 0,0zm0 0c-3,2 -6,3 -9,5 3,-2 6,-3 9,-5zm-395 -1c0,0 56,55 169,58 -112,-3 -169,-58 -169,-58zm321 -44c-1,0 -1,0 -2,0 1,0 1,0 2,0zm-51 -7l0 0c0,0 19,7 49,7 -30,0 -49,-7 -49,-7zm1 0c-1,0 -1,0 -1,0 0,0 0,0 1,0zm0 -1c0,0 0,0 0,0 0,0 0,0 0,0zm1 0c0,0 0,0 0,0 0,0 0,0 0,0zm1 0c0,0 0,0 -1,0 1,0 1,0 1,0zm1 -1c0,0 -1,0 -1,0 0,0 1,0 1,0zm1 0c-1,0 -1,0 -1,0 0,0 0,0 1,0zm0 -1c0,1 0,1 0,1 0,0 0,0 0,-1zm1 0c0,0 0,0 -1,0 1,0 1,0 1,0zm1 0c0,0 -1,0 -1,0 0,0 1,0 1,0zm1 -1c-1,0 -1,1 -1,1 0,0 0,-1 1,-1zm0 0c0,0 0,0 0,0 0,0 0,0 0,0zm1 0c0,0 0,0 0,0 0,0 0,0 0,0zm1 -1c0,0 -1,1 -1,1 0,0 1,-1 1,-1zm1 0c-1,0 -1,0 -1,0 0,0 0,0 1,0zm-216 -70c-1,2 -2,3 -2,3 -40,51 -148,159 -212,220 64,-61 172,-169 212,-220l2 -3 0 0zm8 -10c-3,3 -5,6 -7,8 0,0 0,0 0,0l7 -8c0,0 0,0 0,0zm98 -131l0 0c-13,16 -67,89 -94,125l2 -3 63 -84 7 -9c0,0 0,0 0,0l11 -14c0,0 0,0 0,0l0 -1 11 -14zm6 -8c-4,4 -6,8 -6,8 0,0 2,-3 6,-8 0,0 0,0 0,0z"/>
   </g>
   <path class="fil9" d="M3393 734c0,0 0,0 0,0 0,1 -1,2 -1,2l0 0 1 -2zm13 -17l-2 3c-1,2 -3,4 -4,6 0,0 0,0 0,0l6 -9zm70 -93c0,0 0,0 0,0l-7 9 7 -9zm11 -15l0 1c0,0 0,0 0,0l0 -1zm18 -23c-1,0 -1,1 -1,1 0,0 0,0 0,0 -4,5 -6,8 -6,8 0,0 0,0 0,0 2,-3 4,-6 7,-9zm351 -36c-161,183 -466,189 -466,189 -40,51 -148,159 -212,220 71,45 138,65 200,71 0,0 0,0 0,0 0,0 0,0 0,0 205,-27 339,-162 344,-167 0,0 0,0 0,0 0,0 0,0 0,0 0,0 0,0 0,0l0 0 0 0c0,0 0,0 0,0l0 0c0,0 0,0 0,0l0 0c0,0 0,0 0,0l0 0c-3,2 -6,3 -9,5 0,0 0,0 0,0 -2,0 -3,1 -4,1 -80,37 -147,50 -201,51 0,0 0,0 0,0 -1,0 -1,0 -1,0 -1,0 -2,0 -3,0l0 0 0 0c-3,0 -6,0 -8,0 -113,-3 -169,-58 -169,-58 65,32 91,40 160,41 3,0 6,0 9,0l0 0c0,0 0,0 0,0 254,0 297,-141 297,-141 -56,45 -109,55 -145,56 -1,0 -1,0 -2,0l0 0c-30,0 -49,-7 -49,-7 0,0 0,0 1,0 0,0 0,0 0,-1 0,0 0,0 0,0 1,0 1,0 1,0 0,0 0,0 0,0 0,0 0,0 0,0 1,0 1,0 1,0 0,-1 0,-1 0,-1 0,0 1,0 1,0 0,0 0,0 0,0 0,0 0,0 1,0 0,0 0,0 0,0 0,0 0,0 0,-1 0,0 0,0 0,0 1,0 1,0 1,0 0,0 0,0 0,0 0,0 1,0 1,0 0,0 0,0 0,0 0,0 0,-1 1,-1 0,0 0,0 0,0 0,0 0,0 0,0 0,0 0,0 1,0 0,0 0,0 0,0 0,0 0,0 0,0 0,-1 1,-1 1,-1 0,0 0,0 0,0 0,0 0,0 1,0 0,0 0,0 0,0 111,-53 184,-141 230,-222 2,-3 4,-7 6,-10 4,-8 8,-16 12,-24z"/>
   <path class="fil9" d="M3128 1005c0,0 0,0 0,0l0 0c0,0 0,0 0,0z"/>
   <path class="fil9" d="M3128 1005l0 0c0,0 0,0 0,0z"/>
   <path class="fil11" d="M3128 1005c0,0 0,0 0,0 0,0 0,0 0,0l0 0c0,0 0,0 0,0z"/>
   <path class="fil11" d="M3178 959l0 0c-28,27 -49,45 -50,46 0,0 0,0 0,0l0 0 0 0c64,21 124,30 180,30 24,0 47,-2 70,-5 -62,-6 -129,-26 -200,-71z"/>
   <path class="fil12" d="M3392 736l-2 3 1 -1 0 -1 1 -1zm8 -10l-7 8c1,0 1,0 1,-1l3 -4c1,-1 2,-2 3,-3zm69 -93l-63 84 19 -25c4,-5 8,-10 12,-15l2 -3c7,-9 14,-19 21,-28l9 -13zm18 -23l-11 14c2,-2 3,-4 4,-5l3 -5c2,-1 3,-3 4,-4zm11 -15l0 0 -11 14 4 -5c3,-4 5,-7 7,-9zm358 -45c0,0 0,0 0,0 0,0 0,0 0,0 0,0 0,0 0,0 0,0 0,0 0,0z"/>
   <path class="fil12" d="M3911 401c-89,113 -205,124 -205,124 -124,16 -153,29 -153,29 -23,6 -40,22 -48,32 -3,3 -5,6 -7,9 -2,2 -4,5 -7,9l-4 5 0 1c-1,1 -2,3 -4,4l-3 5c-1,1 -2,3 -4,5l-7 9 -9 13c-7,9 -14,19 -21,28l-2 3c-4,5 -8,10 -12,15l-19 25 -6 9c-1,1 -2,2 -3,3l-3 4c0,1 0,1 -1,1l-1 2 -1 1 0 1 -1 1c0,0 305,-6 466,-189 0,0 0,0 0,0 0,0 0,0 0,0 42,-82 55,-149 55,-149z"/>
   <g>
    <path class="fil13" d="M3187 911l0 0c-37,36 -99,92 -148,135 0,0 0,0 0,0 49,-43 111,-99 148,-135zm15 -16c-4,4 -8,8 -13,13 5,-5 9,-9 13,-13zm0 0c0,0 0,0 0,0 0,0 0,0 0,0zm-185 -235c-1,1 -23,35 -45,88l0 0c22,-53 44,-87 45,-88zm0 0l0 0 0 0zm0 0l0 0 0 0zm0 0l0 0 0 0zm0 0l0 0 0 0zm84 -48c0,0 0,0 0,1 0,-1 0,-1 0,-1zm1 -1c0,0 0,0 -1,1 1,-1 1,-1 1,-1zm0 -1c0,1 0,1 0,1 0,0 0,0 0,-1zm0 0c0,0 0,0 0,0 0,0 0,0 0,0zm0 -1c0,0 0,0 0,0 0,0 0,0 0,0zm1 -2c0,1 0,1 -1,2 1,-1 1,-1 1,-2zm0 0c0,0 0,0 0,0 0,0 0,0 0,0zm0 -1c0,0 0,0 0,0 0,0 0,0 0,0zm1 -1c-1,0 -1,0 -1,1 0,-1 0,-1 1,-1zm0 -1c0,0 0,1 0,1 0,0 0,-1 0,-1zm1 -2c-1,1 -1,1 -1,2 0,-1 0,-1 1,-2zm0 -1c0,0 0,1 0,1 0,0 0,-1 0,-1zm74 -130c-23,27 -54,70 -74,130 20,-60 51,-103 74,-130 0,0 0,0 0,0z"/>
   </g>
   <path class="fil13" d="M3179 471c-23,27 -54,70 -74,130 0,0 0,0 0,0 0,0 0,1 0,1 0,0 0,0 0,0 -1,1 -1,1 -1,2 0,0 0,0 0,0 0,0 0,1 0,1 0,0 0,0 0,0 -1,0 -1,0 -1,1 0,0 0,0 0,0 0,0 0,0 0,0 0,0 0,0 0,1 0,0 0,0 0,0 0,0 0,0 0,0 0,1 0,1 -1,2 0,0 0,0 0,0 0,0 0,0 0,0 0,1 0,1 0,1 0,0 0,0 0,0 0,0 0,0 0,0 0,1 0,1 0,1 0,0 0,0 0,0 0,0 0,0 -1,1 0,0 0,0 0,0 0,0 0,0 0,1 0,0 2,-12 2,-30 0,-29 -5,-75 -28,-101 0,0 -1,73 -30,135 0,0 -35,104 -35,224 0,31 3,63 9,95 0,0 -19,-39 -19,-122 0,-41 5,-92 17,-154l0 0 0 0c0,0 0,0 0,0l0 0c0,0 0,0 0,0l0 0 0 0 0 0c0,0 0,0 0,0 -1,1 -23,35 -45,88l0 0c0,0 0,0 0,0 0,205 73,293 73,293 -2,2 -4,4 -6,5 49,-43 111,-99 148,-135l0 0c1,-1 2,-2 2,-3 5,-5 9,-9 13,-13 0,0 0,0 0,0 0,0 0,0 0,0 0,0 0,0 0,-1 -10,10 -15,17 -15,17 -55,-182 -43,-328 -8,-440z"/>
   <path class="fil14" d="M2966 1110c0,0 0,0 0,0l0 0c0,0 0,0 0,0zm73 -64c0,0 0,0 0,0 0,0 0,0 0,0 0,0 0,0 0,0 0,0 0,0 0,0z"/>
   <path class="fil14" d="M2972 748c-34,85 -66,220 -6,362l0 0c0,0 0,0 0,0 3,-2 33,-29 73,-64 0,0 0,0 0,0 0,0 0,0 0,0 2,-1 4,-3 6,-5 0,0 -73,-88 -73,-293z"/>
   <path class="fil15" d="M3220 875c-7,7 -13,14 -18,19l0 0c5,-5 11,-12 18,-19zm1 -1c0,0 0,0 -1,0 1,0 1,0 1,0zm128 -140c-21,23 -44,48 -66,73 22,-25 45,-50 66,-73 0,0 0,0 0,0zm-22 -438l0 0zm0 -3c0,1 0,1 0,1 0,0 0,0 0,-1zm0 -1c0,1 0,1 0,1 0,0 0,0 0,-1zm1 -1c0,0 0,0 -1,1 1,-1 1,-1 1,-1zm0 -1c0,0 0,0 0,1 0,-1 0,-1 0,-1zm0 -1c0,0 0,0 0,0 0,0 0,0 0,0zm0 -1c0,0 0,0 0,1 0,-1 0,-1 0,-1zm0 -1c0,0 0,0 0,0 0,0 0,0 0,0zm1 -2c0,1 0,1 -1,2 1,-1 1,-1 1,-2zm0 0c0,0 0,0 0,0 0,0 0,0 0,0zm0 -3c0,1 0,2 0,2 0,0 0,-1 0,-2zm18 -75c-23,20 -119,107 -168,264 0,0 0,0 0,0 49,-157 145,-244 168,-264zm6 -4l0 0c-11,27 -18,53 -24,79 6,-26 13,-52 24,-79z"/>
   <path class="fil15" d="M3353 203c0,0 -2,1 -6,4 -23,20 -119,107 -168,264 18,-20 31,-31 31,-31 -87,244 -13,443 -8,454l0 0 0 0c5,-5 11,-12 18,-19 0,0 0,-1 0,-1 1,0 1,0 1,0 17,-19 39,-42 62,-67 22,-25 45,-50 66,-73 -2,-3 -48,-65 -26,-270 -6,-51 -7,-108 4,-168l0 0c0,-1 0,-2 0,-2 0,0 0,0 0,-1 0,0 0,0 0,0 0,0 0,0 0,-1 0,0 0,0 0,0 1,-1 1,-1 1,-1 0,0 0,0 0,0 0,-1 0,-1 0,-1 0,0 0,0 0,-1 0,0 0,0 0,0 0,0 0,0 0,0 0,-1 0,-1 0,-1 0,0 0,0 0,-1 0,0 0,0 0,0 0,0 0,0 0,0 1,-1 1,-1 1,-2 0,0 0,0 0,0 0,0 0,0 0,0 0,0 0,0 0,-1 0,0 0,-1 0,-2l0 0c6,-26 13,-52 24,-79l0 0z"/>
   <path class="fil16" d="M3179 471c0,0 0,0 0,0 0,0 0,0 0,0 0,0 0,0 0,0 0,0 0,0 0,0z"/>
   <path class="fil16" d="M3210 440c0,0 -13,11 -31,31 0,0 0,0 0,0 0,0 0,0 0,0 -35,112 -47,258 8,440 0,0 5,-7 15,-17 -5,-11 -79,-210 8,-454z"/>
   <path class="fil15" d="M3392 685c0,0 0,0 0,0l0 0c0,0 0,0 0,0zm0 0z"/>
   <path class="fil15" d="M3392 685l0 0c0,0 0,0 0,0z"/>
   <path class="fil17" d="M3642 323c0,0 0,0 0,0 -67,115 -152,246 -250,362 0,0 0,0 0,0 98,-116 183,-247 250,-362zm165 -323c-3,7 -62,145 -161,316 0,0 0,0 0,0 99,-171 158,-309 161,-316zm1 0c0,0 0,0 -1,0 1,0 1,0 1,0zm0 0c0,0 0,0 0,0 0,0 0,0 0,0zm0 0c0,0 0,0 0,0 0,0 0,0 0,0zm0 0c0,0 0,0 0,0 0,0 0,0 0,0z"/>
   <path class="fil18" d="M3646 316c-1,3 -2,5 -4,7 0,0 0,0 0,0 2,-2 3,-4 4,-7 0,0 0,0 0,0z"/>
   <path class="fil17" d="M3376 193c-29,110 -45,200 -53,271 0,0 0,0 0,0 8,-71 24,-161 53,-271zm0 -1c0,0 0,1 0,1 0,0 0,-1 0,-1zm0 -1c0,0 0,0 0,1 0,-1 0,-1 0,-1zm1 -2c0,1 0,1 -1,1 1,0 1,0 1,-1zm0 -1c0,0 0,1 0,1 0,0 0,-1 0,-1zm0 -1c0,0 0,0 0,1 0,-1 0,-1 0,-1zm1 -2c0,1 0,1 0,1 0,0 0,0 0,-1zm0 -1c0,0 0,1 0,1 0,0 0,-1 0,-1zm1 -1c-1,0 -1,0 -1,1 0,-1 0,-1 1,-1zm0 -2c0,1 0,1 0,1 0,0 0,0 0,-1zm0 -1c0,0 0,1 0,1 0,0 0,-1 0,-1zm1 -2c0,1 -1,1 -1,2 0,-1 1,-1 1,-2z"/>
   <path class="fil17" d="M3808 0c-38,19 -162,22 -162,22 -148,5 -175,77 -177,81 0,0 0,0 0,0 -71,127 -85,247 -85,321 0,48 6,76 6,76 -17,-23 -22,-78 -22,-137 0,-89 12,-185 12,-185 0,1 -1,1 -1,2 0,0 0,0 0,0 0,0 0,1 0,1 0,0 0,0 0,0 0,1 0,1 0,1 0,0 0,0 0,1 -1,0 -1,0 -1,1 0,0 0,0 0,0 0,0 0,1 0,1 0,0 0,0 0,0 0,1 0,1 0,1 0,0 0,0 0,1 -1,0 -1,0 -1,1 0,0 0,0 0,0 0,0 0,1 0,1 0,0 0,0 0,0 0,1 0,1 -1,1 0,0 0,1 0,1 0,0 0,0 0,1 0,0 0,0 0,0 0,0 0,1 0,1l0 0c-29,110 -45,200 -53,271 0,0 0,0 0,0l0 0c16,129 68,219 69,221 98,-116 183,-247 250,-362 2,-2 3,-4 4,-7 99,-171 158,-309 161,-316l0 0c1,0 1,0 1,0 0,0 0,0 0,0 0,0 0,0 0,0 0,0 0,0 0,0 0,0 0,0 0,0 0,0 0,0 0,0 0,0 0,0 0,0z"/>
   <path class="fil17" d="M3349 734l0 0c0,0 0,0 0,0l0 0zm1 -1c0,0 -1,0 -1,1 0,-1 1,-1 1,-1zm1 -2c0,0 0,1 -1,1 1,0 1,-1 1,-1zm41 -46c-1,1 -1,1 -2,2 -13,15 -25,30 -38,44 13,-15 27,-30 40,-46z"/>
   <path class="fil17" d="M3390 687c-11,13 -26,29 -41,47l0 0c0,-1 1,-1 1,-1 0,-1 0,-1 0,-1 1,0 1,-1 1,-1 0,0 0,0 1,0 13,-14 25,-29 38,-44z"/>
   <path class="fil19" d="M3349 734l0 0 0 0 0 0zm43 -49c-1,1 -1,1 -2,2 0,0 0,0 0,0 1,-1 1,-1 2,-2l0 0zm0 0l0 0 0 0 0 0 0 0z"/>
   <path class="fil19" d="M3323 464c-22,205 24,267 26,270l0 0 0 0c15,-18 30,-34 41,-47 0,0 0,0 0,0 1,-1 1,-1 2,-2l0 0 0 0c-1,-2 -53,-92 -69,-221z"/>
  </g>
 </g>
</svg>
