<?xml version="1.0" encoding="UTF-8"?>
<!DOCTYPE svg PUBLIC "-//W3C//DTD SVG 1.1//EN" "http://www.w3.org/Graphics/SVG/1.1/DTD/svg11.dtd">
<!-- Creator: CorelDRAW X8 -->
<svg xmlns="http://www.w3.org/2000/svg" xml:space="preserve" width="12.7mm" height="12.7mm" version="1.1" style="shape-rendering:geometricPrecision; text-rendering:geometricPrecision; image-rendering:optimizeQuality; fill-rule:evenodd; clip-rule:evenodd"
viewBox="0 0 202 202"
 xmlns:xlink="http://www.w3.org/1999/xlink">
 <defs>
  <style type="text/css">
   <![CDATA[
    .fil0 {fill:#7A3773;fill-rule:nonzero}
   ]]>
  </style>
 </defs>
 <g id="Layer_x0020_1">
  <metadata id="CorelCorpID_0Corel-Layer"/>
  <g id="_1693294362960">
   <path class="fil0" d="M159 114l0 43 -25 0 0 -40c0,-11 -3,-17 -12,-17 -7,0 -11,4 -13,9 -1,1 -1,4 -1,6l0 42 -25 0c0,0 0,-68 0,-75l25 0 0 10c0,0 0,0 0,1l0 0 0 -1c3,-5 9,-12 22,-12 17,0 29,11 29,34zm-102 -68c-8,0 -14,5 -14,13 0,7 5,12 14,12l0 0c9,0 14,-5 14,-12 0,-8 -5,-13 -14,-13zm-13 111l25 0 0 -75 -25 0 0 75z"/>
   <path class="fil0" d="M0 0l0 202 202 0 0 -202 -202 0zm190 190l-177 0 0 -177 177 0 0 177z"/>
  </g>
 </g>
</svg>
