<?xml version="1.0" encoding="UTF-8"?>
<!DOCTYPE svg PUBLIC "-//W3C//DTD SVG 1.1//EN" "http://www.w3.org/Graphics/SVG/1.1/DTD/svg11.dtd">
<!-- Creator: CorelDRAW X8 -->
<svg xmlns="http://www.w3.org/2000/svg" xml:space="preserve" width="10.4691mm" height="10.3512mm" version="1.1" style="shape-rendering:geometricPrecision; text-rendering:geometricPrecision; image-rendering:optimizeQuality; fill-rule:evenodd; clip-rule:evenodd"
viewBox="0 0 62 61"
 xmlns:xlink="http://www.w3.org/1999/xlink">
 <defs>
  <style type="text/css">
   <![CDATA[
    .fil0 {fill:white}
    .fil1 {fill:#FEFEFE;fill-rule:nonzero}
    .fil15 {fill:#FFCE3E;fill-rule:nonzero}
    .fil13 {fill:#F9A631;fill-rule:nonzero}
    .fil17 {fill:#F58634;fill-rule:nonzero}
    .fil7 {fill:#EB7337;fill-rule:nonzero}
    .fil6 {fill:#E4A437;fill-rule:nonzero}
    .fil10 {fill:#D65339;fill-rule:nonzero}
    .fil14 {fill:#C33538;fill-rule:nonzero}
    .fil11 {fill:#C93680;fill-rule:nonzero}
    .fil9 {fill:#B13437;fill-rule:nonzero}
    .fil4 {fill:#BD3378;fill-rule:nonzero}
    .fil8 {fill:#3D322C;fill-rule:nonzero}
    .fil3 {fill:#8560A7;fill-rule:nonzero}
    .fil16 {fill:#423C2F;fill-rule:nonzero}
    .fil12 {fill:#7A3773;fill-rule:nonzero}
    .fil5 {fill:#512A45;fill-rule:nonzero}
    .fil2 {fill:#673C81;fill-rule:nonzero}
   ]]>
  </style>
 </defs>
 <g id="Layer_x0020_1">
  <metadata id="CorelCorpID_0Corel-Layer"/>
  <circle class="fil0" cx="33" cy="32" r="27"/>
  <polygon class="fil0" points="27,56 10,44 0,61 "/>
  <g id="_1693115490384">
   <path class="fil1" d="M58 22c2,-2 4,-5 4,-8 0,0 -3,5 -12,6 0,0 9,-3 11,-8 0,0 2,-1 -1,-6 0,0 -3,-4 -4,-6 0,0 -4,14 -12,24 0,0 0,0 0,0 0,0 0,0 0,0l-1 1c0,0 0,0 0,0l0 0c0,0 0,0 0,0l-1 1c0,1 0,1 -1,1l0 0c0,1 0,1 0,1l-1 1c0,0 0,0 0,1l0 0c0,0 0,0 0,0l0 0 -1 0 0 0c-1,2 -6,6 -8,9 0,0 -1,1 -2,2l0 0c0,0 -1,0 -1,0 -2,2 -3,3 -5,5 -15,12 -22,14 -22,14 0,1 2,0 2,0 3,-1 11,-6 11,-6 4,-3 7,-1 7,-1 4,1 8,0 8,0 -5,0 -6,-2 -6,-2 7,3 8,1 8,1 -4,0 -5,-2 -5,-2 7,2 12,-1 14,-3 4,-2 8,-4 12,-9 0,0 -6,4 -13,4 8,-1 14,-7 14,-7 -11,5 -16,0 -16,0 3,1 4,2 6,2 11,0 13,-6 13,-6 -4,3 -8,2 -8,2 5,-3 8,-7 10,-11z"/>
   <path class="fil2" d="M2 61l0 0 0 0zm-1 -1c0,0 0,1 1,1 -1,0 -1,-1 -1,-1zm13 -6c0,0 0,0 0,0 0,0 0,0 0,0zm15 -1c0,0 0,0 0,0l0 0c0,0 0,0 0,0zm0 0c0,0 0,0 0,0 0,0 0,0 0,0zm0 0c0,0 0,0 0,0 0,0 0,0 0,0zm-10 0c0,0 0,0 0,0 0,0 0,0 0,0 2,0 2,0 2,0 2,1 3,1 4,1 1,0 1,0 1,0 0,0 0,0 -1,0 -1,0 -2,0 -4,-1 0,0 0,0 -2,0zm4 -2c3,1 5,2 6,2 -1,0 -3,-1 -6,-2zm3 -1c1,0 3,1 4,1 -1,0 -3,-1 -4,-1zm0 0c0,0 0,0 0,0 0,0 0,0 0,0zm0 0c0,0 1,2 5,2 0,0 0,0 0,0 0,0 0,0 0,0 -4,0 -5,-2 -5,-2zm13 -2c0,0 0,0 0,0 0,0 0,0 0,0zm0 0c0,0 0,0 0,0 0,0 0,0 0,0zm0 0c0,0 0,0 0,0 0,0 0,0 0,0zm1 -1l0 0c0,0 -1,1 -1,1 0,0 1,-1 1,-1zm-17 -1l0 0c-15,12 -22,14 -22,14 0,0 7,-2 22,-14zm5 -5c0,1 -1,1 -1,1 0,0 1,0 1,-1l0 0z"/>
   <path class="fil2" d="M23 46l0 0c-15,12 -22,14 -22,14 0,0 0,1 1,1l0 0 0 0c0,0 1,-1 1,-1 3,-1 11,-6 11,-6 0,0 0,0 0,0 2,-1 3,-1 5,-1 0,0 0,0 0,0 2,0 2,0 2,0 2,1 3,1 4,1 1,0 1,0 1,0 2,0 3,-1 3,-1 -5,0 -6,-2 -6,-2 0,0 0,0 0,0 3,1 5,2 6,2 0,0 0,0 0,0 0,0 0,0 0,0 0,0 0,0 0,0 0,0 0,0 0,0 0,0 0,0 0,0 0,0 0,0 0,0 2,0 2,-1 2,-1 0,0 0,0 0,0 -4,0 -5,-2 -5,-2 0,0 0,0 0,0 0,0 0,0 0,0 0,0 0,0 0,0 1,0 3,1 4,1 0,0 1,0 1,0 3,0 6,-2 8,-3 0,0 0,0 0,0 0,0 0,0 0,0 0,0 0,0 0,0 0,0 0,0 0,0 0,0 0,0 0,0 0,0 0,0 0,0 0,0 1,-1 1,-1 -2,0 -4,1 -7,1 -6,0 -10,-2 -10,-2zm5 -5c0,1 -1,1 -1,1 -2,2 -3,3 -4,4 1,-1 3,-3 5,-5z"/>
   <path class="fil1" d="M43 4c-5,9 -4,16 -4,16 -1,-2 0,-13 0,-13 -1,5 -2,9 -2,12 -1,-3 -1,-7 1,-11 0,0 -5,4 -7,11 -1,1 -2,3 -3,6 0,0 0,-4 -1,-6 0,0 0,3 -2,6 0,0 -2,7 -1,13 0,0 -1,-4 0,-11 0,0 -1,1 -1,3 0,0 0,-1 0,-2 0,0 -1,2 -3,5 0,0 -2,2 -1,9 0,0 -2,-3 -1,-8 0,0 -3,3 -3,9 0,0 0,4 -2,9 0,0 4,-3 9,-7 1,-1 2,-2 3,-3 2,-1 5,-4 6,-5l0 0c0,0 1,-1 1,-1l0 0c1,-1 4,-4 6,-6l0 0c0,-1 1,-2 1,-2 0,0 1,0 1,0l0 0c10,-12 16,-28 16,-28 -1,1 -6,1 -6,1 -6,0 -7,3 -7,3z"/>
   <g>
    <path class="fil3" d="M13 52l0 0zm0 0l0 0 0 0zm0 0c0,0 0,0 0,0 0,0 0,0 0,0zm0 0l0 0c0,0 0,0 0,0zm0 0c0,0 0,0 0,0 0,0 0,0 0,0zm0 0c0,0 0,0 0,0 0,0 0,0 0,0zm12 -10c0,0 0,0 0,0 -1,1 -2,2 -3,3 -4,4 -9,7 -9,7 1,0 6,-4 12,-10zm-7 -4c0,3 1,4 1,4 0,0 -1,-1 -1,-4zm0 -4c0,0 -3,3 -3,9 0,0 0,4 -2,9 2,-5 2,-9 2,-9 0,-6 3,-9 3,-9zm5 -6c0,0 0,0 0,0 0,0 0,0 0,0zm0 0c0,0 0,0 0,0 0,0 0,0 0,0zm0 0c0,0 0,0 0,0 0,0 0,0 0,0zm0 0c0,0 0,0 0,0 0,0 0,0 0,0zm0 0c0,0 0,0 0,0 0,0 0,0 0,0zm0 0c0,0 0,0 0,0 0,0 0,0 0,0zm0 0c0,0 0,0 0,0 0,0 0,0 0,0zm0 0c0,0 0,0 0,0 0,0 0,0 0,0zm0 0c0,0 0,0 0,0 0,0 0,0 0,0zm0 0c0,0 0,0 0,0 0,0 0,0 0,0z"/>
   </g>
   <path class="fil3" d="M23 28c0,0 0,0 0,0 0,0 -1,2 -3,5 0,0 0,0 0,0 0,0 0,0 0,0 -1,1 -2,3 -1,9l0 0 0 0c0,0 -1,-1 -1,-4 -1,-1 -1,-2 0,-4 0,0 -3,3 -3,9 0,0 0,4 -2,9 0,0 0,0 0,0l0 0c0,0 0,0 0,0l0 0c0,0 0,0 0,0 0,0 0,0 0,0 0,0 0,0 0,0l0 0 0 0c0,0 0,0 0,0 0,0 0,0 0,0 0,0 0,0 0,0l0 0c0,0 5,-3 9,-7 1,-1 2,-2 3,-3 -1,2 -3,3 -3,3 -2,-6 -1,-11 1,-15 0,0 0,-1 0,-2 0,0 0,0 0,0 0,0 0,0 0,0 0,0 0,0 0,0 0,0 0,0 0,0 0,0 0,0 0,0 0,0 0,0 0,0 0,0 0,0 0,0 0,0 0,0 0,0 0,0 0,0 0,0 0,0 0,0 0,0 0,0 0,0 0,0 0,0 0,0 0,0 0,0 0,0 0,0 0,0 0,0 0,0 0,0 0,0 0,0l0 0c0,0 0,0 0,0 0,0 0,0 0,0 0,0 0,0 0,0z"/>
   <path class="fil4" d="M28 41c0,0 0,0 0,0l0 0c0,0 0,0 0,0zm1 0c0,0 0,0 0,0 0,0 0,0 0,0l0 0zm23 -3c-4,5 -8,7 -12,9 0,0 0,0 0,0 4,-2 8,-4 12,-9zm0 0c0,0 0,0 0,0 0,0 0,0 0,0zm0 0c0,0 0,0 0,0 0,0 0,0 0,0zm0 0c0,0 0,0 0,0 0,0 0,0 0,0zm0 0c0,0 0,0 0,0 0,0 0,0 0,0zm0 0c0,0 0,0 0,0 0,0 0,0 0,0zm0 0c0,0 0,0 0,0 0,0 0,0 0,0zm0 0c0,0 0,0 0,0 0,0 0,0 0,0zm0 0c0,0 0,0 0,0 0,0 0,0 0,0zm0 0c0,0 0,0 0,0 0,0 0,0 0,0zm0 0c0,0 0,0 0,0 0,0 0,0 0,0zm0 0c0,0 0,0 0,0 0,0 0,0 0,0zm0 0c0,0 0,0 0,0 0,0 0,0 0,0z"/>
   <path class="fil4" d="M52 38c0,0 0,0 0,0 0,0 -5,4 -11,4 -1,0 -1,0 -2,0 -1,0 -2,0 -3,0 -2,0 -5,0 -7,-1 0,0 0,0 0,0 -1,0 -1,0 -1,0 0,0 0,0 0,0 0,0 4,4 11,4 1,0 2,0 3,0 0,0 0,0 -2,2 4,-2 8,-4 12,-9l0 0c0,0 0,0 0,0l0 0c0,0 0,0 0,0 0,0 0,0 0,0 0,0 0,0 0,0l0 0c0,0 0,0 0,0l0 0c0,0 0,0 0,0 0,0 0,0 0,0 0,0 0,0 0,0 0,0 0,0 0,0 0,0 0,0 0,0 0,0 0,0 0,0 0,0 0,0 0,0l0 0c0,0 0,0 0,0 0,0 0,0 0,0 0,0 0,0 0,0 0,0 0,0 0,0 0,0 0,0 0,0 0,0 0,0 0,0 0,0 0,0 0,0z"/>
   <g>
    <path class="fil5" d="M40 47l0 0c0,0 0,0 0,0l0 0c0,0 0,0 0,0l0 0zm-12 -6l0 0 0 0c0,0 0,0 0,0l0 0z"/>
   </g>
   <path class="fil5" d="M28 41c0,0 0,0 0,0 -2,2 -4,4 -5,5 0,0 4,2 10,2 3,0 5,-1 7,-1 0,0 0,0 0,0 2,-2 2,-2 2,-2 -1,0 -2,0 -3,0 -7,0 -11,-4 -11,-4z"/>
   <g>
    <path class="fil4" d="M31 39c0,0 -1,1 -2,2 0,0 0,0 0,0 1,-1 2,-2 2,-2zm0 0c0,0 0,0 0,0 0,0 0,0 0,0zm0 0c0,0 0,0 0,0 0,0 0,0 0,0zm0 0c0,0 0,0 0,0 0,0 0,0 0,0zm0 0c0,0 0,0 0,0 0,0 0,0 0,0zm0 0c0,0 0,0 0,0 0,0 0,0 0,0zm0 0c0,0 0,0 0,0 0,0 0,0 0,0zm0 0c0,0 0,0 0,0 0,0 0,0 0,0zm0 0c0,0 0,0 0,0 0,0 0,0 0,0zm0 0c0,0 0,0 0,0 0,0 0,0 0,0zm0 0c0,0 0,0 0,0 0,0 0,0 0,0zm0 0c0,0 0,0 0,0 0,0 0,0 0,0zm0 0c0,0 0,0 0,0 0,0 0,0 0,0zm0 0c0,0 0,0 0,0 0,0 0,0 0,0zm0 0c0,0 0,0 0,0 0,0 0,0 0,0zm0 0c0,0 0,0 0,0 0,0 0,0 0,0l0 0zm0 0c0,0 0,0 0,0 0,0 0,0 0,0zm0 0c0,0 0,0 0,0 0,0 0,0 0,0zm0 0c0,0 0,0 0,0 0,0 0,0 0,0z"/>
   </g>
   <path class="fil4" d="M31 39l0 0 0 0c0,0 0,0 0,0l0 0c0,0 0,0 0,0l0 0c0,0 0,0 0,0 0,0 0,0 0,0 0,0 0,0 0,0l0 0c0,0 0,0 0,0l0 0c0,0 0,0 0,0 0,0 0,0 0,0 0,0 0,0 0,0 0,0 0,0 0,0 0,0 0,0 0,0 0,0 0,0 0,0 0,0 0,0 0,0l0 0c0,0 0,0 0,0 0,0 0,0 0,0 0,0 0,0 0,0 0,0 0,0 0,0 0,0 0,0 0,0 0,0 0,0 0,0 0,0 0,0 0,0 0,0 0,0 0,0 0,0 0,0 0,0l0 0c0,0 0,0 0,0 0,0 0,0 0,0 0,0 0,0 0,0 0,0 0,0 0,0 0,0 0,0 0,0 0,0 0,0 0,0 0,0 0,0 0,0 0,0 0,0 0,0 0,0 -1,1 -2,2 0,0 1,-1 2,-2z"/>
   <path class="fil6" d="M62 14c0,3 -2,6 -4,8 0,0 0,0 0,0 2,-2 4,-5 4,-8zm0 0c0,0 0,0 0,0 0,0 0,0 0,0zm0 0c0,0 0,0 0,0 0,0 0,0 0,0zm0 0c0,0 0,0 0,0 0,0 0,0 0,0zm0 0c0,0 0,0 0,0 0,0 0,0 0,0zm0 0c0,0 0,0 0,0 0,0 0,0 0,0zm0 0c0,0 0,0 0,0 0,0 0,0 0,0zm0 0c0,0 0,0 0,0 0,0 0,0 0,0zm-6 -14c0,0 0,0 0,0 0,0 0,0 0,0zm0 0c0,0 0,0 0,0 0,0 0,0 0,0zm0 0c0,0 0,0 0,0 0,0 0,0 0,0z"/>
   <path class="fil6" d="M56 0l0 0 0 0c0,0 0,0 0,0 0,0 0,0 0,0 0,0 0,0 0,0 0,0 0,0 0,0 0,0 0,0 0,0 0,0 -4,14 -12,24 0,-1 1,-1 2,-2 0,0 1,0 6,-1 0,0 5,0 9,-5 0,0 -1,3 -3,6 2,-2 4,-5 4,-8 0,0 0,0 0,0 0,0 0,0 0,0 0,0 0,0 0,0 0,0 0,0 0,0 0,0 0,0 0,0 0,0 0,0 0,0 0,0 0,0 0,0 0,0 0,0 0,0 0,0 0,0 0,0 0,0 0,0 0,0 0,0 0,0 0,0 0,0 0,0 0,0 0,0 0,0 0,0 0,0 0,0 0,0 0,0 0,0 0,0 0,0 -3,5 -12,6 0,0 9,-3 11,-8 0,0 1,0 1,-2 0,0 -1,-2 -2,-4 0,0 -3,-4 -4,-6z"/>
   <path class="fil7" d="M58 24c-2,3 -5,6 -8,8 3,-2 6,-5 8,-8 0,0 0,0 0,0zm0 -2c0,0 0,0 0,0 0,1 0,1 0,1 0,0 0,0 0,0 0,0 0,0 0,-1z"/>
   <path class="fil8" d="M58 23c0,0 0,0 0,1 0,0 0,0 0,0 0,-1 0,-1 0,-1 0,0 0,0 0,0z"/>
   <g>
    <path class="fil7" d="M44 37c0,0 0,0 0,0l0 0c0,0 0,0 0,0zm0 0l0 0 0 0zm-1 0c1,0 1,0 1,0 0,0 0,0 -1,0zm10 -2c0,0 0,0 0,0 0,0 0,0 0,0zm0 0c0,0 -6,6 -14,7 0,0 0,0 0,0 8,-1 14,-7 14,-7zm0 0c0,0 0,0 0,0 0,0 0,0 0,0zm0 0c0,0 0,0 0,0 0,0 0,0 0,0l0 0zm0 0c0,0 0,0 0,0 0,0 0,0 0,0zm0 0c0,0 0,0 0,0 0,0 0,0 0,0zm0 0l0 0 0 0zm0 0l0 0zm0 0l0 0 0 0zm0 0c0,0 0,0 0,0l0 0zm0 0c0,0 0,0 0,0 0,0 0,0 0,0zm-16 0c0,0 2,2 7,2 -5,0 -7,-2 -7,-2zm13 -2c0,0 0,0 0,0 0,0 0,0 0,0zm-2 0l0 0c0,0 1,0 2,0 -1,0 -2,0 -2,0zm0 0c0,0 0,0 0,0 0,0 0,0 0,0zm0 0c0,0 0,0 0,0 0,0 0,0 0,0zm0 0c0,0 0,0 0,0 0,0 0,0 0,0zm0 0c0,0 0,0 0,0 0,0 0,0 0,0zm0 0c0,0 0,0 0,0 0,0 0,0 0,0zm0 0c0,0 0,0 0,0 0,0 0,0 0,0zm0 0c0,0 0,0 0,0 0,0 0,0 0,0zm0 0c0,0 0,0 0,0 0,0 0,0 0,0zm0 0c0,0 0,0 0,0 0,0 0,0 0,0zm0 0c0,0 0,0 0,0 0,0 0,0 0,0zm0 0c0,0 0,0 0,0 0,0 0,0 0,0zm0 0c0,0 0,0 0,0 0,0 0,0 0,0zm0 0c0,0 0,0 0,0 0,0 0,0 0,0zm0 0c0,0 0,0 0,0 0,0 0,0 0,0zm0 0c0,0 0,0 0,0 0,0 0,0 0,0zm0 0c0,0 0,0 0,0 0,0 0,0 0,0zm0 0c0,0 0,0 0,0 0,0 0,0 0,0zm0 0c0,0 0,0 0,0 0,0 0,0 0,0zm0 0c0,0 0,0 0,0 0,0 0,0 0,0zm0 0c0,0 0,0 0,0 0,0 0,0 0,0zm0 0c0,0 0,0 0,0 0,0 0,0 0,0zm0 0c0,0 0,0 0,0 0,0 0,0 0,0zm0 0c0,0 0,0 0,0 0,0 0,0 0,0zm0 0c0,0 0,0 0,0 0,0 0,0 0,0zm0 0c0,0 0,0 0,0 0,0 0,0 0,0zm0 0c0,0 0,0 0,0 0,0 0,0 0,0zm0 0c0,0 0,0 0,0 0,0 0,0 0,0zm0 0c0,0 0,0 0,0 0,0 0,0 0,0zm0 0c0,0 0,0 0,0 0,0 0,0 0,0zm0 0c0,0 0,0 0,0 0,0 0,0 0,0zm0 0c0,0 0,0 0,0 0,0 0,0 0,0zm0 0c0,0 0,0 0,0 0,0 0,0 0,0zm0 0c0,0 0,0 0,0 0,0 0,0 0,0zm0 0c0,0 0,0 0,0 0,0 0,0 0,0zm0 0c0,0 0,0 0,0 0,0 0,0 0,0zm0 0c0,0 0,0 0,0 0,0 0,0 0,0zm0 0c0,0 0,0 0,0 0,0 0,0 0,0zm0 0c0,0 0,0 0,0 0,0 0,0 0,0zm0 0c0,0 0,0 0,0 0,0 0,0 0,0zm0 0c0,0 0,0 0,0l0 0zm0 0c0,0 0,0 0,0 0,0 0,0 0,0zm0 0c0,0 0,0 0,0 0,0 0,0 0,0zm1 -1c0,0 0,0 0,0 0,0 0,0 0,0zm0 0c0,0 0,0 0,0 0,0 0,0 0,0zm0 0c0,0 0,0 0,0 0,0 0,0 0,0zm0 0c0,0 0,0 0,0 0,0 0,0 0,0zm0 0c0,0 0,0 0,0 0,0 0,0 0,0zm0 0c0,0 0,0 0,0 0,0 0,0 0,0zm0 0c0,0 0,0 0,0 0,0 0,0 0,0zm0 0c0,0 0,0 0,0 0,0 0,0 0,0zm0 0c0,0 0,0 0,0 0,0 0,0 0,0zm0 0c0,0 0,0 0,0 0,0 0,0 0,0zm0 0c0,0 0,0 0,0 0,0 0,0 0,0zm0 0c0,0 0,0 0,0 0,0 0,0 0,0zm0 0c0,0 0,0 0,0 0,0 0,0 0,0zm0 0c0,0 0,0 0,0 0,0 0,0 0,0zm0 0c0,0 0,0 0,0 0,0 0,0 0,0zm0 0c0,0 0,0 0,0 0,0 0,0 0,0zm0 0c0,0 0,0 0,0 0,0 0,0 0,0zm0 0c0,0 0,0 0,0 0,0 0,0 0,0zm0 0c0,0 0,0 0,0 0,0 0,0 0,0zm0 0c0,0 0,0 0,0 0,0 0,0 0,0zm0 0c0,0 0,0 0,0 0,0 0,0 0,0zm0 0c0,0 0,0 0,0 0,0 0,0 0,0zm0 0c0,0 0,0 0,0 0,0 0,0 0,0zm0 0c0,0 0,0 0,0 0,0 0,0 0,0zm0 0c0,0 0,0 0,0 0,0 0,0 0,0zm0 0c0,0 0,0 0,0 0,0 0,0 0,0zm0 0c0,0 0,0 0,0 0,0 0,0 0,0zm0 0c0,0 0,0 0,0 0,0 0,0 0,0zm0 0c0,0 0,0 0,0 0,0 0,0 0,0zm0 0c0,0 0,0 0,0 0,0 0,0 0,0zm0 0c0,0 0,0 0,0 0,0 0,0 0,0zm0 0c0,0 0,0 0,0 0,0 0,0 0,0zm0 0c0,0 0,0 0,0 0,0 0,0 0,0zm0 0c0,0 0,0 0,0 0,0 0,0 0,0zm0 0c0,0 0,0 0,0 0,0 0,0 0,0zm0 0c0,0 0,0 0,0 0,0 0,0 0,0zm0 0c0,0 0,0 0,0 0,0 0,0 0,0zm0 0c0,0 0,0 0,0 0,0 0,0 0,0zm0 0c0,0 0,0 0,0 0,0 0,0 0,0zm0 0c0,0 0,0 0,0 0,0 0,0 0,0zm0 0c0,0 0,0 0,0 0,0 0,0 0,0zm0 0c0,0 0,0 0,0 0,0 0,0 0,0zm0 0c0,0 0,0 0,0 0,0 0,0 0,0zm0 0c0,0 0,0 0,0 0,0 0,0 0,0zm0 0c0,0 0,0 0,0 0,0 0,0 0,0zm0 0c0,0 0,0 0,0 0,0 0,0 0,0zm0 0c0,0 0,0 0,0 0,0 0,0 0,0zm0 0c0,0 0,0 0,0 0,0 0,0 0,0zm0 0c0,0 0,0 0,0 0,0 0,0 0,0zm0 0c0,0 0,0 0,0 0,0 0,0 0,0zm0 0c0,0 0,0 0,0 0,0 0,0 0,0zm0 0c0,0 0,0 0,0 0,0 0,0 0,0zm0 0c0,0 0,0 0,0 0,0 0,0 0,0zm0 0c0,0 0,0 0,0 0,0 0,0 0,0zm0 0c0,0 0,0 0,0 0,0 0,0 0,0zm0 0c0,0 0,0 0,0 0,0 0,0 0,0zm0 0c0,0 0,0 0,0 0,0 0,0 0,0zm0 0c0,0 0,0 0,0 0,0 0,0 0,0zm0 0c0,0 0,0 0,0 0,0 0,0 0,0zm0 0c0,0 0,0 0,0 0,0 0,0 0,0zm0 0c0,0 0,0 0,0 0,0 0,0 0,0zm0 0c0,0 0,0 0,0 0,0 0,0 0,0zm1 0c0,0 0,0 -1,0 0,0 1,0 1,0zm0 0c0,0 0,0 0,0 0,0 0,0 0,0zm0 0c0,0 0,0 0,0 0,0 0,0 0,0zm0 0c0,0 0,0 0,0 0,0 0,0 0,0zm0 0c0,0 0,0 0,0 0,0 0,0 0,0zm0 0c0,0 0,0 0,0 0,0 0,0 0,0zm0 0c0,0 0,0 0,0 0,0 0,0 0,0zm0 0c0,0 0,0 0,0 0,0 0,0 0,0zm0 0c0,0 0,0 0,0 0,0 0,0 0,0zm0 0c0,0 0,0 0,0 0,0 0,0 0,0zm0 0c0,0 0,0 0,0 0,0 0,0 0,0zm6 -1c0,0 0,0 0,0 0,0 0,0 0,0zm0 0c0,0 0,0 0,0 0,0 0,0 0,0zm-17 -1c0,0 0,0 0,0 -1,2 -6,6 -8,9 2,-3 7,-7 8,-9l0 0zm3 -4c0,0 0,0 0,0 0,0 0,0 0,0l0 0 0 0zm2 -2c0,0 0,0 0,0 0,0 0,0 0,0 0,0 0,0 0,0z"/>
   </g>
   <path class="fil7" d="M42 26c0,0 0,0 0,0 -1,2 -3,4 -3,4l0 0 3 -4zm2 -2l0 0c0,0 -1,1 -2,2l0 0 2 -2zm0 0c0,0 0,0 0,0 0,0 0,0 0,0 0,0 0,0 0,0l0 0c0,0 0,0 0,0zm14 -2c-6,8 -19,8 -19,8 -1,2 -6,6 -8,9 3,2 5,2 8,3 0,0 0,0 0,0 0,0 0,0 0,0 8,-1 14,-7 14,-7 0,0 0,0 0,0 0,0 0,0 0,0 0,0 0,0 0,0 0,0 0,0 0,0l0 0c0,0 0,0 0,0 0,0 0,0 0,0 0,0 0,0 0,0 0,0 0,0 0,0l0 0 0 0 0 0 0 0 0 0 0 0 0 0 0 0c0,0 0,0 0,0 0,0 0,0 0,0 0,0 0,0 0,0 -4,2 -7,2 -9,2 0,0 0,0 0,0l0 0c0,0 0,0 0,0 -5,0 -7,-2 -7,-2 3,1 4,2 6,2 1,0 1,0 1,0l0 0 0 0c10,0 12,-6 12,-6 0,0 0,0 0,0 0,0 0,0 0,0 0,0 0,0 0,0 -3,2 -5,2 -6,2 0,0 0,0 0,0l0 0c-1,0 -2,0 -2,0 0,0 0,0 0,0 0,0 0,0 0,0 0,0 0,0 0,0 0,0 0,0 0,0 0,0 0,0 0,0 0,0 0,0 0,0 0,0 0,0 0,0 0,0 0,0 0,0 0,0 0,0 0,0 0,0 0,0 0,0 0,0 0,0 0,0 0,0 0,0 0,0 0,0 0,0 0,0 0,0 0,0 0,0 0,0 0,0 0,0 0,0 0,0 0,0 0,0 0,0 0,0 0,0 0,0 0,0 0,0 0,0 0,0 0,0 0,0 0,0 0,0 0,0 0,0 0,0 0,0 0,0 0,0 0,0 0,0 0,0 0,0 0,0 0,0 0,0 0,0 0,0 0,0 0,0 0,0 0,0 0,0 0,0 0,0 0,0 0,0 0,0 0,0 0,0 0,0 0,0 0,0 0,0 0,0 0,0 0,0 0,0 0,0 0,0 0,0 0,0 0,0 0,0 0,0 0,0 0,0 0,0 0,0 0,0 0,0 0,0 0,0 0,0 0,0 0,0 0,0 0,0 0,0 0,0 0,0 0,0 0,0 0,0 0,0 0,0 0,0 0,0 0,0 0,0 0,0 0,0 0,0 0,0 0,0 0,0 0,0 0,0 0,0 0,0 0,0 0,0 0,0 0,0 0,0 0,0 0,0 0,0 0,0 0,0 0,0 0,0 0,0 0,0 0,0 0,0 0,0 0,0 0,0 0,0 0,0 0,0 0,0 0,0 0,0 0,0 0,0 0,0 0,0 0,0 0,0 0,0 0,0 0,0 0,0 0,0 0,0 0,0 0,0 0,0 0,0 0,0 0,0 0,0 0,0 0,0 0,0 0,0 0,0 0,0 0,0 0,0 0,0 0,0 0,0 0,0 0,0 0,0 0,0 0,0 0,0 0,0 0,0 0,0 0,0 0,0 0,0 0,0 0,0 0,0 0,0 0,0 0,0 0,0 0,0 0,0 0,0 0,0 0,0 0,0 0,0 0,0 0,0 0,0 0,0 0,0 0,0 0,0 0,0 0,0 0,0 0,0 0,0 0,0 0,0 0,0 0,0 0,0 0,0 0,0 0,0 0,0 0,0 0,0 0,0 0,0 0,0 0,0 0,0 0,0 0,0 0,-1 1,-1 1,-1 0,0 0,0 0,0 0,0 0,0 0,0 0,0 0,0 0,0 0,0 0,0 0,0 0,0 0,0 0,0 0,0 0,0 0,0 0,0 0,0 0,0 0,0 0,0 0,0 0,0 0,0 0,0 0,0 0,0 0,0 0,0 0,0 0,0 0,0 0,0 0,0 0,0 0,0 0,0 0,0 0,0 0,0 0,0 0,0 0,0 0,0 0,0 0,0 0,0 0,0 0,0 0,0 0,0 0,0 0,0 0,0 0,0 0,0 0,0 0,0 0,0 0,0 0,0 0,0 0,0 0,0 0,0 0,0 0,0 0,0 0,0 0,0 0,0 0,0 0,0 0,0 0,0 0,0 0,0 0,0 0,0 0,0 0,0 0,0 0,0 0,0 0,0 0,0 0,0 0,0 0,0 0,0 0,0 0,0 0,0 0,0 0,0 0,0 0,0 0,0 0,0 0,0 0,0 0,0 0,0 0,0 0,0 0,0 0,0 0,0 0,0 0,0 0,0 0,0 0,0 0,0 0,0 0,0 0,0 0,0 0,0 0,0 0,0 0,0 0,0 0,0 0,0 0,0 0,0 0,0 0,0 0,0 0,0 0,0 0,0 0,0 0,0 0,0 0,0 0,0 0,0 0,0 0,0 0,0 0,0 0,0 0,0 0,0 0,0 0,0 0,0 0,0 0,0 0,0 0,0 0,0 0,0 0,0 0,0 0,0 0,0 0,0 0,0 0,0 0,0 0,0 0,0 0,0 0,0 0,0 0,0 0,0 0,0 0,0 0,0 0,0 0,0 0,0 0,0 0,0 0,0 0,0 0,0 0,0 0,0 0,0 0,0 0,0 0,0 0,0 0,0 0,0 0,0 0,0 0,0 0,0 0,0 0,0 0,0 0,0 0,0 0,0 0,0 0,0 0,0 0,0 0,0 0,0 0,0 0,0 0,0 0,0 0,0 0,0 0,0 0,0 0,0 0,0 0,0 0,0 0,0 0,0 0,0 0,0 0,0 0,0 0,0 0,0 0,0 0,0 0,0 0,0 0,0 0,0 0,0 0,0 0,0 0,0 0,0 0,0 0,0 0,0 0,0 0,0 0,0 0,0 0,0 0,0 0,0 0,0 0,0 0,0 0,0 0,0 0,0 0,0 0,0 0,0 0,0 0,0 0,0 0,0 0,0 0,0 0,0 0,0 0,0 0,0 0,0 0,0 0,0 0,0 0,0 0,0 0,0 0,0 0,0 0,0 0,0 0,0 0,0 0,0 0,0 0,0 0,0 0,0 0,0 0,0 0,0 0,0 0,0 0,0 0,0 0,0 0,0 0,0 0,0 0,0 0,0 0,0 0,0 0,0 0,0 0,0 0,0 0,0 0,0 0,0 0,0 0,0 0,0 0,0 0,0 0,0 0,0 0,0 0,0 0,0 0,0 0,0 0,0 0,0 0,0 0,0 0,0 0,0 0,0 0,0 0,0 0,0 0,0 0,0 0,0 0,0 0,0 0,0 0,0 0,0 0,0 0,0 0,0 0,0 0,0 0,0 0,0 0,0 0,0 0,0 0,0 0,0 0,0 0,0 0,0 0,0 0,0 0,0 0,0 0,0 0,0 0,0 0,0 0,0 0,0 0,0 0,0 0,0 0,0 0,0 0,0 0,0 0,0 0,0 1,0 1,0 1,0 0,0 0,0 0,0 0,0 0,0 0,0 0,0 0,0 0,0 0,0 0,0 0,0 0,0 0,0 0,0 0,0 0,0 0,0 0,0 0,0 0,0 0,0 0,0 0,0l0 0c0,0 0,0 0,0 0,0 0,0 0,0 0,0 0,0 0,0l0 0c0,0 0,0 0,0 0,0 0,0 0,0 0,0 0,0 0,0 0,0 0,0 0,0 0,0 0,0 0,0 0,0 0,0 0,0 0,0 0,0 0,0 0,0 0,0 0,0 3,-2 6,-5 8,-8 0,-1 0,-1 0,-1 0,0 0,0 0,-1z"/>
   <g>
    <path class="fil7" d="M29 41c0,0 0,0 0,0l0 0zm27 -10l-27 10 27 -10z"/>
   </g>
   <path class="fil9" d="M29 41c0,0 0,0 0,0l0 0 0 0 0 0 0 0c0,0 0,0 0,0z"/>
   <path class="fil9" d="M31 39l0 0c-1,1 -2,2 -2,2 0,0 0,0 0,0l0 0c2,1 5,1 7,1 1,0 2,0 3,0 -3,-1 -5,-1 -8,-3z"/>
   <path class="fil10" d="M42 26l0 0c0,0 0,0 0,0l0 0zm16 -4c0,0 0,0 0,0 0,0 0,0 0,0 0,0 0,0 0,0 0,0 0,0 0,0z"/>
   <path class="fil10" d="M61 16c-4,5 -9,5 -9,5 -5,1 -6,1 -6,1 -1,1 -2,1 -2,2 0,0 0,0 0,0l-2 2 0 0c0,0 0,0 0,0l-3 4c0,0 13,0 19,-8 0,0 0,0 0,0 0,0 0,0 0,0 2,-3 3,-6 3,-6z"/>
   <g>
    <path class="fil11" d="M31 37l0 0c-1,1 -4,4 -6,5 0,0 0,0 0,0 2,-1 5,-4 6,-5zm0 0c0,0 0,0 0,0 0,0 0,0 0,0zm1 -1c0,1 -1,1 -1,1 0,0 1,0 1,-1zm0 0c0,0 0,0 0,0 0,0 0,0 0,0zm0 0c0,0 0,0 0,0l0 0zm0 0c0,0 0,0 0,0 0,0 0,0 0,0zm0 0l0 0 0 0zm0 0c0,0 0,0 0,0 0,0 0,0 0,0zm0 0c0,0 0,0 0,0 0,0 0,0 0,0zm0 0c0,0 0,0 0,0 0,0 0,0 0,0zm0 0l0 0 0 0c0,0 0,0 0,0zm-8 -2c0,1 0,2 0,4 0,-2 0,-3 0,-4zm0 -7c0,0 -1,1 -1,3l0 0c0,-2 1,-3 1,-3zm0 0l0 0c0,2 0,4 0,6 0,-2 0,-4 0,-6zm4 -2c0,0 0,0 0,0 0,0 0,0 0,0zm0 0c0,0 0,0 0,0 0,0 0,0 0,0zm0 0c0,0 0,0 0,0 0,0 0,0 0,0zm0 0c0,0 0,0 0,0 0,0 0,0 0,0zm0 0c0,0 0,0 0,0 0,0 0,0 0,0zm0 0c0,0 0,0 0,0 0,0 0,0 0,0zm0 0c0,0 0,0 0,0 0,0 0,0 0,0zm0 0c0,0 0,0 0,0 0,0 0,0 0,0zm0 0c0,0 0,0 0,0 0,0 0,0 0,0zm0 0c0,0 0,0 0,0 0,0 0,0 0,0zm0 0c0,0 0,0 0,0 0,0 0,0 0,0zm0 0c0,0 0,0 0,0 0,0 0,0 0,0zm0 0c0,0 0,0 0,0 0,0 0,0 0,0zm0 0c0,0 0,0 0,0 0,0 0,0 0,0zm0 0c0,0 0,0 0,0 0,0 0,0 0,0zm0 0c0,0 0,0 0,0 0,0 0,0 0,0zm0 0c0,0 0,0 0,0 0,0 0,0 0,0zm0 0c0,0 0,0 0,0 0,0 0,0 0,0zm0 -1c0,0 0,0 0,0 0,0 0,0 0,0zm0 0c0,0 0,0 0,0 0,0 0,0 0,0zm0 0c0,0 0,0 0,0 0,0 0,0 0,0zm0 0c0,0 0,0 0,0 0,0 0,0 0,0zm1 -1c0,0 0,0 0,0 0,0 0,0 0,0zm0 0c0,0 0,0 0,0 0,0 0,0 0,0zm0 0c0,0 0,0 0,0 0,0 0,0 0,0zm0 0c0,0 0,0 0,0 0,0 0,0 0,0zm0 0c0,0 0,0 0,0 0,0 0,0 0,0zm-2 -4c0,0 0,2 -1,4 1,-2 1,-4 1,-4zm4 0c-1,1 -2,2 -2,4 0,-2 1,-3 2,-4 0,0 0,0 0,0z"/>
   </g>
   <path class="fil11" d="M31 19c-1,1 -2,2 -2,4l0 0c0,0 0,0 0,0 0,0 0,0 0,0 0,0 0,0 0,0 0,0 0,0 0,0 0,0 0,0 0,0 0,0 0,0 0,0 0,0 0,0 0,0 0,0 0,0 0,0 0,0 0,0 0,0 -1,0 -1,1 -1,1 0,0 0,0 0,0 0,0 0,0 0,0 0,0 0,0 0,0 0,0 0,0 0,0 0,0 0,0 0,0 0,0 0,0 0,0 0,0 0,0 0,0 0,0 0,1 0,1 0,0 0,0 0,0 0,0 0,0 0,0 0,0 0,0 0,0 0,0 0,0 0,0 0,0 0,0 0,0 0,0 0,0 0,0 0,0 0,0 0,0 0,0 0,0 0,0 0,0 0,0 0,0 0,0 0,0 0,0 0,0 0,0 0,0 0,0 0,0 0,0 0,0 0,0 0,0 0,0 0,0 0,0 0,0 0,0 0,0 0,0 0,0 0,0 0,0 0,0 0,0 0,0 0,0 0,0 0,0 0,0 0,0 0,0 0,0 0,0 0,0 0,0 0,0 0,0 0,0 0,0 0,0 0,0 0,0 0,0 0,0 0,0 0,0 0,0 0,0 0,0 0,0 0,0 0,0 0,0 0,0 0,0 0,0 0,0 0,0 0,0 0,0 0,0 0,0 0,0 0,0 0,0 0,0 0,0 0,0 0,0 0,0 0,0 0,0 0,0 0,0 0,0 0,0 0,0 0,0 0,0 0,-4 -1,-6 0,0 0,2 -1,4 0,1 0,1 -1,2 0,0 -1,4 -1,9 0,1 0,2 0,4 0,0 0,0 0,0 0,0 0,0 0,0 0,-1 0,-2 0,-5 0,-2 0,-4 0,-6 0,0 0,0 0,0 0,0 -1,1 -1,3l0 0c0,0 0,0 0,0 0,9 2,12 2,12 0,0 0,0 0,0 2,-1 5,-4 6,-5l0 0c0,0 0,0 0,0 0,0 0,0 0,0l0 0c0,0 1,0 1,-1 0,0 0,0 0,0 0,0 0,0 0,0 0,0 0,0 0,0 0,0 0,0 0,0 0,0 0,0 0,0 0,0 0,0 0,0 0,0 0,0 0,0 0,0 0,0 0,0 0,0 0,0 0,0 0,0 0,0 0,0 0,0 0,0 0,0 0,0 0,0 0,0 0,0 0,0 0,0 0,0 0,0 0,0 0,0 0,0 0,0 0,0 0,0 0,0l0 0c-1,1 -1,1 -1,1 -2,-8 -2,-13 0,-18z"/>
   <path class="fil12" d="M25 42c0,0 0,0 0,0 0,0 0,0 0,0 0,0 0,0 0,0 0,0 0,0 0,0z"/>
   <path class="fil12" d="M23 30c-2,4 -3,9 -1,15 0,0 2,-1 3,-3 0,0 0,0 0,0 0,0 0,0 0,0 0,0 0,0 0,0 0,0 -2,-3 -2,-12z"/>
   <g>
    <path class="fil13" d="M38 30c-2,2 -5,5 -6,6 0,0 0,0 0,0 1,-1 4,-4 6,-6zm0 -21c0,0 0,0 0,0 0,0 0,0 0,0zm0 0c0,0 0,0 0,0 0,0 0,0 0,0zm0 0c0,0 0,0 0,0 0,0 0,0 0,0zm0 0c0,0 0,0 0,0 0,0 0,0 0,0zm0 0c0,0 0,0 0,0 0,0 0,0 0,0zm0 0c0,0 0,0 0,0 0,0 0,0 0,0zm0 -1c0,0 0,0 0,0 0,0 0,0 0,0zm0 0c0,0 0,0 0,0 0,0 0,0 0,0zm0 0c0,0 0,0 0,0 0,0 0,0 0,0zm0 0c0,0 0,0 0,0 0,0 0,0 0,0zm0 0c0,0 0,0 0,0 0,0 0,0 0,0zm0 0l0 0 0 0zm0 0c0,0 0,0 0,0 0,0 0,0 0,0zm0 0c0,0 -5,4 -7,11 0,0 0,0 0,0 2,-7 7,-11 7,-11zm0 0l0 0 0 0zm0 0l0 0z"/>
   </g>
   <path class="fil13" d="M38 8l0 0c0,0 0,0 0,0l0 0 0 0c0,0 -5,4 -7,11 1,-1 1,-1 1,-1 -3,10 0,18 0,18 1,-1 4,-4 6,-6l0 0c0,0 -2,-3 -1,-11 -1,-3 -1,-7 1,-10 0,0 0,0 0,0 0,0 0,0 0,0 0,0 0,0 0,0 0,0 0,0 0,0 0,0 0,0 0,0 0,0 0,0 0,0 0,0 0,0 0,0 0,0 0,0 0,0 0,0 0,0 0,0 0,0 0,0 0,0 0,0 0,0 0,0 0,-1 0,-1 0,-1 0,0 0,0 0,0 0,0 0,0 0,0 0,0 0,0 0,0 0,0 0,0 0,0 0,0 0,0 0,0 0,0 0,0 0,0 0,0 0,0 0,0 0,0 0,0 0,0 0,0 0,0 0,0 0,0 0,0 0,0l0 0c0,0 0,0 0,0 0,0 0,0 0,0 0,0 0,0 0,0z"/>
   <path class="fil14" d="M32 36l0 0 0 0 0 0 0 0zm-1 -17c0,0 0,0 0,0 0,0 0,0 0,0 0,0 0,0 0,0 0,0 0,0 0,0z"/>
   <path class="fil14" d="M32 18c0,0 0,0 -1,1 0,0 0,0 0,0 0,0 0,0 0,0 -2,5 -2,10 0,18 0,0 0,0 1,-1l0 0c0,0 -3,-8 0,-18z"/>
   <path class="fil15" d="M50 13c0,0 0,0 0,0 -3,5 -6,10 -10,15 0,0 0,0 0,0l0 0c4,-5 7,-10 10,-15zm6 -13c0,0 -2,6 -6,13 0,0 0,0 0,0 4,-7 6,-13 6,-13z"/>
   <path class="fil16" d="M50 13c0,0 0,0 0,0 0,0 0,0 0,0 0,0 0,0 0,0 0,0 0,0 0,0z"/>
   <path class="fil15" d="M38 30c0,0 0,0 0,0l0 0zm2 -2c0,0 0,0 0,0 -1,0 -1,0 -1,0 0,0 -1,1 -1,2 0,-1 1,-2 2,-2zm-1 -21c-1,5 -2,9 -2,12 0,0 0,0 0,0 0,-3 1,-7 2,-12 0,0 0,0 0,0z"/>
   <path class="fil15" d="M39 28c0,0 -1,1 -1,2 0,0 0,0 0,0l0 0c0,-1 1,-2 1,-2zm1 0c0,0 0,0 0,0 0,0 0,0 0,0l0 0 0 0zm16 -28l0 0c-1,1 -6,1 -6,1 -5,0 -7,2 -7,3 0,0 0,0 0,0 -3,5 -4,10 -4,13 0,2 0,3 0,3 0,0 0,0 0,0 -1,-2 0,-13 0,-13 -1,5 -2,9 -2,12 0,0 0,0 0,0l0 0c0,5 2,9 3,9 4,-5 7,-10 10,-15 0,0 0,0 0,0 4,-7 6,-13 6,-13z"/>
   <path class="fil17" d="M40 28c-1,0 -1,0 -1,0 0,0 0,0 0,0 0,0 0,0 1,0zm0 0l0 0 0 0 0 0c0,0 0,0 0,0z"/>
   <path class="fil17" d="M37 19c-1,8 1,11 1,11 0,-1 1,-2 1,-2 0,0 0,0 0,0 0,0 0,0 1,0 0,0 0,0 0,0l0 0c-1,0 -3,-4 -3,-9z"/>
  </g>
 </g>
</svg>
