<?xml version="1.0" encoding="UTF-8"?>
<!DOCTYPE svg PUBLIC "-//W3C//DTD SVG 1.1//EN" "http://www.w3.org/Graphics/SVG/1.1/DTD/svg11.dtd">
<!-- Creator: CorelDRAW X8 -->
<svg xmlns="http://www.w3.org/2000/svg" xml:space="preserve" width="63.8494mm" height="63.3685mm" version="1.1" style="shape-rendering:geometricPrecision; text-rendering:geometricPrecision; image-rendering:optimizeQuality; fill-rule:evenodd; clip-rule:evenodd"
viewBox="0 0 24427 24243"
 xmlns:xlink="http://www.w3.org/1999/xlink">
 <defs>
  <style type="text/css">
   <![CDATA[
    .fil0 {fill:#7A3773;fill-rule:nonzero}
   ]]>
  </style>
 </defs>
 <g id="Layer_x0020_1">
  <metadata id="CorelCorpID_0Corel-Layer"/>
  <g id="_1693001835792">
   <path class="fil0" d="M22918 8918c767,-873 1332,-1994 1509,-3436 0,0 -1292,2268 -4966,2526 0,0 3559,-1033 4564,-3243 0,0 689,-517 -546,-2497 0,0 -1205,-1550 -1349,-2268 0,0 -1883,5689 -4918,9513 -68,78 -105,131 -105,131 -27,37 -67,90 -116,156l-62 82c-17,24 -36,48 -55,74l-54 72c-21,27 -41,55 -63,84l-270 361c-110,146 -225,300 -337,451l-35 46c-62,83 -124,165 -183,245l-409 545c-17,24 -33,45 -48,65l-47 63c-7,9 -12,17 -18,24l-28 38 -13 17 -13 17c-650,831 -2393,2569 -3430,3565 0,0 -342,315 -809,738l0 0c-113,103 -234,213 -359,326 -790,685 -1284,1167 -1981,1734 -5922,4821 -8777,5725 -8777,5725 19,383 823,0 823,0 1225,-497 4248,-2296 4248,-2296 1847,-1181 3043,-555 3043,-555 1530,613 2870,96 2870,96 -1627,-191 -2411,-899 -2411,-899 3100,1224 3444,478 3444,478 -1454,0 -2028,-957 -2028,-957 2781,997 4788,-344 5776,-1286 1602,-508 3211,-1542 4500,-3479 0,0 -2129,1816 -5099,1529 3382,-442 5572,-2710 5572,-2710 -4253,2081 -6401,-14 -6401,-14 1055,509 1471,645 2598,660 4243,54 4951,-2282 4951,-2282 -1650,1335 -3171,789 -3171,789 2164,-965 3460,-2751 4203,-4228z"/>
   <path class="fil0" d="M223 24243l-1 0 1 0zm-223 -170c6,127 100,170 222,170 -122,0 -216,-43 -222,-170zm5081 -2303c-4,2 -7,4 -10,6 3,-2 6,-4 10,-6zm6245 -649c-7,0 -14,0 -20,0l0 0c6,0 13,0 20,0zm-41 0c2,0 5,0 7,0 -2,0 -5,0 -7,0zm-15 0c3,0 5,0 8,0 -3,0 -5,0 -8,0zm-4033 -66c-85,0 -175,4 -271,13 96,-9 186,-13 271,-13 560,0 876,166 876,166 570,228 1113,300 1571,300 91,0 180,-3 264,-8 -84,5 -173,8 -264,8 -458,0 -1001,-72 -1571,-300 0,0 -316,-166 -876,-166zm1373 -623c1339,526 2158,681 2657,689 -499,-8 -1318,-163 -2657,-689zm1400 -485c544,193 1059,296 1541,331 -482,-35 -997,-138 -1541,-331zm-17 -6c4,1 9,3 13,4 -4,-1 -9,-3 -13,-4zm-4 -2c0,0 574,957 2028,957 0,0 -3,6 -11,17 8,-11 11,-17 11,-17 -1454,0 -2028,-957 -2028,-957zm5033 -674c0,0 0,0 0,1 0,0 0,-1 0,-1zm5 -3c0,0 -1,1 -2,1 1,0 2,-1 2,-1zm3 -2c-1,0 -1,1 -2,1 1,0 1,-1 2,-1zm735 -607l0 0c-203,193 -448,403 -735,607 287,-204 532,-414 735,-607zm-6988 -306l0 0c-5922,4821 -8777,5726 -8777,5726 0,0 2855,-905 8777,-5726zm1981 -1734c-159,137 -305,267 -444,390 139,-123 285,-253 444,-390l0 0z"/>
   <path class="fil0" d="M8777 18347l0 0c-5922,4821 -8777,5726 -8777,5726 6,127 100,170 222,170l0 0 1 0c244,-1 600,-170 600,-170 1225,-498 4248,-2297 4248,-2297 3,-2 6,-4 10,-6 747,-476 1388,-656 1885,-702 96,-9 186,-13 271,-13 560,0 876,166 876,166 570,228 1113,300 1571,300 91,0 180,-3 264,-8 626,-38 1036,-196 1036,-196 -1627,-191 -2411,-899 -2411,-899 12,4 24,9 37,14 1339,526 2158,681 2657,689 1,0 2,0 3,0 3,0 5,0 8,0 2,0 5,0 7,0 2,0 5,0 7,0 5,0 9,0 14,0 6,0 13,0 20,0 489,-4 642,-156 680,-208 8,-11 11,-17 11,-17 -1454,0 -2028,-957 -2028,-957 1,1 2,1 4,2 4,1 9,3 13,4 2,1 3,1 4,2 544,193 1059,296 1541,331 127,9 251,13 372,13 1293,0 2339,-488 3099,-1025 0,-1 0,-1 0,-1 1,0 2,-1 4,-2 0,0 1,-1 1,-1 0,0 1,0 1,0 1,-1 1,-2 2,-2 0,0 0,0 1,0 286,-204 531,-414 734,-607 -989,314 -1976,426 -2883,426 -2311,0 -4105,-732 -4105,-732zm1981 -1734c-159,137 -305,267 -444,390 -552,492 -980,891 -1537,1344 384,-301 1253,-1076 1981,-1734z"/>
   <path class="fil0" d="M16648 1665c-1894,3368 -1292,6448 -1292,6448 -679,-956 -162,-5224 -162,-5224 -514,1901 -792,3424 -922,4638 -155,-1253 -98,-2726 482,-4236 0,0 -1898,1441 -2814,4345 -398,458 -940,1227 -1262,2295 0,0 172,-1435 -421,-2124 0,0 -19,1187 -498,2201 0,0 -880,2679 -421,5166 0,0 -650,-1377 -19,-4477 0,0 -375,544 -734,1432 0,-285 8,-583 26,-896 0,0 -268,956 -1186,1951 0,0 -823,881 -345,3464 0,0 -842,-938 -383,-3196 0,0 -1074,1194 -1148,3942 0,0 153,1608 -689,3368 0,0 1677,-1131 3627,-2771 385,-324 781,-668 1177,-1027 793,-699 1800,-1604 2400,-2202l0 0c94,-94 178,-180 250,-257l-4 -9c477,-513 1550,-1674 2381,-2601l1 1c227,-248 451,-503 670,-761 9,-10 17,-20 26,-30l0 0c4066,-4801 6742,-11105 6742,-11105 -603,306 -2612,364 -2612,364 -2468,76 -2870,1301 -2870,1301z"/>
   <g>
    <path class="fil0" d="M4860 20762l0 0zm1 0l0 0 0 0zm0 0c0,0 0,0 0,0 0,0 0,0 0,0zm1 -1l0 0c0,0 0,0 0,0zm1 -1c0,1 -1,1 -1,1 0,0 1,0 1,-1zm1 0c0,0 -1,0 -1,0 0,0 1,0 1,0zm4802 -3798c-1,1 -2,2 -3,3 -395,359 -791,702 -1176,1026 -1900,1599 -3541,2713 -3623,2769 99,-67 2453,-1667 4802,-3798zm-3067 -1626c121,910 481,1312 481,1312 -3,-3 -361,-405 -481,-1312zm98 -1884c0,0 -1074,1194 -1148,3942 0,0 153,1608 -689,3368 842,-1760 689,-3368 689,-3368 74,-2741 1144,-3936 1148,-3942zm1908 -2111c0,0 0,1 0,2 0,0 0,-2 0,-2zm1 -14c0,2 0,5 -1,8 1,-3 1,-6 1,-8zm0 -12c0,2 0,5 0,8 0,-3 0,-6 0,-8zm1 -12c0,3 0,7 0,10 0,-3 0,-7 0,-10zm1 -12c0,3 -1,7 -1,10 0,-4 1,-7 1,-10zm0 -12c0,4 0,7 0,11 0,-3 0,-7 0,-11zm1 -11c0,3 0,7 -1,11 1,-4 1,-8 1,-11zm1 -12c0,4 -1,7 -1,11 0,-4 1,-8 1,-11zm0 -11c0,3 0,7 0,11 0,-4 0,-8 0,-11zm1 -12c0,3 0,7 -1,10 1,-3 1,-7 1,-10z"/>
   </g>
   <path class="fil0" d="M8611 11233c0,0 0,0 -1,2 -14,50 -291,980 -1183,1946 -1,1 -1,2 -2,3 0,0 -19,21 -50,64 -170,242 -701,1208 -295,3400l0 0 0 0c0,0 -360,-402 -481,-1312 -64,-480 -60,-1103 98,-1884 -4,6 -1074,1201 -1148,3942 0,0 153,1608 -689,3368 0,0 0,0 0,0l0 0c0,0 0,0 1,0l0 0c0,0 0,0 0,0 0,0 0,0 0,0 0,0 0,-1 1,-1l0 0 0 0c0,0 1,0 1,-1 0,0 0,0 0,0 0,0 1,0 1,0l0 0c82,-56 1723,-1170 3623,-2769 385,-324 781,-667 1176,-1026 -663,585 -1176,1026 -1176,1026 -970,-2290 -456,-4488 98,-5862 0,-251 6,-513 20,-786 0,-1 0,-2 0,-2 0,-2 0,-4 0,-6 1,-3 1,-6 1,-8 0,-2 0,-3 0,-4 0,-3 0,-6 0,-8 1,-1 1,-1 1,-2 0,-3 0,-7 0,-10 0,-1 0,-1 0,-2 0,-3 1,-7 1,-10 0,-1 0,-1 0,-1 0,-4 0,-7 0,-11 0,0 0,0 0,0 1,-4 1,-8 1,-11 0,-1 0,-1 0,-1 0,-4 0,-7 1,-11l0 0c0,-4 0,-8 0,-11 0,-1 0,-1 0,-2 1,-3 1,-7 1,-10z"/>
   <path class="fil0" d="M10774 16598c-6,5 -11,10 -16,15l0 0c5,-5 10,-10 16,-15zm343 -311c-34,31 -69,63 -104,95 35,-32 70,-64 104,-95l0 0zm9091 -1028c-1280,1882 -2865,2894 -4443,3394 0,0 0,0 0,0 1578,-500 3163,-1512 4443,-3394zm15 -22c-5,7 -10,15 -15,22 5,-8 10,-15 15,-22zm3 -6c-1,2 -2,3 -3,5 1,-1 2,-3 3,-5zm4 -6c-1,2 -2,4 -3,6 1,-2 2,-4 3,-6zm4 -5c-1,2 -2,3 -3,5 1,-2 2,-3 3,-5zm4 -5c-1,1 -2,3 -3,4 1,-1 2,-3 3,-4zm3 -6c0,1 -1,3 -2,4 0,-1 2,-3 2,-4zm4 -5c-1,1 -2,2 -3,4 1,-2 2,-3 3,-4zm4 -7c-1,2 -2,4 -3,6 1,-2 2,-4 3,-6zm4 -5c-1,2 -2,3 -3,5 1,-2 2,-3 3,-5zm3 -5c-1,1 -1,2 -2,3 1,-1 1,-2 2,-3zm4 -6c-1,1 -2,3 -2,4 0,-1 1,-3 2,-4zm5 -7c-2,2 -3,4 -4,6 1,-2 2,-4 4,-6z"/>
   <path class="fil0" d="M20265 15174c0,0 -1,1 -1,1 -25,21 -1846,1559 -4460,1559 -208,0 -421,-10 -638,-31 -366,48 -745,75 -1137,75 -908,0 -1884,-142 -2912,-491 -34,31 -69,63 -104,95 -77,70 -157,142 -239,216 -6,5 -11,10 -16,15 3,3 1703,1348 4463,1348 391,0 804,-27 1236,-88 0,0 -239,348 -692,780 1578,-500 3163,-1512 4443,-3394l0 0c5,-7 10,-15 15,-22l0 -1c1,-2 2,-3 3,-5 1,0 1,0 1,0 1,-2 2,-4 3,-5l0 -1c2,-2 3,-3 4,-5l1 -1c1,-1 2,-3 3,-4 0,-1 0,-1 1,-2 1,-1 2,-3 2,-4 1,0 1,-1 1,-1 1,-2 2,-3 3,-4 0,-1 1,-1 1,-1 1,-2 2,-4 3,-6l1 0c1,-2 2,-3 3,-5 0,0 1,-1 1,-2 1,-1 1,-2 2,-3 1,-1 1,-1 2,-2 0,-1 1,-3 2,-4 0,0 1,-1 1,-1 1,-2 2,-4 4,-6z"/>
   <g>
    <path class="fil0" d="M15765 18653l0 0c0,0 0,0 0,0l0 0c0,0 0,0 0,0l0 0zm-5007 -2040l0 0 0 0c0,0 0,0 0,0l0 0z"/>
   </g>
   <path class="fil0" d="M10758 16613c0,0 0,0 0,0 -728,658 -1597,1433 -1981,1734 0,0 1794,732 4105,732 907,0 1894,-112 2883,-426 0,0 0,0 0,0 453,-432 692,-780 692,-780 -432,61 -845,88 -1236,88 -2760,0 -4460,-1345 -4463,-1348z"/>
   <g>
    <path class="fil0" d="M11895 15577c-94,87 -394,362 -778,710 0,0 0,0 0,0 384,-348 684,-623 778,-710zm4 -3c-1,1 -2,2 -4,3 2,-1 3,-2 4,-3zm1 -1c0,0 0,0 -1,0 1,0 1,0 1,0zm5 -5c-1,1 -3,3 -4,4 1,-1 3,-3 4,-4zm3 -3c-1,1 -2,2 -3,3 1,-1 2,-2 3,-3zm7 -6c-2,2 -4,4 -7,6 3,-2 5,-4 7,-6zm3 -3c0,1 -1,1 -2,2 1,0 2,-1 2,-2zm1 -1c0,0 0,1 0,1 0,0 0,-1 0,-1zm1 0c0,0 0,0 0,0 0,0 0,0 0,0zm1 -1c-1,0 -1,0 -1,1 0,-1 0,-1 1,-1zm0 0c0,0 0,0 0,0 0,0 0,0 0,0zm3 -3c-1,0 -2,1 -3,3 1,-2 2,-3 3,-3zm1 -1c0,0 0,0 0,0 0,0 0,0 0,0zm0 0c0,0 0,0 0,0 0,0 0,0 0,0zm1 -1c-1,0 -1,1 -1,1 0,0 0,-1 1,-1zm0 0c0,0 0,0 0,0 0,0 0,0 0,0l0 0zm0 0c0,0 0,0 0,0 0,0 0,0 0,0zm0 0c0,0 0,0 0,0 0,0 0,0 0,0zm0 0c0,0 0,0 0,0 0,0 0,0 0,0z"/>
   </g>
   <path class="fil0" d="M11926 15549l0 0 0 0c0,0 0,0 0,0l0 0c0,0 0,0 0,0l0 0c0,0 0,0 0,0 0,0 0,0 0,0 0,0 0,0 0,0l0 0c-1,0 -1,0 -1,1l0 0c0,0 0,0 0,0 0,0 0,0 0,0 0,0 0,0 0,0 0,0 -1,0 -1,1 -1,0 -2,1 -3,3 0,0 0,0 0,0 0,0 0,0 0,0l0 0c-1,0 -1,0 -1,1 0,0 0,0 0,0 0,0 0,0 -1,0 0,0 0,0 0,0 0,0 0,1 0,1 -1,0 -1,0 -1,0 0,1 -1,1 -2,2 0,0 -1,1 -1,1 -2,2 -4,4 -7,6l0 0c-1,1 -2,2 -3,3 0,0 0,0 0,0 -1,1 -3,3 -4,4 0,0 -1,0 -1,1 0,0 0,0 -1,0 0,1 0,1 0,1 -1,1 -2,2 -3,3 -1,0 -1,0 -1,0 -94,87 -394,362 -778,710 9,-7 344,-292 809,-738z"/>
   <path class="fil0" d="M24418 5551c-185,1408 -745,2507 -1499,3367 -1,1 -1,2 -2,4 756,-860 1315,-1962 1501,-3371zm1 -8c0,2 -1,4 -1,6 0,-2 1,-4 1,-6zm1 -8c0,2 -1,3 -1,5 0,-2 1,-3 1,-5zm1 -9c0,2 0,4 -1,5 1,-1 1,-3 1,-5zm1 -9c0,2 0,4 0,5 0,-2 0,-3 0,-5zm1 -8c0,1 0,3 0,4 0,-1 0,-3 0,-4zm1 -9c0,1 0,3 0,4 0,-1 0,-2 0,-4zm1 -9c0,1 0,2 0,4 0,-1 0,-3 0,-4zm-2295 -5490c0,0 0,0 0,0 0,0 0,0 0,0zm0 -1c0,0 0,0 0,0 0,0 0,0 0,0zm0 0c0,0 0,0 0,0 0,0 0,0 0,0z"/>
   <path class="fil0" d="M22130 0l0 0 0 0c0,0 0,0 0,0 0,0 0,0 0,0 0,0 0,0 0,0 0,0 0,1 0,1 0,0 0,0 0,0 -29,88 -1905,5711 -4913,9506 143,-162 420,-420 792,-525 0,0 462,-213 2471,-471 0,0 1880,-173 3329,-2010 0,0 -219,1083 -890,2417 754,-860 1313,-1959 1499,-3367 0,-1 0,-1 0,-2 0,-2 1,-4 1,-6 0,-1 0,-2 0,-3 0,-2 1,-3 1,-5 0,-2 0,-2 0,-4 1,-1 1,-3 1,-5 0,-1 0,-2 1,-4 0,-1 0,-3 0,-5 0,-1 1,-2 1,-4 0,-1 0,-3 0,-4 0,-2 1,-3 1,-5 0,-1 0,-3 0,-4 1,-2 1,-4 1,-5 0,-2 0,-3 0,-4 1,-3 1,-6 2,-9 0,0 -1292,2268 -4966,2526 0,0 3559,-1033 4564,-3243 0,0 191,-144 191,-570 0,-382 -153,-991 -737,-1927 0,0 -1205,-1550 -1349,-2268z"/>
   <path class="fil0" d="M22623 9467c-664,1156 -1663,2409 -3131,3278 1468,-869 2467,-2122 3131,-3278 0,0 0,0 0,0zm294 -545c0,0 -1,0 -1,0 -64,127 -131,256 -204,386 0,1 0,1 0,1 73,-131 141,-260 205,-387z"/>
   <path class="fil0" d="M22712 9309c-29,52 -59,105 -89,158 0,0 0,0 0,0 31,-53 60,-106 89,-158 0,0 0,0 0,0z"/>
   <g>
    <path class="fil0" d="M17226 14914c-8,0 -16,0 -24,0l0 0c8,0 16,0 24,0zm-146 -274l-1 0 1 0zm-145 -1c49,0 96,1 144,1 -47,0 -96,-1 -144,-1zm3785 -637c-21,10 -42,20 -63,30 21,-10 42,-20 63,-30zm17 -7c-68,69 -2243,2273 -5571,2708 0,0 1,0 1,0 3327,-436 5501,-2639 5570,-2708zm0 -1c0,0 0,0 0,0 0,0 0,0 0,0zm0 0c0,0 0,0 0,0 0,0 0,0 0,0l0 0zm1 -1c0,0 0,0 -1,1 1,-1 1,-1 1,-1zm0 0c0,0 0,0 0,0 0,0 0,0 0,0zm0 0l0 0 0 0zm0 0l0 0zm0 0l0 0 0 0zm0 0c0,0 0,0 0,0l0 0zm0 0c-5,2 -9,4 -14,7 5,-3 9,-5 14,-7zm-6401 -14c0,0 948,924 2832,935 -1883,-11 -2832,-935 -2832,-935zm5176 -723c-1,0 -1,0 -2,0 1,0 1,0 2,0zm-798 -110l0 0c0,0 307,110 796,110 -489,0 -796,-110 -796,-110zm6 -3c-2,1 -4,2 -6,3 2,-1 4,-2 6,-3zm6 -2c-1,0 -3,1 -4,1 1,0 3,-1 4,-1zm6 -3c-1,0 -2,1 -4,1 2,0 3,-1 4,-1zm6 -3c-1,1 -2,1 -3,2 1,-1 2,-1 3,-2zm7 -3c-2,1 -3,1 -4,2 1,-1 2,-1 4,-2zm6 -3c-2,1 -3,2 -4,2 1,0 3,-1 4,-2zm6 -2c-1,0 -2,1 -4,1 2,0 3,-1 4,-1zm6 -3c-1,0 -2,1 -3,1 1,0 2,-1 3,-1zm6 -3c-1,1 -2,1 -3,1 1,0 2,0 3,-1zm6 -3c-1,1 -2,1 -3,2 1,-1 2,-1 3,-2zm6 -3c-1,1 -2,1 -3,2 1,-1 2,-1 3,-2zm6 -2c-1,0 -2,1 -3,1 1,0 2,-1 3,-1zm7 -3c-1,0 -2,1 -3,1 1,0 2,-1 3,-1zm6 -3c-1,1 -2,1 -3,2 1,-1 2,-2 3,-2zm6 -3c-1,1 -2,1 -3,2 1,-1 2,-1 3,-2zm6 -3c-1,1 -2,1 -3,2 1,-1 2,-1 3,-2zm6 -2c-1,0 -2,0 -3,1 1,-1 2,-1 3,-1zm6 -3c-1,0 -2,1 -3,1 1,0 2,-1 3,-1zm6 -3c-1,0 -2,1 -3,1 1,0 2,-1 3,-1zm6 -3c-1,1 -2,1 -3,2 1,-1 2,-1 3,-2zm9 -4c0,0 -1,1 -2,1 1,0 2,-1 2,-1zm6 -3c-1,0 -1,1 -2,1 1,0 2,-1 2,-1zm7 -3c-1,1 -2,1 -3,1 1,0 2,0 3,-1zm5 -3c0,1 -1,1 -2,2 1,-1 1,-1 2,-2zm7 -3c-1,1 -2,1 -3,2 1,-1 2,-1 3,-2zm6 -2c-1,0 -2,0 -3,1 1,-1 2,-1 3,-1zm6 -3c-1,0 -2,1 -3,1 1,-1 2,-1 3,-1zm6 -3c-1,0 -2,1 -3,1 1,0 2,-1 3,-1zm6 -3c-1,0 -2,1 -3,1 1,0 2,-1 3,-1zm6 -3c-1,0 -2,1 -3,1 1,0 2,-1 3,-1zm6 -3c-1,1 -2,1 -3,2 1,-1 2,-2 3,-2zm6 -3c-1,1 -2,1 -3,2 1,-1 2,-1 3,-2zm6 -3c-1,1 -2,1 -3,2 1,-1 2,-1 3,-2zm6 -3c-1,1 -2,1 -3,2 1,-1 2,-1 3,-2zm6 -3c-1,1 -2,1 -3,2 1,-1 2,-1 3,-2zm6 -2c-1,0 -2,0 -3,1 1,-1 2,-1 3,-1zm6 -3c-1,0 -2,1 -3,1 1,0 2,-1 3,-1zm6 -3c-1,0 -2,1 -3,1 1,0 2,-1 3,-1zm6 -3c-1,0 -2,1 -3,1 1,0 2,-1 3,-1zm15 -7c0,0 0,0 0,0l0 0zm6 -3c-1,0 -1,0 -2,1 1,-1 1,-1 2,-1zm6 -3c-1,0 -2,0 -2,1 1,-1 1,-1 2,-1zm6 -3c-1,0 -2,1 -3,1 1,0 2,-1 3,-1zm6 -3c-1,0 -2,1 -3,1 1,0 2,-1 3,-1zm6 -3c-1,0 -2,1 -3,1 1,0 2,-1 3,-1zm6 -3c-1,0 -2,1 -3,1 1,0 2,-1 3,-1zm6 -3c-1,0 -2,1 -3,1 1,0 2,-1 3,-1zm6 -3c-1,0 -2,1 -3,1 1,0 2,-1 3,-1zm6 -3c-1,0 -2,1 -3,1 1,0 2,-1 3,-1zm6 -3c-1,0 -2,1 -3,1 1,0 2,-1 3,-1zm5 -3c0,0 -1,1 -2,1 1,0 2,-1 2,-1zm7 -3c-1,0 -2,1 -3,1 1,0 2,-1 3,-1zm6 -3c-1,0 -2,1 -3,1 1,0 2,-1 3,-1zm6 -3c-1,0 -2,1 -3,1 1,0 2,-1 3,-1zm5 -3c-1,0 -2,1 -2,1 0,0 1,0 2,-1zm5 -3c0,1 -1,1 -1,1 0,0 1,0 1,-1zm6 -3c-1,1 -1,1 -2,1 1,0 1,0 2,-1zm22 -11c-1,1 -2,1 -3,2 1,-1 2,-1 3,-2zm6 -3c-1,1 -2,1 -3,2 1,-1 2,-1 3,-2zm5 -3c0,1 -1,1 -2,1 1,0 2,0 2,-1zm6 -3c0,1 -1,1 -1,1 0,0 1,0 1,-1zm6 -3c-1,1 -1,1 -2,1 1,0 1,0 2,-1zm6 -3c-1,1 -1,1 -2,1 1,0 1,0 2,-1zm6 -3c-1,1 -2,1 -2,1 0,0 1,0 2,-1zm6 -3c-1,1 -2,1 -3,1 1,0 2,-1 3,-1zm6 -3c-1,0 -2,1 -3,1 1,0 2,-1 3,-1zm5 -3c0,0 -1,1 -2,1 1,0 1,0 2,-1zm6 -3c-1,0 -1,1 -2,1 1,0 2,-1 2,-1zm6 -3c-1,0 -2,1 -2,1 0,0 1,-1 2,-1zm6 -3c-1,0 -2,1 -2,1 0,0 1,-1 2,-1zm6 -3c-1,0 -2,1 -3,1 1,0 2,-1 3,-1zm6 -3c-1,0 -2,1 -3,1 1,-1 2,-1 3,-1zm5 -3c0,0 -1,1 -2,1 1,-1 2,-1 2,-1zm6 -3c-1,0 -1,0 -2,1 0,0 2,-1 2,-1zm5 -3c-1,0 -1,1 -1,1 0,-1 0,-1 1,-1zm21 -11c0,0 0,0 -1,0 1,0 1,0 1,0zm6 -4c0,1 -1,1 -2,2 1,-1 1,-1 2,-2zm6 -3c-1,1 -1,1 -2,2 1,-1 1,-1 2,-2zm6 -3c-1,1 -2,1 -3,2 1,-1 2,-1 3,-2zm6 -3c-1,0 -2,1 -3,1 1,0 2,-1 3,-1zm6 -3c-1,0 -2,1 -3,1 1,0 2,-1 3,-1zm5 -3c-1,0 -1,1 -2,1 0,0 1,-1 2,-1zm6 -3c-1,0 -2,1 -3,1 1,0 2,-1 3,-1zm6 -4c-1,1 -2,1 -3,2 1,-1 2,-1 3,-2zm6 -3c-1,1 -2,1 -3,2 1,-1 2,-1 3,-2zm6 -3c-2,1 -2,1 -3,2 1,-1 1,-1 3,-2zm5 -3c-1,0 -2,1 -3,2 1,-1 2,-2 3,-2zm6 -3c-1,0 -2,1 -3,1 1,0 2,-1 3,-1zm6 -3c-1,0 -2,1 -3,1 1,0 2,-1 3,-1zm6 -4c-1,1 -2,2 -3,2 1,-1 2,-1 3,-2zm5 -3c-1,1 -2,1 -3,2 1,-1 2,-1 3,-2zm6 -3c-1,1 -2,1 -3,2 1,-1 2,-1 3,-2zm7 -4c-2,1 -3,2 -4,3 1,-1 2,-2 4,-3zm13 -7c-4,2 -8,4 -11,6 3,-2 7,-4 11,-6zm6 -3c-2,1 -3,1 -4,2 1,-1 2,-1 4,-2zm5 -3c-1,0 -2,1 -4,2 2,-1 3,-2 4,-2zm6 -4c-1,1 -2,2 -4,2 2,0 3,-1 4,-2zm6 -3c-1,1 -3,2 -4,2 1,0 3,-1 4,-2zm6 -3c-2,1 -3,1 -4,2 1,-1 3,-1 4,-2zm5 -3c-1,0 -2,1 -4,2 2,-1 3,-2 4,-2zm6 -4c-1,1 -2,2 -4,3 2,-1 3,-2 4,-3zm6 -3c-1,1 -3,2 -4,2 1,0 2,-1 4,-2zm5 -3c-1,1 -2,1 -3,2 1,-1 2,-1 3,-2zm6 -3c-1,0 -2,1 -3,2 1,-1 2,-2 3,-2zm6 -4c-1,1 -2,2 -4,3 1,-1 3,-2 4,-3zm6 -3c-2,1 -3,2 -4,2 1,0 2,-1 4,-2zm6 -3c-1,0 -3,1 -4,2 1,-1 2,-1 4,-2zm6 -4c-2,1 -3,2 -5,3 2,-1 3,-2 5,-3zm6 -3c-2,1 -3,2 -5,3 2,-1 3,-2 5,-3zm52 -31c-17,11 -34,21 -52,30 18,-9 35,-20 52,-30zm6 -3c-2,1 -4,2 -5,3 1,-1 3,-2 5,-3zm5 -3c-1,1 -3,2 -5,3 2,-1 4,-2 5,-3zm6 -4c-1,1 -3,3 -5,4 2,-1 4,-3 5,-4zm6 -3c-2,1 -4,2 -5,3 1,-1 3,-2 5,-3zm6 -3c-2,1 -4,2 -5,3 1,-1 3,-2 5,-3zm2381 -377c-1,0 -3,2 -4,2 1,0 3,-2 4,-2zm13 -11c-3,2 -6,5 -9,7 3,-2 6,-5 9,-7zm-6530 -374c0,1 0,1 0,1 -650,831 -2393,2569 -3430,3565 1037,-996 2780,-2734 3430,-3565l0 -1zm1222 -1632c-51,68 -103,138 -157,209 8,-10 16,-20 24,-30l107 -144 26 -35zm635 -840c-69,78 -105,133 -106,133 1,0 37,-54 105,-131 0,0 1,-1 1,-2z"/>
   </g>
   <path class="fil0" d="M16444 10530c-7,10 -15,20 -23,31 -492,658 -1056,1411 -1065,1422l0 1 1088 -1454zm663 -886l0 0c-84,113 -289,386 -529,707l-26 35 555 -742zm110 -137c-1,1 -2,3 -4,4 0,1 -1,2 -1,2 -68,77 -104,131 -105,131l0 0c37,-45 74,-91 110,-137zm5699 -585c-2609,2968 -7560,3062 -7560,3062 -650,831 -2393,2569 -3430,3565 1143,723 2239,1058 3240,1154 0,0 0,0 1,0 0,0 -1,0 -1,0 3328,-435 5503,-2639 5571,-2708 0,0 0,-1 0,-1 0,0 0,0 0,0 0,0 0,0 0,0 0,0 0,0 0,0l0 0c1,-1 1,-1 1,-1 0,0 0,0 0,0 0,0 0,0 0,0 0,0 0,0 0,0l0 0 0 0 0 0 0 0 0 0 0 0 0 0 0 0c-5,2 -9,5 -14,7 -1,0 -3,1 -4,2 -21,10 -42,20 -63,30 -1364,655 -2508,878 -3431,882 -9,0 -16,0 -24,0l0 0c-11,0 -22,0 -33,0 -1884,-11 -2832,-935 -2832,-935 1055,509 1471,645 2598,660 48,0 97,1 144,1l0 0 1 0c4114,-1 4806,-2283 4806,-2283 -3,2 -6,5 -9,7 -1,1 -3,2 -4,4 -1,0 -3,2 -4,2 -901,723 -1762,886 -2356,886 -1,0 -1,0 -2,0l0 0c-489,0 -796,-110 -796,-110 2,-1 4,-2 6,-3 1,0 1,0 2,-1 1,0 3,-1 4,-1 1,-1 1,-1 2,-2 2,0 3,-1 4,-1 1,-1 2,-1 3,-1 1,-1 2,-1 3,-2 1,0 2,-1 3,-1 1,-1 2,-1 4,-2 0,0 1,0 2,-1 1,0 2,-1 4,-2 1,0 2,0 3,-1 0,0 2,-1 3,-1 1,-1 2,-1 3,-2 1,0 2,-1 3,-1 1,-1 2,-1 3,-2 1,0 2,0 3,-1 1,0 2,-1 3,-1 1,-1 2,-1 3,-2 1,0 2,-1 3,-1 1,-1 2,-1 3,-2 1,0 2,0 3,-1 1,0 2,-1 4,-1 1,-1 1,-1 3,-2 1,0 2,-1 3,-1 1,-1 2,-1 3,-1 1,-1 2,-1 3,-2 1,0 2,-1 3,-1 1,-1 2,-1 3,-2 1,0 2,-1 3,-1 1,-1 2,-1 3,-2 1,0 2,-1 3,-1 1,-1 2,-1 3,-1 1,-1 2,-1 3,-2 1,0 2,-1 3,-1 1,-1 2,-1 3,-2 1,0 2,-1 3,-1 1,-1 2,-1 3,-1 1,-1 2,-1 3,-2 2,-1 4,-2 7,-3 1,0 2,-1 2,-1 2,-1 3,-1 4,-2 1,0 1,-1 2,-1 2,-1 2,-1 4,-2 1,0 2,0 3,-1 1,0 2,-1 3,-1 1,-1 2,-1 3,-2 0,0 2,-1 3,-1 1,-1 2,-1 3,-2 1,0 2,-1 3,-1 1,-1 2,-1 3,-1 1,-1 2,-2 3,-2 1,0 2,-1 3,-1 1,-1 2,-1 3,-2 1,0 2,-1 3,-1 1,-1 2,-1 3,-2 1,0 2,-1 3,-1 1,-1 2,-1 3,-2 1,0 2,-1 3,-1 1,-1 2,-1 3,-2 1,0 2,0 3,-1 1,-1 2,-1 3,-1 1,-1 2,-1 3,-2 1,0 2,-1 3,-1 1,-1 2,-1 3,-2 1,0 2,-1 3,-1 1,-1 2,-1 3,-2 1,0 2,-1 3,-1 1,-1 2,-1 3,-2 1,0 2,-1 3,-1 1,-1 2,-1 3,-1 1,-1 2,-1 3,-2 1,0 2,-1 3,-1 1,-1 2,-1 3,-2 1,0 2,-1 3,-1 1,-1 2,-1 3,-2 1,0 2,-1 3,-1 5,-3 10,-5 15,-7 0,0 0,0 0,0 1,-1 3,-2 4,-2 1,-1 1,-1 2,-1 1,-1 2,-2 4,-2 0,-1 1,-1 2,-1 1,-1 2,-2 3,-2 1,0 2,-1 3,-1 1,-1 2,-2 3,-2 1,0 2,-1 3,-1 1,-1 2,-1 3,-2 1,0 2,-1 3,-1 1,-1 2,-1 3,-2 1,0 2,-1 3,-1 1,-1 2,-1 3,-2 1,0 2,-1 3,-1 1,-1 2,-1 3,-2 1,0 2,-1 3,-1 1,-1 2,-1 3,-2 1,0 2,-1 3,-1 1,-1 2,-1 3,-2 1,0 2,-1 3,-1 1,-1 2,-1 3,-2 1,0 2,-1 2,-1 2,-1 3,-1 4,-2 1,0 2,-1 3,-1 1,-1 2,-1 3,-2 1,0 2,-1 3,-1 1,-1 2,-1 3,-2 1,0 2,-1 3,-1 1,-1 2,-1 3,-2 0,0 1,-1 2,-1 1,-1 2,-1 4,-2 0,0 1,0 1,-1 2,0 3,-1 4,-2 1,0 1,0 2,-1 6,-3 13,-6 19,-9 1,-1 2,-1 3,-2 1,0 2,-1 3,-1 1,-1 2,-1 3,-2 1,0 2,-1 3,-2 1,0 2,0 2,-1 2,0 3,-1 5,-2 0,0 1,0 1,-1 2,0 3,-1 4,-2 1,0 2,0 2,-1 1,0 3,-1 4,-2 1,0 1,0 2,-1 1,0 2,-1 4,-2 0,0 1,0 2,-1 1,0 2,-1 3,-2 1,0 2,0 3,-1 1,0 2,-1 3,-2 1,0 2,-1 3,-1 1,-1 2,-1 3,-2 1,0 2,-1 2,-1 2,-1 3,-1 4,-2 1,0 1,-1 2,-1 2,-1 3,-1 4,-2 0,0 1,-1 2,-1 1,-1 2,-1 3,-2 1,0 2,-1 3,-1 1,-1 2,-1 3,-2 1,0 2,-1 3,-1 1,-1 2,-1 3,-2 1,-1 2,-1 3,-1 1,-1 2,-2 3,-2 1,-1 2,-1 2,-1 2,-1 3,-1 4,-2 1,-1 1,-1 2,-2 1,0 2,-1 4,-1 0,0 0,-1 1,-1 7,-4 14,-7 20,-11 1,0 1,0 1,0 2,-1 3,-2 4,-2 1,-1 2,-1 2,-2 1,0 3,-1 4,-1 1,-1 1,-1 2,-2 1,0 2,-1 3,-1 1,-1 2,-1 3,-2 1,0 2,-1 3,-2 1,0 2,-1 3,-1 1,-1 2,-1 3,-2 1,0 2,-1 3,-1 1,-1 1,-1 3,-2 1,0 1,-1 2,-1 1,-1 2,-1 3,-2 1,0 2,-1 3,-1 1,-1 2,-2 3,-2 1,-1 2,-1 3,-2 1,0 2,-1 3,-1 1,-1 2,-1 3,-2 1,0 2,-1 3,-1 1,-1 2,-1 3,-2 0,0 1,-1 2,-1 1,-1 2,-2 3,-2 1,-1 2,-1 3,-2 1,0 2,-1 3,-1 1,-1 2,-1 3,-2 1,0 2,-1 3,-1 1,-1 2,-1 2,-2 2,0 3,-1 4,-2 1,0 1,-1 2,-1 1,-1 2,-1 3,-2 1,0 2,-1 3,-1 1,-1 2,-1 3,-2 1,0 2,-1 3,-1 1,-1 2,-2 4,-3 0,0 1,0 2,-1 3,-2 7,-4 11,-6 1,0 1,-1 2,-1 1,-1 2,-1 4,-2 0,0 1,-1 1,-1 2,-1 3,-2 4,-2 1,-1 2,-1 2,-2 2,0 3,-1 4,-2 1,0 2,0 2,-1 1,0 3,-1 4,-2 1,0 1,-1 2,-1 1,-1 2,-1 4,-2 0,0 1,-1 1,-1 2,-1 3,-2 4,-2 1,-1 1,-1 2,-1 1,-1 3,-2 4,-3 1,0 1,0 2,-1 1,0 3,-1 4,-2 0,0 1,-1 2,-1 1,-1 2,-1 4,-2 0,0 1,-1 2,-1 1,-1 2,-2 3,-2 1,-1 2,-1 2,-1 2,-1 3,-2 4,-3 1,0 1,0 2,-1 1,0 2,-1 4,-2 0,0 1,-1 2,-1 1,-1 3,-2 4,-2 0,0 1,-1 1,-1 2,-1 4,-2 5,-3 0,0 0,0 1,0 2,-1 3,-2 5,-3l0 -1c18,-10 35,-19 52,-30 0,0 0,0 1,0 1,-1 3,-2 5,-3l0 0c2,-1 4,-2 5,-3 1,0 1,0 1,0 2,-1 4,-3 5,-4 0,0 0,0 1,0 1,-1 3,-2 5,-3 0,0 0,0 1,0 1,-1 3,-2 5,-3 0,-1 0,0 0,0 1468,-869 2467,-2122 3131,-3278 30,-53 60,-106 89,-159 72,-130 140,-259 204,-386z"/>
   <g>
    <path class="fil0" d="M11117 16287c0,0 0,0 0,0l0 0zm10769 -3930l-10769 3930 10769 -3930z"/>
   </g>
   <path class="fil0" d="M11117 16287c0,0 0,0 0,0l0 0 0 0 0 0 0 0c0,0 0,0 0,0z"/>
   <path class="fil0" d="M11926 15549l0 0c-465,446 -800,731 -809,738 0,0 0,0 0,0l0 0c1028,349 2004,491 2912,491 392,0 771,-27 1137,-75 -1001,-96 -2097,-431 -3240,-1154z"/>
   <path class="fil0" d="M16552 10386l-108 144c15,-19 29,-39 43,-57l65 -87zm6367 -1468c0,0 -1,0 -1,0 0,2 -1,3 -2,4 0,0 1,0 1,0 0,-2 1,-3 2,-4z"/>
   <path class="fil0" d="M23809 6501c-1449,1837 -3329,2010 -3329,2010 -2009,258 -2471,471 -2471,471 -372,105 -649,363 -792,525 -36,46 -73,92 -110,137l-555 742 -65 87c-14,18 -28,38 -43,57l-1088 1454c0,0 4951,-94 7560,-3062 1,-1 2,-2 2,-4 0,0 1,0 1,0 671,-1334 890,-2417 890,-2417z"/>
   <g>
    <path class="fil0" d="M12064 14762l0 0c-599,598 -1605,1501 -2397,2200 -1,0 -1,0 -1,0 793,-699 1799,-1602 2398,-2200zm15 -15c0,0 0,0 -1,1 1,-1 1,-1 1,-1zm175 -179c-53,56 -111,115 -175,179 64,-64 122,-123 175,-179zm2 -2c-1,1 -1,1 -1,1 0,0 0,0 1,-1zm1 -1c0,0 0,0 0,0l0 0zm1 -2c0,1 0,1 0,1 0,0 0,0 0,-1zm5 -4l0 0 0 0zm1 -2c0,1 0,1 0,1 0,0 0,0 0,-1zm6 -6c0,0 0,1 -1,1 1,0 1,0 1,-1zm41 -44c0,1 0,1 0,1 0,0 0,0 0,-1zm-1 -11l0 0 1 2c0,0 0,-1 -1,-2zm-3105 -866c0,464 32,943 111,1417 -79,-474 -111,-953 -111,-1417zm91 -2899c-86,131 -404,639 -711,1398l0 0c307,-759 625,-1267 711,-1398zm23 -34l0 0c-207,1014 -276,1844 -276,2501 0,-657 69,-1487 276,-2501zm1360 -772c0,2 -1,4 -1,6 0,-2 1,-4 1,-6zm2 -5c0,1 -1,2 -1,4 0,-2 1,-3 1,-4zm2 -6c0,1 -1,2 -1,4 0,-2 1,-3 1,-4zm2 -6c-1,1 -1,2 -1,3 0,-1 0,-2 1,-3zm2 -6c-1,1 -1,2 -1,4 0,-2 0,-3 1,-4zm2 -7c-1,1 -1,3 -2,5 1,-2 1,-4 2,-5zm2 -7c-1,2 -1,4 -2,6 1,-2 1,-4 2,-6zm2 -6c-1,1 -1,3 -1,4 0,-1 0,-3 1,-4zm1 -5c0,1 0,2 -1,3 1,-1 1,-2 1,-3zm2 -6c0,1 0,2 -1,3 1,-1 1,-2 1,-3zm2 -6c0,1 -1,2 -1,3 0,-1 1,-2 1,-3zm2 -6c0,1 -1,2 -1,3 0,-1 1,-2 1,-3zm2 -8c0,0 0,1 0,1 0,0 0,-1 0,-1zm2 -5c0,0 0,1 0,1 0,0 0,-1 0,-1zm2 -6c0,1 0,1 -1,2 1,-1 1,-1 1,-2zm2 -6c0,1 -1,2 -1,2 0,0 1,-1 1,-2zm2 -6c-1,1 -1,2 -1,3 0,-1 0,-2 1,-3zm1 -5c0,1 0,1 0,2 0,-1 0,-1 0,-2zm5 -14c0,0 0,1 0,1 0,0 0,-1 0,-1zm2 -6c0,1 0,1 -1,1 1,0 1,0 1,-1zm2 -5c0,0 -1,1 -1,1 0,0 1,-1 1,-1zm1 -6c0,1 0,1 0,1 0,0 0,0 0,-1zm285 -716c0,0 0,0 0,0 0,0 0,0 0,0zm2 -5c0,0 0,1 -1,2 1,-1 1,-1 1,-2zm2 -5c0,1 0,2 -1,2 1,0 1,-1 1,-2zm3 -6c0,2 -1,3 -1,4 0,-1 1,-3 1,-4zm3 -6c-1,2 -2,4 -2,5 0,-2 1,-3 2,-5zm-759 -1247c0,0 -12,707 -237,1496 225,-787 237,-1492 237,-1496zm1682 -171c-278,322 -628,796 -923,1418 295,-622 644,-1096 923,-1417 0,0 0,0 0,-1z"/>
   </g>
   <path class="fil0" d="M11939 7637c-279,321 -628,795 -923,1417l0 0c-1,2 -2,3 -2,5 -1,1 -1,1 -1,1 0,1 -1,3 -1,4 -1,0 -1,1 -2,2 0,1 0,2 -1,2 0,1 -1,2 -1,3 0,1 0,1 -1,2 0,1 -1,2 -1,3 0,0 0,0 0,0 -104,221 -200,460 -285,716 0,1 0,1 0,1 0,2 -1,3 -1,5 0,0 -1,1 -1,1 0,1 -1,3 -1,4 0,1 0,1 -1,1 0,2 0,3 -1,5 0,0 0,1 0,1 -2,4 -3,9 -5,14 0,0 0,0 0,1 -1,1 -1,2 -1,3 -1,1 -1,2 -1,3 0,1 -1,2 -1,3 0,1 -1,2 -1,2 0,1 -1,3 -1,4 0,1 0,1 -1,2 0,1 0,2 -1,4 0,0 0,1 0,1 -1,2 -1,3 -2,4 0,0 0,1 0,1 -1,2 -1,5 -2,7 0,1 -1,2 -1,3 0,1 -1,2 -1,3 0,1 -1,2 -1,3 0,1 0,2 -1,3 0,1 0,2 -1,3 0,1 0,2 -1,3 0,1 0,2 -1,3 0,1 0,1 0,2 -1,1 -1,3 -1,4 -1,0 -1,1 -1,2 -1,2 -1,4 -2,6 0,0 0,1 0,1 -1,2 -1,3 -2,5 0,0 0,1 0,2 -1,1 -1,2 -1,4 -1,0 -1,1 -1,2 -1,1 -1,2 -1,3 0,1 -1,2 -1,3 0,1 -1,2 -1,4 0,0 -1,1 -1,2 0,1 -1,2 -1,4 0,0 0,1 -1,1 0,2 -1,4 -1,6 0,0 172,-1435 -421,-2124 0,4 -12,709 -237,1496 -66,233 -152,473 -261,705 0,0 -553,1684 -554,3622 0,464 32,943 111,1417 7,42 14,85 22,127 0,0 -14,-29 -36,-89 -78,-217 -258,-829 -259,-1887 0,-657 69,-1487 276,-2501 0,0 -8,12 -23,34 -86,131 -404,639 -711,1398l0 0c0,0 0,0 0,0 6,3320 1174,4749 1174,4749 -31,28 -62,56 -92,84 792,-700 1798,-1602 2397,-2200l0 0c5,-5 10,-10 14,-14 1,-1 1,-1 1,-1l0 0c63,-64 122,-123 175,-179 0,0 1,0 1,-1 0,0 0,0 1,-1 0,0 0,0 1,-1 0,0 0,0 0,0 0,0 1,-1 1,-1 0,0 0,0 0,0 2,-2 3,-3 5,-5 0,0 0,0 0,0 0,0 0,-1 1,-1 0,0 0,0 0,-1 2,-1 4,-3 5,-5 1,0 1,0 1,-1 14,-15 28,-29 41,-43 0,0 0,0 0,-1 1,0 2,-1 3,-2 0,0 -1,-3 -3,-7l-1 -2c-154,167 -246,266 -246,266 -884,-2945 -694,-5319 -125,-7125z"/>
   <path class="fil0" d="M9667 16962c-1,1 -2,1 -3,2 0,0 -1,1 -1,1 1,-1 2,-2 3,-3 0,0 0,0 1,0z"/>
   <path class="fil0" d="M8585 12129c-554,1374 -1068,3572 -98,5862 0,0 513,-441 1176,-1026 0,0 1,-1 1,-1 1,-1 2,-1 3,-2 30,-28 61,-56 92,-84 0,0 -1168,-1429 -1174,-4749z"/>
   <g>
    <path class="fil0" d="M14691 11895c-831,927 -1904,2088 -2381,2601 0,0 0,0 0,0 477,-513 1550,-1674 2381,-2601zm-12 -8401c0,1 0,1 -1,1 1,0 1,0 1,-1zm6 -17c0,0 0,0 0,0 0,0 0,0 0,0zm6 -18c0,0 0,0 0,1 0,-1 0,-1 0,-1zm7 -18c0,1 -1,1 -1,1 0,0 1,0 1,-1zm6 -17c0,0 0,0 0,0 0,0 0,0 0,0zm7 -18c-1,0 -1,0 -1,1 0,-1 0,-1 1,-1zm6 -18c0,0 0,1 0,1 0,0 0,-1 0,-1zm7 -18c0,1 -1,1 -1,2 0,-1 1,-1 1,-2zm6 -17c0,0 0,0 0,1 0,-1 0,-1 0,-1zm7 -18c0,0 0,1 -1,2 1,-1 1,-2 1,-2zm7 -18c-1,1 -1,1 -1,2 0,-1 1,-2 1,-2zm3 -8l0 0 0 0zm3 -10c0,1 0,2 0,2 0,0 0,-1 0,-2zm3 -8c-12,9 -1901,1450 -2814,4345 1,0 1,0 1,-1 913,-2894 2801,-4335 2813,-4344zm1 0l0 0 0 0zm0 0l0 0z"/>
   </g>
   <path class="fil0" d="M14754 3291l0 0c0,0 0,0 0,0l-1 0 0 0c-11,9 -1900,1450 -2813,4344 287,-330 498,-497 498,-497 -1412,3957 -199,7174 -128,7358 477,-513 1550,-1674 2381,-2601l0 0c-31,-41 -777,-1042 -419,-4368 -149,-1197 -103,-2594 406,-4032 0,0 1,0 1,-1 2,-5 4,-11 6,-17 0,0 0,0 0,0 2,-6 4,-12 6,-17 0,-1 0,-1 0,-1 2,-6 4,-11 6,-17 0,0 1,-1 1,-1 2,-5 4,-11 6,-17 0,0 0,0 0,0 2,-6 4,-12 6,-17 0,-1 0,-1 1,-1 2,-6 4,-11 6,-17 0,0 0,-1 0,-1 2,-6 4,-11 6,-16 0,-1 1,-1 1,-2 2,-5 4,-11 6,-16 0,-1 0,-1 0,-1 2,-6 4,-11 6,-16 1,-1 1,-2 1,-2 2,-6 4,-11 6,-16 0,-1 0,-1 1,-2 1,-3 2,-5 3,-8l0 0c1,-3 2,-5 3,-8 0,0 0,-1 0,-2 2,-2 2,-5 4,-8z"/>
   <path class="fil0" d="M12310 14496l0 0 0 0 0 0 0 0zm-370 -6861c0,1 0,1 -1,1 0,1 0,1 0,1 0,0 1,-1 1,-1 0,0 0,-1 0,-1z"/>
   <path class="fil0" d="M12438 7138c0,0 -211,167 -498,497 0,0 0,0 0,1 0,0 -1,0 -1,1 -569,1806 -759,4180 125,7125 0,0 92,-99 246,-266l0 0c-71,-184 -1284,-3401 128,-7358z"/>
   <path class="fil0" d="M19453 5234c0,0 0,0 0,0 -1090,1874 -2471,3988 -4066,5871 1,0 1,0 1,0l0 0c1595,-1883 2976,-3997 4065,-5871zm2677 -5234c0,0 -965,2273 -2616,5129 0,0 0,0 0,1 1652,-2857 2616,-5130 2616,-5130z"/>
   <path class="fil0" d="M19514 5129c-21,35 -41,70 -61,105 0,0 0,0 0,0 20,-35 41,-70 61,-104 0,-1 0,-1 0,-1z"/>
   <path class="fil0" d="M14692 11895c0,1 0,1 0,1l0 -1zm696 -789c-3,3 -6,7 -10,10 -5,7 -11,13 -17,20 -219,258 -442,512 -669,760 236,-258 468,-522 696,-790zm-194 -8216c-514,1899 -792,3423 -922,4637 0,0 0,0 0,0 130,-1214 408,-2737 922,-4638 0,1 0,1 0,1z"/>
   <path class="fil0" d="M15361 11136c-185,214 -416,476 -670,759 0,0 1,0 1,0l0 1c227,-248 450,-502 669,-760zm27 -31c-3,4 -6,8 -10,11 4,-3 7,-7 10,-10l0 -1 0 0zm6742 -11105l0 0c-603,306 -2612,364 -2612,364 -2058,63 -2680,926 -2829,1210 -30,57 -41,91 -41,91 -1157,2057 -1383,4007 -1383,5213 0,769 91,1235 91,1235 -7,-10 -14,-20 -21,-31 -645,-1014 -144,-5174 -141,-5192 -514,1900 -792,3423 -922,4637 0,0 0,0 0,0l0 0c257,2079 1100,3552 1115,3578 1595,-1883 2976,-3997 4066,-5871 20,-35 40,-70 61,-105 1651,-2856 2616,-5129 2616,-5129z"/>
   <path class="fil0" d="M15379 11116c-6,6 -11,13 -17,19 0,0 0,1 -1,1 6,-7 12,-13 18,-20zm8 -11l0 0 1 0 0 0c0,0 0,0 -1,0z"/>
   <path class="fil0" d="M14272 7527c-358,3326 388,4327 419,4368 254,-283 485,-545 670,-759 1,0 1,-1 1,-1 6,-6 11,-13 16,-19 4,-3 7,-7 10,-11l-1 0c-15,-26 -858,-1499 -1115,-3578z"/>
  </g>
 </g>
</svg>
