<?xml version="1.0" encoding="UTF-8"?>
<!DOCTYPE svg PUBLIC "-//W3C//DTD SVG 1.1//EN" "http://www.w3.org/Graphics/SVG/1.1/DTD/svg11.dtd">
<!-- Creator: CorelDRAW X8 -->
<svg xmlns="http://www.w3.org/2000/svg" xml:space="preserve" width="12.7mm" height="12.7mm" version="1.1" style="shape-rendering:geometricPrecision; text-rendering:geometricPrecision; image-rendering:optimizeQuality; fill-rule:evenodd; clip-rule:evenodd"
viewBox="0 0 346 346"
 xmlns:xlink="http://www.w3.org/1999/xlink">
 <defs>
  <style type="text/css">
   <![CDATA[
    .fil0 {fill:#7A3773;fill-rule:nonzero}
   ]]>
  </style>
 </defs>
 <g id="Layer_x0020_1">
  <metadata id="CorelCorpID_0Corel-Layer"/>
  <g id="_1693001813360">
   <path class="fil0" d="M113 191c2,1 5,0 6,-3 1,-3 2,-8 3,-11 0,-3 0,-4 -2,-7 -5,-6 -9,-14 -9,-25 0,-33 25,-62 64,-62 35,0 54,21 54,49 0,38 -17,69 -41,69 -14,0 -24,-11 -21,-25 4,-16 12,-34 12,-46 0,-10 -6,-19 -18,-19 -14,0 -25,14 -25,33 0,12 4,21 4,21 0,0 -14,60 -16,70 -5,21 -1,47 -1,49 1,2 3,2 4,1 1,-2 17,-22 23,-42 1,-6 9,-36 9,-36 4,9 18,16 32,16 41,0 69,-38 69,-88 0,-39 -32,-74 -82,-74 -61,0 -92,44 -92,80 0,23 9,42 27,50z"/>
   <path class="fil0" d="M0 0l0 346 346 0 0 -346 -346 0zm325 325l-304 0 0 -304 304 0 0 304z"/>
  </g>
 </g>
</svg>
