<?xml version="1.0" encoding="UTF-8"?>
<!DOCTYPE svg PUBLIC "-//W3C//DTD SVG 1.1//EN" "http://www.w3.org/Graphics/SVG/1.1/DTD/svg11.dtd">
<!-- Creator: CorelDRAW X8 -->
<svg xmlns="http://www.w3.org/2000/svg" xml:space="preserve" width="12.7mm" height="12.7mm" version="1.1" style="shape-rendering:geometricPrecision; text-rendering:geometricPrecision; image-rendering:optimizeQuality; fill-rule:evenodd; clip-rule:evenodd"
viewBox="0 0 110 110"
 xmlns:xlink="http://www.w3.org/1999/xlink">
 <defs>
  <style type="text/css">
   <![CDATA[
    .fil0 {fill:#7A3773;fill-rule:nonzero}
   ]]>
  </style>
 </defs>
 <g id="Layer_x0020_1">
  <metadata id="CorelCorpID_0Corel-Layer"/>
  <g id="_1693001805392">
   <path class="fil0" d="M19 78c7,4 15,6 23,6 27,0 42,-22 42,-42 0,0 0,-1 0,-1 3,-3 5,-5 7,-8 -3,1 -5,2 -8,2 3,-2 5,-4 6,-8 -3,2 -6,3 -9,4 -3,-3 -7,-5 -11,-5 -8,0 -15,7 -15,15 0,1 0,2 1,3 -13,-1 -23,-6 -31,-15 -1,2 -2,4 -2,7 0,5 3,10 7,12 -3,0 -5,0 -7,-1 0,0 0,0 0,0 0,7 5,13 12,14 -1,0 -3,1 -4,1 -1,0 -2,0 -3,-1 2,6 8,10 14,11 -5,4 -11,6 -18,6 -1,0 -3,0 -4,0z"/>
   <path class="fil0" d="M0 0l0 110 110 0 0 -110 -110 0zm104 104l-97 0 0 -97 97 0 0 97z"/>
  </g>
 </g>
</svg>
