<?xml version="1.0" encoding="UTF-8"?>
<!DOCTYPE svg PUBLIC "-//W3C//DTD SVG 1.1//EN" "http://www.w3.org/Graphics/SVG/1.1/DTD/svg11.dtd">
<!-- Creator: CorelDRAW X8 -->
<svg xmlns="http://www.w3.org/2000/svg" xml:space="preserve" width="68.8177mm" height="70.4903mm" version="1.1" style="shape-rendering:geometricPrecision; text-rendering:geometricPrecision; image-rendering:optimizeQuality; fill-rule:evenodd; clip-rule:evenodd"
viewBox="0 0 10122 10368"
 xmlns:xlink="http://www.w3.org/1999/xlink">
 <defs>
  <style type="text/css">
   <![CDATA[
    .fil0 {fill:#CCCCCC;fill-rule:nonzero}
   ]]>
  </style>
    <mask id="id0">
  <linearGradient id="id1" gradientUnits="userSpaceOnUse" x1="443.563" y1="5148.04" x2="10517.8" y2="5459.36">
   <stop offset="0" style="stop-opacity:0.2; stop-color:white"/>
   <stop offset="1" style="stop-opacity:0.2; stop-color:white"/>
  </linearGradient>
     <rect style="fill:url(#id1)" x="483" y="1049" width="9343" height="9344"/>
    </mask>
    <mask id="id2">
  <linearGradient id="id3" gradientUnits="userSpaceOnUse" x1="443.563" y1="5148.04" x2="10517.8" y2="5459.36">
   <stop offset="0" style="stop-opacity:0.2; stop-color:white"/>
   <stop offset="1" style="stop-opacity:0.2; stop-color:white"/>
  </linearGradient>
     <rect style="fill:url(#id3)" x="-26" y="-26" width="10174" height="10097"/>
    </mask>
    <mask id="id4">
  <linearGradient id="id5" gradientUnits="userSpaceOnUse" x1="443.563" y1="5148.04" x2="10517.8" y2="5459.36">
   <stop offset="0" style="stop-opacity:0.2; stop-color:white"/>
   <stop offset="1" style="stop-opacity:0.2; stop-color:white"/>
  </linearGradient>
     <rect style="fill:url(#id5)" x="-26" y="7703" width="6584" height="2368"/>
    </mask>
    <mask id="id6">
  <linearGradient id="id7" gradientUnits="userSpaceOnUse" x1="443.563" y1="5148.04" x2="10517.8" y2="5459.36">
   <stop offset="0" style="stop-opacity:0.2; stop-color:white"/>
   <stop offset="1" style="stop-opacity:0.2; stop-color:white"/>
  </linearGradient>
     <rect style="fill:url(#id7)" x="-26" y="6858" width="6584" height="3213"/>
    </mask>
    <mask id="id8">
  <linearGradient id="id9" gradientUnits="userSpaceOnUse" x1="443.563" y1="5148.04" x2="10517.8" y2="5459.36">
   <stop offset="0" style="stop-opacity:0.2; stop-color:white"/>
   <stop offset="1" style="stop-opacity:0.2; stop-color:white"/>
  </linearGradient>
     <rect style="fill:url(#id9)" x="1988" y="-26" width="7208" height="8655"/>
    </mask>
    <mask id="id10">
  <linearGradient id="id11" gradientUnits="userSpaceOnUse" x1="443.563" y1="5148.04" x2="10517.8" y2="5459.36">
   <stop offset="0" style="stop-opacity:0.2; stop-color:white"/>
   <stop offset="1" style="stop-opacity:0.2; stop-color:white"/>
  </linearGradient>
     <rect style="fill:url(#id11)" x="1988" y="4635" width="2042" height="3995"/>
    </mask>
    <mask id="id12">
  <linearGradient id="id13" gradientUnits="userSpaceOnUse" x1="443.563" y1="5148.04" x2="10517.8" y2="5459.36">
   <stop offset="0" style="stop-opacity:0.2; stop-color:white"/>
   <stop offset="1" style="stop-opacity:0.2; stop-color:white"/>
  </linearGradient>
     <rect style="fill:url(#id13)" x="1988" y="4629" width="2042" height="4001"/>
    </mask>
    <mask id="id14">
  <linearGradient id="id15" gradientUnits="userSpaceOnUse" x1="443.563" y1="5148.04" x2="10517.8" y2="5459.36">
   <stop offset="0" style="stop-opacity:0.2; stop-color:white"/>
   <stop offset="1" style="stop-opacity:0.2; stop-color:white"/>
  </linearGradient>
     <rect style="fill:url(#id15)" x="6507" y="6262" width="1916" height="1493"/>
    </mask>
    <mask id="id16">
  <linearGradient id="id17" gradientUnits="userSpaceOnUse" x1="443.563" y1="5148.04" x2="10517.8" y2="5459.36">
   <stop offset="0" style="stop-opacity:0.2; stop-color:white"/>
   <stop offset="1" style="stop-opacity:0.2; stop-color:white"/>
  </linearGradient>
     <rect style="fill:url(#id17)" x="4432" y="6262" width="3991" height="1493"/>
    </mask>
    <mask id="id18">
  <linearGradient id="id19" gradientUnits="userSpaceOnUse" x1="443.563" y1="5148.04" x2="10517.8" y2="5459.36">
   <stop offset="0" style="stop-opacity:0.2; stop-color:white"/>
   <stop offset="1" style="stop-opacity:0.2; stop-color:white"/>
  </linearGradient>
     <rect style="fill:url(#id19)" x="6507" y="7703" width="51.9927" height="51.9633"/>
    </mask>
    <mask id="id20">
  <linearGradient id="id21" gradientUnits="userSpaceOnUse" x1="443.563" y1="5148.04" x2="10517.8" y2="5459.36">
   <stop offset="0" style="stop-opacity:0.2; stop-color:white"/>
   <stop offset="1" style="stop-opacity:0.2; stop-color:white"/>
  </linearGradient>
     <rect style="fill:url(#id21)" x="3611" y="6858" width="3234" height="1074"/>
    </mask>
    <mask id="id22">
  <linearGradient id="id23" gradientUnits="userSpaceOnUse" x1="443.563" y1="5148.04" x2="10517.8" y2="5459.36">
   <stop offset="0" style="stop-opacity:0.2; stop-color:white"/>
   <stop offset="1" style="stop-opacity:0.2; stop-color:white"/>
  </linearGradient>
     <rect style="fill:url(#id23)" x="4581" y="6417" width="387" height="358"/>
    </mask>
    <mask id="id24">
  <linearGradient id="id25" gradientUnits="userSpaceOnUse" x1="443.563" y1="5148.04" x2="10517.8" y2="5459.36">
   <stop offset="0" style="stop-opacity:0.2; stop-color:white"/>
   <stop offset="1" style="stop-opacity:0.2; stop-color:white"/>
  </linearGradient>
     <rect style="fill:url(#id25)" x="4581" y="6417" width="387" height="358"/>
    </mask>
    <mask id="id26">
  <linearGradient id="id27" gradientUnits="userSpaceOnUse" x1="443.563" y1="5148.04" x2="10517.8" y2="5459.36">
   <stop offset="0" style="stop-opacity:0.2; stop-color:white"/>
   <stop offset="1" style="stop-opacity:0.2; stop-color:white"/>
  </linearGradient>
     <rect style="fill:url(#id27)" x="9144" y="-26" width="1003" height="3749"/>
    </mask>
    <mask id="id28">
  <linearGradient id="id29" gradientUnits="userSpaceOnUse" x1="443.563" y1="5148.04" x2="10517.8" y2="5459.36">
   <stop offset="0" style="stop-opacity:0.2; stop-color:white"/>
   <stop offset="1" style="stop-opacity:0.2; stop-color:white"/>
  </linearGradient>
     <rect style="fill:url(#id29)" x="7108" y="-26" width="3039" height="3991"/>
    </mask>
    <mask id="id30">
  <linearGradient id="id31" gradientUnits="userSpaceOnUse" x1="443.563" y1="5148.04" x2="10517.8" y2="5459.36">
   <stop offset="0" style="stop-opacity:0.2; stop-color:white"/>
   <stop offset="1" style="stop-opacity:0.2; stop-color:white"/>
  </linearGradient>
     <rect style="fill:url(#id31)" x="7802" y="3671" width="1720" height="1769"/>
    </mask>
    <mask id="id32">
  <linearGradient id="id33" gradientUnits="userSpaceOnUse" x1="443.563" y1="5148.04" x2="10517.8" y2="5459.36">
   <stop offset="0" style="stop-opacity:0.2; stop-color:white"/>
   <stop offset="1" style="stop-opacity:0.2; stop-color:white"/>
  </linearGradient>
     <rect style="fill:url(#id33)" x="9348" y="3831" width="88.9391" height="117.59"/>
    </mask>
    <mask id="id34">
  <linearGradient id="id35" gradientUnits="userSpaceOnUse" x1="443.563" y1="5148.04" x2="10517.8" y2="5459.36">
   <stop offset="0" style="stop-opacity:0.2; stop-color:white"/>
   <stop offset="1" style="stop-opacity:0.2; stop-color:white"/>
  </linearGradient>
     <rect style="fill:url(#id35)" x="4916" y="3915" width="3703" height="3032"/>
    </mask>
    <mask id="id36">
  <linearGradient id="id37" gradientUnits="userSpaceOnUse" x1="443.563" y1="5148.04" x2="10517.8" y2="5459.36">
   <stop offset="0" style="stop-opacity:0.2; stop-color:white"/>
   <stop offset="1" style="stop-opacity:0.2; stop-color:white"/>
  </linearGradient>
     <rect style="fill:url(#id37)" x="4916" y="3671" width="4606" height="3276"/>
    </mask>
    <mask id="id38">
  <linearGradient id="id39" gradientUnits="userSpaceOnUse" x1="443.563" y1="5148.04" x2="10517.8" y2="5459.36">
   <stop offset="0" style="stop-opacity:0.2; stop-color:white"/>
   <stop offset="1" style="stop-opacity:0.2; stop-color:white"/>
  </linearGradient>
     <rect style="fill:url(#id39)" x="4581" y="6723" width="51.9927" height="51.9633"/>
    </mask>
    <mask id="id40">
  <linearGradient id="id41" gradientUnits="userSpaceOnUse" x1="443.563" y1="5148.04" x2="10517.8" y2="5459.36">
   <stop offset="0" style="stop-opacity:0.2; stop-color:white"/>
   <stop offset="1" style="stop-opacity:0.2; stop-color:white"/>
  </linearGradient>
     <rect style="fill:url(#id41)" x="4581" y="6723" width="51.9485" height="51.9485"/>
    </mask>
    <mask id="id42">
  <linearGradient id="id43" gradientUnits="userSpaceOnUse" x1="443.563" y1="5148.04" x2="10517.8" y2="5459.36">
   <stop offset="0" style="stop-opacity:0.2; stop-color:white"/>
   <stop offset="1" style="stop-opacity:0.2; stop-color:white"/>
  </linearGradient>
     <rect style="fill:url(#id43)" x="4581" y="6723" width="52.2133" height="52.125"/>
    </mask>
    <mask id="id44">
  <linearGradient id="id45" gradientUnits="userSpaceOnUse" x1="443.563" y1="5148.04" x2="10517.8" y2="5459.36">
   <stop offset="0" style="stop-opacity:0.2; stop-color:white"/>
   <stop offset="1" style="stop-opacity:0.2; stop-color:white"/>
  </linearGradient>
     <rect style="fill:url(#id45)" x="4581" y="6417" width="1729" height="561"/>
    </mask>
    <mask id="id46">
  <linearGradient id="id47" gradientUnits="userSpaceOnUse" x1="443.563" y1="5148.04" x2="10517.8" y2="5459.36">
   <stop offset="0" style="stop-opacity:0.2; stop-color:white"/>
   <stop offset="1" style="stop-opacity:0.2; stop-color:white"/>
  </linearGradient>
     <rect style="fill:url(#id47)" x="6337" y="3669" width="3186" height="1322"/>
    </mask>
    <mask id="id48">
  <linearGradient id="id49" gradientUnits="userSpaceOnUse" x1="443.563" y1="5148.04" x2="10517.8" y2="5459.36">
   <stop offset="0" style="stop-opacity:0.2; stop-color:white"/>
   <stop offset="1" style="stop-opacity:0.2; stop-color:white"/>
  </linearGradient>
     <rect style="fill:url(#id49)" x="6337" y="2668" width="3555" height="2324"/>
    </mask>
    <mask id="id50">
  <linearGradient id="id51" gradientUnits="userSpaceOnUse" x1="443.563" y1="5148.04" x2="10517.8" y2="5459.36">
   <stop offset="0" style="stop-opacity:0.2; stop-color:white"/>
   <stop offset="1" style="stop-opacity:0.2; stop-color:white"/>
  </linearGradient>
     <rect style="fill:url(#id51)" x="3532" y="3138" width="1597" height="3917"/>
    </mask>
    <mask id="id52">
  <linearGradient id="id53" gradientUnits="userSpaceOnUse" x1="443.563" y1="5148.04" x2="10517.8" y2="5459.36">
   <stop offset="0" style="stop-opacity:0.2; stop-color:white"/>
   <stop offset="1" style="stop-opacity:0.2; stop-color:white"/>
  </linearGradient>
     <rect style="fill:url(#id53)" x="3532" y="3139" width="1597" height="3917"/>
    </mask>
    <mask id="id54">
  <linearGradient id="id55" gradientUnits="userSpaceOnUse" x1="443.563" y1="5148.04" x2="10517.8" y2="5459.36">
   <stop offset="0" style="stop-opacity:0.2; stop-color:white"/>
   <stop offset="1" style="stop-opacity:0.2; stop-color:white"/>
  </linearGradient>
     <rect style="fill:url(#id55)" x="3491" y="7003" width="540" height="478"/>
    </mask>
    <mask id="id56">
  <linearGradient id="id57" gradientUnits="userSpaceOnUse" x1="443.563" y1="5148.04" x2="10517.8" y2="5459.36">
   <stop offset="0" style="stop-opacity:0.2; stop-color:white"/>
   <stop offset="1" style="stop-opacity:0.2; stop-color:white"/>
  </linearGradient>
     <rect style="fill:url(#id57)" x="3265" y="5000" width="805" height="2481"/>
    </mask>
    <mask id="id58">
  <linearGradient id="id59" gradientUnits="userSpaceOnUse" x1="443.563" y1="5148.04" x2="10517.8" y2="5459.36">
   <stop offset="0" style="stop-opacity:0.2; stop-color:white"/>
   <stop offset="1" style="stop-opacity:0.2; stop-color:white"/>
  </linearGradient>
     <rect style="fill:url(#id59)" x="4921" y="1338" width="1218" height="4695"/>
    </mask>
    <mask id="id60">
  <linearGradient id="id61" gradientUnits="userSpaceOnUse" x1="443.563" y1="5148.04" x2="10517.8" y2="5459.36">
   <stop offset="0" style="stop-opacity:0.2; stop-color:white"/>
   <stop offset="1" style="stop-opacity:0.2; stop-color:white"/>
  </linearGradient>
     <rect style="fill:url(#id61)" x="4846" y="1338" width="1293" height="4695"/>
    </mask>
    <mask id="id62">
  <linearGradient id="id63" gradientUnits="userSpaceOnUse" x1="443.563" y1="5148.04" x2="10517.8" y2="5459.36">
   <stop offset="0" style="stop-opacity:0.2; stop-color:white"/>
   <stop offset="1" style="stop-opacity:0.2; stop-color:white"/>
  </linearGradient>
     <rect style="fill:url(#id63)" x="4921" y="3138" width="52.4192" height="52.6692"/>
    </mask>
    <mask id="id64">
  <linearGradient id="id65" gradientUnits="userSpaceOnUse" x1="443.563" y1="5148.04" x2="10517.8" y2="5459.36">
   <stop offset="0" style="stop-opacity:0.2; stop-color:white"/>
   <stop offset="1" style="stop-opacity:0.2; stop-color:white"/>
  </linearGradient>
     <rect style="fill:url(#id65)" x="4721" y="2932" width="459" height="3211"/>
    </mask>
    <mask id="id66">
  <linearGradient id="id67" gradientUnits="userSpaceOnUse" x1="443.563" y1="5148.04" x2="10517.8" y2="5459.36">
   <stop offset="0" style="stop-opacity:0.2; stop-color:white"/>
   <stop offset="1" style="stop-opacity:0.2; stop-color:white"/>
  </linearGradient>
     <rect style="fill:url(#id67)" x="6350" y="4576" width="52.0956" height="52.1397"/>
    </mask>
    <mask id="id68">
  <linearGradient id="id69" gradientUnits="userSpaceOnUse" x1="443.563" y1="5148.04" x2="10517.8" y2="5459.36">
   <stop offset="0" style="stop-opacity:0.2; stop-color:white"/>
   <stop offset="1" style="stop-opacity:0.2; stop-color:white"/>
  </linearGradient>
     <rect style="fill:url(#id69)" x="6350" y="4576" width="52.0662" height="52.0956"/>
    </mask>
    <mask id="id70">
  <linearGradient id="id71" gradientUnits="userSpaceOnUse" x1="443.563" y1="5148.04" x2="10517.8" y2="5459.36">
   <stop offset="0" style="stop-opacity:0.2; stop-color:white"/>
   <stop offset="1" style="stop-opacity:0.2; stop-color:white"/>
  </linearGradient>
     <rect style="fill:url(#id71)" x="6350" y="-26" width="2846" height="4654"/>
    </mask>
    <mask id="id72">
  <linearGradient id="id73" gradientUnits="userSpaceOnUse" x1="443.563" y1="5148.04" x2="10517.8" y2="5459.36">
   <stop offset="0" style="stop-opacity:0.2; stop-color:white"/>
   <stop offset="1" style="stop-opacity:0.2; stop-color:white"/>
  </linearGradient>
     <rect style="fill:url(#id73)" x="8035" y="2099" width="77.0992" height="95.3076"/>
    </mask>
    <mask id="id74">
  <linearGradient id="id75" gradientUnits="userSpaceOnUse" x1="443.563" y1="5148.04" x2="10517.8" y2="5459.36">
   <stop offset="0" style="stop-opacity:0.2; stop-color:white"/>
   <stop offset="1" style="stop-opacity:0.2; stop-color:white"/>
  </linearGradient>
     <rect style="fill:url(#id75)" x="5888" y="1171" width="434" height="1974"/>
    </mask>
    <mask id="id76">
  <linearGradient id="id77" gradientUnits="userSpaceOnUse" x1="443.563" y1="5148.04" x2="10517.8" y2="5459.36">
   <stop offset="0" style="stop-opacity:0.2; stop-color:white"/>
   <stop offset="1" style="stop-opacity:0.2; stop-color:white"/>
  </linearGradient>
     <rect style="fill:url(#id77)" x="5888" y="-26" width="3308" height="4654"/>
    </mask>
    <mask id="id78">
  <linearGradient id="id79" gradientUnits="userSpaceOnUse" x1="443.563" y1="5148.04" x2="10517.8" y2="5459.36">
   <stop offset="0" style="stop-opacity:0.2; stop-color:white"/>
   <stop offset="1" style="stop-opacity:0.2; stop-color:white"/>
  </linearGradient>
     <rect style="fill:url(#id79)" x="6062" y="4576" width="340" height="379"/>
    </mask>
    <mask id="id80">
  <linearGradient id="id81" gradientUnits="userSpaceOnUse" x1="443.563" y1="5148.04" x2="10517.8" y2="5459.36">
   <stop offset="0" style="stop-opacity:0.2; stop-color:white"/>
   <stop offset="1" style="stop-opacity:0.2; stop-color:white"/>
  </linearGradient>
     <rect style="fill:url(#id81)" x="6062" y="4590" width="329" height="366"/>
    </mask>
    <mask id="id82">
  <linearGradient id="id83" gradientUnits="userSpaceOnUse" x1="443.563" y1="5148.04" x2="10517.8" y2="5459.36">
   <stop offset="0" style="stop-opacity:0.2; stop-color:white"/>
   <stop offset="1" style="stop-opacity:0.2; stop-color:white"/>
  </linearGradient>
     <rect style="fill:url(#id83)" x="6062" y="4576" width="341" height="379"/>
    </mask>
    <mask id="id84">
  <linearGradient id="id85" gradientUnits="userSpaceOnUse" x1="443.563" y1="5148.04" x2="10517.8" y2="5459.36">
   <stop offset="0" style="stop-opacity:0.2; stop-color:white"/>
   <stop offset="1" style="stop-opacity:0.2; stop-color:white"/>
  </linearGradient>
     <rect style="fill:url(#id85)" x="5848" y="3093" width="555" height="1862"/>
    </mask>
 </defs>
 <g id="Layer_x0020_1">
  <metadata id="CorelCorpID_0Corel-Layer"/>
  <g id="_1693083515600">
   <path class="fil0" style="mask:url(#id0)" d="M9730 5712c0,3 0,6 0,10 0,11 0,23 0,35 0,19 15,35 35,36 19,0 35,-16 35,-36 1,-12 1,-23 1,-35l0 -10c0,-20 -16,-36 -36,-36 -19,1 -35,16 -35,36zm-12 -316c1,12 2,24 3,35 1,20 18,35 37,33 20,-1 35,-18 33,-37 0,-12 -1,-24 -2,-36 -1,-19 -18,-34 -38,-33 -19,2 -34,19 -33,38zm-33 -314c2,12 4,23 5,35 3,19 21,33 40,30 19,-2 33,-20 30,-39 -1,-12 -3,-24 -4,-36 -3,-19 -21,-32 -40,-30 -20,3 -33,21 -31,40zm-54 -311c2,12 5,23 7,35 4,19 23,31 42,27 19,-4 31,-22 27,-41 -2,-12 -4,-24 -7,-35 -4,-20 -23,-32 -42,-28 -19,4 -31,23 -27,42zm-76 -306c3,11 6,22 9,34 6,18 25,29 44,24 19,-5 30,-25 25,-43 -3,-12 -7,-23 -10,-35 -5,-18 -25,-29 -44,-24 -18,5 -29,25 -24,44zm-97 -301c4,11 8,22 12,33 6,19 26,28 45,22 18,-7 28,-27 21,-45 -3,-11 -7,-23 -12,-34 -6,-18 -26,-28 -45,-21 -18,7 -28,27 -21,45zm-118 -292c5,11 10,21 14,32 8,18 29,26 47,18 18,-8 26,-28 18,-46 -4,-11 -9,-22 -14,-33 -8,-18 -29,-26 -47,-18 -17,8 -25,29 -18,47zm-137 -284c5,10 11,21 16,31 9,17 31,24 48,15 17,-9 24,-30 15,-47 -5,-11 -11,-21 -16,-32 -10,-17 -31,-24 -48,-15 -18,9 -24,31 -15,48zm-157 -274c6,10 12,20 18,30 11,17 32,22 49,12 17,-10 22,-32 12,-49 -6,-10 -12,-20 -19,-30 -10,-17 -32,-22 -48,-11 -17,10 -22,32 -12,48zm-175 -262c7,10 13,19 20,29 11,16 33,19 49,8 16,-11 20,-33 9,-49 -7,-10 -14,-20 -21,-29 -11,-16 -33,-20 -49,-8 -16,11 -20,33 -8,49zm-193 -250c7,9 14,18 22,27 12,16 35,18 50,5 15,-12 17,-34 5,-49 -8,-10 -15,-19 -23,-28 -12,-15 -35,-17 -50,-5 -15,13 -17,35 -4,50zm-210 -236c8,9 16,17 24,26 13,14 36,15 50,1 14,-13 15,-35 2,-50 -9,-8 -17,-17 -25,-25 -13,-15 -36,-15 -50,-2 -14,14 -15,36 -1,50zm-226 -221c9,8 17,16 26,24 14,13 37,13 50,-2 13,-14 13,-37 -2,-50 -8,-8 -17,-16 -26,-24 -14,-13 -37,-12 -50,2 -13,15 -12,37 2,50zm-240 -205c9,7 18,15 27,22 16,12 38,10 50,-5 12,-15 10,-38 -5,-50 -9,-7 -19,-15 -28,-22 -15,-13 -37,-10 -50,5 -12,16 -9,38 6,50zm-254 -188c10,7 19,13 29,20 16,11 38,7 49,-9 12,-16 8,-38 -8,-49 -10,-7 -20,-14 -30,-20 -16,-12 -38,-7 -49,9 -11,16 -7,38 9,49zm-266 -170c10,6 20,12 30,18 17,10 39,4 49,-12 10,-17 4,-39 -12,-49 -11,-6 -21,-12 -31,-18 -17,-10 -39,-5 -48,12 -10,17 -5,39 12,49zm-278 -152c11,5 21,11 32,16 17,9 39,2 47,-16 9,-17 3,-38 -15,-47 -10,-6 -21,-11 -32,-16 -17,-9 -39,-2 -47,15 -9,18 -2,39 15,48zm-287 -132c11,4 22,9 32,14 18,7 39,-1 47,-19 8,-18 -1,-39 -19,-47 -11,-4 -22,-9 -33,-13 -18,-8 -38,1 -46,19 -8,18 1,38 19,46zm-296 -112c11,4 22,8 33,12 19,6 39,-4 45,-22 7,-19 -3,-39 -21,-45 -12,-4 -23,-8 -34,-12 -19,-6 -39,4 -45,22 -6,19 4,39 22,45zm-302 -91c11,3 22,6 33,9 19,6 39,-6 44,-24 5,-19 -6,-39 -25,-44 -11,-3 -23,-6 -34,-9 -19,-5 -39,6 -44,25 -5,19 7,39 26,43zm-308 -69c11,2 23,4 34,7 19,3 38,-9 42,-28 3,-19 -9,-38 -28,-42 -12,-2 -24,-4 -35,-7 -20,-3 -38,9 -42,29 -3,19 9,37 29,41zm-313 -48c12,1 24,3 35,4 20,3 37,-11 40,-30 2,-20 -11,-38 -31,-40 -12,-2 -23,-3 -35,-4 -20,-3 -37,11 -40,31 -2,19 12,37 31,39zm-314 -26c11,0 23,1 35,2 19,1 36,-14 37,-34 1,-19 -14,-36 -33,-37 -12,-1 -24,-2 -36,-2 -19,-1 -36,14 -37,34 -1,19 14,36 34,37zm-316 -5c12,0 23,-1 35,-1 20,0 35,-16 35,-36 0,-19 -16,-35 -36,-35 -12,1 -23,1 -35,1 -20,0 -35,16 -35,36 0,20 16,35 36,35zm-315 16c11,-1 23,-2 35,-3 19,-1 34,-18 32,-38 -1,-19 -19,-34 -38,-32 -12,1 -24,2 -36,3 -19,1 -33,19 -32,38 2,20 19,34 39,32l0 0zm-314 38c12,-1 23,-3 35,-5 19,-3 33,-21 30,-40 -3,-19 -21,-33 -41,-30 -11,2 -23,4 -35,5 -19,4 -32,22 -29,41 3,19 21,33 40,29zm-310 60c11,-2 23,-5 34,-8 19,-4 31,-23 27,-42 -4,-19 -23,-31 -42,-27 -12,3 -23,5 -35,8 -19,4 -31,24 -26,43 4,19 23,31 42,26zm-305 81c11,-3 22,-6 34,-10 18,-5 29,-25 24,-44 -6,-19 -26,-29 -44,-24 -12,4 -23,7 -35,11 -18,5 -29,25 -23,44 5,18 25,29 44,23zm-299 102c11,-4 22,-8 33,-12 18,-7 28,-27 21,-46 -7,-18 -27,-27 -46,-20 -11,4 -22,8 -33,12 -18,7 -28,28 -21,46 7,18 28,27 46,20zm-290 123c10,-5 21,-10 31,-15 18,-8 26,-29 18,-47 -8,-18 -29,-25 -47,-17 -11,5 -21,10 -32,14 -18,9 -26,30 -17,47 8,18 29,26 47,18zm-282 142c10,-6 21,-11 31,-17 17,-9 24,-31 14,-48 -9,-17 -30,-23 -48,-14 -10,6 -21,11 -31,17 -17,9 -23,31 -14,48 10,17 31,23 48,14zm-271 161c10,-6 20,-12 30,-18 16,-11 21,-33 11,-49 -11,-17 -33,-22 -49,-11 -10,6 -20,12 -30,19 -17,10 -21,32 -11,49 11,16 33,21 49,10zm-259 180c9,-7 18,-14 28,-21 16,-11 19,-33 8,-49 -12,-16 -34,-19 -50,-8 -10,7 -19,14 -29,21 -15,12 -18,34 -7,50 12,16 34,19 50,7zm-247 197c9,-7 18,-15 27,-22 15,-13 17,-35 4,-50 -12,-15 -35,-17 -50,-4 -9,7 -18,15 -27,23 -15,12 -16,35 -4,50 13,14 35,16 50,3zm-232 214c8,-8 16,-16 25,-24 14,-14 14,-36 1,-51 -14,-14 -36,-14 -50,0 -9,8 -17,16 -26,25 -14,13 -14,36 0,50 13,14 36,14 50,0l0 0zm-218 229c8,-8 16,-17 24,-26 13,-14 12,-37 -3,-50 -14,-13 -37,-12 -50,3 -8,9 -16,17 -24,26 -13,15 -11,37 3,50 15,13 37,12 50,-3zm-201 244c7,-9 15,-19 22,-28 12,-15 9,-38 -6,-50 -16,-12 -38,-9 -50,7 -7,9 -15,18 -22,28 -12,15 -9,37 7,49 15,12 37,9 49,-6zm-184 257c7,-10 13,-20 20,-29 11,-17 7,-39 -10,-49 -16,-11 -38,-7 -49,9 -6,10 -13,20 -20,30 -11,16 -6,38 10,49 16,11 38,6 49,-10zm-166 269c6,-10 12,-20 18,-31 10,-16 4,-38 -13,-48 -17,-10 -39,-4 -48,13 -6,10 -12,21 -18,31 -10,17 -4,39 13,48 17,10 39,4 48,-13zm-147 280c6,-11 11,-21 16,-32 9,-17 1,-39 -16,-47 -18,-9 -39,-1 -48,16 -5,11 -10,21 -15,32 -9,18 -1,39 16,47 18,9 39,2 47,-16zm-127 290c5,-11 9,-22 13,-33 8,-18 -1,-39 -19,-46 -18,-8 -39,1 -46,19 -5,11 -9,22 -13,33 -8,19 1,39 19,46 18,8 39,-1 46,-19zm-106 297c3,-11 7,-22 10,-33 6,-19 -4,-39 -22,-45 -19,-6 -39,4 -45,23 -4,11 -7,22 -11,34 -6,18 4,38 23,44 19,6 39,-4 45,-23zm-86 304c3,-11 6,-22 8,-34 5,-19 -6,-38 -25,-43 -19,-5 -38,7 -43,26 -3,11 -6,23 -9,35 -4,19 7,38 26,42 19,5 38,-7 43,-26zm-64 310c2,-12 4,-24 6,-35 3,-19 -10,-38 -29,-41 -19,-4 -38,9 -41,28 -2,12 -4,24 -6,36 -3,19 9,37 29,40 19,4 37,-9 41,-28zm-43 312c1,-11 2,-23 4,-35 2,-19 -12,-36 -32,-39 -19,-2 -37,12 -39,32 -1,12 -2,23 -4,35 -2,20 13,37 32,39 20,2 37,-12 39,-32zm-21 316c0,-12 1,-24 1,-36 1,-19 -14,-36 -34,-36 -19,-1 -36,14 -37,34 0,11 -1,23 -1,35 -1,20 15,36 34,37 20,0 36,-15 37,-34zm0 315c0,-11 -1,-23 -1,-35 -1,-19 -17,-35 -36,-34 -20,0 -35,17 -35,36 1,12 1,24 1,36 1,19 17,35 37,34 19,-1 35,-17 34,-37zm22 315c-1,-11 -3,-23 -4,-35 -1,-19 -19,-33 -38,-32 -20,2 -34,20 -32,39 1,12 2,24 3,36 2,19 20,33 39,31 20,-2 34,-19 32,-39zm43 313c-2,-11 -4,-23 -6,-35 -3,-19 -21,-32 -40,-29 -20,4 -33,22 -30,41 2,12 4,23 6,35 4,19 22,32 41,29 20,-3 33,-22 29,-41zm65 309c-3,-11 -5,-23 -8,-34 -5,-19 -24,-31 -43,-26 -19,4 -31,23 -26,42 3,12 6,24 8,35 5,19 24,31 43,26 19,-5 31,-24 26,-43zm86 304c-3,-11 -7,-22 -10,-34 -6,-18 -26,-29 -45,-23 -18,6 -29,26 -23,45 4,11 7,22 11,34 6,18 26,28 45,22 18,-6 28,-26 22,-44zm108 297c-5,-11 -9,-22 -13,-33 -8,-18 -28,-27 -46,-20 -19,7 -28,28 -20,46 4,11 8,22 13,33 7,18 28,27 46,20 18,-7 27,-28 20,-46zm127 288c-5,-10 -10,-21 -15,-31 -9,-18 -30,-25 -47,-17 -18,8 -26,29 -17,47 5,11 10,21 15,32 9,18 30,25 47,17 18,-9 25,-30 17,-48zm147 279c-6,-10 -12,-20 -18,-30 -9,-17 -31,-23 -48,-14 -17,10 -23,31 -13,49 6,10 11,20 17,30 10,17 32,23 49,14 17,-10 22,-32 13,-49zm166 269c-7,-10 -13,-20 -20,-30 -10,-16 -32,-20 -49,-10 -16,11 -21,33 -10,49 7,10 13,20 20,30 11,16 33,21 49,10 16,-11 21,-33 10,-49zm184 256c-7,-9 -15,-18 -22,-28 -11,-15 -34,-18 -49,-7 -16,12 -19,34 -7,50 7,9 14,19 22,28 12,16 34,19 49,7 16,-12 19,-34 7,-50zm201 243c-8,-8 -15,-17 -23,-26 -13,-15 -35,-16 -50,-3 -15,12 -16,35 -3,50 7,8 15,17 23,26 13,15 35,16 50,3 15,-13 16,-35 3,-50zm218 229c-9,-8 -17,-16 -25,-25 -14,-13 -37,-13 -50,1 -14,13 -14,36 0,50 8,8 16,16 25,25 14,13 36,13 50,-1 14,-14 14,-36 0,-50zm232 214c-9,-8 -17,-16 -26,-23 -15,-13 -37,-12 -50,3 -13,15 -11,37 3,50 9,8 18,16 27,23 15,13 38,11 50,-3 13,-15 11,-38 -4,-50l0 0zm247 197c-9,-7 -18,-14 -28,-21 -15,-12 -38,-9 -49,7 -12,15 -9,37 7,49 9,7 19,14 28,22 16,11 38,8 50,-8 11,-15 8,-38 -8,-49zm260 179c-10,-6 -19,-12 -29,-19 -17,-10 -38,-6 -49,11 -11,16 -6,38 10,49 10,6 20,13 30,19 17,11 39,6 49,-11 11,-16 6,-38 -11,-49zm272 162c-10,-6 -20,-12 -31,-17 -17,-10 -38,-4 -48,13 -9,17 -3,39 14,49 10,5 21,11 31,17 17,9 39,3 48,-14 10,-17 3,-39 -14,-48zm283 142c-11,-5 -22,-10 -32,-15 -18,-8 -39,-1 -47,17 -9,18 -1,39 17,47 10,5 21,10 32,15 18,8 39,1 47,-17 8,-18 0,-39 -17,-47zm291 122c-11,-4 -22,-8 -32,-12 -19,-7 -39,2 -46,20 -7,18 2,39 20,46 11,4 22,8 33,12 19,7 39,-2 46,-20 7,-18 -2,-39 -21,-46zm300 102c-11,-3 -22,-7 -34,-10 -18,-6 -38,4 -44,23 -6,19 5,39 23,44 12,4 23,7 35,11 18,5 38,-5 44,-24 5,-19 -5,-38 -24,-44zm305 80c-11,-2 -22,-5 -34,-7 -19,-5 -38,7 -42,26 -5,19 7,38 26,42 12,3 23,6 35,8 19,5 38,-7 42,-26 4,-19 -7,-38 -27,-43zm311 59c-12,-1 -23,-3 -35,-5 -19,-3 -38,10 -41,29 -3,20 10,38 30,41 11,2 23,4 35,5 19,3 37,-10 40,-29 3,-19 -10,-38 -29,-41zm313 38c-11,-1 -23,-2 -35,-3 -19,-2 -37,12 -38,32 -2,19 12,37 32,38 11,1 23,3 35,4 20,1 37,-13 38,-33 2,-19 -12,-36 -32,-38zm316 16c-12,0 -24,-1 -36,-1 -19,0 -35,15 -36,35 0,19 15,35 35,36 12,0 24,0 35,1 20,0 36,-16 36,-35 1,-20 -15,-36 -34,-36zm315 -6c-11,1 -23,2 -35,2 -19,1 -34,17 -33,37 0,19 17,35 36,34 12,-1 24,-1 36,-2 20,-1 35,-18 34,-37 -1,-20 -18,-35 -38,-34zm315 -27c-12,2 -23,3 -35,4 -19,3 -33,20 -31,40 2,19 20,33 39,31 12,-2 24,-3 36,-4 19,-3 33,-20 30,-40 -2,-19 -20,-33 -39,-31zm312 -48c-11,2 -23,4 -34,6 -20,4 -32,22 -29,41 4,20 22,32 41,29 12,-2 24,-5 35,-7 20,-3 32,-22 28,-41 -3,-19 -22,-32 -41,-28zm308 -70c-11,3 -23,5 -34,8 -19,5 -30,25 -26,43 5,19 25,31 44,26 11,-3 23,-6 34,-9 19,-5 30,-24 25,-43 -5,-19 -24,-31 -43,-25zm302 -92c-11,4 -22,8 -33,11 -19,7 -29,27 -23,45 7,19 27,29 45,23 11,-4 23,-8 34,-12 18,-6 28,-26 22,-45 -6,-18 -26,-28 -45,-22zm295 -112c-11,5 -21,9 -32,13 -18,8 -27,29 -19,47 7,18 28,26 46,19 11,-4 22,-9 33,-14 18,-7 26,-28 19,-46 -8,-18 -29,-27 -47,-19zm286 -132c-10,5 -20,10 -31,16 -17,8 -25,29 -16,47 9,18 30,25 48,16 10,-5 21,-10 31,-16 18,-9 25,-30 16,-47 -9,-18 -30,-25 -48,-16zm277 -152c-10,6 -20,12 -30,18 -17,10 -23,32 -13,49 10,16 32,22 49,12 10,-6 20,-12 30,-18 17,-10 22,-32 13,-48 -10,-17 -32,-23 -49,-13zm266 -170c-10,7 -20,13 -29,20 -17,11 -21,33 -10,49 11,16 33,20 49,9 10,-6 20,-13 30,-20 16,-11 20,-33 9,-49 -11,-16 -33,-20 -49,-9l0 0zm253 -188c-9,7 -18,14 -28,21 -15,12 -18,35 -6,50 12,15 35,18 50,6 9,-7 19,-15 28,-22 15,-12 18,-35 6,-50 -13,-15 -35,-18 -50,-5zm240 -206c-9,8 -18,16 -26,24 -15,13 -16,35 -3,50 13,14 36,15 50,2 9,-8 18,-16 27,-24 14,-13 15,-35 2,-50 -14,-14 -36,-15 -50,-2l0 0zm225 -221c-8,8 -16,17 -24,25 -14,14 -14,37 1,50 14,14 36,13 50,-1 8,-8 16,-17 24,-25 14,-15 13,-37 -1,-51 -14,-13 -37,-12 -50,2zm209 -237c-7,9 -14,18 -22,27 -13,15 -11,38 4,50 15,13 38,11 50,-4 8,-9 15,-18 23,-27 13,-16 10,-38 -5,-50 -15,-13 -37,-11 -50,4zm193 -250c-6,10 -13,19 -20,29 -12,15 -8,38 8,49 15,12 38,8 49,-8 7,-9 14,-19 21,-29 11,-15 8,-38 -8,-49 -16,-11 -38,-8 -50,8zm176 -263c-6,10 -13,20 -19,30 -10,17 -5,38 11,49 17,10 39,5 49,-11 6,-10 13,-20 19,-31 10,-16 5,-38 -12,-48 -16,-11 -38,-5 -48,11l0 0zm156 -274c-5,10 -10,20 -16,31 -9,17 -3,38 14,48 18,9 39,2 48,-15 6,-10 12,-21 17,-31 9,-18 3,-39 -15,-48 -17,-9 -38,-3 -48,15zm138 -285c-5,11 -10,21 -14,32 -8,18 -1,39 17,47 18,8 39,0 47,-18 5,-11 10,-22 15,-33 8,-18 -1,-38 -18,-46 -18,-8 -39,0 -47,18zm117 -294c-4,11 -8,22 -12,33 -7,18 3,39 21,46 19,6 39,-3 46,-21 4,-12 8,-23 12,-34 6,-18 -3,-39 -22,-45 -18,-7 -38,3 -45,21zm97 -301c-4,12 -7,23 -10,34 -5,19 5,38 24,44 19,5 39,-5 44,-24 3,-12 7,-23 10,-34 5,-19 -6,-39 -25,-44 -18,-5 -38,5 -43,24zm75 -306c-2,11 -5,23 -7,34 -5,19 8,38 27,42 19,4 38,-8 42,-27 2,-12 5,-23 7,-35 4,-19 -8,-38 -27,-42 -19,-4 -38,8 -42,28zm54 -312c-2,12 -3,24 -5,35 -3,20 10,38 30,40 19,3 37,-10 40,-30 2,-11 3,-23 5,-35 3,-19 -11,-37 -30,-40 -20,-2 -38,11 -40,30zm32 -314c-1,12 -2,24 -2,35 -2,20 13,37 32,38 20,2 37,-13 38,-32 1,-12 2,-24 3,-36 1,-19 -14,-36 -33,-38 -20,-1 -37,14 -38,33z"/>
   <path class="fil0" style="mask:url(#id2)" d="M9497 3696c318,-362 552,-827 625,-1424 0,0 -536,939 -2058,1046 0,0 1475,-428 1891,-1344 0,0 286,-214 -226,-1034 0,0 -499,-643 -559,-940 0,0 -780,2357 -2038,3942 -28,32 -43,54 -43,54 -12,15 -28,38 -49,65l-25 34c-7,10 -15,20 -23,30l-22 31c-9,11 -17,22 -26,34l-112 149c-46,61 -93,125 -140,188l-14 19c-26,34 -52,68 -76,101l-170 226c-7,10 -13,19 -20,27l-19 26c-3,4 -5,7 -8,10l-11 16 -6 7 -5 7c-269,344 -992,1064 -1421,1477 0,0 -142,131 -335,306l0 0c-47,43 -98,88 -149,135 -328,284 -532,484 -821,719 -2454,1997 -3637,2372 -3637,2372 8,159 341,0 341,0 507,-206 1760,-952 1760,-952 765,-489 1261,-229 1261,-229 634,253 1189,39 1189,39 -674,-79 -999,-372 -999,-372 1285,507 1428,198 1428,198 -603,0 -841,-397 -841,-397 1152,413 1984,-142 2394,-533 663,-210 1330,-639 1864,-1441 0,0 -882,752 -2113,633 1402,-183 2309,-1123 2309,-1123 -1762,863 -2652,-6 -2652,-6 437,211 610,268 1076,274 1759,22 2052,-946 2052,-946 -684,553 -1314,327 -1314,327 897,-400 1434,-1139 1742,-1751z"/>
   <path class="fil0" style="mask:url(#id4)" d="M103 10045c-4,0 -8,0 -11,0 3,0 7,0 11,0zm-103 -65c5,49 43,65 92,65 -49,0 -87,-16 -92,-65zm2119 -968l0 0m8 -5c-3,2 -5,4 -8,5 3,-1 5,-3 8,-5zm1886 -89c0,0 0,0 0,0 0,0 0,0 0,0zm-640 -120c232,91 452,120 639,120 -187,-1 -407,-29 -639,-120zm-11 -4c2,1 5,2 7,2 -2,0 -5,-1 -7,-2zm1323 -42l0 0 0 0zm-1686 -27c225,0 356,65 363,68 -7,-3 -137,-68 -363,-68zm0 0l-1 0m609 -243c531,205 859,267 1060,270 -201,-3 -529,-65 -1060,-270zm-10 -4c1,1 3,1 5,2 -2,-1 -4,-1 -5,-2zm-32 -13c7,3 14,6 22,9 -8,-3 -15,-6 -22,-9zm644 -179c157,52 307,85 452,104 -145,-19 -295,-52 -452,-104zm2056 -332c0,0 0,0 -1,1 1,-1 1,-1 1,-1zm3 -2c-1,0 -1,1 -2,1 1,0 1,-1 2,-1zm264 -223l0 0c-74,71 -162,147 -263,222 101,-75 189,-151 263,-222z"/>
   <path class="fil0" style="mask:url(#id6)" d="M3637 7603l0 0c-2454,1997 -3637,2372 -3637,2372 0,2 0,3 0,5 5,49 43,65 92,65l0 0c3,0 7,0 11,0 100,-4 238,-70 238,-70 507,-206 1760,-952 1760,-952 6,-3 12,-7 18,-10l0 -1c0,0 0,0 0,0 3,-1 5,-3 8,-5 359,-223 657,-282 871,-282l1 0 0 0c226,0 356,65 363,68 0,0 0,1 0,1 2,1 5,2 7,2 2,1 3,1 4,2 232,91 452,120 639,120 0,0 0,0 1,0 0,0 0,0 0,0 320,-1 538,-85 538,-85 -674,-79 -999,-373 -999,-373 4,2 9,4 13,5 7,3 14,6 22,9 3,1 6,3 10,4 1,1 3,1 5,2 2,1 4,1 5,2 531,205 859,267 1060,270 6,0 12,0 18,0l0 0c252,0 295,-93 295,-93 -603,0 -841,-397 -841,-397 23,9 47,17 70,24 157,52 307,85 452,104 96,12 189,18 280,18 558,0 1005,-220 1323,-453 1,-1 1,-1 1,-1 1,0 1,-1 1,-1 1,0 1,-1 2,-1 0,0 0,0 1,-1 101,-75 189,-151 263,-222 -409,130 -818,177 -1194,177 -958,0 -1701,-303 -1701,-303zm821 -719c-321,278 -524,476 -804,705 -6,5 -11,9 -17,14 159,-125 519,-446 821,-719z"/>
   <path class="fil0" style="mask:url(#id8)" d="M6898 690c-785,1395 -535,2672 -535,2672 -281,-396 -67,-2165 -67,-2165 -213,788 -328,1419 -382,1922 -64,-519 -41,-1130 199,-1755 0,0 -786,597 -1165,1800 -165,190 -390,509 -523,951 0,0 71,-594 -175,-880 0,0 -8,492 -206,912 0,0 -365,1110 -175,2141 0,0 -269,-571 -7,-1856 0,0 -156,226 -304,594 -1,-118 3,-242 10,-372 0,0 -111,397 -491,809 0,0 -341,365 -143,1435 0,0 -349,-388 -159,-1324 0,0 -445,495 -476,1634 0,0 64,666 -285,1395 0,0 695,-468 1503,-1148 159,-134 323,-277 487,-425 329,-290 747,-665 995,-913l0 0c39,-39 74,-75 103,-107l-1 -3c197,-213 642,-694 987,-1078l0 0c94,-103 187,-208 278,-315 3,-4 7,-8 10,-12l0 0c1685,-1990 2794,-4602 2794,-4602 -250,127 -1082,151 -1082,151 -1023,31 -1190,539 -1190,539z"/>
   <path class="fil0" style="mask:url(#id10)" d="M2014 8603l0 0m0 0l0 0zm0 0c0,0 0,0 0,0 0,0 0,0 0,0zm0 0c0,0 0,0 0,0 0,0 0,0 0,0zm1 -1c0,0 0,1 0,1 0,0 0,-1 0,-1zm1 0c0,0 0,0 0,0 0,0 0,0 0,0zm1989 -1573c-1,0 -1,1 -1,1 -163,148 -327,290 -486,424 -1,1 -1,1 -1,1 -782,658 -1458,1118 -1501,1147 52,-35 1021,-695 1989,-1573zm-437 -2368c0,0 0,0 0,0l0 0z"/>
   <path class="fil0" style="mask:url(#id12)" d="M4004 7030c-264,232 -470,410 -486,424 159,-134 323,-276 486,-424zm-436 -2376c0,0 0,1 0,2 -8,26 -124,409 -491,807 0,0 -341,365 -143,1435 0,0 -215,-239 -216,-795 0,-152 16,-328 57,-529 0,0 -445,495 -476,1634 0,0 5,47 5,131 0,230 -34,730 -290,1264 0,0 0,0 0,0l0 0c0,0 0,0 0,0l0 0c0,0 0,0 0,0 0,0 0,0 0,0 0,0 0,0 0,0 0,0 0,0 0,0 1,0 1,0 1,0 0,0 0,-1 0,-1 1,0 1,0 1,0 0,0 0,0 0,0 0,0 0,0 0,0 43,-29 719,-489 1501,-1147 -402,-949 -189,-1860 40,-2429 0,-116 4,-238 11,-365 0,0 0,0 0,0 0,-2 0,-5 0,-7z"/>
   <path class="fil0" style="mask:url(#id14)" d="M8362 6339c-528,770 -1180,1184 -1829,1390 0,0 0,0 0,0 649,-206 1301,-620 1829,-1390zm3 -4c-1,1 -2,3 -2,4 0,-1 2,-3 2,-4zm7 -10c-2,3 -4,6 -6,9 2,-3 4,-6 6,-9zm3 -4c-1,1 -2,3 -3,4 1,-1 2,-3 3,-4zm3 -5c-1,2 -2,3 -3,4 1,-1 2,-2 3,-4zm3 -5c-1,2 -2,3 -3,5 1,-2 2,-3 3,-5zm4 -4c-2,1 -3,3 -4,4 1,-1 2,-3 4,-4zm3 -5c-1,2 -2,3 -3,5 1,-2 2,-3 3,-5zm2 -4c0,1 -1,2 -2,3 1,-1 2,-2 2,-3zm3 -5c0,2 -1,3 -2,4 1,-1 2,-2 2,-4zm4 -5c-1,1 -2,3 -3,4 1,-1 2,-3 3,-4z"/>
   <path class="fil0" style="mask:url(#id16)" d="M8397 6288l0 0c-3,2 -760,646 -1848,646 -86,0 -175,-4 -265,-13 -151,20 -308,31 -471,31 -376,0 -780,-59 -1206,-203 -47,43 -97,88 -149,135 0,0 705,559 1849,559 162,0 333,-12 512,-37 0,0 -99,144 -286,323 649,-206 1301,-620 1829,-1390l1 0c0,-1 1,-3 2,-4 1,0 1,-1 1,-1 2,-3 4,-6 6,-9l0 0c1,-1 2,-3 3,-4 0,0 0,0 0,-1 1,-1 2,-2 3,-4 0,0 0,0 0,0 1,-2 2,-3 3,-5 0,0 0,0 0,0 1,-1 2,-3 4,-4l0 0c1,-2 2,-3 3,-5 0,0 0,0 0,-1 1,-1 2,-2 2,-3 1,0 1,-1 1,-1 1,-1 2,-2 2,-4 1,0 1,0 1,-1 1,-1 2,-3 3,-4z"/>
   <path class="fil0" style="mask:url(#id18)" d="M6533 7729l0 0c-1,0 -1,0 -1,0l0 0c1,0 1,0 1,0l0 0z"/>
   <path class="fil0" style="mask:url(#id20)" d="M4458 6884c-302,273 -662,594 -821,719 0,0 743,303 1701,303 376,0 785,-47 1194,-177 0,0 1,0 1,0 187,-179 286,-323 286,-323 -179,25 -350,37 -512,37 -1144,0 -1849,-559 -1849,-559z"/>
   <path class="fil0" style="mask:url(#id22)" d="M4815 6560c-57,51 -128,116 -208,189 0,0 0,0 0,0 80,-73 151,-138 208,-189zm2 -3c0,0 0,1 -1,1 1,0 1,-1 1,-1zm6 -5c0,0 0,0 0,0 0,0 0,0 0,0zm112 -102c0,0 0,0 0,0 0,0 0,0 0,0zm3 -4c0,0 0,0 0,0 0,0 0,0 0,0zm3 -2c0,0 -1,0 -1,1 0,-1 1,-1 1,-1zm0 -1c0,0 0,0 0,1 0,-1 0,-1 0,-1zm1 0c0,0 -1,0 -1,0 0,0 1,0 1,0zm0 0c0,0 0,0 0,0 0,0 0,0 0,0zm0 0c0,0 0,0 0,0 0,0 0,0 0,0z"/>
   <path class="fil0" style="mask:url(#id24)" d="M4942 6443c0,0 0,0 0,0 0,0 0,0 0,0 0,0 0,0 0,0 0,0 -1,0 -1,0l0 0c0,0 0,0 0,1 0,0 0,0 0,0 0,0 -1,0 -1,1 -1,0 -1,1 -2,1 0,0 0,0 0,0 -1,1 -2,2 -3,4 0,0 0,0 0,0 -16,14 -55,50 -112,102 0,0 0,0 0,0 -2,2 -4,3 -6,5 0,0 0,1 -1,1 0,1 -1,1 -1,2 -57,51 -128,116 -208,189 7,-7 145,-124 335,-306z"/>
   <path class="fil0" style="mask:url(#id26)" d="M10114 2328c-80,570 -309,1017 -617,1367 0,1 -1,1 -1,2 308,-351 538,-798 618,-1369zm1 -6c0,1 0,3 -1,5 1,-2 1,-3 1,-5zm1 -7c0,1 0,3 -1,5 1,-2 1,-4 1,-5zm1 -7c0,1 0,3 -1,4 1,-1 1,-3 1,-4zm1 -7c0,1 0,3 -1,4 1,-1 1,-3 1,-4zm1 -8c0,2 0,3 -1,5 1,-2 1,-3 1,-5zm1 -7c0,2 0,3 -1,4 1,-1 1,-2 1,-4zm1 -7c0,1 0,2 -1,3 1,-1 1,-2 1,-3zm-951 -2277c0,0 0,0 0,0 0,0 0,0 0,0zm0 -1l0 0m0 0c0,0 0,0 0,0 0,0 0,0 0,0zm0 -1l0 0c0,0 0,0 0,0 0,0 0,0 0,0 60,297 559,940 559,940 242,388 306,640 306,798 0,-158 -64,-410 -306,-798 0,0 -499,-643 -559,-940z"/>
   <path class="fil0" style="mask:url(#id28)" d="M9170 0c0,0 0,0 0,0 0,0 0,0 0,1 0,0 0,0 0,0 0,0 0,0 0,0l0 0c0,0 0,0 0,1 0,0 0,0 0,0 -24,70 -799,2377 -2036,3937 60,-66 174,-174 329,-217 0,0 191,-88 1023,-195 0,0 779,-72 1380,-833 0,0 -91,449 -369,1001 308,-350 537,-797 617,-1367 0,0 0,-1 0,-1 1,-2 1,-4 1,-5 0,-1 0,-2 0,-2 1,-2 1,-4 1,-5 0,-1 0,-2 0,-3 1,-1 1,-3 1,-4 0,-1 0,-2 0,-3 1,-1 1,-3 1,-4 0,-1 0,-3 0,-3 1,-2 1,-3 1,-4 0,-2 0,-3 0,-4 1,-1 1,-2 1,-4 0,-1 0,-3 0,-4 1,-1 1,-2 1,-3 0,-2 0,-5 1,-7 0,0 -536,939 -2058,1046 0,0 1475,-428 1891,-1344 0,0 80,-59 80,-236 0,-158 -64,-410 -306,-798 0,0 -499,-643 -559,-940z"/>
   <path class="fil0" style="mask:url(#id30)" d="M9374 3923c-311,542 -800,1135 -1546,1491 746,-356 1235,-949 1546,-1491 0,0 0,0 0,0zm122 -226c0,0 0,0 0,0 -27,53 -55,106 -85,160 0,0 0,0 0,0 30,-54 59,-108 85,-160z"/>
   <path class="fil0" style="mask:url(#id32)" d="M9411 3857c-12,22 -24,44 -37,66 0,0 0,0 0,0 13,-22 25,-44 37,-66 0,0 0,0 0,0z"/>
   <path class="fil0" style="mask:url(#id34)" d="M7150 6180c-7,0 -15,0 -22,0l0 0c7,0 15,0 22,0zm6 0c0,0 0,0 0,0 0,0 0,0 0,0zm-78 -114c0,0 -1,0 -1,0 0,0 1,0 1,0zm-61 0c21,0 40,0 60,0 -20,0 -40,0 -60,0zm1514 -238c-8,4 -17,8 -26,12 9,-4 18,-8 26,-12zm62 -29c-29,29 -930,942 -2309,1122 0,0 1,0 1,0 1378,-180 2279,-1093 2308,-1122zm0 0c0,0 0,0 0,0 0,0 0,0 0,0zm0 -1l0 0 0 0zm0 0c0,0 0,0 0,0 0,0 0,0 0,0m0 0c0,0 0,0 0,0 0,0 0,0 0,0m0 0c0,0 0,0 0,0 0,0 0,0 0,0zm0 0c-20,10 -41,20 -61,30 20,-10 41,-20 61,-30zm-2652 -6c0,0 380,371 1136,387 -756,-16 -1136,-387 -1136,-387zm2154 -299c-3,0 -7,0 -10,0 3,0 7,0 10,0zm-340 -46l0 0c0,0 127,46 329,46 -202,0 -329,-46 -329,-46zm5 -2c-2,1 -3,2 -5,2 2,0 3,-1 5,-2zm5 -2c-1,0 -3,1 -4,2 1,-1 3,-2 4,-2zm5 -3c-1,1 -2,2 -4,2 2,0 3,-1 4,-2zm5 -2c-1,1 -2,1 -3,2 1,-1 2,-1 3,-2zm6 -2c-2,0 -3,1 -4,1 1,0 2,-1 4,-1zm5 -3c-2,1 -3,2 -4,2 1,0 2,-1 4,-2zm5 -2c-1,1 -3,1 -4,2 1,-1 3,-1 4,-2zm5 -2c-1,0 -3,1 -4,1 1,0 3,-1 4,-1zm5 -3c-1,1 -2,1 -4,2 2,-1 3,-1 4,-2zm5 -2c-1,0 -2,1 -4,2 2,-1 3,-2 4,-2zm6 -3c-2,1 -3,2 -5,2 2,0 3,-1 5,-2zm5 -2c-2,1 -3,1 -5,2 2,-1 3,-1 5,-2zm5 -3c-1,1 -3,2 -4,3 1,-1 3,-2 4,-3zm5 -2c-1,1 -3,1 -4,2 1,-1 3,-1 4,-2zm-1450 -467c-9,12 -14,19 -14,19 -269,344 -992,1064 -1421,1477 429,-413 1152,-1133 1421,-1477l14 -19 0 0zm54 -72c-17,23 -32,43 -43,58 0,0 0,0 0,0l42 -57c1,0 1,-1 1,-1zm658 -879l0 0c-84,112 -449,600 -627,838l12 -16 422 -565 48 -63c0,0 0,0 0,-1l70 -93c0,0 1,-1 1,-1l2 -3 72 -96zm44 -55c-29,32 -44,55 -44,55 0,0 15,-22 43,-54 0,0 1,-1 1,-1z"/>
   <path class="fil0" style="mask:url(#id36)" d="M6388 4933c0,0 0,0 0,0 -4,5 -8,10 -11,14l0 0 11 -14zm86 -115l-12 16c-11,15 -22,28 -31,41 0,0 0,1 -1,1l44 -58zm470 -629c0,1 0,1 0,1l-48 63 48 -64zm73 -97l-2 3c0,0 -1,1 -1,1l3 -4zm117 -153c0,1 -1,1 -1,2 0,0 -1,1 -1,1 -28,32 -43,54 -43,54 0,0 0,0 0,0 15,-19 30,-37 45,-57zm2362 -242c-1081,1230 -3133,1269 -3133,1269 -269,344 -992,1064 -1421,1477 473,300 928,438 1342,478 0,0 0,0 1,0 0,0 -1,0 -1,0 1379,-180 2280,-1093 2309,-1122 0,0 0,0 0,0 0,0 0,0 0,0 0,0 0,0 0,0l0 -1 0 0c0,0 0,0 0,0l0 0c0,0 0,0 0,0l0 0c0,0 0,0 0,0l0 0c-20,10 -41,20 -61,30 0,0 0,0 -1,0 -8,4 -17,8 -26,12 -532,248 -982,336 -1349,340 0,0 0,0 0,0 -2,0 -4,0 -6,0 -7,0 -15,0 -22,0l0 0 0 0c-17,0 -35,0 -51,-1 -756,-16 -1136,-387 -1136,-387 437,211 610,268 1076,274 20,0 40,0 60,0l0 0c0,0 1,0 1,0 1704,0 1991,-946 1991,-946 -371,301 -727,371 -974,373 -3,0 -7,0 -10,0l-1 0c-202,0 -329,-46 -329,-46 2,0 3,-1 5,-2 0,0 1,0 1,0 1,-1 3,-2 4,-2 0,0 1,-1 1,-1 2,0 3,-1 4,-2 1,0 1,0 2,0 1,-1 2,-1 3,-2 1,0 1,0 2,-1 1,0 2,-1 4,-1 0,0 0,-1 1,-1 1,0 2,-1 4,-2 0,0 1,0 1,0 1,-1 3,-1 4,-2 0,0 1,0 1,-1 1,0 3,-1 4,-1 0,-1 1,-1 1,-1 2,-1 3,-1 4,-2 1,0 1,0 1,0 2,-1 3,-2 4,-2 1,0 1,0 1,-1 2,0 3,-1 5,-2 0,0 0,0 1,0 1,-1 2,-1 4,-2 0,0 0,0 1,0 1,-1 3,-2 4,-3 0,0 0,0 1,0 1,-1 3,-1 4,-2 0,0 1,0 1,0 746,-356 1235,-949 1546,-1491 13,-22 25,-44 37,-66 30,-54 58,-107 85,-160z"/>
   <path class="fil0" style="mask:url(#id38)" d="M4607 6749c0,0 0,0 0,0l0 0c0,0 0,0 0,0z"/>
   <path class="fil0" style="mask:url(#id40)" d="M4607 6749l0 0c0,0 0,0 0,0z"/>
   <path class="fil0" style="mask:url(#id42)" d="M4607 6749c0,0 0,0 0,0 0,0 0,0 0,0l0 0c0,0 0,0 0,0z"/>
   <path class="fil0" style="mask:url(#id44)" d="M4942 6443l0 0c-190,182 -328,299 -335,306 0,0 0,0 0,0l0 0 0 0c426,144 830,203 1206,203 163,0 320,-11 471,-31 -414,-40 -869,-178 -1342,-478z"/>
   <path class="fil0" style="mask:url(#id46)" d="M6377 4947l-14 19 6 -7 5 -7 3 -5zm53 -71l-42 57c1,-2 3,-5 5,-7l19 -26c6,-7 12,-15 18,-24zm466 -623l-422 565 128 -171c24,-33 50,-67 76,-101l14 -19c47,-63 94,-127 140,-187l64 -87zm118 -157l-70 93c9,-11 17,-23 26,-34l22 -30c8,-10 15,-20 22,-29zm75 -100l0 0 -72 96 23 -31c21,-27 37,-50 49,-65zm2408 -301c0,0 0,0 0,1 -1,0 -1,1 -1,1 0,0 0,0 0,0 0,-1 1,-1 1,-2z"/>
   <path class="fil0" style="mask:url(#id48)" d="M9866 2694c-601,761 -1380,833 -1380,833 -832,107 -1023,195 -1023,195 -155,43 -269,151 -329,217 -15,20 -30,38 -45,57 -12,15 -28,38 -49,65l-23 31 -3 4c-7,9 -14,19 -22,29l-22 31c-9,10 -17,22 -26,33l-48 64 -64 87c-46,60 -93,124 -140,187l-14 19c-26,34 -52,68 -76,101l-128 171 -44 58c-6,9 -12,17 -18,24l-19 26c-2,2 -4,5 -5,7l-11 14 -3 5 -5 7 -6 7c0,0 2052,-39 3133,-1269 0,0 0,-1 1,-1 0,-1 0,-1 0,-1 278,-552 369,-1001 369,-1001z"/>
   <path class="fil0" style="mask:url(#id50)" d="M4999 6117l0 0c-248,248 -666,622 -994,912 0,0 0,0 0,0 328,-290 746,-664 994,-912zm102 -105c-25,26 -52,55 -83,86 31,-31 58,-60 83,-86zm1 -2c0,1 0,1 -1,2 1,-1 1,-1 1,-2zm-1241 -1577c-6,9 -158,233 -303,593l0 0c145,-360 297,-584 303,-593zm0 0l0 0m0 0l0 0m1 -1l-1 0 1 0zm0 0l0 0m564 -322c-1,2 -1,4 -1,5 0,-1 0,-3 1,-5zm2 -5c-1,2 -1,3 -2,4 1,-1 1,-2 2,-4zm1 -4c0,1 -1,2 -1,3 0,-1 1,-2 1,-3zm2 -6c-1,2 -1,3 -2,4 1,-1 1,-2 2,-4zm1 -5c0,1 -1,3 -1,4 0,-1 1,-3 1,-4zm4 -11c-1,4 -2,7 -3,10 1,-3 2,-6 3,-10zm1 -5c0,2 -1,3 -1,5 0,-2 1,-3 1,-5zm2 -5c-1,2 -1,3 -2,5 1,-2 1,-3 2,-5zm1 -5c0,2 0,3 -1,5 1,-2 1,-3 1,-5zm2 -5c0,2 -1,3 -1,5 0,-2 1,-3 1,-5zm5 -15c-1,5 -3,10 -5,15 2,-5 4,-10 5,-15zm2 -5c-1,1 -1,3 -2,5 1,-2 1,-4 2,-5zm498 -875c-155,179 -363,472 -498,875 135,-403 343,-696 498,-874 0,-1 0,-1 0,-1z"/>
   <path class="fil0" style="mask:url(#id52)" d="M4947 3165c-155,178 -363,471 -498,874 0,0 0,0 0,0 -1,1 -1,3 -2,5 0,0 0,0 0,0 -1,5 -3,10 -5,15 0,0 0,0 0,0 0,2 -1,3 -1,5 0,0 0,0 -1,0 0,2 0,3 -1,5 0,0 0,0 0,0 -1,2 -1,3 -2,5 0,0 0,0 0,0 0,2 -1,3 -1,5 0,0 0,0 0,0 -1,4 -2,7 -4,10 0,1 0,1 0,1 0,1 -1,3 -1,4 0,1 0,1 0,1 -1,2 -1,3 -2,4 0,1 0,1 0,2 0,1 -1,2 -1,3 0,0 0,1 0,1 -1,2 -1,3 -2,4 0,1 0,1 0,1 0,2 -1,4 -1,5 0,0 9,-80 9,-196 0,-199 -28,-503 -184,-684 0,0 -8,492 -206,912 0,0 -229,698 -230,1501 0,210 16,427 55,640 0,0 -122,-259 -122,-821 0,-273 29,-616 115,-1035l0 0 0 0c0,0 0,0 0,0l0 0c-1,1 -1,1 -1,1l0 0 0 0 0 0c0,0 0,0 0,0 -6,9 -158,233 -304,593l0 0c0,0 0,0 0,0 3,1376 487,1968 487,1968 -13,11 -26,23 -39,35 328,-290 746,-664 994,-912l0 0c6,-6 13,-13 19,-19 31,-31 58,-60 83,-86 0,0 0,0 0,0 1,-1 1,-1 1,-2 0,0 0,-1 -1,-3 -64,69 -102,110 -102,110 -366,-1221 -288,-2204 -52,-2952z"/>
   <path class="fil0" style="mask:url(#id54)" d="M3518 7454c-1,1 -1,1 -1,1l0 0c0,0 0,0 1,-1zm487 -425c0,0 0,0 -1,1 0,0 0,0 0,0 0,0 0,-1 1,-1 0,0 0,0 0,0z"/>
   <path class="fil0" style="mask:url(#id56)" d="M3557 5026c-229,569 -442,1480 -40,2429l0 0c0,0 0,0 1,-1 16,-14 222,-192 486,-424 0,0 0,0 0,0 1,-1 1,-1 1,-1 13,-12 26,-24 39,-35 0,0 -484,-592 -487,-1968z"/>
   <path class="fil0" style="mask:url(#id58)" d="M5222 5876c-46,50 -87,95 -121,131l0 0c34,-36 75,-81 121,-131zm5 -5c0,0 -1,1 -1,1 0,0 1,-1 1,-1zm861 -942c-140,155 -296,327 -445,490 149,-163 305,-335 445,-490 0,0 0,0 0,0zm-148 -2943l0 0zm2 -14c0,0 0,0 0,0 0,0 0,0 0,0zm2 -7c0,0 0,0 0,1 0,-1 0,-1 0,-1zm1 -8c0,0 0,1 0,1 0,0 0,-1 0,-1zm2 -7c-1,1 -1,1 -1,2 0,-1 0,-1 1,-2zm1 -8c0,1 0,2 0,2 0,0 0,-1 0,-2zm1 -6c0,1 0,1 0,2 0,-1 0,-1 0,-2zm2 -9c0,1 0,2 -1,3 1,-1 1,-2 1,-3zm2 -10c-1,3 -1,5 -2,8 1,-3 1,-5 2,-8zm1 -5c0,2 -1,3 -1,5 0,-2 1,-3 1,-5zm3 -14c-1,4 -2,9 -3,13 1,-5 2,-9 3,-13zm122 -506c-156,131 -800,719 -1132,1772 0,0 1,0 1,0 332,-1053 975,-1641 1131,-1772zm34 -28l0 0c-69,180 -120,358 -156,533 36,-175 87,-353 156,-533z"/>
   <path class="fil0" style="mask:url(#id60)" d="M6113 1364c0,0 -12,9 -34,28 -156,131 -799,719 -1131,1772 118,-137 206,-206 206,-206 -585,1639 -83,2973 -53,3049l0 0 0 0c34,-36 75,-81 121,-131 1,-1 3,-3 4,-4 0,0 1,-1 1,-1 115,-124 262,-284 416,-452 149,-163 305,-335 445,-490 -13,-17 -323,-432 -174,-1810 -43,-345 -47,-730 26,-1133l0 0c1,-4 1,-9 2,-14 0,0 0,0 0,0 1,-2 1,-4 2,-6 0,-1 0,-1 0,-1 0,-2 1,-4 1,-7 0,0 0,-1 0,-1 1,-2 1,-3 1,-5 0,-1 0,-1 1,-2 0,-2 0,-4 1,-6 0,0 0,-1 0,-2 0,-1 1,-2 1,-4 0,-1 0,-1 0,-2 1,-2 1,-4 1,-6 1,-1 1,-2 1,-3 0,-1 0,-1 0,-2 1,-3 1,-5 2,-8 0,0 0,0 0,0 0,-2 1,-3 1,-5 0,0 0,-1 0,-1 1,-4 2,-9 3,-13l0 -1c36,-175 87,-353 156,-533l0 0z"/>
   <path class="fil0" style="mask:url(#id62)" d="M4948 3164c0,0 -1,0 -1,0 0,0 0,0 0,1 0,-1 1,-1 1,-1 0,0 0,0 0,0z"/>
   <path class="fil0" style="mask:url(#id64)" d="M5154 2958c0,0 -88,69 -206,206 0,0 0,0 0,0 0,0 -1,0 -1,1 -236,748 -314,1731 52,2952 0,0 38,-41 102,-110 -30,-76 -532,-1410 53,-3049z"/>
   <path class="fil0" style="mask:url(#id66)" d="M6376 4602c0,0 0,0 0,0l0 0c0,0 0,0 0,0zm0 0z"/>
   <path class="fil0" style="mask:url(#id68)" d="M6376 4602l0 0c0,0 0,0 0,0z"/>
   <path class="fil0" style="mask:url(#id70)" d="M8061 2169c0,0 0,0 0,0 -452,776 -1024,1652 -1685,2433 0,0 0,0 0,0 661,-780 1233,-1657 1685,-2433zm1108 -2167c-20,47 -417,971 -1083,2123 0,0 0,0 0,1 667,-1153 1063,-2077 1083,-2124zm1 -1c0,0 -1,1 -1,1 0,0 1,-1 1,-1zm0 0c0,0 0,0 0,0 0,0 0,0 0,0zm0 -1c0,0 0,0 0,0 0,0 0,0 0,0zm0 0c0,0 0,0 0,0 0,0 0,0 0,0z"/>
   <path class="fil0" style="mask:url(#id72)" d="M8086 2125c-8,15 -17,29 -25,44 0,0 0,0 0,0 8,-15 17,-29 25,-43 0,-1 0,-1 0,-1z"/>
   <path class="fil0" style="mask:url(#id74)" d="M6269 1298c-196,741 -303,1339 -355,1821 0,0 0,0 0,0 52,-481 159,-1080 355,-1821zm2 -9c0,3 -1,6 -2,9 1,-3 2,-6 2,-9zm3 -9c-1,3 -2,6 -3,9 1,-3 2,-6 3,-9zm2 -9c-1,3 -1,6 -2,8 1,-2 1,-5 2,-8zm2 -8c0,2 -1,5 -2,7 1,-2 2,-5 2,-7zm3 -10c-1,3 -2,5 -2,8 0,-3 1,-5 2,-8zm2 -9c-1,3 -1,5 -2,8 1,-2 1,-5 2,-8zm3 -9c-1,3 -2,5 -2,8 0,-3 1,-5 2,-8zm2 -8c-1,2 -1,4 -2,7 1,-3 1,-5 2,-7zm3 -10c-1,2 -2,5 -3,8 1,-3 2,-6 3,-8zm2 -8c-1,2 -2,4 -2,7 0,-3 1,-5 2,-7zm3 -12c-1,3 -2,6 -3,9 1,-3 2,-6 3,-9z"/>
   <path class="fil0" style="mask:url(#id76)" d="M9170 0c-250,127 -1082,151 -1082,151 -999,31 -1181,515 -1189,538 0,1 -1,1 -1,1 -479,853 -573,1662 -573,2161 0,318 38,511 38,511 -111,-157 -145,-530 -145,-923 0,-598 78,-1242 78,-1242 -1,3 -2,6 -3,9 0,1 0,2 0,3 -1,2 -2,4 -2,7 0,0 0,0 0,1 -1,2 -2,5 -3,8 0,0 0,1 0,2 -1,2 -1,4 -2,7 0,0 0,1 0,1 -1,3 -2,5 -2,8 -1,0 -1,1 -1,1 -1,3 -1,5 -2,8 0,1 0,1 0,1 -1,3 -2,5 -2,8 0,0 -1,1 -1,2 0,2 -1,5 -2,7 0,1 0,1 0,1 -1,3 -1,6 -2,8 0,1 0,1 0,1 -1,3 -2,6 -3,9 0,0 0,0 0,0 0,3 -1,6 -2,9l0 0c-196,741 -303,1340 -355,1821 0,0 0,0 0,0l0 0c106,861 456,1472 462,1483 661,-781 1233,-1657 1685,-2433 8,-15 17,-29 25,-44 666,-1152 1063,-2076 1083,-2123l0 0c0,0 1,-1 1,-1 0,0 0,0 0,0 0,0 0,0 0,0 0,-1 0,-1 0,-1 0,0 0,0 0,0 0,0 0,0 0,0 0,0 0,0 0,0z"/>
   <path class="fil0" style="mask:url(#id78)" d="M6088 4929l0 0c0,0 0,0 0,0l0 0zm7 -8c-2,3 -5,6 -7,8 2,-2 5,-5 7,-8zm10 -10c-2,2 -5,5 -7,8 2,-3 5,-6 7,-8zm271 -309c-4,4 -8,9 -12,13 -84,100 -170,198 -258,294 92,-100 182,-203 270,-307z"/>
   <path class="fil0" style="mask:url(#id80)" d="M6364 4615c-76,89 -172,197 -276,314l0 0c2,-2 5,-5 7,-8 1,-1 2,-2 3,-2 2,-3 5,-6 7,-8 1,-1 1,-1 1,-2 88,-96 174,-194 258,-294z"/>
   <path class="fil0" style="mask:url(#id82)" d="M6088 4929l0 0 0 0 0 0zm288 -327c-3,4 -7,8 -10,12 -1,1 -1,1 -2,1 4,-4 8,-9 12,-13l0 0zm0 0l0 0 0 0 0 0 0 0z"/>
   <path class="fil0" style="mask:url(#id84)" d="M5914 3119c-149,1378 161,1793 174,1810l0 0 0 0c104,-117 200,-225 276,-314 1,0 1,0 2,-1 3,-4 7,-8 10,-12l0 0 0 0c-6,-11 -356,-622 -462,-1483z"/>
  </g>
 </g>
</svg>
