<?xml version="1.0" encoding="utf-8"?>
<!-- Generator: Adobe Illustrator 16.0.0, SVG Export Plug-In . SVG Version: 6.00 Build 0)  -->
<!DOCTYPE svg PUBLIC "-//W3C//DTD SVG 1.1//EN" "http://www.w3.org/Graphics/SVG/1.1/DTD/svg11.dtd">
<svg version="1.1" id="Camada_1" xmlns="http://www.w3.org/2000/svg" xmlns:xlink="http://www.w3.org/1999/xlink" x="0px" y="0px"
	 width="85px" height="55px" viewBox="0 0 85 55" enable-background="new 0 0 85 55" xml:space="preserve">
<g>
	<path fill-rule="evenodd" clip-rule="evenodd" d="M20.265,39.572h-0.451v0.077h1.374v-0.077h-0.461v-1.429
		c0.088,0.043,0.275,0.077,0.429,0.077h0.12v-0.1c-0.065,0.022-0.131,0.022-0.197,0.022c-0.154,0-0.286-0.044-0.353-0.088v-1.539
		h0.275c0.099,0,0.199,0.011,0.274,0.021V36.45c-0.055-0.011-0.109-0.011-0.164-0.011h-1.298v0.077h0.451V39.572z M22.959,39.572
		h-0.385v0.077h1.188v-0.077h-0.417v-0.923c0-0.594,0.342-0.891,0.528-0.891c0.022,0,0.044,0,0.066,0.01
		c-0.055,0.023-0.109,0.1-0.109,0.199c0,0.121,0.055,0.198,0.208,0.198c0.133,0,0.208-0.1,0.208-0.22
		c0-0.154-0.131-0.265-0.307-0.265c-0.374,0-0.528,0.33-0.583,0.539h-0.01v-0.539c-0.088,0.087-0.231,0.099-0.385,0.099h-0.385
		v0.077h0.385V39.572z M25.389,37.682v0.077c-0.517,0-0.527,0.362-0.527,0.759v0.354c0,0.395,0.011,0.757,0.527,0.757v0.077
		c-0.593,0-0.967-0.483-0.967-1.012C24.421,38.166,24.795,37.682,25.389,37.682 M21.275,38.221c0.518-0.034,1.035-0.298,1.035-0.892
		c0-0.604-0.44-0.846-1.035-0.879v0.088c0.364,0.088,0.552,0.34,0.552,0.835c0,0.484-0.287,0.693-0.552,0.748V38.221z
		 M25.389,39.705v-0.077c0.506,0,0.529-0.362,0.529-0.757v-0.354c0-0.396-0.023-0.759-0.529-0.759v-0.077
		c0.583,0,0.969,0.484,0.969,1.012C26.357,39.222,25.972,39.705,25.389,39.705 M27.82,37.692v0.066
		c-0.33,0.055-0.55,0.395-0.55,0.703v0.528c0,0.342,0.241,0.615,0.55,0.638v0.077c-0.286-0.022-0.473-0.242-0.539-0.385H27.27v1.484
		h0.351v0.077h-1.044v-0.077h0.308v-2.947h-0.308V37.78h0.308c0.143,0,0.297-0.012,0.385-0.099v0.462h0.011
		C27.357,37.956,27.545,37.726,27.82,37.692 M31.24,36.856c0,0.133,0.099,0.243,0.23,0.243c0.121,0,0.229-0.11,0.229-0.243
		c0-0.121-0.109-0.23-0.229-0.23C31.339,36.626,31.24,36.735,31.24,36.856 M31.272,39.572H30.91v0.077h1.111v-0.077h-0.363v-1.891
		c-0.088,0.087-0.23,0.099-0.385,0.099H30.91v0.077h0.363V39.572z M29.502,39.572h-0.386v0.077h1.188v-0.077h-0.417v-0.923
		c0-0.594,0.341-0.891,0.528-0.891c0.021,0,0.044,0,0.054,0.01c-0.043,0.023-0.099,0.1-0.099,0.199c0,0.121,0.055,0.198,0.209,0.198
		c0.132,0,0.209-0.1,0.209-0.22c0-0.154-0.132-0.265-0.308-0.265c-0.373,0-0.528,0.33-0.582,0.539h-0.011v-0.539
		c-0.088,0.087-0.242,0.099-0.385,0.099h-0.386v0.077h0.386V39.572z M27.82,39.705v-0.077h0.055c0.451,0,0.505-0.253,0.505-0.935
		c0-0.627-0.064-0.935-0.472-0.935H27.82v-0.066c0.033-0.011,0.055-0.011,0.087-0.011c0.55,0,0.913,0.56,0.913,1.012
		c0,0.538-0.373,1.012-0.946,1.012H27.82z M33.109,37.682v0.077c-0.309,0.01-0.396,0.274-0.396,0.561v0.12h0.396v0.078h-0.396v0.429
		c0,0.309,0.033,0.638,0.396,0.682v0.077c-0.496-0.033-0.836-0.439-0.836-1.012C32.273,38.254,32.625,37.692,33.109,37.682
		 M33.109,38.518v-0.078h0.362c0.022,0,0.033-0.01,0.033-0.033v-0.087c0-0.297-0.077-0.561-0.374-0.561h-0.021v-0.077h0.021
		c0.539,0,0.814,0.605,0.814,0.792c0,0.032-0.011,0.044-0.044,0.044H33.109z M33.109,39.705v-0.077h0.076
		c0.374,0,0.66-0.253,0.726-0.627h0.077c-0.077,0.419-0.384,0.704-0.803,0.704H33.109z M35.363,37.692v0.066h-0.088
		c-0.396,0-0.462,0.308-0.462,0.935c0,0.682,0.056,0.935,0.496,0.935h0.055v0.077h-0.055c-0.572,0-0.935-0.474-0.935-1.012
		c0-0.452,0.363-1.012,0.901-1.012C35.309,37.682,35.341,37.682,35.363,37.692 M35.363,39.705v-0.077
		c0.286-0.022,0.561-0.275,0.55-0.638v-0.528c0-0.309-0.22-0.648-0.55-0.703v-0.066c0.286,0.033,0.473,0.264,0.55,0.451v-1.66
		h-0.362v-0.066h0.362c0.153,0,0.297-0.011,0.385-0.122v3.277h0.319v0.077h-0.704V39.32C35.847,39.463,35.649,39.683,35.363,39.705
		 M37.672,38.606v0.065c-0.219,0.043-0.406,0.153-0.406,0.483c0,0.253,0.033,0.44,0.33,0.44h0.077v0.087
		c-0.077,0.012-0.154,0.022-0.253,0.022c-0.352,0-0.572-0.177-0.572-0.483C36.847,38.815,37.266,38.649,37.672,38.606
		 M37.672,37.682v0.077c-0.144,0.01-0.406,0.065-0.406,0.209c0,0.109,0.153,0.065,0.153,0.264c0,0.11-0.087,0.198-0.209,0.198
		c-0.132,0-0.197-0.11-0.197-0.264C37.013,37.946,37.244,37.692,37.672,37.682 M37.672,39.683v-0.087
		c0.286-0.045,0.417-0.264,0.417-0.341v-0.605h-0.076c-0.111,0-0.231,0-0.341,0.022v-0.065c0.11-0.022,0.23-0.022,0.331-0.022h0.087
		v-0.562c0-0.22-0.208-0.264-0.373-0.264h-0.044v-0.077h0.044c0.341,0,0.758,0.176,0.758,0.528v1.198
		c0,0.087,0.012,0.197,0.133,0.197c0.098,0,0.164-0.088,0.242-0.186l0.043,0.043c-0.087,0.143-0.208,0.242-0.396,0.242
		c-0.221,0-0.375-0.121-0.408-0.285h-0.011C37.98,39.563,37.848,39.649,37.672,39.683 M40.18,37.692v0.066h-0.087
		c-0.397,0-0.474,0.308-0.474,0.935c0,0.682,0.056,0.935,0.507,0.935h0.054v0.077h-0.054c-0.572,0-0.935-0.474-0.935-1.012
		c0-0.452,0.352-1.012,0.902-1.012C40.125,37.682,40.146,37.682,40.18,37.692 M40.18,39.705v-0.077
		c0.287-0.022,0.561-0.275,0.55-0.638v-0.528c0-0.309-0.22-0.648-0.55-0.703v-0.066c0.276,0.033,0.462,0.264,0.539,0.451h0.011
		v-1.66h-0.362v-0.066h0.362c0.143,0,0.297-0.011,0.385-0.122v3.277h0.318v0.077h-0.703V39.32h-0.011
		C40.653,39.463,40.466,39.683,40.18,39.705 M42.479,37.682v0.077c-0.298,0.01-0.396,0.274-0.396,0.561v0.12h0.396v0.078h-0.396
		v0.429c0,0.309,0.033,0.638,0.396,0.682v0.077c-0.495-0.033-0.836-0.439-0.836-1.012C41.643,38.254,41.995,37.692,42.479,37.682
		 M49.253,39.298c0,0.308,0.208,0.407,0.527,0.407c0.341,0,0.473-0.23,0.506-0.341l-0.066-0.022
		c-0.033,0.078-0.132,0.286-0.361,0.286c-0.145,0-0.222-0.056-0.222-0.241v-1.529h0.627V37.78h-0.627v-0.638h-0.055
		c-0.076,0.451-0.252,0.649-0.726,0.638v0.077h0.396V39.298z M46.701,39.572h-0.363v0.077h1.089v-0.077h-0.352v-1.274
		c0.088-0.165,0.286-0.539,0.67-0.539c0.144,0,0.265,0.076,0.265,0.33v1.483h-0.363v0.077h1.11v-0.077h-0.362v-1.374
		c0-0.275-0.143-0.517-0.627-0.517c-0.33,0-0.56,0.241-0.681,0.462h-0.012v-0.462c-0.077,0.099-0.165,0.099-0.374,0.099h-0.363
		v0.077h0.363V39.572z M45.282,39.572h-0.418v0.077h1.299v-0.077h-0.419v-3.056h0.419v-0.077h-1.299v0.077h0.418V39.572z
		 M42.479,38.518v-0.078h0.363c0.033,0,0.033-0.01,0.033-0.033v-0.087c0-0.297-0.077-0.561-0.374-0.561h-0.022v-0.077H42.5
		c0.539,0,0.814,0.605,0.814,0.792c0,0.032-0.012,0.044-0.044,0.044H42.479z M42.479,39.705v-0.077h0.076
		c0.385,0,0.66-0.253,0.727-0.627h0.076c-0.076,0.419-0.385,0.704-0.803,0.704H42.479z M51.341,37.682v0.077
		c-0.307,0.01-0.396,0.274-0.396,0.561v0.12h0.396v0.078h-0.396v0.429c-0.011,0.309,0.034,0.638,0.396,0.682v0.077
		c-0.494-0.033-0.835-0.439-0.835-1.012C50.506,38.254,50.847,37.692,51.341,37.682 M52.793,39.572h-0.362v0.077h1.111v-0.077
		h-0.364v-3.277c-0.088,0.111-0.241,0.122-0.385,0.122h-0.362v0.066h0.362V39.572z M51.341,38.518v-0.078h0.364
		c0.021,0,0.032-0.01,0.032-0.033v-0.087c0-0.297-0.076-0.561-0.385-0.561h-0.012v-0.077h0.012c0.54,0,0.813,0.605,0.813,0.792
		c0,0.032-0.011,0.044-0.033,0.044H51.341z M51.341,39.705v-0.077h0.066c0.386,0,0.671-0.253,0.737-0.627h0.065
		c-0.065,0.419-0.385,0.704-0.803,0.704H51.341z M54.63,37.682v0.077c-0.308,0.01-0.396,0.274-0.396,0.561v0.12h0.396v0.078h-0.396
		v0.429c-0.012,0.309,0.032,0.638,0.396,0.682v0.077c-0.495-0.033-0.836-0.439-0.836-1.012
		C53.794,38.254,54.146,37.692,54.63,37.682 M59.633,39.199c0,0.264,0.165,0.506,0.616,0.506c0.407,0,0.593-0.363,0.638-0.474h0.012
		v0.418h0.748v-0.077h-0.364v-1.891c-0.098,0.087-0.241,0.099-0.384,0.099h-0.363v0.077h0.363v1.078
		c0,0.341-0.287,0.692-0.605,0.692c-0.177,0-0.286-0.121-0.286-0.319v-1.627c-0.088,0.087-0.231,0.099-0.374,0.099H59.26v0.077
		h0.373V39.199z M58.115,39.298c0,0.308,0.21,0.407,0.528,0.407c0.33,0,0.462-0.23,0.495-0.341l-0.066-0.022
		c-0.022,0.078-0.132,0.286-0.353,0.286c-0.153,0-0.23-0.056-0.23-0.241v-1.529h0.638V37.78h-0.638v-0.638h-0.055
		c-0.076,0.451-0.242,0.649-0.714,0.638v0.077h0.395V39.298z M57.478,39.013c-0.033,0.274-0.231,0.615-0.692,0.615
		c-0.507,0-0.528-0.362-0.528-0.757v-0.397c0-0.43,0.1-0.715,0.55-0.715c0.133,0,0.342,0.033,0.342,0.143
		c0,0.066-0.121,0.055-0.121,0.231c0,0.099,0.076,0.197,0.219,0.197c0.122,0,0.222-0.089,0.222-0.22
		c0-0.286-0.343-0.429-0.661-0.429c-0.528,0-0.989,0.495-0.989,1.089c0,0.517,0.373,0.935,0.968,0.935
		c0.45,0,0.748-0.353,0.77-0.692H57.478z M54.63,38.518v-0.078h0.363c0.021,0,0.032-0.01,0.032-0.033v-0.087
		c0-0.297-0.077-0.561-0.373-0.561H54.63v-0.077h0.022c0.527,0,0.813,0.605,0.813,0.792c0,0.032-0.022,0.044-0.043,0.044H54.63z
		 M54.63,39.705v-0.077h0.076c0.375,0,0.66-0.253,0.727-0.627h0.065c-0.065,0.419-0.374,0.704-0.792,0.704H54.63z M62.734,38.606
		v0.065c-0.22,0.032-0.407,0.153-0.407,0.483c0,0.253,0.033,0.44,0.331,0.44h0.076v0.087c-0.076,0.012-0.153,0.022-0.253,0.022
		c-0.351,0-0.571-0.177-0.571-0.483C61.91,38.815,62.327,38.649,62.734,38.606 M62.734,37.682v0.077
		c-0.144,0.01-0.407,0.065-0.407,0.209c0,0.109,0.154,0.065,0.154,0.264c0,0.11-0.088,0.198-0.209,0.198
		c-0.133,0-0.197-0.11-0.197-0.264C62.075,37.946,62.306,37.692,62.734,37.682 M64.438,39.572h-0.362v0.077h1.111v-0.077h-0.363
		v-3.277c-0.089,0.111-0.231,0.122-0.386,0.122h-0.362v0.066h0.362V39.572z M62.734,39.683v-0.087
		c0.285-0.045,0.419-0.264,0.419-0.341v-0.605h-0.077c-0.111,0-0.231,0-0.342,0.022v-0.065c0.11-0.022,0.23-0.022,0.329-0.022h0.09
		v-0.562c0-0.22-0.21-0.264-0.375-0.264h-0.044v-0.077h0.044c0.341,0,0.748,0.176,0.748,0.528v1.198
		c0,0.087,0.022,0.197,0.143,0.197c0.1,0,0.165-0.088,0.23-0.186l0.056,0.043c-0.088,0.143-0.21,0.242-0.396,0.242
		c-0.221,0-0.374-0.121-0.406-0.285h-0.013C63.043,39.563,62.911,39.649,62.734,39.683"/>
	<rect x="11.891" y="35.031" width="61.219" height="0.143"/>
	<rect x="11.891" y="35.031" fill="#808084" width="61.219" height="0.143"/>
	<path fill-rule="evenodd" clip-rule="evenodd" fill="#808084" d="M20.265,39.572h-0.451v0.077h1.374v-0.077h-0.461v-1.429
		c0.088,0.043,0.275,0.077,0.429,0.077h0.12v-0.1c-0.065,0.022-0.131,0.022-0.197,0.022c-0.154,0-0.286-0.044-0.353-0.088v-1.539
		h0.275c0.099,0,0.199,0.011,0.274,0.021V36.45c-0.055-0.011-0.109-0.011-0.164-0.011h-1.298v0.077h0.451V39.572z M22.959,39.572
		h-0.385v0.077h1.188v-0.077h-0.417v-0.923c0-0.594,0.342-0.891,0.528-0.891c0.022,0,0.044,0,0.066,0.01
		c-0.055,0.023-0.109,0.1-0.109,0.199c0,0.121,0.055,0.198,0.208,0.198c0.133,0,0.208-0.1,0.208-0.22
		c0-0.154-0.131-0.265-0.307-0.265c-0.374,0-0.528,0.33-0.583,0.539h-0.01v-0.539c-0.088,0.087-0.231,0.099-0.385,0.099h-0.385
		v0.077h0.385V39.572z M25.389,37.682v0.077c-0.517,0-0.527,0.362-0.527,0.759v0.354c0,0.395,0.011,0.757,0.527,0.757v0.077
		c-0.593,0-0.967-0.483-0.967-1.012C24.421,38.166,24.795,37.682,25.389,37.682 M21.275,38.221c0.518-0.034,1.035-0.298,1.035-0.892
		c0-0.604-0.44-0.846-1.035-0.879v0.088c0.364,0.088,0.552,0.34,0.552,0.835c0,0.484-0.287,0.693-0.552,0.748V38.221z
		 M25.389,39.705v-0.077c0.506,0,0.529-0.362,0.529-0.757v-0.354c0-0.396-0.023-0.759-0.529-0.759v-0.077
		c0.583,0,0.969,0.484,0.969,1.012C26.357,39.222,25.972,39.705,25.389,39.705 M27.82,37.692v0.066
		c-0.33,0.055-0.55,0.395-0.55,0.703v0.528c0,0.342,0.241,0.615,0.55,0.638v0.077c-0.286-0.022-0.473-0.242-0.539-0.385H27.27v1.484
		h0.351v0.077h-1.044v-0.077h0.308v-2.947h-0.308V37.78h0.308c0.143,0,0.297-0.012,0.385-0.099v0.462h0.011
		C27.357,37.956,27.545,37.726,27.82,37.692 M31.24,36.856c0,0.133,0.099,0.243,0.23,0.243c0.121,0,0.229-0.11,0.229-0.243
		c0-0.121-0.109-0.23-0.229-0.23C31.339,36.626,31.24,36.735,31.24,36.856 M31.272,39.572H30.91v0.077h1.111v-0.077h-0.363v-1.891
		c-0.088,0.087-0.23,0.099-0.385,0.099H30.91v0.077h0.363V39.572z M29.502,39.572h-0.386v0.077h1.188v-0.077h-0.417v-0.923
		c0-0.594,0.341-0.891,0.528-0.891c0.021,0,0.044,0,0.054,0.01c-0.043,0.023-0.099,0.1-0.099,0.199c0,0.121,0.055,0.198,0.209,0.198
		c0.132,0,0.209-0.1,0.209-0.22c0-0.154-0.132-0.265-0.308-0.265c-0.373,0-0.528,0.33-0.582,0.539h-0.011v-0.539
		c-0.088,0.087-0.242,0.099-0.385,0.099h-0.386v0.077h0.386V39.572z M27.82,39.705v-0.077h0.055c0.451,0,0.505-0.253,0.505-0.935
		c0-0.627-0.064-0.935-0.472-0.935H27.82v-0.066c0.033-0.011,0.055-0.011,0.087-0.011c0.55,0,0.913,0.56,0.913,1.012
		c0,0.538-0.373,1.012-0.946,1.012H27.82z M33.109,37.682v0.077c-0.309,0.01-0.396,0.274-0.396,0.561v0.12h0.396v0.078h-0.396v0.429
		c0,0.309,0.033,0.638,0.396,0.682v0.077c-0.496-0.033-0.836-0.439-0.836-1.012C32.273,38.254,32.625,37.692,33.109,37.682
		 M33.109,38.518v-0.078h0.362c0.022,0,0.033-0.01,0.033-0.033v-0.087c0-0.297-0.077-0.561-0.374-0.561h-0.021v-0.077h0.021
		c0.539,0,0.814,0.605,0.814,0.792c0,0.032-0.011,0.044-0.044,0.044H33.109z M33.109,39.705v-0.077h0.076
		c0.374,0,0.66-0.253,0.726-0.627h0.077c-0.077,0.419-0.384,0.704-0.803,0.704H33.109z M35.363,37.692v0.066h-0.088
		c-0.396,0-0.462,0.308-0.462,0.935c0,0.682,0.056,0.935,0.496,0.935h0.055v0.077h-0.055c-0.572,0-0.935-0.474-0.935-1.012
		c0-0.452,0.363-1.012,0.901-1.012C35.309,37.682,35.341,37.682,35.363,37.692 M35.363,39.705v-0.077
		c0.286-0.022,0.561-0.275,0.55-0.638v-0.528c0-0.309-0.22-0.648-0.55-0.703v-0.066c0.286,0.033,0.473,0.264,0.55,0.451v-1.66
		h-0.362v-0.066h0.362c0.153,0,0.297-0.011,0.385-0.122v3.277h0.319v0.077h-0.704V39.32C35.847,39.463,35.649,39.683,35.363,39.705
		 M37.672,38.606v0.065c-0.219,0.043-0.406,0.153-0.406,0.483c0,0.253,0.033,0.44,0.33,0.44h0.077v0.087
		c-0.077,0.012-0.154,0.022-0.253,0.022c-0.352,0-0.572-0.177-0.572-0.483C36.847,38.815,37.266,38.649,37.672,38.606
		 M37.672,37.682v0.077c-0.144,0.01-0.406,0.065-0.406,0.209c0,0.109,0.153,0.065,0.153,0.264c0,0.11-0.087,0.198-0.209,0.198
		c-0.132,0-0.197-0.11-0.197-0.264C37.013,37.946,37.244,37.692,37.672,37.682 M37.672,39.683v-0.087
		c0.286-0.045,0.417-0.264,0.417-0.341v-0.605h-0.076c-0.111,0-0.231,0-0.341,0.022v-0.065c0.11-0.022,0.23-0.022,0.331-0.022h0.087
		v-0.562c0-0.22-0.208-0.264-0.373-0.264h-0.044v-0.077h0.044c0.341,0,0.758,0.176,0.758,0.528v1.198
		c0,0.087,0.012,0.197,0.133,0.197c0.098,0,0.164-0.088,0.242-0.186l0.043,0.043c-0.087,0.143-0.208,0.242-0.396,0.242
		c-0.221,0-0.375-0.121-0.408-0.285h-0.011C37.98,39.563,37.848,39.649,37.672,39.683 M40.18,37.692v0.066h-0.087
		c-0.397,0-0.474,0.308-0.474,0.935c0,0.682,0.056,0.935,0.507,0.935h0.054v0.077h-0.054c-0.572,0-0.935-0.474-0.935-1.012
		c0-0.452,0.352-1.012,0.902-1.012C40.125,37.682,40.146,37.682,40.18,37.692 M40.18,39.705v-0.077
		c0.287-0.022,0.561-0.275,0.55-0.638v-0.528c0-0.309-0.22-0.648-0.55-0.703v-0.066c0.276,0.033,0.462,0.264,0.539,0.451h0.011
		v-1.66h-0.362v-0.066h0.362c0.143,0,0.297-0.011,0.385-0.122v3.277h0.318v0.077h-0.703V39.32h-0.011
		C40.653,39.463,40.466,39.683,40.18,39.705 M42.479,37.682v0.077c-0.298,0.01-0.396,0.274-0.396,0.561v0.12h0.396v0.078h-0.396
		v0.429c0,0.309,0.033,0.638,0.396,0.682v0.077c-0.495-0.033-0.836-0.439-0.836-1.012C41.643,38.254,41.995,37.692,42.479,37.682
		 M49.253,39.298c0,0.308,0.208,0.407,0.527,0.407c0.341,0,0.473-0.23,0.506-0.341l-0.066-0.022
		c-0.033,0.078-0.132,0.286-0.361,0.286c-0.145,0-0.222-0.056-0.222-0.241v-1.529h0.627V37.78h-0.627v-0.638h-0.055
		c-0.076,0.451-0.252,0.649-0.726,0.638v0.077h0.396V39.298z M46.701,39.572h-0.363v0.077h1.089v-0.077h-0.352v-1.274
		c0.088-0.165,0.286-0.539,0.67-0.539c0.144,0,0.265,0.076,0.265,0.33v1.483h-0.363v0.077h1.11v-0.077h-0.362v-1.374
		c0-0.275-0.143-0.517-0.627-0.517c-0.33,0-0.56,0.241-0.681,0.462h-0.012v-0.462c-0.077,0.099-0.165,0.099-0.374,0.099h-0.363
		v0.077h0.363V39.572z M45.282,39.572h-0.418v0.077h1.299v-0.077h-0.419v-3.056h0.419v-0.077h-1.299v0.077h0.418V39.572z
		 M42.479,38.518v-0.078h0.363c0.033,0,0.033-0.01,0.033-0.033v-0.087c0-0.297-0.077-0.561-0.374-0.561h-0.022v-0.077H42.5
		c0.539,0,0.814,0.605,0.814,0.792c0,0.032-0.012,0.044-0.044,0.044H42.479z M42.479,39.705v-0.077h0.076
		c0.385,0,0.66-0.253,0.727-0.627h0.076c-0.076,0.419-0.385,0.704-0.803,0.704H42.479z M51.341,37.682v0.077
		c-0.307,0.01-0.396,0.274-0.396,0.561v0.12h0.396v0.078h-0.396v0.429c-0.011,0.309,0.034,0.638,0.396,0.682v0.077
		c-0.494-0.033-0.835-0.439-0.835-1.012C50.506,38.254,50.847,37.692,51.341,37.682 M52.793,39.572h-0.362v0.077h1.111v-0.077
		h-0.364v-3.277c-0.088,0.111-0.241,0.122-0.385,0.122h-0.362v0.066h0.362V39.572z M51.341,38.518v-0.078h0.364
		c0.021,0,0.032-0.01,0.032-0.033v-0.087c0-0.297-0.076-0.561-0.385-0.561h-0.012v-0.077h0.012c0.54,0,0.813,0.605,0.813,0.792
		c0,0.032-0.011,0.044-0.033,0.044H51.341z M51.341,39.705v-0.077h0.066c0.386,0,0.671-0.253,0.737-0.627h0.065
		c-0.065,0.419-0.385,0.704-0.803,0.704H51.341z M54.63,37.682v0.077c-0.308,0.01-0.396,0.274-0.396,0.561v0.12h0.396v0.078h-0.396
		v0.429c-0.012,0.309,0.032,0.638,0.396,0.682v0.077c-0.495-0.033-0.836-0.439-0.836-1.012
		C53.794,38.254,54.146,37.692,54.63,37.682 M59.633,39.199c0,0.264,0.165,0.506,0.616,0.506c0.407,0,0.593-0.363,0.638-0.474h0.012
		v0.418h0.748v-0.077h-0.364v-1.891c-0.098,0.087-0.241,0.099-0.384,0.099h-0.363v0.077h0.363v1.078
		c0,0.341-0.287,0.692-0.605,0.692c-0.177,0-0.286-0.121-0.286-0.319v-1.627c-0.088,0.087-0.231,0.099-0.374,0.099H59.26v0.077
		h0.373V39.199z M58.115,39.298c0,0.308,0.21,0.407,0.528,0.407c0.33,0,0.462-0.23,0.495-0.341l-0.066-0.022
		c-0.022,0.078-0.132,0.286-0.353,0.286c-0.153,0-0.23-0.056-0.23-0.241v-1.529h0.638V37.78h-0.638v-0.638h-0.055
		c-0.076,0.451-0.242,0.649-0.714,0.638v0.077h0.395V39.298z M57.478,39.013c-0.033,0.274-0.231,0.615-0.692,0.615
		c-0.507,0-0.528-0.362-0.528-0.757v-0.397c0-0.43,0.1-0.715,0.55-0.715c0.133,0,0.342,0.033,0.342,0.143
		c0,0.066-0.121,0.055-0.121,0.231c0,0.099,0.076,0.197,0.219,0.197c0.122,0,0.222-0.089,0.222-0.22
		c0-0.286-0.343-0.429-0.661-0.429c-0.528,0-0.989,0.495-0.989,1.089c0,0.517,0.373,0.935,0.968,0.935
		c0.45,0,0.748-0.353,0.77-0.692H57.478z M54.63,38.518v-0.078h0.363c0.021,0,0.032-0.01,0.032-0.033v-0.087
		c0-0.297-0.077-0.561-0.373-0.561H54.63v-0.077h0.022c0.527,0,0.813,0.605,0.813,0.792c0,0.032-0.022,0.044-0.043,0.044H54.63z
		 M54.63,39.705v-0.077h0.076c0.375,0,0.66-0.253,0.727-0.627h0.065c-0.065,0.419-0.374,0.704-0.792,0.704H54.63z M62.734,38.606
		v0.065c-0.22,0.032-0.407,0.153-0.407,0.483c0,0.253,0.033,0.44,0.331,0.44h0.076v0.087c-0.076,0.012-0.153,0.022-0.253,0.022
		c-0.351,0-0.571-0.177-0.571-0.483C61.91,38.815,62.327,38.649,62.734,38.606 M62.734,37.682v0.077
		c-0.144,0.01-0.407,0.065-0.407,0.209c0,0.109,0.154,0.065,0.154,0.264c0,0.11-0.088,0.198-0.209,0.198
		c-0.133,0-0.197-0.11-0.197-0.264C62.075,37.946,62.306,37.692,62.734,37.682 M64.438,39.572h-0.362v0.077h1.111v-0.077h-0.363
		v-3.277c-0.089,0.111-0.231,0.122-0.386,0.122h-0.362v0.066h0.362V39.572z M62.734,39.683v-0.087
		c0.285-0.045,0.419-0.264,0.419-0.341v-0.605h-0.077c-0.111,0-0.231,0-0.342,0.022v-0.065c0.11-0.022,0.23-0.022,0.329-0.022h0.09
		v-0.562c0-0.22-0.21-0.264-0.375-0.264h-0.044v-0.077h0.044c0.341,0,0.748,0.176,0.748,0.528v1.198
		c0,0.087,0.022,0.197,0.143,0.197c0.1,0,0.165-0.088,0.23-0.186l0.056,0.043c-0.088,0.143-0.21,0.242-0.396,0.242
		c-0.221,0-0.374-0.121-0.406-0.285h-0.013C63.043,39.563,62.911,39.649,62.734,39.683"/>
	<path fill-rule="evenodd" clip-rule="evenodd" d="M12.622,33.35h-0.703v0.12h2.155v-0.12h-0.726v-2.233
		c0.144,0.066,0.429,0.122,0.671,0.122c0.055,0,0.121,0,0.176-0.012v-0.143c-0.1,0.021-0.209,0.032-0.297,0.032
		c-0.242,0-0.439-0.077-0.55-0.143v-2.397h0.429c0.154,0,0.297,0.012,0.418,0.045v-0.154h-0.254h-2.022v0.109h0.703V33.35z
		 M15.701,32.381v0.836c-0.077-0.109-0.12-0.253-0.12-0.429C15.581,32.634,15.624,32.491,15.701,32.381 M14.195,31.227
		c0.627-0.033,1.253-0.286,1.506-0.825v-1.144c-0.23-0.517-0.803-0.748-1.506-0.791v0.154c0.572,0.12,0.857,0.527,0.857,1.297
		c0,0.759-0.439,1.078-0.857,1.166V31.227z M16.867,31.831v0.109c-0.352,0.056-0.638,0.231-0.638,0.749
		c0,0.396,0.055,0.692,0.517,0.692c0.044,0,0.088,0,0.121-0.011v0.143c-0.121,0.033-0.253,0.044-0.396,0.044
		c-0.363,0-0.626-0.121-0.771-0.341v-0.836C15.921,32.051,16.394,31.887,16.867,31.831 M16.867,30.401v0.111
		c-0.22,0.01-0.627,0.099-0.627,0.329c0,0.176,0.232,0.099,0.232,0.418c0,0.165-0.144,0.297-0.319,0.297
		c-0.209,0-0.319-0.154-0.319-0.396C15.833,30.809,16.196,30.424,16.867,30.401 M15.701,30.401c0.077-0.153,0.122-0.341,0.122-0.55
		c0-0.23-0.045-0.429-0.122-0.594V30.401z M18.648,33.162c-0.088,0.132-0.188,0.23-0.33,0.23c-0.187,0-0.21-0.176-0.21-0.308v-1.87
		c0-0.538-0.637-0.824-1.176-0.824c-0.022,0-0.045,0-0.066,0.011v0.111h0.066c0.264,0,0.583,0.077,0.583,0.406v0.879h-0.144
		c-0.154,0-0.33,0.012-0.505,0.033v0.109c0.176-0.031,0.351-0.031,0.527-0.031h0.122v0.935c0,0.131-0.198,0.472-0.649,0.527v0.143
		c0.264-0.055,0.473-0.176,0.637-0.406h0.012c0.054,0.252,0.297,0.45,0.625,0.45c0.231,0,0.385-0.088,0.506-0.22V33.162z
		 M18.648,30.666h-0.11v-0.109h0.11V30.666z M23.201,33.35h-0.572v0.12h1.737v-0.12h-0.572v-5.104
		c-0.142,0.154-0.374,0.176-0.593,0.176h-0.572v0.11h0.572V33.35z M18.648,30.666h0.451v2.101c0,0.406,0.264,0.791,0.968,0.791
		c0.638,0,0.934-0.571,1-0.736h0.012v0.648h1.165v-0.12h-0.572v-2.959c-0.132,0.144-0.363,0.165-0.593,0.165h-0.561v0.11h0.561
		v1.682c0,0.528-0.439,1.089-0.935,1.089c-0.275,0-0.439-0.188-0.439-0.495v-2.551c-0.144,0.144-0.375,0.165-0.605,0.165h-0.451
		V30.666z M18.648,33.338v-0.176c0.022-0.011,0.033-0.033,0.044-0.055l0.077,0.065C18.736,33.228,18.692,33.282,18.648,33.338
		 M25.906,30.391v0.122c-0.792,0-0.825,0.571-0.825,1.187v0.55c0,0.616,0.033,1.188,0.825,1.188v0.121
		c-0.913,0-1.507-0.77-1.507-1.583C24.399,31.16,24.994,30.391,25.906,30.391 M25.906,33.558v-0.121
		c0.792,0,0.825-0.571,0.825-1.188v-0.55c0-0.615-0.033-1.187-0.825-1.187v-0.122c0.913,0,1.506,0.77,1.506,1.584
		C27.413,32.788,26.819,33.558,25.906,33.558 M31.889,29.126v0.483l-0.012-0.033h-0.011l-0.703,2.156h0.726v0.11H31.13l-0.298,0.901
		c-0.043,0.144-0.109,0.308-0.109,0.429c0,0.099,0.088,0.177,0.319,0.177h0.362v0.12h-1.463v-0.12h0.231
		c0.219,0,0.309-0.022,0.451-0.419L31.889,29.126z M31.889,31.843v-0.11h0.726l-0.726-2.123v-0.483l0.263-0.78h0.078l1.726,5.004
		h0.583v0.12H32.46v-0.12h0.693l-0.506-1.507H31.889z M37.057,31.402c-0.065,0.177-0.099,0.374-0.099,0.572
		c0,0.197,0.033,0.396,0.099,0.571V31.402z M37.057,28.521v0.604c-0.055,0.066-0.143,0.1-0.242,0.1
		c-0.208,0-0.296-0.154-0.296-0.286c0-0.33,0.384-0.242,0.384-0.396c0-0.1-0.164-0.188-0.362-0.188
		c-0.331,0-0.529,0.188-0.529,0.979v1.221h0.792v0.11h-0.792v2.684h0.627v0.12h-1.87v-0.12h0.639v-2.684h-0.639v-0.11h0.639v-0.495
		c0-0.89,0.406-1.814,1.11-1.814C36.782,28.246,36.958,28.356,37.057,28.521 M37.057,29.126v-0.604
		c0.066,0.109,0.099,0.23,0.099,0.362C37.156,28.983,37.123,29.071,37.057,29.126 M38.465,30.391v0.122
		c-0.792,0-0.825,0.571-0.825,1.187v0.55c0,0.616,0.032,1.188,0.825,1.188v0.121c-0.693,0-1.199-0.439-1.408-1.012v-1.144
		C37.266,30.83,37.771,30.391,38.465,30.391 M44.128,33.514h0.11c0.01-0.154-0.012-0.265,0.088-0.265
		c0.143,0,0.308,0.309,0.869,0.309c0.549,0,0.989-0.439,0.989-1.101c0-0.493-0.231-0.802-0.814-0.835l-0.243-0.021
		c-0.46-0.021-0.746-0.155-0.746-0.517c0-0.374,0.298-0.571,0.659-0.571c0.562,0,0.771,0.361,0.825,0.769h0.088l-0.021-0.847h-0.099
		v0.066c0,0.099-0.012,0.143-0.056,0.143c-0.065,0-0.33-0.253-0.715-0.253c-0.561,0-0.89,0.407-0.89,0.925
		c0,0.735,0.45,0.802,0.912,0.846c0.374,0.044,0.802,0.056,0.802,0.615c0,0.408-0.296,0.66-0.691,0.66
		c-0.748,0-0.935-0.638-0.99-1.001h-0.089L44.128,33.514z M40.542,33.35h-0.559v0.12h1.692v-0.12h-0.538v-2.002
		c0.131-0.242,0.429-0.835,1.033-0.835c0.219,0,0.418,0.119,0.418,0.517v2.32h-0.561v0.12h1.714v-0.12h-0.56v-2.146
		c0-0.429-0.209-0.813-0.968-0.813c-0.528,0-0.88,0.385-1.067,0.726h-0.01v-0.726c-0.133,0.165-0.253,0.165-0.595,0.165h-0.559v0.11
		h0.559V33.35z M38.465,33.558v-0.121c0.792,0,0.824-0.571,0.824-1.188v-0.55c0-0.615-0.032-1.187-0.824-1.187v-0.122
		c0.912,0,1.506,0.77,1.506,1.584C39.971,32.788,39.377,33.558,38.465,33.558 M48.021,30.391v0.122
		c-0.792,0-0.825,0.571-0.825,1.187v0.55c0,0.616,0.033,1.188,0.825,1.188v0.121c-0.913,0-1.507-0.77-1.507-1.583
		C46.514,31.16,47.107,30.391,48.021,30.391 M48.021,33.558v-0.121c0.803,0,0.824-0.571,0.824-1.188v-0.55
		c0-0.615-0.021-1.187-0.824-1.187v-0.122c0.924,0,1.507,0.77,1.507,1.584C49.527,32.788,48.944,33.558,48.021,33.558
		 M54.322,28.467v0.154c-0.121-0.033-0.265-0.045-0.419-0.045h-0.428v2.397c0.1,0.065,0.308,0.143,0.538,0.143
		c0.101,0,0.198-0.011,0.309-0.032v0.143c-0.066,0.012-0.121,0.012-0.188,0.012c-0.241,0-0.526-0.056-0.658-0.122v2.233h0.714v0.12
		h-2.145v-0.12h0.704v-4.773h-0.704v-0.109h2.023H54.322z M55.741,31.193c-0.132,0.252-0.198,0.528-0.198,0.781
		c0,0.33,0.066,0.627,0.198,0.869V31.193z M55.741,29.104v1.452c-0.286,0.429-0.859,0.638-1.419,0.671v-0.143
		c0.418-0.088,0.856-0.407,0.856-1.166c0-0.77-0.285-1.177-0.856-1.297v-0.154C54.948,28.51,55.466,28.697,55.741,29.104
		 M55.741,30.556c0.132-0.187,0.197-0.429,0.197-0.704c0-0.308-0.065-0.55-0.197-0.748V30.556z M56.84,30.401v0.111
		c-0.474,0.01-0.615,0.428-0.615,0.867v0.199h0.615v0.12h-0.615v0.671c-0.011,0.474,0.055,1.001,0.615,1.066v0.11
		c-0.483-0.033-0.88-0.298-1.099-0.703v-1.65C55.96,30.766,56.356,30.413,56.84,30.401 M56.84,31.699v-0.12h0.572
		c0.033,0,0.043-0.022,0.043-0.044V31.38c0-0.45-0.12-0.867-0.582-0.867H56.84v-0.111c0.012-0.011,0.022-0.011,0.033-0.011
		c0.836,0,1.265,0.945,1.265,1.243c0,0.043-0.022,0.065-0.065,0.065H56.84z M56.84,33.547v-0.11h0.11
		c0.605,0,1.045-0.396,1.145-0.979h0.109c-0.109,0.65-0.594,1.101-1.254,1.101C56.917,33.558,56.873,33.547,56.84,33.547
		 M60.82,31.876v0.099v0.132V31.876z M60.82,30.766v0.108c-0.021,0.155-0.13,0.275-0.318,0.275c-0.23,0-0.318-0.12-0.318-0.308
		c0-0.165,0.088-0.265,0.164-0.308c-0.032-0.021-0.065-0.021-0.098-0.021c-0.298,0-0.826,0.461-0.826,1.386v1.451h0.649v0.12h-1.837
		v-0.12h0.595v-2.684h-0.595v-0.11h0.595c0.23,0,0.451-0.021,0.593-0.165v0.848h0.022c0.078-0.319,0.33-0.848,0.913-0.848
		C60.601,30.391,60.8,30.546,60.82,30.766 M60.82,30.874c0-0.021,0.012-0.044,0.012-0.054c0-0.022-0.012-0.045-0.012-0.055V30.874z
		 M62.118,30.401v0.111c-0.473,0.01-0.616,0.428-0.616,0.867v0.199h0.616v0.12h-0.616v0.671c-0.01,0.474,0.055,1.001,0.616,1.066
		v0.11c-0.726-0.055-1.242-0.616-1.298-1.44v-0.23C60.876,31.215,61.393,30.413,62.118,30.401 M66.375,33.35h-0.604v0.12h1.846
		v-0.12h-0.647v-1.451c0-0.925,0.528-1.386,0.813-1.386c0.044,0,0.077,0,0.099,0.021c-0.076,0.043-0.153,0.143-0.153,0.308
		c0,0.188,0.077,0.308,0.318,0.308c0.209,0,0.318-0.153,0.318-0.329c0-0.254-0.198-0.43-0.461-0.43
		c-0.584,0-0.836,0.528-0.924,0.848h-0.011v-0.848c-0.143,0.144-0.374,0.165-0.594,0.165h-0.604v0.11h0.604V33.35z M64.186,29.115
		c0,0.197,0.166,0.363,0.363,0.363c0.198,0,0.362-0.166,0.362-0.363c0-0.198-0.164-0.363-0.362-0.363
		C64.352,28.752,64.186,28.917,64.186,29.115 M64.253,33.35h-0.572v0.12h1.737v-0.12h-0.572v-2.959
		c-0.132,0.144-0.362,0.165-0.593,0.165h-0.572v0.11h0.572V33.35z M62.118,31.699v-0.12h0.573c0.032,0,0.043-0.022,0.043-0.044
		V31.38c0-0.45-0.12-0.867-0.584-0.867h-0.032v-0.111c0.012-0.011,0.022-0.011,0.032-0.011c0.837,0,1.276,0.945,1.276,1.243
		c0,0.043-0.022,0.065-0.065,0.065H62.118z M62.118,33.547v-0.11h0.121c0.595,0,1.035-0.396,1.132-0.979h0.111
		c-0.111,0.65-0.593,1.101-1.243,1.101C62.196,33.558,62.163,33.547,62.118,33.547 M69.673,31.831v0.109
		c-0.352,0.056-0.638,0.231-0.638,0.749c0,0.396,0.055,0.692,0.516,0.692c0.046,0,0.078,0,0.122-0.011v0.143
		c-0.122,0.033-0.252,0.044-0.396,0.044c-0.55,0-0.891-0.286-0.891-0.77C68.387,32.172,69.035,31.909,69.673,31.831 M69.673,30.401
		v0.111c-0.229,0.01-0.626,0.099-0.626,0.329c0,0.176,0.23,0.099,0.23,0.418c0,0.165-0.142,0.297-0.33,0.297
		c-0.197,0-0.308-0.154-0.308-0.396C68.64,30.809,69.003,30.424,69.673,30.401 M69.673,33.514v-0.143
		c0.45-0.056,0.649-0.396,0.649-0.527v-0.935h-0.121c-0.177,0-0.363,0-0.528,0.031v-0.109c0.176-0.021,0.352-0.033,0.507-0.033
		h0.143v-0.879c0-0.329-0.319-0.406-0.583-0.406h-0.066v-0.111c0.022-0.011,0.044-0.011,0.066-0.011
		c0.538,0,1.176,0.286,1.176,0.824v1.87c0,0.132,0.023,0.308,0.21,0.308c0.165,0,0.263-0.132,0.373-0.285l0.077,0.065
		c-0.132,0.231-0.318,0.385-0.626,0.385c-0.33,0-0.572-0.198-0.627-0.45h-0.011C70.146,33.327,69.937,33.459,69.673,33.514"/>
	<path fill-rule="evenodd" clip-rule="evenodd" fill="#231F20" d="M12.622,33.35h-0.703v0.12h2.155v-0.12h-0.726v-2.233
		c0.144,0.066,0.429,0.122,0.671,0.122c0.055,0,0.121,0,0.176-0.012v-0.143c-0.1,0.021-0.209,0.032-0.297,0.032
		c-0.242,0-0.439-0.077-0.55-0.143v-2.397h0.429c0.154,0,0.297,0.012,0.418,0.045v-0.154h-0.254h-2.022v0.109h0.703V33.35z
		 M15.701,32.381v0.836c-0.077-0.109-0.12-0.253-0.12-0.429C15.581,32.634,15.624,32.491,15.701,32.381 M14.195,31.227
		c0.627-0.033,1.253-0.286,1.506-0.825v-1.144c-0.23-0.517-0.803-0.748-1.506-0.791v0.154c0.572,0.12,0.857,0.527,0.857,1.297
		c0,0.759-0.439,1.078-0.857,1.166V31.227z M16.867,31.831v0.109c-0.352,0.056-0.638,0.231-0.638,0.749
		c0,0.396,0.055,0.692,0.517,0.692c0.044,0,0.088,0,0.121-0.011v0.143c-0.121,0.033-0.253,0.044-0.396,0.044
		c-0.363,0-0.626-0.121-0.771-0.341v-0.836C15.921,32.051,16.394,31.887,16.867,31.831 M16.867,30.401v0.111
		c-0.22,0.01-0.627,0.099-0.627,0.329c0,0.176,0.232,0.099,0.232,0.418c0,0.165-0.144,0.297-0.319,0.297
		c-0.209,0-0.319-0.154-0.319-0.396C15.833,30.809,16.196,30.424,16.867,30.401 M15.701,30.401c0.077-0.153,0.122-0.341,0.122-0.55
		c0-0.23-0.045-0.429-0.122-0.594V30.401z M18.648,33.162c-0.088,0.132-0.188,0.23-0.33,0.23c-0.187,0-0.21-0.176-0.21-0.308v-1.87
		c0-0.538-0.637-0.824-1.176-0.824c-0.022,0-0.045,0-0.066,0.011v0.111h0.066c0.264,0,0.583,0.077,0.583,0.406v0.879h-0.144
		c-0.154,0-0.33,0.012-0.505,0.033v0.109c0.176-0.031,0.351-0.031,0.527-0.031h0.122v0.935c0,0.131-0.198,0.472-0.649,0.527v0.143
		c0.264-0.055,0.473-0.176,0.637-0.406h0.012c0.054,0.252,0.297,0.45,0.625,0.45c0.231,0,0.385-0.088,0.506-0.22V33.162z
		 M18.648,30.666h-0.11v-0.109h0.11V30.666z M23.201,33.35h-0.572v0.12h1.737v-0.12h-0.572v-5.104
		c-0.142,0.154-0.374,0.176-0.593,0.176h-0.572v0.11h0.572V33.35z M18.648,30.666h0.451v2.101c0,0.406,0.264,0.791,0.968,0.791
		c0.638,0,0.934-0.571,1-0.736h0.012v0.648h1.165v-0.12h-0.572v-2.959c-0.132,0.144-0.363,0.165-0.593,0.165h-0.561v0.11h0.561
		v1.682c0,0.528-0.439,1.089-0.935,1.089c-0.275,0-0.439-0.188-0.439-0.495v-2.551c-0.144,0.144-0.375,0.165-0.605,0.165h-0.451
		V30.666z M18.648,33.338v-0.176c0.022-0.011,0.033-0.033,0.044-0.055l0.077,0.065C18.736,33.228,18.692,33.282,18.648,33.338
		 M25.906,30.391v0.122c-0.792,0-0.825,0.571-0.825,1.187v0.55c0,0.616,0.033,1.188,0.825,1.188v0.121
		c-0.913,0-1.507-0.77-1.507-1.583C24.399,31.16,24.994,30.391,25.906,30.391 M25.906,33.558v-0.121
		c0.792,0,0.825-0.571,0.825-1.188v-0.55c0-0.615-0.033-1.187-0.825-1.187v-0.122c0.913,0,1.506,0.77,1.506,1.584
		C27.413,32.788,26.819,33.558,25.906,33.558 M31.889,29.126v0.483l-0.012-0.033h-0.011l-0.703,2.156h0.726v0.11H31.13l-0.298,0.901
		c-0.043,0.144-0.109,0.308-0.109,0.429c0,0.099,0.088,0.177,0.319,0.177h0.362v0.12h-1.463v-0.12h0.231
		c0.219,0,0.309-0.022,0.451-0.419L31.889,29.126z M31.889,31.843v-0.11h0.726l-0.726-2.123v-0.483l0.263-0.78h0.078l1.726,5.004
		h0.583v0.12H32.46v-0.12h0.693l-0.506-1.507H31.889z M37.057,31.402c-0.065,0.177-0.099,0.374-0.099,0.572
		c0,0.197,0.033,0.396,0.099,0.571V31.402z M37.057,28.521v0.604c-0.055,0.066-0.143,0.1-0.242,0.1
		c-0.208,0-0.296-0.154-0.296-0.286c0-0.33,0.384-0.242,0.384-0.396c0-0.1-0.164-0.188-0.362-0.188
		c-0.331,0-0.529,0.188-0.529,0.979v1.221h0.792v0.11h-0.792v2.684h0.627v0.12h-1.87v-0.12h0.639v-2.684h-0.639v-0.11h0.639v-0.495
		c0-0.89,0.406-1.814,1.11-1.814C36.782,28.246,36.958,28.356,37.057,28.521 M37.057,29.126v-0.604
		c0.066,0.109,0.099,0.23,0.099,0.362C37.156,28.983,37.123,29.071,37.057,29.126 M38.465,30.391v0.122
		c-0.792,0-0.825,0.571-0.825,1.187v0.55c0,0.616,0.032,1.188,0.825,1.188v0.121c-0.693,0-1.199-0.439-1.408-1.012v-1.144
		C37.266,30.83,37.771,30.391,38.465,30.391 M44.128,33.514h0.11c0.01-0.154-0.012-0.265,0.088-0.265
		c0.143,0,0.308,0.309,0.869,0.309c0.549,0,0.989-0.439,0.989-1.101c0-0.493-0.231-0.802-0.814-0.835l-0.243-0.021
		c-0.46-0.021-0.746-0.155-0.746-0.517c0-0.374,0.298-0.571,0.659-0.571c0.562,0,0.771,0.361,0.825,0.769h0.088l-0.021-0.847h-0.099
		v0.066c0,0.099-0.012,0.143-0.056,0.143c-0.065,0-0.33-0.253-0.715-0.253c-0.561,0-0.89,0.407-0.89,0.925
		c0,0.735,0.45,0.802,0.912,0.846c0.374,0.044,0.802,0.056,0.802,0.615c0,0.408-0.296,0.66-0.691,0.66
		c-0.748,0-0.935-0.638-0.99-1.001h-0.089L44.128,33.514z M40.542,33.35h-0.559v0.12h1.692v-0.12h-0.538v-2.002
		c0.131-0.242,0.429-0.835,1.033-0.835c0.219,0,0.418,0.119,0.418,0.517v2.32h-0.561v0.12h1.714v-0.12h-0.56v-2.146
		c0-0.429-0.209-0.813-0.968-0.813c-0.528,0-0.88,0.385-1.067,0.726h-0.01v-0.726c-0.133,0.165-0.253,0.165-0.595,0.165h-0.559v0.11
		h0.559V33.35z M38.465,33.558v-0.121c0.792,0,0.824-0.571,0.824-1.188v-0.55c0-0.615-0.032-1.187-0.824-1.187v-0.122
		c0.912,0,1.506,0.77,1.506,1.584C39.971,32.788,39.377,33.558,38.465,33.558 M48.021,30.391v0.122
		c-0.792,0-0.825,0.571-0.825,1.187v0.55c0,0.616,0.033,1.188,0.825,1.188v0.121c-0.913,0-1.507-0.77-1.507-1.583
		C46.514,31.16,47.107,30.391,48.021,30.391 M48.021,33.558v-0.121c0.803,0,0.824-0.571,0.824-1.188v-0.55
		c0-0.615-0.021-1.187-0.824-1.187v-0.122c0.924,0,1.507,0.77,1.507,1.584C49.527,32.788,48.944,33.558,48.021,33.558
		 M54.322,28.467v0.154c-0.121-0.033-0.265-0.045-0.419-0.045h-0.428v2.397c0.1,0.065,0.308,0.143,0.538,0.143
		c0.101,0,0.198-0.011,0.309-0.032v0.143c-0.066,0.012-0.121,0.012-0.188,0.012c-0.241,0-0.526-0.056-0.658-0.122v2.233h0.714v0.12
		h-2.145v-0.12h0.704v-4.773h-0.704v-0.109h2.023H54.322z M55.741,31.193c-0.132,0.252-0.198,0.528-0.198,0.781
		c0,0.33,0.066,0.627,0.198,0.869V31.193z M55.741,29.104v1.452c-0.286,0.429-0.859,0.638-1.419,0.671v-0.143
		c0.418-0.088,0.856-0.407,0.856-1.166c0-0.77-0.285-1.177-0.856-1.297v-0.154C54.948,28.51,55.466,28.697,55.741,29.104
		 M55.741,30.556c0.132-0.187,0.197-0.429,0.197-0.704c0-0.308-0.065-0.55-0.197-0.748V30.556z M56.84,30.401v0.111
		c-0.474,0.01-0.615,0.428-0.615,0.867v0.199h0.615v0.12h-0.615v0.671c-0.011,0.474,0.055,1.001,0.615,1.066v0.11
		c-0.483-0.033-0.88-0.298-1.099-0.703v-1.65C55.96,30.766,56.356,30.413,56.84,30.401 M56.84,31.699v-0.12h0.572
		c0.033,0,0.043-0.022,0.043-0.044V31.38c0-0.45-0.12-0.867-0.582-0.867H56.84v-0.111c0.012-0.011,0.022-0.011,0.033-0.011
		c0.836,0,1.265,0.945,1.265,1.243c0,0.043-0.022,0.065-0.065,0.065H56.84z M56.84,33.547v-0.11h0.11
		c0.605,0,1.045-0.396,1.145-0.979h0.109c-0.109,0.65-0.594,1.101-1.254,1.101C56.917,33.558,56.873,33.547,56.84,33.547
		 M60.82,31.876v0.099v0.132V31.876z M60.82,30.766v0.108c-0.021,0.155-0.13,0.275-0.318,0.275c-0.23,0-0.318-0.12-0.318-0.308
		c0-0.165,0.088-0.265,0.164-0.308c-0.032-0.021-0.065-0.021-0.098-0.021c-0.298,0-0.826,0.461-0.826,1.386v1.451h0.649v0.12h-1.837
		v-0.12h0.595v-2.684h-0.595v-0.11h0.595c0.23,0,0.451-0.021,0.593-0.165v0.848h0.022c0.078-0.319,0.33-0.848,0.913-0.848
		C60.601,30.391,60.8,30.546,60.82,30.766 M60.82,30.874c0-0.021,0.012-0.044,0.012-0.054c0-0.022-0.012-0.045-0.012-0.055V30.874z
		 M62.118,30.401v0.111c-0.473,0.01-0.616,0.428-0.616,0.867v0.199h0.616v0.12h-0.616v0.671c-0.01,0.474,0.055,1.001,0.616,1.066
		v0.11c-0.726-0.055-1.242-0.616-1.298-1.44v-0.23C60.876,31.215,61.393,30.413,62.118,30.401 M66.375,33.35h-0.604v0.12h1.846
		v-0.12h-0.647v-1.451c0-0.925,0.528-1.386,0.813-1.386c0.044,0,0.077,0,0.099,0.021c-0.076,0.043-0.153,0.143-0.153,0.308
		c0,0.188,0.077,0.308,0.318,0.308c0.209,0,0.318-0.153,0.318-0.329c0-0.254-0.198-0.43-0.461-0.43
		c-0.584,0-0.836,0.528-0.924,0.848h-0.011v-0.848c-0.143,0.144-0.374,0.165-0.594,0.165h-0.604v0.11h0.604V33.35z M64.186,29.115
		c0,0.197,0.166,0.363,0.363,0.363c0.198,0,0.362-0.166,0.362-0.363c0-0.198-0.164-0.363-0.362-0.363
		C64.352,28.752,64.186,28.917,64.186,29.115 M64.253,33.35h-0.572v0.12h1.737v-0.12h-0.572v-2.959
		c-0.132,0.144-0.362,0.165-0.593,0.165h-0.572v0.11h0.572V33.35z M62.118,31.699v-0.12h0.573c0.032,0,0.043-0.022,0.043-0.044
		V31.38c0-0.45-0.12-0.867-0.584-0.867h-0.032v-0.111c0.012-0.011,0.022-0.011,0.032-0.011c0.837,0,1.276,0.945,1.276,1.243
		c0,0.043-0.022,0.065-0.065,0.065H62.118z M62.118,33.547v-0.11h0.121c0.595,0,1.035-0.396,1.132-0.979h0.111
		c-0.111,0.65-0.593,1.101-1.243,1.101C62.196,33.558,62.163,33.547,62.118,33.547 M69.673,31.831v0.109
		c-0.352,0.056-0.638,0.231-0.638,0.749c0,0.396,0.055,0.692,0.516,0.692c0.046,0,0.078,0,0.122-0.011v0.143
		c-0.122,0.033-0.252,0.044-0.396,0.044c-0.55,0-0.891-0.286-0.891-0.77C68.387,32.172,69.035,31.909,69.673,31.831 M69.673,30.401
		v0.111c-0.229,0.01-0.626,0.099-0.626,0.329c0,0.176,0.23,0.099,0.23,0.418c0,0.165-0.142,0.297-0.33,0.297
		c-0.197,0-0.308-0.154-0.308-0.396C68.64,30.809,69.003,30.424,69.673,30.401 M69.673,33.514v-0.143
		c0.45-0.056,0.649-0.396,0.649-0.527v-0.935h-0.121c-0.177,0-0.363,0-0.528,0.031v-0.109c0.176-0.021,0.352-0.033,0.507-0.033
		h0.143v-0.879c0-0.329-0.319-0.406-0.583-0.406h-0.066v-0.111c0.022-0.011,0.044-0.011,0.066-0.011
		c0.538,0,1.176,0.286,1.176,0.824v1.87c0,0.132,0.023,0.308,0.21,0.308c0.165,0,0.263-0.132,0.373-0.285l0.077,0.065
		c-0.132,0.231-0.318,0.385-0.626,0.385c-0.33,0-0.572-0.198-0.627-0.45h-0.011C70.146,33.327,69.937,33.459,69.673,33.514"/>
	<rect x="37.281" y="14.118" width="2.786" height="2.765"/>
	<rect x="41.246" y="14.118" width="2.786" height="2.765"/>
	<rect x="41.246" y="21.662" width="2.786" height="2.765"/>
	<rect x="44.826" y="21.662" width="2.785" height="2.765"/>
	<rect x="37.281" y="17.89" width="2.786" height="2.765"/>
	<path fill-rule="evenodd" clip-rule="evenodd" d="M37.367,21.662h2.614l1.265-1.264c-0.042-0.086-0.064-0.171-0.064-0.257v-1.757
		c0-0.278,0.236-0.494,0.515-0.494h1.757c0.086,0,0.172,0.021,0.236,0.064l1.521-1.544c-0.193-0.235-0.3-0.556-0.3-0.877
		c0-0.771,0.621-1.415,1.393-1.415s1.415,0.643,1.415,1.415c0,0.771-0.644,1.392-1.415,1.392c-0.3,0-0.599-0.085-0.814-0.257
		l-1.565,1.543c0.022,0.064,0.022,0.128,0.022,0.172v1.757c0,0.279-0.215,0.515-0.493,0.515h-1.757c-0.064,0-0.128,0-0.172-0.022
		l-1.393,1.372v2.421h-2.765V21.662z"/>
	<rect x="44.826" y="17.89" width="2.785" height="2.765"/>
	<path fill-rule="evenodd" clip-rule="evenodd" fill="#F4A321" d="M37.367,21.662h2.614l1.265-1.264
		c-0.042-0.086-0.064-0.171-0.064-0.257v-1.757c0-0.278,0.236-0.494,0.515-0.494h1.757c0.086,0,0.172,0.021,0.236,0.064l1.521-1.544
		c-0.193-0.235-0.3-0.556-0.3-0.877c0-0.771,0.621-1.415,1.393-1.415s1.415,0.643,1.415,1.415c0,0.771-0.644,1.392-1.415,1.392
		c-0.3,0-0.599-0.085-0.814-0.257l-1.565,1.543c0.022,0.064,0.022,0.128,0.022,0.172v1.757c0,0.279-0.215,0.515-0.493,0.515h-1.757
		c-0.064,0-0.128,0-0.172-0.022l-1.393,1.372v2.421h-2.765V21.662z"/>
	<rect x="37.281" y="14.118" fill="#808084" width="2.786" height="2.765"/>
	<rect x="41.246" y="14.118" fill="#808084" width="2.786" height="2.765"/>
	<rect x="41.246" y="21.662" fill="#808084" width="2.786" height="2.765"/>
	<rect x="44.826" y="21.662" fill="#808084" width="2.785" height="2.765"/>
	<rect x="37.281" y="17.89" fill="#808084" width="2.786" height="2.765"/>
	<rect x="44.826" y="17.89" fill="#808084" width="2.785" height="2.765"/>
</g>
</svg>
