<?xml version="1.0" encoding="utf-8"?>
<!-- Generator: Adobe Illustrator 16.0.0, SVG Export Plug-In . SVG Version: 6.00 Build 0)  -->
<!DOCTYPE svg PUBLIC "-//W3C//DTD SVG 1.1//EN" "http://www.w3.org/Graphics/SVG/1.1/DTD/svg11.dtd">
<svg version="1.1" id="Camada_1" xmlns="http://www.w3.org/2000/svg" xmlns:xlink="http://www.w3.org/1999/xlink" x="0px" y="0px"
	 width="85px" height="55px" viewBox="0 0 85 55" enable-background="new 0 0 85 55" xml:space="preserve">
<g>
	<g>
		<defs>
			<rect id="SVGID_1_" x="23.952" y="6.36" width="37.097" height="42.281"/>
		</defs>
		<clipPath id="SVGID_2_">
			<use xlink:href="#SVGID_1_"  overflow="visible"/>
		</clipPath>
		<path clip-path="url(#SVGID_2_)" fill-rule="evenodd" clip-rule="evenodd" fill="#F07C00" d="M53.869,6.35H30.964
			c-3.789,0-6.89,3.028-6.89,6.729v22.879c0,3.701,3.102,6.729,6.89,6.729c15.743,0,24.778,0,28.425,0
			c0.754,0,1.369-0.572,1.369-1.27c0-9.445,0-18.893,0-28.338C60.758,9.378,57.658,6.35,53.869,6.35L53.869,6.35z M53.869,6.35"/>
	</g>
	<path fill-rule="evenodd" clip-rule="evenodd" fill="#FFFFFF" d="M54.215,32.814c0.367,0.193,0.934,0.342,1.566,0.342
		c1.391,0,2.104-0.664,2.104-1.549c-0.01-0.699-0.396-1.156-1.32-1.465c-0.594-0.205-0.783-0.322-0.783-0.545
		c0-0.244,0.209-0.389,0.576-0.389c0.416,0,0.836,0.154,1.053,0.271l0.266-1.02c-0.295-0.146-0.803-0.273-1.367-0.273
		c-1.201,0-1.973,0.672-1.973,1.564c-0.012,0.555,0.375,1.088,1.377,1.42c0.564,0.186,0.713,0.301,0.713,0.543
		c0,0.244-0.188,0.4-0.645,0.4c-0.445,0-1.021-0.195-1.299-0.361L54.215,32.814z M52.049,31.316c0,0.088-0.01,0.176-0.027,0.254
		c-0.1,0.301-0.408,0.545-0.785,0.545c-0.338,0-0.594-0.186-0.594-0.564c0-0.574,0.613-0.758,1.406-0.748V31.316z M53.518,30.24
		c0-1.119-0.516-2.053-2.133-2.053c-0.881,0-1.547,0.234-1.883,0.418l0.277,0.953c0.316-0.195,0.842-0.357,1.338-0.357
		c0.744,0,0.883,0.357,0.883,0.609v0.07c-1.717-0.012-2.846,0.58-2.846,1.814c0,0.758,0.586,1.461,1.566,1.461
		c0.574,0,1.068-0.207,1.389-0.584h0.029l0.09,0.475h1.357c-0.049-0.264-0.068-0.699-0.068-1.156V30.24z M45.84,33.047h1.508v-2.41
		c0-0.117,0.01-0.232,0.031-0.33c0.098-0.457,0.475-0.748,1.029-0.748c0.17,0,0.299,0.02,0.408,0.049v-1.4
		c-0.109-0.02-0.178-0.02-0.316-0.02c-0.469,0-1.064,0.293-1.313,0.982h-0.039L47.1,28.295h-1.301
		c0.021,0.408,0.041,0.865,0.041,1.564V33.047z M44.758,28.295h-1.517v2.828c0,0.117-0.011,0.234-0.05,0.32
		c-0.098,0.232-0.338,0.516-0.753,0.516c-0.528,0-0.756-0.418-0.756-1.107v-2.557h-1.517v2.789c0,1.467,0.723,2.072,1.706,2.072
		c0.874,0,1.328-0.49,1.519-0.779h0.028l0.069,0.67h1.309c-0.018-0.4-0.039-0.904-0.039-1.525V28.295z M36.098,27.626
		c0.109-0.031,0.317-0.061,0.624-0.061c0.755,0,1.181,0.36,1.181,0.963c0,0.672-0.494,1.068-1.299,1.068
		c-0.218,0-0.378-0.01-0.506-0.039V27.626z M34.6,33.047h1.498v-2.34c0.139,0.02,0.317,0.027,0.517,0.027
		c0.892,0,1.655-0.215,2.171-0.691c0.398-0.369,0.614-0.912,0.614-1.553c0-0.642-0.286-1.188-0.713-1.517
		c-0.446-0.348-1.112-0.524-2.044-0.524c-0.921,0-1.576,0.059-2.043,0.136V33.047z M34.6,33.047"/>
	<path fill-rule="evenodd" clip-rule="evenodd" fill="#FFFFFF" d="M50.275,38.592h0.523v-1.816h1.514v-0.428h-1.514v-1.334h1.637
		v-0.436h-2.16V38.592z M56.063,34.508c-0.27,0-0.518,0.051-0.742,0.148c-0.227,0.1-0.422,0.242-0.588,0.426
		c-0.166,0.186-0.297,0.408-0.387,0.666c-0.094,0.258-0.141,0.547-0.141,0.867c0.002,0.305,0.045,0.58,0.131,0.832
		c0.088,0.248,0.211,0.463,0.371,0.645c0.16,0.18,0.352,0.32,0.57,0.418c0.221,0.098,0.465,0.146,0.732,0.146
		c0.205,0,0.4-0.029,0.586-0.088c0.186-0.057,0.357-0.145,0.512-0.26s0.291-0.258,0.404-0.428c0.115-0.17,0.203-0.365,0.266-0.59
		c0.063-0.223,0.094-0.473,0.096-0.748c-0.002-0.301-0.043-0.574-0.129-0.822c-0.084-0.248-0.205-0.463-0.363-0.645
		s-0.348-0.32-0.57-0.42C56.588,34.559,56.338,34.508,56.063,34.508L56.063,34.508z M56.045,34.93
		c0.174,0.002,0.328,0.031,0.465,0.094c0.139,0.061,0.258,0.145,0.359,0.25c0.102,0.107,0.188,0.23,0.254,0.371
		c0.068,0.137,0.119,0.285,0.152,0.443s0.049,0.318,0.049,0.479c0,0.23-0.027,0.445-0.084,0.646
		c-0.057,0.199-0.141,0.377-0.25,0.529s-0.244,0.273-0.404,0.359c-0.158,0.088-0.342,0.131-0.547,0.133
		c-0.164,0-0.314-0.029-0.449-0.086s-0.254-0.137-0.359-0.24c-0.104-0.102-0.191-0.221-0.262-0.357s-0.125-0.287-0.162-0.447
		c-0.035-0.16-0.053-0.328-0.053-0.5c0-0.176,0.016-0.346,0.051-0.51c0.033-0.164,0.086-0.316,0.154-0.459
		c0.068-0.139,0.156-0.262,0.258-0.369c0.104-0.105,0.225-0.188,0.363-0.246C55.717,34.961,55.871,34.932,56.045,34.93L56.045,34.93
		z M56.045,34.93"/>
	<path fill-rule="evenodd" clip-rule="evenodd" fill="#F07C00" d="M25.738,47.732c0,0.229-0.083,0.408-0.25,0.539
		c-0.167,0.131-0.383,0.197-0.65,0.197c-0.373,0-0.668-0.111-0.886-0.332l0.253-0.248c0.16,0.158,0.373,0.238,0.64,0.238
		c0.164,0,0.292-0.033,0.382-0.1c0.09-0.066,0.136-0.162,0.136-0.283c0-0.113-0.034-0.199-0.099-0.262
		c-0.056-0.051-0.147-0.086-0.274-0.104l-0.296-0.043c-0.206-0.031-0.364-0.098-0.475-0.201c-0.122-0.115-0.183-0.273-0.183-0.479
		c0-0.219,0.076-0.396,0.225-0.531c0.15-0.135,0.354-0.203,0.611-0.203c0.314,0,0.574,0.096,0.778,0.285l-0.243,0.238
		c-0.136-0.129-0.318-0.193-0.545-0.193c-0.143,0-0.254,0.037-0.335,0.109c-0.081,0.072-0.122,0.168-0.122,0.281
		c0,0.1,0.032,0.178,0.096,0.234c0.065,0.059,0.158,0.096,0.279,0.115l0.285,0.041c0.207,0.031,0.362,0.092,0.468,0.188
		C25.67,47.34,25.738,47.51,25.738,47.732L25.738,47.732z M26.627,48.447h-0.379v-2.504h0.379V48.447z M29.166,48.447h-0.348
		l-1.157-1.762v1.762h-0.379v-2.504h0.348l1.157,1.758v-1.758h0.38V48.447z M31.533,47.469c0,0.316-0.074,0.555-0.222,0.711
		c-0.181,0.193-0.408,0.289-0.683,0.289c-0.26,0-0.479-0.09-0.657-0.268c-0.112-0.113-0.184-0.252-0.214-0.416
		c-0.019-0.102-0.028-0.299-0.028-0.59s0.01-0.488,0.028-0.592c0.03-0.162,0.102-0.303,0.214-0.414
		c0.179-0.178,0.397-0.268,0.657-0.268c0.165,0,0.305,0.027,0.422,0.082c0.105,0.049,0.217,0.131,0.334,0.248l-0.256,0.258
		c-0.089-0.09-0.165-0.15-0.225-0.184c-0.077-0.041-0.169-0.063-0.275-0.063c-0.152,0-0.276,0.051-0.372,0.154
		c-0.076,0.08-0.122,0.203-0.137,0.369c-0.007,0.059-0.011,0.195-0.011,0.408c0,0.215,0.003,0.354,0.011,0.412
		c0.016,0.166,0.062,0.289,0.137,0.369c0.093,0.1,0.217,0.15,0.372,0.15c0.165,0,0.298-0.059,0.401-0.176
		c0.083-0.094,0.124-0.227,0.124-0.396v-0.139h-0.524v-0.322h0.904V47.469z M33.661,48.447h-1.586v-2.504h0.38v2.162h1.206V48.447z
		 M35.693,48.447h-1.6v-2.504h1.6v0.342h-1.22v0.73h1.041v0.338h-1.041v0.752h1.22V48.447z M38.658,46.285h-1.22v0.762h1.041v0.342
		h-1.041v1.059h-0.38v-2.504h1.601V46.285z M40.958,48.447h-0.404l-0.172-0.504h-0.989l-0.172,0.504h-0.404l0.918-2.504h0.306
		L40.958,48.447z M40.275,47.621l-0.379-1.111l-0.39,1.111H40.275z M43.521,48.447h-0.381v-1.674l-0.576,1.221h-0.282l-0.59-1.221
		v1.674h-0.38v-2.504h0.38l0.731,1.557l0.717-1.557h0.381V48.447z M44.551,48.447h-0.379v-2.504h0.379V48.447z M46.791,48.447
		h-1.586v-2.504h0.381v2.162h1.205V48.447z M48.793,45.943l-0.75,1.473v1.031h-0.379v-1.031l-0.75-1.473h0.416l0.523,1.102
		l0.523-1.102H48.793z M51.689,47.195c0,0.293-0.01,0.49-0.027,0.59c-0.029,0.164-0.1,0.303-0.211,0.416
		c-0.178,0.178-0.398,0.268-0.662,0.268c-0.26,0-0.479-0.09-0.656-0.268c-0.113-0.113-0.186-0.252-0.215-0.416
		c-0.02-0.102-0.029-0.299-0.029-0.59s0.01-0.488,0.029-0.592c0.029-0.162,0.102-0.303,0.215-0.414
		c0.178-0.178,0.396-0.268,0.656-0.268c0.264,0,0.484,0.09,0.662,0.268c0.111,0.111,0.182,0.252,0.211,0.414
		C51.68,46.705,51.689,46.902,51.689,47.195L51.689,47.195z M51.311,47.195c0-0.213-0.004-0.35-0.012-0.408
		c-0.016-0.166-0.061-0.289-0.137-0.369c-0.096-0.104-0.221-0.154-0.373-0.154s-0.275,0.051-0.371,0.154
		c-0.076,0.08-0.121,0.203-0.139,0.369c-0.006,0.059-0.01,0.195-0.01,0.408s0.004,0.35,0.01,0.408
		c0.018,0.166,0.063,0.289,0.139,0.369c0.096,0.104,0.219,0.154,0.371,0.154s0.277-0.051,0.373-0.154
		c0.076-0.08,0.121-0.203,0.137-0.369C51.307,47.545,51.311,47.408,51.311,47.195L51.311,47.195z M53.854,46.285h-1.221v0.762h1.041
		v0.342h-1.041v1.059h-0.381v-2.504h1.602V46.285z M55.91,46.285h-1.221v0.762h1.041v0.342h-1.041v1.059h-0.379v-2.504h1.6V46.285z
		 M56.748,48.447h-0.381v-2.504h0.381V48.447z M58.91,48.174c-0.203,0.195-0.436,0.295-0.701,0.295c-0.26,0-0.479-0.09-0.656-0.268
		c-0.113-0.113-0.184-0.252-0.215-0.416c-0.02-0.102-0.027-0.299-0.027-0.59s0.008-0.488,0.027-0.592
		c0.031-0.162,0.102-0.303,0.215-0.414c0.178-0.178,0.396-0.268,0.656-0.268c0.266,0,0.498,0.1,0.701,0.295l-0.254,0.258
		c-0.141-0.141-0.289-0.211-0.447-0.211c-0.152,0-0.275,0.049-0.369,0.15c-0.074,0.08-0.119,0.203-0.137,0.369
		c-0.008,0.059-0.01,0.195-0.01,0.412c0,0.215,0.002,0.354,0.01,0.412c0.018,0.166,0.063,0.289,0.137,0.369
		c0.094,0.1,0.217,0.15,0.369,0.15c0.158,0,0.307-0.07,0.447-0.211L58.91,48.174z M61.02,48.447h-1.6v-2.504h1.6v0.342h-1.221v0.73
		h1.041v0.338h-1.041v0.752h1.221V48.447z M61.02,48.447"/>
</g>
</svg>
