<?xml version="1.0" encoding="utf-8"?>
<!-- Generator: Adobe Illustrator 16.0.0, SVG Export Plug-In . SVG Version: 6.00 Build 0)  -->
<!DOCTYPE svg PUBLIC "-//W3C//DTD SVG 1.1//EN" "http://www.w3.org/Graphics/SVG/1.1/DTD/svg11.dtd">
<svg version="1.1" id="Camada_1" xmlns="http://www.w3.org/2000/svg" xmlns:xlink="http://www.w3.org/1999/xlink" x="0px" y="0px"
	 width="85px" height="55px" viewBox="0 0 85 55" enable-background="new 0 0 85 55" xml:space="preserve">
<g>
	<g>
		<text transform="matrix(1 0 0 1 21.5439 37.9297)" fill="#0071BC" font-family="'HelveticaNeueLTCom-ThIt'" font-size="4.6072">The Cloud Company</text>
		<path fill-rule="evenodd" clip-rule="evenodd" fill="#36B350" d="M22.696,17.906c0.79,0,1.435,0.645,1.435,1.435
			c0,0.79-0.645,1.435-1.435,1.435s-1.434-0.645-1.434-1.435C21.262,18.55,21.906,17.906,22.696,17.906L22.696,17.906z"/>
		<path fill-rule="evenodd" clip-rule="evenodd" fill="#034EA1" d="M16.94,28.843l0.168-1.061l0.385-2.436
			c-1.563,2.393-2.635,4.686-3.06,6.46l-0.22,1.392h2.037l0.521-3.288h1.655c1.671,0,3.255-1.367,3.52-3.039l0.043-0.274
			c0.241-1.52-0.807-2.765-2.328-2.765h-1.122c-0.26,0.356-0.51,0.712-0.749,1.067h0.499c0.987,0,1.667,0.807,1.51,1.794
			l-0.028,0.177c-0.172,1.085-1.2,1.972-2.285,1.972H16.94L16.94,28.843z M18.014,23.832h-1.287h-1.031l-0.656,4.143
			C15.83,26.666,16.834,25.254,18.014,23.832L18.014,23.832z M48.738,32.222c-0.475,0.149-0.992,0.285-1.49,0.285
			c-2.114,0-2.491-2.146-2.316-3.245h4.416l0.038-0.244c0.235-1.479-0.563-2.43-2.616-2.43c-2.441,0-3.504,1.303-3.784,3.082
			c-0.428,2.701,1.236,3.681,3.179,3.681c1.09,0,1.576-0.136,2.467-0.45L48.738,32.222L48.738,32.222z M45.038,28.583
			c0.094-0.299,0.479-1.357,1.568-1.357c1.025,0,1.103,0.896,1.029,1.357H45.038L45.038,28.583z M41.455,32.264
			c-0.472,0.136-0.926,0.244-1.501,0.244c-1.696,0-2.396-1.667-2.13-3.349c0.146-0.922,0.679-1.924,1.534-1.924
			c0.81,0,0.845,0.555,0.665,1.694h2.006c0.232-1.463-0.299-2.332-2.491-2.332c-2.317,0-3.544,1.261-3.838,3.118
			c-0.41,2.59,1.12,3.636,3.282,3.636c0.949,0,1.563-0.152,2.365-0.396L41.455,32.264L41.455,32.264z M55.099,26.832
			c-0.257-0.054-0.88-0.244-1.689-0.244c-1.881,0-2.791,0.937-2.946,1.914c-0.098,0.624,0.046,0.991,0.76,1.588
			c0.66,0.543,1.969,1.019,1.865,1.67c-0.063,0.394-0.522,0.651-1.206,0.651c-0.888,0-1.55-0.529-1.852-0.787l-0.231,1.466
			c0.313,0.081,1,0.261,1.902,0.261c1.524,0,2.931-0.531,3.154-1.943c0.118-0.747-0.113-1.154-0.828-1.737
			c-0.646-0.544-1.941-1.005-1.843-1.629c0.071-0.449,0.626-0.611,1.015-0.611c0.747,0,1.302,0.421,1.686,0.747L55.099,26.832
			L55.099,26.832z M61.05,26.832c-0.256-0.054-0.88-0.244-1.688-0.244c-1.882,0-2.793,0.937-2.948,1.914
			c-0.098,0.624,0.046,0.991,0.759,1.588c0.661,0.543,1.971,1.019,1.866,1.67c-0.061,0.394-0.521,0.651-1.206,0.651
			c-0.887,0-1.55-0.529-1.852-0.787L55.75,33.09c0.313,0.081,1,0.261,1.902,0.261c1.525,0,2.931-0.531,3.154-1.943
			c0.118-0.747-0.112-1.154-0.828-1.737c-0.646-0.544-1.942-1.005-1.843-1.629c0.071-0.449,0.626-0.611,1.015-0.611
			c0.747,0,1.302,0.421,1.686,0.747L61.05,26.832L61.05,26.832z M69.437,33.198h1.883l0.458-2.892
			c0.228-1.438,0.973-2.022,2.855-2.022l0.269-1.696c-1.414,0.081-2.137,0.923-2.784,1.765h-0.031l0.059-0.363v-0.001
			c0.063-0.416,0.063-0.851,0.01-1.25c-0.631,0-1.26,0-1.89,0c0.06,0.465,0.041,0.953-0.031,1.436L69.437,33.198L69.437,33.198z
			 M65.758,27.499c0.732,0,1.158,1.082,0.948,2.409c-0.21,1.326-0.979,2.407-1.711,2.407c-0.733,0-1.16-1.081-0.949-2.407
			C64.257,28.58,65.024,27.499,65.758,27.499L65.758,27.499z M65.92,26.474c1.943,0,3.285,1.542,2.986,3.433
			c-0.301,1.891-2.13,3.433-4.073,3.433c-1.945,0-3.285-1.542-2.986-3.433C62.146,28.016,63.977,26.474,65.92,26.474L65.92,26.474z
			 M22.037,33.198h1.881l0.458-2.892c0.228-1.438,0.973-2.022,2.855-2.022l0.269-1.696c-1.413,0.081-2.138,0.923-2.784,1.765h-0.031
			l0.058-0.363v-0.001c0.065-0.416,0.063-0.851,0.011-1.25c-0.63,0-1.26,0-1.89,0c0.061,0.465,0.042,0.953-0.031,1.436
			L22.037,33.198L22.037,33.198z M31.485,27.499c0.732,0,1.158,1.082,0.948,2.409c-0.21,1.326-0.979,2.407-1.711,2.407
			c-0.733,0-1.159-1.081-0.948-2.407C29.983,28.58,30.752,27.499,31.485,27.499L31.485,27.499z M31.647,26.474
			c1.944,0,3.285,1.542,2.985,3.433c-0.299,1.891-2.129,3.433-4.073,3.433c-1.944,0-3.285-1.542-2.985-3.433
			C27.874,28.016,29.703,26.474,31.647,26.474L31.647,26.474z"/>
		<path fill-rule="evenodd" clip-rule="evenodd" fill="#C6CCE7" d="M17.111,24.448c-5.431,6.144-8.321,12.512-6.437,14.179
			c1.608,1.422,6.186-1.025,10.868-5.588l0.465-2.936c-3.726,3.554-7.294,5.452-8.479,4.34c-1.398-1.313,1.031-6.334,5.408-11.175
			c0.824-0.91,1.658-1.75,2.481-2.507c-0.11-0.098-0.208-0.21-0.292-0.331C19.8,21.593,18.44,22.946,17.111,24.448L17.111,24.448z
			 M27.416,26.08c3.09-4.524,4.408-8.493,2.978-9.757c-1.064-0.941-3.43-0.187-6.265,1.753c0.083,0.094,0.157,0.196,0.221,0.305
			c2.333-1.628,4.262-2.279,5.075-1.517c1.261,1.184-0.588,5.377-4.17,9.738l0.019,0.152l0.009,0.085l0.007,0.085l0.002,0.029
			l0.041-0.035l0.09-0.073l0.093-0.072l0.097-0.069l0.1-0.067l0.103-0.065l0.106-0.061l0.109-0.059l0.113-0.055l0.117-0.052
			l0.121-0.048l0.124-0.043l0.127-0.039l0.131-0.036l0.134-0.03l0.138-0.026l0.142-0.021l0.145-0.017L27.416,26.08L27.416,26.08z"/>
	</g>
</g>
</svg>
