<?xml version="1.0" encoding="utf-8"?>
<!-- Generator: Adobe Illustrator 16.0.0, SVG Export Plug-In . SVG Version: 6.00 Build 0)  -->
<!DOCTYPE svg PUBLIC "-//W3C//DTD SVG 1.1//EN" "http://www.w3.org/Graphics/SVG/1.1/DTD/svg11.dtd">
<svg version="1.1" id="Camada_1" xmlns="http://www.w3.org/2000/svg" xmlns:xlink="http://www.w3.org/1999/xlink" x="0px" y="0px"
	 width="85px" height="55px" viewBox="0 0 85 55" enable-background="new 0 0 85 55" xml:space="preserve">
<g>
	<g>
		<path fill="#231F20" d="M2.158,36.733v1.335h1.841v0.223H2.158v1.474H1.917v-3.254h2.291v0.223H2.158z"/>
		<path fill="#231F20" d="M8.059,39.765l-0.413-0.911H5.725l-0.413,0.911H5.061l1.516-3.277h0.232l1.516,3.277H8.059z M6.688,36.752
			l-0.859,1.884h1.715L6.688,36.752z"/>
		<path fill="#231F20" d="M12.586,39.765v-2.826l-1.287,1.874h-0.02l-1.287-1.874v2.826H9.76v-3.254h0.228l1.307,1.925l1.306-1.925
			h0.229v3.254H12.586z"/>
		<path fill="#231F20" d="M14.571,39.765v-3.254h0.241v3.254H14.571z"/>
		<path fill="#231F20" d="M16.557,39.765v-3.254h0.242v3.032h1.91v0.222H16.557z"/>
		<path fill="#231F20" d="M20.878,38.473v1.292h-0.241v-1.287l-1.396-1.967h0.303l1.218,1.748l1.224-1.748h0.288L20.878,38.473z"/>
		<path fill="#231F20" d="M27.28,39.821c-0.984,0-1.631-0.786-1.631-1.674v-0.011c0-0.887,0.655-1.682,1.641-1.682
			c0.986,0,1.633,0.785,1.633,1.674c0.004,0.005,0.004,0.005,0,0.008C28.922,39.025,28.266,39.821,27.28,39.821z M28.67,38.137
			c0-0.803-0.585-1.463-1.391-1.463c-0.804,0-1.38,0.65-1.38,1.455v0.008c0,0.806,0.585,1.466,1.39,1.466s1.381-0.651,1.381-1.455
			V38.137z"/>
		<path fill="#231F20" d="M30.733,36.733v1.335h1.842v0.223h-1.842v1.474h-0.241v-3.254h2.292v0.223H30.733z"/>
		<path fill="#231F20" d="M34.53,36.733v1.335h1.841v0.223H34.53v1.474h-0.242v-3.254h2.293v0.223H34.53z"/>
		<path fill="#231F20" d="M38.118,39.765v-3.254h0.24v3.254H38.118z"/>
		<path fill="#231F20" d="M41.578,39.821c-0.931,0-1.618-0.739-1.618-1.674v-0.011c0-0.919,0.688-1.682,1.627-1.682
			c0.582,0,0.931,0.214,1.265,0.521l-0.172,0.177c-0.284-0.274-0.609-0.479-1.097-0.479c-0.781,0-1.372,0.636-1.372,1.455v0.008
			c0,0.824,0.6,1.466,1.376,1.466c0.47,0,0.79-0.182,1.121-0.507l0.162,0.159C42.526,39.594,42.154,39.821,41.578,39.821z"/>
		<path fill="#231F20" d="M44.281,39.765v-3.254h2.314v0.223h-2.072v1.278h1.865v0.224h-1.865v1.308h2.098v0.222H44.281z"/>
	</g>
	<g>
		<path fill="#F48120" d="M6.299,28.391c0,1.267-0.217,2.208-0.653,2.824c-0.436,0.618-1.101,0.926-1.994,0.926
			s-1.559-0.308-1.995-0.926c-0.436-0.616-0.654-1.558-0.654-2.824V12.338c0-1.415,0.271-2.388,0.813-2.921
			C2.359,8.886,3.305,8.62,4.657,8.62h4.771c2.627,0,4.701,0.709,6.223,2.131c1.521,1.42,2.282,3.342,2.282,5.768
			c0,2.469-0.713,4.398-2.139,5.793c-1.425,1.394-3.404,2.09-5.937,2.09H6.299V28.391z M6.299,19.599h2.283
			c1.202,0,2.105-0.258,2.713-0.773c0.605-0.516,0.909-1.285,0.909-2.307c0-1.031-0.296-1.795-0.886-2.289
			c-0.591-0.494-1.503-0.742-2.736-0.742H6.299V19.599z"/>
		<path fill="#F48120" d="M20.406,24.833v-6.861c0-1.266,0.214-2.205,0.64-2.817c0.425-0.611,1.073-0.917,1.947-0.917
			c0.861,0,1.501,0.306,1.921,0.917c0.421,0.612,0.632,1.552,0.632,2.817v5.808c0,1.373,0.207,2.343,0.621,2.913
			c0.416,0.568,1.09,0.854,2.027,0.854c0.936,0,1.611-0.285,2.026-0.854c0.415-0.57,0.622-1.54,0.622-2.913v-5.808
			c0-1.266,0.211-2.205,0.631-2.817c0.419-0.611,1.07-0.917,1.955-0.917c0.861,0,1.499,0.303,1.914,0.91
			c0.415,0.605,0.622,1.547,0.622,2.824v6.861c0,2.446-0.665,4.315-1.995,5.609c-1.329,1.291-3.254,1.938-5.775,1.938
			s-4.45-0.646-5.784-1.938C21.073,29.148,20.406,27.279,20.406,24.833z"/>
		<path fill="#F48120" d="M39.444,28.327V17.972c0-1.266,0.209-2.205,0.629-2.817c0.42-0.611,1.066-0.917,1.939-0.917
			c0.521,0,0.984,0.136,1.388,0.406c0.404,0.271,0.76,0.684,1.07,1.237c0.529-0.574,1.094-1.009,1.691-1.301
			c0.594-0.293,1.195-0.438,1.803-0.438c0.713,0,1.326,0.252,1.844,0.758c0.514,0.505,0.773,1.104,0.773,1.795
			c0,1.032-0.947,1.894-2.84,2.586c-0.682,0.244-1.193,0.446-1.533,0.605c-0.648,0.309-1.08,0.651-1.293,1.029
			c-0.213,0.377-0.318,1.061-0.318,2.051v5.361c0,1.267-0.213,2.208-0.639,2.825c-0.426,0.616-1.075,0.925-1.947,0.925
			c-0.873,0-1.52-0.309-1.939-0.925C39.653,30.535,39.444,29.594,39.444,28.327z"/>
		<path fill="#F48120" d="M62.963,30.29c-0.52,0.639-1.15,1.125-1.891,1.46c-0.738,0.335-1.545,0.503-2.416,0.503
			c-2.203,0-4.057-0.867-5.563-2.602c-1.504-1.733-2.258-3.898-2.258-6.494c0-2.563,0.777-4.725,2.33-6.479
			c1.553-1.756,3.447-2.633,5.68-2.633c0.873,0,1.646,0.148,2.322,0.446s1.275,0.761,1.795,1.389
			c0.299-0.543,0.656-0.952,1.07-1.229c0.414-0.276,0.877-0.414,1.387-0.414c0.863,0,1.502,0.303,1.916,0.91
			c0.416,0.605,0.623,1.547,0.623,2.824v10.355c0,1.267-0.211,2.208-0.631,2.825c-0.42,0.616-1.057,0.925-1.908,0.925
			c-0.574,0-1.057-0.144-1.451-0.43C63.574,31.359,63.24,30.907,62.963,30.29z M56.166,23.093c0,1.266,0.309,2.285,0.926,3.057
			c0.617,0.771,1.42,1.156,2.41,1.156c0.967,0,1.76-0.391,2.377-1.173s0.926-1.795,0.926-3.04c0-1.212-0.313-2.201-0.934-2.969
			c-0.623-0.766-1.412-1.148-2.369-1.148c-0.98,0-1.779,0.381-2.402,1.142S56.166,21.87,56.166,23.093z"/>
		<path fill="#F48120" d="M76.463,32.349c-1.84,0-3.363-0.367-4.572-1.102c-1.207-0.734-1.811-1.644-1.811-2.729
			c0-0.649,0.191-1.196,0.574-1.644c0.383-0.446,0.848-0.669,1.389-0.669c0.543,0,1.34,0.249,2.395,0.749
			c1.053,0.5,1.844,0.75,2.377,0.75c0.426,0,0.771-0.102,1.037-0.303c0.266-0.203,0.398-0.453,0.398-0.751
			c0-0.51-0.824-1.096-2.473-1.755c-0.148-0.063-0.256-0.106-0.318-0.128c-1.895-0.787-3.188-1.565-3.879-2.338
			c-0.691-0.771-1.037-1.746-1.037-2.928c0-1.585,0.609-2.906,1.828-3.965c1.217-1.059,2.758-1.588,4.619-1.588
			c1.68,0,3.105,0.356,4.275,1.068c1.17,0.714,1.756,1.554,1.756,2.521c0,0.607-0.205,1.117-0.613,1.531
			c-0.41,0.415-0.912,0.623-1.508,0.623c-0.395,0-1.063-0.208-2.004-0.623c-0.941-0.414-1.656-0.621-2.146-0.621
			c-0.35,0-0.633,0.082-0.844,0.247c-0.215,0.164-0.32,0.38-0.32,0.646c0,0.479,0.68,0.979,2.043,1.5
			c0.637,0.246,1.143,0.453,1.516,0.623c1.541,0.691,2.641,1.424,3.295,2.193c0.654,0.771,0.98,1.705,0.98,2.802
			c0,1.68-0.656,3.082-1.971,4.204C80.137,31.787,78.475,32.349,76.463,32.349z"/>
	</g>
	<g>
		<path fill="#231F20" d="M80.789,34.688c-0.77-0.321-1.59-0.498-2.41-0.523c-0.824-0.025-1.643,0.098-2.426,0.327
			c-0.785,0.233-1.541,0.56-2.258,0.958c-0.715,0.4-1.402,0.855-2.049,1.363l-0.006,0.004l-0.014,0.009
			c-0.461,0.299-0.916,0.629-1.373,0.956l-1.367,0.992c-0.461,0.329-0.916,0.658-1.416,0.963c-0.066,0.038-0.133,0.077-0.201,0.111
			c-0.068,0.032-0.139,0.067-0.207,0.096l-0.201,0.085l-0.201,0.077c-0.27,0.102-0.539,0.194-0.809,0.283
			c-0.537,0.178-1.078,0.345-1.619,0.506c-0.541,0.158-1.09,0.32-1.633,0.458c-0.248,0.071-0.506,0.173-0.756,0.279
			c-0.25,0.108-0.494,0.229-0.73,0.362c-0.234,0.134-0.461,0.279-0.662,0.446c-0.201,0.164-0.379,0.354-0.469,0.55l-0.021,0.048
			l-0.033,0.031c-0.104,0.101-0.201,0.2-0.264,0.295c-0.063,0.096-0.092,0.188-0.094,0.297c0,0.053,0.008,0.112,0.02,0.172
			c0.014,0.063,0.031,0.13,0.051,0.188c0.021,0.061,0.047,0.116,0.074,0.166c0.014,0.024,0.029,0.047,0.043,0.066
			c0.008,0.009,0.016,0.017,0.02,0.022l0.008,0.009l0.002,0.002c0,0,0,0-0.002-0.001l-0.01-0.007l0.113,0.194
			c0-0.028-0.002-0.026-0.004-0.033l-0.002-0.014c-0.004-0.006-0.004-0.01-0.006-0.013c-0.004-0.007-0.006-0.008-0.006-0.008
			s0.006,0.007,0.018,0.014c0.02,0.015,0.061,0.028,0.102,0.042c0.09,0.024,0.197,0.035,0.307,0.04
			c0.223,0.008,0.447-0.015,0.693-0.035c0.48-0.038,0.959-0.072,1.432-0.122c0.947-0.103,1.898-0.233,2.777-0.563
			c0.217-0.084,0.439-0.186,0.662-0.276c0.223-0.093,0.449-0.182,0.676-0.268c0.451-0.171,0.908-0.328,1.371-0.466
			c0.465-0.135,0.936-0.253,1.414-0.329c0.238-0.036,0.48-0.061,0.723-0.064s0.486,0.017,0.717,0.088
			c-0.234-0.057-0.477-0.06-0.715-0.041c-0.24,0.019-0.475,0.06-0.709,0.108c-0.467,0.1-0.926,0.242-1.377,0.399
			c-0.451,0.158-0.896,0.335-1.338,0.523c-0.219,0.095-0.438,0.192-0.654,0.292c-0.217,0.103-0.428,0.207-0.658,0.307
			c-0.455,0.193-0.93,0.323-1.404,0.431c-0.477,0.106-0.957,0.187-1.438,0.247c-0.48,0.063-0.963,0.109-1.439,0.16
			c-0.232,0.024-0.484,0.057-0.744,0.055c-0.133-0.004-0.266-0.011-0.408-0.047c-0.074-0.021-0.148-0.04-0.232-0.091
			c-0.039-0.024-0.082-0.056-0.121-0.101c-0.02-0.023-0.041-0.049-0.057-0.082c-0.01-0.017-0.018-0.033-0.025-0.055
			c-0.002-0.011-0.006-0.019-0.008-0.033c-0.004-0.016-0.006-0.021-0.008-0.057l0.113,0.194l-0.021-0.015l-0.014-0.009l-0.02-0.017
			c-0.014-0.011-0.023-0.021-0.035-0.03c-0.02-0.021-0.037-0.041-0.055-0.061c-0.031-0.04-0.059-0.08-0.084-0.121
			c-0.049-0.081-0.084-0.163-0.113-0.244c-0.031-0.082-0.053-0.163-0.074-0.247c-0.018-0.087-0.031-0.179-0.031-0.275
			s0.012-0.196,0.041-0.292c0.027-0.097,0.072-0.186,0.121-0.266c0.102-0.158,0.221-0.275,0.33-0.386l-0.055,0.079
			c0.145-0.32,0.367-0.546,0.596-0.743c0.23-0.196,0.477-0.358,0.729-0.508c0.508-0.293,1.025-0.534,1.602-0.709
			c0.551-0.144,1.08-0.301,1.621-0.462c0.535-0.164,1.07-0.332,1.6-0.51c0.266-0.089,0.529-0.182,0.787-0.277l0.193-0.073
			l0.188-0.076c0.063-0.026,0.117-0.055,0.178-0.081c0.057-0.029,0.113-0.063,0.17-0.094c0.463-0.277,0.922-0.607,1.379-0.93
			c0.918-0.65,1.814-1.328,2.785-1.94l-0.02,0.014c0.68-0.505,1.393-0.968,2.148-1.351c0.758-0.383,1.551-0.703,2.379-0.899
			c0.414-0.099,0.832-0.169,1.256-0.204c0.424-0.034,0.85-0.032,1.271,0.009C79.234,34.04,80.055,34.292,80.789,34.688"/>
		<path fill="#231F20" d="M68.436,38.762c-0.221-0.065-0.439-0.128-0.66-0.182c-0.219-0.058-0.441-0.104-0.66-0.147
			c-0.219-0.041-0.439-0.069-0.656-0.09c-0.217-0.015-0.432-0.019-0.639,0.002l-0.049,0.005l-0.064-0.026
			c-0.453-0.188-0.914-0.355-1.377-0.472c-0.232-0.061-0.465-0.103-0.695-0.126c-0.229-0.022-0.455-0.02-0.662,0.021l-0.086,0.018
			l-0.07-0.029c-0.297-0.119-0.59-0.236-0.887-0.326c-0.295-0.089-0.596-0.162-0.896-0.185c-0.303-0.027-0.607,0-0.904,0.082
			c-0.146,0.051-0.299,0.101-0.43,0.178c-0.064,0.04-0.127,0.086-0.178,0.144c-0.051,0.055-0.092,0.127-0.092,0.208
			c-0.027-0.079-0.004-0.171,0.035-0.246c0.037-0.079,0.096-0.146,0.158-0.205c0.061-0.062,0.129-0.112,0.201-0.161
			c0.07-0.043,0.143-0.087,0.219-0.128c0.305-0.159,0.65-0.233,0.994-0.255c0.346-0.019,0.688,0.027,1.018,0.101
			c0.33,0.072,0.648,0.179,0.955,0.291l-0.158-0.011c0.285-0.068,0.566-0.072,0.836-0.049s0.529,0.079,0.781,0.147
			c0.506,0.142,0.982,0.343,1.438,0.579l-0.113-0.021c0.25-0.001,0.49,0.027,0.725,0.073c0.232,0.05,0.457,0.119,0.678,0.195
			c0.219,0.077,0.432,0.174,0.639,0.272C68.041,38.523,68.244,38.632,68.436,38.762"/>
		<path fill="#231F20" d="M66.234,39.966c-0.328-0.123-0.658-0.237-0.988-0.346c-0.332-0.109-0.664-0.207-0.996-0.299
			c-0.17-0.045-0.334-0.089-0.504-0.125c-0.166-0.043-0.334-0.073-0.5-0.108c-0.336-0.06-0.674-0.102-1.006-0.12l-0.043-0.003
			l-0.051-0.023c-0.268-0.122-0.551-0.232-0.836-0.33c-0.287-0.101-0.578-0.187-0.871-0.271c-0.291-0.082-0.588-0.152-0.883-0.214
			c-0.293-0.059-0.59-0.108-0.879-0.129l-0.043-0.003L58.6,37.982c-0.396-0.145-0.813-0.276-1.227-0.389s-0.832-0.215-1.252-0.258
			c-0.207-0.021-0.42-0.041-0.619-0.018c-0.105,0.002-0.195,0.033-0.293,0.052c-0.098,0.033-0.195,0.065-0.287,0.113
			c-0.182,0.092-0.352,0.215-0.471,0.385c-0.119,0.169-0.195,0.379-0.191,0.6c-0.051-0.214-0.02-0.454,0.082-0.662
			c0.098-0.214,0.271-0.387,0.465-0.518c0.096-0.067,0.199-0.12,0.305-0.173c0.111-0.039,0.227-0.088,0.344-0.104
			c0.057-0.009,0.117-0.025,0.174-0.03l0.172-0.016c0.117-0.014,0.23-0.007,0.346-0.011c0.457,0.014,0.902,0.08,1.34,0.17
			c0.439,0.094,0.865,0.209,1.297,0.353l-0.078-0.016c0.33,0.016,0.646,0.062,0.961,0.122c0.313,0.062,0.621,0.139,0.924,0.227
			c0.305,0.088,0.605,0.189,0.902,0.3c0.295,0.115,0.588,0.238,0.877,0.391l-0.094-0.024c0.363,0.037,0.719,0.11,1.063,0.202
			c0.172,0.051,0.346,0.096,0.514,0.154c0.168,0.055,0.334,0.119,0.5,0.183c0.328,0.128,0.65,0.274,0.965,0.431
			C65.631,39.604,65.941,39.774,66.234,39.966"/>
		<path fill="#231F20" d="M63.148,40.926c-0.246-0.095-0.498-0.166-0.75-0.23c-0.252-0.063-0.51-0.111-0.766-0.145
			c-0.256-0.039-0.514-0.052-0.77-0.052c-0.256-0.001-0.51,0.027-0.758,0.067l-0.047,0.008l-0.051-0.025
			c-0.34-0.171-0.689-0.329-1.041-0.479c-0.35-0.15-0.705-0.29-1.064-0.413c-0.178-0.063-0.359-0.118-0.539-0.171l-0.271-0.076
			l-0.273-0.062c-0.359-0.074-0.73-0.117-1.055-0.066L55.65,39.3l-0.096-0.078c-0.137-0.108-0.344-0.2-0.545-0.272
			c-0.102-0.04-0.211-0.066-0.316-0.098c-0.107-0.024-0.215-0.055-0.326-0.072c-0.438-0.079-0.893-0.114-1.324-0.062l-0.162,0.02
			c-0.053,0.008-0.104,0.021-0.156,0.031c-0.105,0.018-0.201,0.056-0.303,0.085c-0.049,0.018-0.092,0.042-0.139,0.062l-0.068,0.031
			c-0.021,0.013-0.043,0.026-0.063,0.039c-0.041,0.027-0.082,0.05-0.123,0.08l-0.117,0.1c-0.15,0.135-0.26,0.293-0.262,0.413
			c-0.006,0.063,0.01,0.121,0.045,0.187c0.018,0.033,0.041,0.065,0.068,0.096c0.014,0.017,0.031,0.03,0.045,0.045
			c0.014,0.012,0.035,0.029,0.039,0.033l-0.084-0.035c0.621,0.153,1.24,0.307,1.855,0.479c0.309,0.088,0.615,0.177,0.922,0.273
			c0.309,0.098,0.609,0.188,0.922,0.33l0.117,0.059l0.1,0.053l0.209,0.103c0.143,0.066,0.287,0.132,0.432,0.196l0.871,0.392
			c0.291,0.129,0.582,0.264,0.869,0.404c0.143,0.07,0.287,0.142,0.426,0.22c0.137,0.079,0.285,0.152,0.398,0.266
			c-0.125-0.098-0.277-0.149-0.424-0.211c-0.148-0.058-0.297-0.112-0.447-0.167l-0.898-0.316c-0.301-0.106-0.604-0.208-0.902-0.318
			c-0.15-0.055-0.301-0.11-0.451-0.169l-0.227-0.091l-0.113-0.051l-0.102-0.041c-0.277-0.104-0.59-0.183-0.893-0.263
			c-0.305-0.081-0.613-0.153-0.922-0.225c-0.617-0.144-1.236-0.285-1.855-0.417l-0.045-0.01l-0.039-0.025
			c-0.045-0.03-0.068-0.05-0.1-0.074c-0.029-0.026-0.059-0.051-0.084-0.079c-0.053-0.055-0.102-0.117-0.145-0.186
			c-0.084-0.137-0.135-0.314-0.121-0.489c0.002-0.041,0.004-0.087,0.016-0.127c0.01-0.04,0.021-0.079,0.033-0.119
			c0.012-0.042,0.031-0.072,0.049-0.109c0.018-0.034,0.033-0.072,0.055-0.101c0.082-0.126,0.176-0.23,0.273-0.323l0.15-0.13
			c0.055-0.041,0.115-0.077,0.172-0.115c0.029-0.019,0.059-0.039,0.088-0.057l0.092-0.042c0.061-0.028,0.121-0.061,0.184-0.082
			c0.125-0.04,0.248-0.089,0.375-0.111c0.063-0.014,0.125-0.03,0.189-0.04l0.189-0.024c0.504-0.057,1.002-0.011,1.488,0.081
			c0.121,0.021,0.242,0.055,0.363,0.084c0.119,0.037,0.24,0.068,0.357,0.115c0.238,0.089,0.473,0.188,0.701,0.38l-0.209-0.06
			c0.443-0.054,0.852,0.016,1.242,0.106c0.393,0.092,0.766,0.223,1.131,0.368c0.73,0.292,1.428,0.641,2.102,1.038l-0.098-0.018
			c0.271-0.025,0.543-0.036,0.813-0.01c0.268,0.022,0.533,0.061,0.791,0.123C62.182,40.496,62.684,40.679,63.148,40.926"/>
		<path fill="#231F20" d="M59.943,42.593c-0.861,0.086-1.723,0.148-2.588,0.189c-0.43,0.024-0.863,0.039-1.295,0.05
			c-0.428,0.012-0.85,0.054-1.266,0.141c-0.412,0.085-0.818,0.209-1.193,0.387c-0.188,0.088-0.367,0.192-0.531,0.311
			c-0.164,0.119-0.314,0.257-0.424,0.409c-0.055,0.077-0.102,0.158-0.129,0.24l-0.02,0.061l-0.012,0.061l-0.008,0.062l-0.002,0.072
			c-0.004,0.097,0.01,0.187,0.031,0.246c0.025,0.061,0.039,0.07,0.096,0.089c0.057,0.017,0.152,0.017,0.25,0.008
			c0.098-0.008,0.205-0.022,0.313-0.036c0.217-0.031,0.447-0.046,0.664-0.053c0.875-0.026,1.742-0.008,2.609,0.043
			c0.436,0.026,0.869,0.062,1.303,0.11l0.328,0.038l0.326,0.048l0.637,0.105c0.834,0.119,1.697,0.173,2.555,0.222
			c0.857,0.046,1.719,0.078,2.58,0.105l1.295,0.045c0.217,0.009,0.43,0.015,0.654,0.029c0.234,0.015,0.457,0.055,0.672,0.092
			c0.213,0.039,0.426,0.079,0.633,0.114c0.205,0.034,0.42,0.066,0.59,0.062c0.041,0,0.076-0.006,0.084-0.009
			c0,0.002,0.02-0.006,0.031-0.011l0.037-0.013l0.074-0.028l0.301-0.114l0.6-0.234c0.799-0.317,1.592-0.651,2.379-0.998
			c0.787-0.35,1.578-0.703,2.381-1.031c0.803-0.331,1.613-0.646,2.445-0.903c0.416-0.127,0.836-0.247,1.27-0.331
			c0.43-0.085,0.867-0.143,1.305-0.166c0.436-0.022,0.873-0.02,1.309,0.013c0.436,0.035,0.867,0.089,1.293,0.175
			c0.854,0.169,1.682,0.438,2.479,0.774c-0.41-0.138-0.82-0.27-1.24-0.369c-0.416-0.109-0.84-0.188-1.264-0.253
			c-0.424-0.061-0.852-0.097-1.279-0.112c-0.426-0.011-0.852,0.005-1.277,0.045c-0.424,0.039-0.844,0.107-1.256,0.205
			c-0.414,0.096-0.82,0.228-1.225,0.367c-0.807,0.281-1.602,0.606-2.387,0.954c-0.787,0.349-1.566,0.718-2.352,1.078
			c-0.787,0.36-1.582,0.71-2.383,1.041c-0.201,0.083-0.4,0.164-0.602,0.244l-0.307,0.118l-0.076,0.029l-0.039,0.015
			c-0.016,0.005-0.02,0.009-0.047,0.015c-0.094,0.03-0.166,0.033-0.234,0.038c-0.26,0.005-0.477-0.032-0.697-0.065
			c-0.217-0.035-0.43-0.076-0.641-0.112s-0.414-0.071-0.613-0.082c-0.205-0.012-0.424-0.018-0.637-0.025l-1.295-0.039
			c-0.863-0.032-1.729-0.068-2.594-0.119c-0.432-0.026-0.863-0.054-1.299-0.092c-0.432-0.036-0.867-0.082-1.305-0.152l-0.637-0.116
			l-0.316-0.051l-0.314-0.041c-0.424-0.054-0.85-0.096-1.275-0.128c-0.428-0.033-0.855-0.054-1.285-0.07
			c-0.428-0.018-0.857-0.029-1.283-0.025c-0.215,0.002-0.414,0.01-0.625,0.033c-0.107,0.011-0.217,0.024-0.332,0.03
			c-0.119,0.005-0.242,0.013-0.393-0.03c-0.037-0.012-0.076-0.024-0.115-0.049c-0.018-0.01-0.037-0.021-0.055-0.033
			c-0.018-0.015-0.033-0.029-0.051-0.045c-0.066-0.063-0.107-0.142-0.131-0.212c-0.047-0.143-0.051-0.272-0.045-0.392l0.004-0.09
			l0.014-0.1l0.023-0.097l0.033-0.092c0.047-0.12,0.113-0.227,0.188-0.323c0.15-0.192,0.33-0.344,0.52-0.471
			c0.189-0.129,0.389-0.234,0.596-0.322c0.41-0.177,0.842-0.293,1.275-0.364c0.436-0.071,0.877-0.095,1.313-0.088
			c0.432,0.009,0.863,0.01,1.295,0.013c0.43,0.001,0.863-0.002,1.293-0.008C59.08,42.617,59.51,42.607,59.943,42.593"/>
		<path fill="#231F20" d="M59.66,42.988c0.385-0.147,0.771-0.284,1.16-0.415c0.391-0.132,0.781-0.258,1.172-0.38l0.078-0.023
			l0.043,0.072c0.072,0.131,0.131,0.26,0.186,0.396c0.053,0.135,0.1,0.272,0.135,0.415c0.068,0.284,0.094,0.594-0.006,0.896
			l-0.02,0.058l-0.063,0.013c-0.445,0.089-0.891,0.173-1.338,0.252c-0.449,0.076-0.896,0.15-1.35,0.208
			c0.436-0.131,0.877-0.244,1.318-0.357c0.443-0.108,0.887-0.214,1.33-0.313l-0.082,0.069c0.039-0.119,0.053-0.247,0.049-0.379
			c-0.004-0.131-0.027-0.263-0.057-0.395s-0.072-0.262-0.119-0.389c-0.051-0.126-0.105-0.256-0.166-0.374l0.119,0.049
			c-0.395,0.11-0.793,0.217-1.189,0.317C60.463,42.809,60.064,42.904,59.66,42.988"/>
	</g>
</g>
</svg>
