<?xml version="1.0" encoding="utf-8"?>
<!-- Generator: Adobe Illustrator 16.0.0, SVG Export Plug-In . SVG Version: 6.00 Build 0)  -->
<!DOCTYPE svg PUBLIC "-//W3C//DTD SVG 1.1//EN" "http://www.w3.org/Graphics/SVG/1.1/DTD/svg11.dtd">
<svg version="1.1" id="Camada_1" xmlns="http://www.w3.org/2000/svg" xmlns:xlink="http://www.w3.org/1999/xlink" x="0px" y="0px"
	 width="85px" height="55px" viewBox="0 0 85 55" enable-background="new 0 0 85 55" xml:space="preserve">
<g>
	<path fill-rule="evenodd" clip-rule="evenodd" fill="#F29100" d="M27.548,21.74c0,0-6.539,0-7.573,0
		c-1.023,0-2.22-0.043-2.888,0.506c-0.754,0.614-0.894,1.293-0.991,1.594c-0.097,0.28-1.152,3.222-1.152,3.222
		s-0.355,0.904,0.097,1.508c0.453,0.604,1.207,0.808,1.691,0.808c0.496,0,4.567,0,4.567,0s0.27-0.021,0.302,0.065
		c0.043,0.097-0.097,0.484-0.236,0.829c-0.13,0.334-0.248,0.732-0.475,0.732c-0.754,0-7.497,0-7.497,0l-1.078,2.984h9.427
		c0,0,0.775,0.075,1.604-0.571c0.83-0.646,1.282-2.413,1.282-2.413l0.732-2.058c0,0,0.355-0.905,0.043-1.476
		c-0.313-0.571-0.775-1.023-1.476-1.023s-4.891,0-4.891,0s-0.291,0.011-0.259-0.172c0.043-0.194,0.248-0.7,0.302-0.851
		c0.064-0.151,0.237-0.711,0.561-0.711c0.334,0,6.873,0,6.873,0L27.548,21.74L27.548,21.74z"/>
	<polygon fill-rule="evenodd" clip-rule="evenodd" fill="#F29100" points="28.032,33.989 31.728,33.989 35.056,24.714 
		38.935,24.714 40.076,21.74 28.582,21.74 27.548,24.714 31.264,24.714 28.032,33.989 	"/>
	<polygon fill-rule="evenodd" clip-rule="evenodd" fill="#F29100" points="36.769,33.989 40.453,33.989 44.838,21.74 41.207,21.74 
		36.769,33.989 	"/>
	<polygon fill-rule="evenodd" clip-rule="evenodd" fill="#F29100" points="47.499,21.74 51.021,21.74 49.557,26.071 54.06,26.071 
		55.686,21.74 59.154,21.74 54.824,33.989 51.237,33.989 52.972,28.947 48.479,28.947 46.637,33.989 43.104,33.989 47.499,21.74 	
		"/>
	<polygon fill-rule="evenodd" clip-rule="evenodd" fill="#F29100" points="61.762,21.74 65.446,21.74 62.247,31.005 70.057,31.005 
		69.076,33.989 57.366,33.989 61.762,21.74 	"/>
	<path fill-rule="evenodd" clip-rule="evenodd" fill="#F29100" d="M70.639,25.112c1.131,0,2.047-0.916,2.047-2.047
		c0-1.142-0.916-2.058-2.047-2.058c-1.143,0-2.047,0.916-2.047,2.058C68.592,24.197,69.496,25.112,70.639,25.112L70.639,25.112z
		 M70.639,24.627c-0.894,0-1.563-0.657-1.563-1.562c0-0.916,0.669-1.573,1.563-1.573c0.873,0,1.562,0.657,1.562,1.573
		C72.2,23.97,71.512,24.627,70.639,24.627L70.639,24.627z M71.102,23.206c0.377-0.032,0.582-0.183,0.582-0.582
		c0-0.56-0.334-0.646-0.83-0.646H69.82V24.1h0.474v-0.894h0.334l0.474,0.894h0.517L71.102,23.206L71.102,23.206z M70.294,22.882
		v-0.539h0.463c0.205,0,0.484,0,0.484,0.215c0,0.27-0.14,0.323-0.377,0.323H70.294L70.294,22.882z"/>
</g>
</svg>
