<?xml version="1.0" encoding="utf-8"?>
<!-- Generator: Adobe Illustrator 16.0.0, SVG Export Plug-In . SVG Version: 6.00 Build 0)  -->
<!DOCTYPE svg PUBLIC "-//W3C//DTD SVG 1.1//EN" "http://www.w3.org/Graphics/SVG/1.1/DTD/svg11.dtd">
<svg version="1.1" id="Camada_1" xmlns="http://www.w3.org/2000/svg" xmlns:xlink="http://www.w3.org/1999/xlink" x="0px" y="0px"
	 width="85px" height="55px" viewBox="0 0 85 55" enable-background="new 0 0 85 55" xml:space="preserve">
<g>
	<polygon fill-rule="evenodd" clip-rule="evenodd" fill="#00406F" points="9.911,36.813 28.489,36.813 28.489,18.187 9.911,18.187 
		9.911,36.813 	"/>
	<path fill-rule="evenodd" clip-rule="evenodd" fill="#FFFFFF" d="M19.435,34.739h1.302v-0.617c0.484,0.448,1.165,0.806,2.104,0.806
		c2.514,0,3.773-2.06,3.773-3.834c0-1.775-1.247-3.841-3.735-3.841c-2.487,0-3.429,2.225-3.429,2.225l1.126,0.674
		c0,0,0.776-1.471,2.278-1.471c1.501,0,2.373,1.3,2.373,2.413s-0.884,2.397-2.398,2.397c-1.049,0-1.647-0.639-1.915-1.031h1.928
		v-1.373h-3.406V34.739L19.435,34.739z"/>
	<path fill-rule="evenodd" clip-rule="evenodd" fill="#FFFFFF" d="M18.94,34.739h-1.301v-0.617
		c-0.484,0.448-1.165,0.806-2.104,0.806c-2.513,0-3.773-2.06-3.773-3.834c0-1.775,1.247-3.841,3.735-3.841
		c2.488,0,3.429,2.225,3.429,2.225L17.8,30.151c0,0-0.776-1.471-2.277-1.471s-2.374,1.3-2.374,2.413s0.885,2.397,2.399,2.397
		c1.049,0,1.647-0.639,1.915-1.031h-1.928v-1.373h3.406V34.739L18.94,34.739z"/>
	<path fill-rule="evenodd" clip-rule="evenodd" fill="#00406F" d="M38.056,34.862h1.726v-4.329h-3.728v1.488l1.929,0.009
		c-0.374,0.675-0.871,1.31-1.758,1.302c-0.977,0.05-1.937-0.772-1.961-2.132c-0.041-1.474,0.985-2.254,1.896-2.223
		c0.563,0.025,1.237,0.326,1.441,0.944l1.767-0.838c-0.749-1.245-1.97-1.879-3.142-1.831c-2.206-0.018-3.947,1.359-4.021,3.865
		c0,2.4,1.897,3.744,3.533,3.843c1.025,0.057,1.855-0.334,2.319-0.93V34.862L38.056,34.862z M41.067,34.87h5.12v-1.619h-3.093
		v-1.456h2.604v-1.571h-2.596v-1.277h3.085v-1.644h-5.12V34.87L41.067,34.87z M68.749,27.303l0.008,4.735
		c0,1.831,1.116,2.872,3.175,2.832c1.993-0.041,2.987-0.919,3.157-2.815v-4.752h-2.001v4.523c0.049,0.766-0.343,1.246-1.156,1.271
		c-0.757,0.016-1.262-0.383-1.196-1.271v-4.523H68.749L68.749,27.303z M50.172,30.856c0.631-0.058,0.91-0.377,0.927-0.966
		c0.016-0.558-0.247-0.926-0.927-0.991c-0.146-0.017-0.312-0.009-0.49,0h-0.427v1.941l0.631,0.016
		C49.983,30.865,50.083,30.865,50.172,30.856L50.172,30.856z M50.172,27.309c0.787,0.026,1.418,0.116,1.941,0.5
		c0.59,0.459,0.894,1.09,0.894,1.884c0,1.18-0.615,1.9-1.737,2.162l2.188,3.016h-2.449l-0.836-1.303l-0.917-1.442v2.745h-1.982
		v-7.568h2.343C49.804,27.303,49.992,27.309,50.172,27.309L50.172,27.309z M57.432,27.335c0.654,0.064,1.195,0.253,1.67,0.58
		c0.894,0.671,1.564,1.705,1.605,3.179c-0.041,1.729-0.9,2.816-1.843,3.343c-0.401,0.196-0.86,0.327-1.433,0.392
		c-0.279,0.033-0.575,0.042-0.902,0.042h-2.252v-7.568h2.638C57.087,27.309,57.259,27.318,57.432,27.335L57.432,27.335z
		 M57.432,33.036c0.712-0.173,1.179-0.737,1.146-1.99c-0.032-1.181-0.459-1.729-1.146-1.91c-0.156-0.04-0.329-0.064-0.501-0.073
		h-0.646v4.022h0.622C57.087,33.085,57.267,33.068,57.432,33.036L57.432,33.036z M64.521,27.309h1.146l2.777,7.562h-2.171
		l-0.41-1.393h-2.702l-0.377,1.393h-2.138l2.62-7.562H64.521L64.521,27.309z M64.521,31.914h0.884l-0.884-2.671l-0.059-0.181
		l-0.827,2.852H64.521L64.521,31.914z"/>
</g>
</svg>
