<?xml version="1.0" encoding="utf-8"?>
<!-- Generator: Adobe Illustrator 16.0.0, SVG Export Plug-In . SVG Version: 6.00 Build 0)  -->
<!DOCTYPE svg PUBLIC "-//W3C//DTD SVG 1.1//EN" "http://www.w3.org/Graphics/SVG/1.1/DTD/svg11.dtd">
<svg version="1.1" id="Camada_1" xmlns="http://www.w3.org/2000/svg" xmlns:xlink="http://www.w3.org/1999/xlink" x="0px" y="0px"
	 width="85px" height="55px" viewBox="0 0 85 55" enable-background="new 0 0 85 55" xml:space="preserve">
<g>
	<g>
		<path fill="#231F20" d="M10.697,34.778v1.053h1.451v0.177h-1.451v1.161h-0.19v-2.566h1.807v0.176H10.697z"/>
		<path fill="#231F20" d="M15.35,37.169l-0.326-0.719H13.51l-0.326,0.719h-0.198l1.195-2.584h0.184l1.194,2.584H15.35z
			 M14.269,34.793l-0.678,1.485h1.353L14.269,34.793z"/>
		<path fill="#231F20" d="M18.919,37.169V34.94l-1.016,1.478h-0.015l-1.016-1.478v2.229H16.69v-2.566h0.18l1.029,1.519l1.03-1.519
			h0.18v2.566H18.919z"/>
		<path fill="#231F20" d="M20.482,37.169v-2.566h0.19v2.566H20.482z"/>
		<path fill="#231F20" d="M22.049,37.169v-2.566h0.19v2.391h1.506v0.176H22.049z"/>
		<path fill="#231F20" d="M25.455,36.15v1.019h-0.19v-1.015l-1.1-1.552h0.238l0.96,1.379l0.965-1.379h0.227L25.455,36.15z"/>
		<path fill="#231F20" d="M30.502,37.213c-0.777,0-1.286-0.619-1.286-1.319v-0.009c0-0.698,0.517-1.326,1.293-1.326
			c0.777,0,1.287,0.62,1.287,1.32c0.004,0.003,0.004,0.003,0,0.006C31.796,36.585,31.279,37.213,30.502,37.213z M31.598,35.885
			c0-0.633-0.461-1.152-1.096-1.152s-1.089,0.512-1.089,1.146v0.006c0,0.635,0.462,1.156,1.096,1.156s1.089-0.514,1.089-1.147
			V35.885z"/>
		<path fill="#231F20" d="M33.224,34.778v1.053h1.452v0.177h-1.452v1.161h-0.19v-2.566h1.807v0.176H33.224z"/>
		<path fill="#231F20" d="M36.216,34.778v1.053h1.452v0.177h-1.452v1.161h-0.189v-2.566h1.807v0.176H36.216z"/>
		<path fill="#231F20" d="M39.045,37.169v-2.566h0.189v2.566H39.045z"/>
		<path fill="#231F20" d="M41.772,37.213c-0.733,0-1.275-0.582-1.275-1.319v-0.009c0-0.725,0.542-1.326,1.282-1.326
			c0.459,0,0.734,0.169,0.997,0.411l-0.135,0.14c-0.225-0.217-0.48-0.377-0.865-0.377c-0.616,0-1.081,0.501-1.081,1.146v0.006
			c0,0.649,0.472,1.156,1.084,1.156c0.371,0,0.623-0.145,0.884-0.4l0.128,0.125C42.52,37.034,42.228,37.213,41.772,37.213z"/>
		<path fill="#231F20" d="M43.904,37.169v-2.566h1.824v0.176h-1.634v1.008h1.47v0.176h-1.47v1.031h1.653v0.176H43.904z"/>
	</g>
	<g>
		<path fill="#F48120" d="M13.963,28.201c0,0.999-0.172,1.741-0.516,2.228s-0.867,0.729-1.572,0.729
			c-0.704,0-1.229-0.243-1.572-0.729S9.787,29.2,9.787,28.201V15.548c0-1.115,0.214-1.882,0.641-2.303
			c0.429-0.419,1.175-0.629,2.24-0.629h3.761c2.071,0,3.706,0.561,4.906,1.68c1.198,1.119,1.798,2.635,1.798,4.548
			c0,1.945-0.562,3.467-1.686,4.565c-1.124,1.099-2.684,1.648-4.68,1.648h-2.805V28.201z M13.963,21.271h1.799
			c0.948,0,1.66-0.203,2.139-0.61c0.478-0.406,0.717-1.012,0.717-1.816c0-0.814-0.232-1.415-0.698-1.805s-1.185-0.585-2.157-0.585
			h-1.799V21.271z"/>
		<path fill="#F48120" d="M25.083,25.397v-5.41c0-0.997,0.168-1.738,0.503-2.22c0.336-0.482,0.847-0.724,1.535-0.724
			c0.68,0,1.184,0.242,1.515,0.724c0.332,0.482,0.498,1.223,0.498,2.22v4.579c0,1.083,0.163,1.847,0.49,2.297
			c0.327,0.448,0.859,0.673,1.598,0.673s1.271-0.225,1.598-0.673c0.327-0.45,0.49-1.214,0.49-2.297v-4.579
			c0-0.997,0.166-1.738,0.497-2.22s0.845-0.724,1.541-0.724c0.68,0,1.183,0.239,1.51,0.718c0.327,0.478,0.49,1.22,0.49,2.226v5.41
			c0,1.929-0.524,3.402-1.572,4.422c-1.049,1.019-2.566,1.528-4.554,1.528s-3.508-0.51-4.56-1.528
			C25.608,28.8,25.083,27.326,25.083,25.397z"/>
		<path fill="#F48120" d="M40.09,28.152v-8.165c0-0.997,0.165-1.738,0.497-2.22c0.331-0.482,0.84-0.724,1.528-0.724
			c0.411,0,0.775,0.108,1.095,0.32c0.317,0.214,0.599,0.539,0.843,0.976c0.418-0.453,0.863-0.795,1.333-1.025
			c0.469-0.231,0.943-0.347,1.421-0.347c0.563,0,1.046,0.2,1.454,0.599c0.406,0.397,0.609,0.869,0.609,1.415
			c0,0.813-0.747,1.492-2.238,2.038c-0.538,0.192-0.94,0.352-1.209,0.478c-0.512,0.243-0.852,0.514-1.019,0.811
			c-0.168,0.299-0.251,0.837-0.251,1.618v4.227c0,0.998-0.169,1.741-0.504,2.228c-0.336,0.485-0.847,0.729-1.534,0.729
			c-0.688,0-1.197-0.243-1.528-0.729C40.255,29.894,40.09,29.15,40.09,28.152z"/>
		<path fill="#F48120" d="M58.631,29.699c-0.41,0.504-0.907,0.887-1.49,1.152c-0.583,0.263-1.219,0.396-1.905,0.396
			c-1.736,0-3.198-0.685-4.385-2.051c-1.187-1.367-1.779-3.074-1.779-5.119c0-2.022,0.612-3.726,1.836-5.108
			c1.225-1.383,2.718-2.076,4.479-2.076c0.688,0,1.298,0.118,1.83,0.353c0.533,0.236,1.005,0.6,1.415,1.095
			c0.235-0.428,0.517-0.75,0.844-0.968c0.326-0.218,0.691-0.328,1.094-0.328c0.68,0,1.183,0.239,1.51,0.718
			c0.327,0.478,0.49,1.22,0.49,2.226v8.165c0,0.998-0.166,1.741-0.496,2.228c-0.332,0.485-0.833,0.729-1.504,0.729
			c-0.453,0-0.834-0.113-1.145-0.339C59.113,30.542,58.849,30.186,58.631,29.699z M53.272,24.026c0,0.998,0.243,1.801,0.73,2.41
			c0.485,0.607,1.118,0.911,1.898,0.911c0.764,0,1.388-0.309,1.875-0.924c0.486-0.617,0.729-1.415,0.729-2.396
			c0-0.956-0.246-1.736-0.736-2.341c-0.49-0.603-1.113-0.905-1.868-0.905c-0.771,0-1.402,0.3-1.893,0.899
			C53.518,22.279,53.272,23.061,53.272,24.026z"/>
		<path fill="#F48120" d="M69.273,31.323c-1.451,0-2.652-0.29-3.604-0.869c-0.952-0.578-1.427-1.296-1.427-2.15
			c0-0.513,0.15-0.944,0.452-1.296c0.302-0.352,0.667-0.528,1.095-0.528s1.057,0.197,1.887,0.591s1.454,0.591,1.875,0.591
			c0.334,0,0.607-0.08,0.817-0.239c0.209-0.16,0.314-0.356,0.314-0.591c0-0.403-0.65-0.865-1.95-1.385
			c-0.117-0.049-0.201-0.083-0.251-0.1c-1.493-0.621-2.513-1.235-3.058-1.843s-0.817-1.377-0.817-2.307
			c0-1.251,0.479-2.292,1.44-3.127c0.96-0.834,2.175-1.25,3.642-1.25c1.325,0,2.449,0.281,3.371,0.842
			c0.922,0.563,1.384,1.226,1.384,1.988c0,0.478-0.162,0.881-0.484,1.207c-0.323,0.328-0.719,0.491-1.188,0.491
			c-0.311,0-0.836-0.163-1.579-0.491c-0.742-0.326-1.307-0.491-1.692-0.491c-0.275,0-0.498,0.065-0.666,0.195
			c-0.168,0.129-0.252,0.3-0.252,0.509c0,0.377,0.537,0.771,1.61,1.182c0.503,0.194,0.901,0.356,1.195,0.491
			c1.216,0.546,2.082,1.122,2.598,1.729c0.516,0.608,0.773,1.345,0.773,2.208c0,1.325-0.518,2.43-1.554,3.315
			C72.169,30.88,70.858,31.323,69.273,31.323z"/>
	</g>
	<g>
		<path fill="#231F20" d="M72.684,33.166c-0.606-0.254-1.254-0.394-1.901-0.412c-0.648-0.021-1.293,0.077-1.912,0.258
			c-0.618,0.184-1.215,0.44-1.779,0.755c-0.563,0.316-1.104,0.675-1.614,1.075l-0.005,0.003l-0.011,0.007
			c-0.364,0.235-0.723,0.495-1.082,0.754L63.3,36.388c-0.363,0.259-0.721,0.518-1.115,0.758c-0.053,0.031-0.104,0.062-0.158,0.088
			s-0.109,0.054-0.163,0.075l-0.159,0.067l-0.159,0.062c-0.212,0.079-0.424,0.152-0.637,0.223c-0.425,0.141-0.851,0.271-1.277,0.398
			c-0.425,0.125-0.859,0.253-1.286,0.361c-0.196,0.057-0.399,0.137-0.596,0.221c-0.197,0.085-0.391,0.18-0.576,0.286
			c-0.186,0.104-0.364,0.22-0.522,0.351c-0.157,0.129-0.299,0.279-0.369,0.434l-0.017,0.038l-0.026,0.024
			c-0.083,0.08-0.159,0.157-0.208,0.233c-0.05,0.075-0.072,0.146-0.074,0.232c0,0.042,0.006,0.089,0.016,0.137
			c0.011,0.05,0.024,0.103,0.041,0.148c0.017,0.047,0.035,0.092,0.058,0.131c0.011,0.02,0.022,0.037,0.034,0.052
			c0.006,0.007,0.012,0.015,0.016,0.019l0.006,0.006l0.001,0.001h-0.001l-0.008-0.005l0.089,0.152c0-0.021-0.001-0.021-0.003-0.026
			l-0.002-0.01c-0.002-0.005-0.003-0.008-0.004-0.011c-0.004-0.004-0.005-0.006-0.005-0.006s0.004,0.006,0.014,0.011
			c0.015,0.012,0.049,0.023,0.08,0.033c0.07,0.019,0.156,0.027,0.241,0.032c0.176,0.006,0.354-0.012,0.547-0.027
			c0.38-0.031,0.756-0.058,1.13-0.097c0.746-0.081,1.495-0.185,2.189-0.443c0.169-0.066,0.345-0.146,0.521-0.219
			c0.176-0.073,0.354-0.143,0.531-0.21c0.356-0.135,0.717-0.259,1.083-0.368c0.365-0.106,0.736-0.199,1.113-0.259
			c0.188-0.029,0.379-0.048,0.57-0.051c0.19-0.003,0.383,0.013,0.564,0.069c-0.185-0.045-0.376-0.048-0.563-0.032
			c-0.188,0.015-0.374,0.047-0.559,0.085c-0.368,0.078-0.729,0.19-1.086,0.315c-0.354,0.124-0.706,0.264-1.054,0.412
			c-0.173,0.074-0.345,0.151-0.516,0.23c-0.172,0.081-0.338,0.163-0.52,0.241c-0.359,0.153-0.732,0.255-1.107,0.339
			c-0.376,0.085-0.754,0.147-1.133,0.195c-0.379,0.05-0.759,0.086-1.135,0.127c-0.183,0.019-0.382,0.045-0.588,0.042
			c-0.103-0.003-0.208-0.007-0.321-0.036c-0.059-0.017-0.116-0.032-0.182-0.071c-0.031-0.02-0.065-0.044-0.097-0.08
			c-0.016-0.018-0.032-0.038-0.045-0.064c-0.007-0.013-0.013-0.026-0.019-0.043c-0.003-0.008-0.006-0.015-0.008-0.026
			s-0.004-0.017-0.006-0.044l0.089,0.153l-0.017-0.012l-0.01-0.008l-0.017-0.013c-0.01-0.009-0.018-0.017-0.026-0.023
			c-0.017-0.017-0.03-0.032-0.043-0.048c-0.025-0.032-0.048-0.063-0.066-0.095c-0.039-0.064-0.067-0.13-0.091-0.193
			c-0.024-0.064-0.041-0.129-0.057-0.194c-0.015-0.068-0.026-0.141-0.026-0.218c0-0.076,0.01-0.154,0.033-0.23
			c0.021-0.075,0.057-0.146,0.096-0.208c0.08-0.125,0.174-0.219,0.26-0.305l-0.043,0.062c0.113-0.252,0.29-0.43,0.469-0.585
			c0.183-0.154,0.377-0.282,0.575-0.4c0.4-0.231,0.809-0.421,1.263-0.56c0.434-0.113,0.852-0.237,1.277-0.363
			c0.423-0.13,0.845-0.263,1.262-0.402c0.209-0.069,0.417-0.143,0.62-0.218l0.153-0.059l0.146-0.06
			c0.049-0.021,0.094-0.044,0.141-0.064c0.045-0.023,0.089-0.049,0.134-0.074c0.364-0.218,0.728-0.479,1.088-0.732
			c0.724-0.512,1.431-1.046,2.195-1.529l-0.016,0.01c0.536-0.397,1.098-0.763,1.694-1.064c0.596-0.301,1.221-0.555,1.874-0.709
			c0.326-0.077,0.656-0.132,0.99-0.161c0.335-0.026,0.67-0.024,1.002,0.007C71.457,32.656,72.104,32.854,72.684,33.166"/>
		<path fill="#231F20" d="M62.944,36.377c-0.174-0.051-0.346-0.101-0.52-0.143c-0.173-0.045-0.348-0.081-0.521-0.116
			c-0.172-0.032-0.346-0.054-0.518-0.07c-0.172-0.012-0.341-0.015-0.504,0.002l-0.038,0.003l-0.051-0.021
			c-0.356-0.148-0.72-0.279-1.086-0.371c-0.183-0.048-0.366-0.082-0.548-0.101c-0.18-0.018-0.358-0.015-0.521,0.018l-0.068,0.013
			l-0.056-0.021c-0.234-0.095-0.464-0.187-0.698-0.258c-0.232-0.069-0.469-0.128-0.707-0.146c-0.239-0.021-0.479,0-0.714,0.065
			c-0.114,0.039-0.234,0.079-0.337,0.14c-0.052,0.03-0.101,0.067-0.141,0.112c-0.039,0.044-0.072,0.101-0.073,0.164
			c-0.021-0.063-0.002-0.134,0.028-0.193c0.029-0.063,0.075-0.115,0.124-0.161c0.049-0.05,0.103-0.089,0.158-0.127
			c0.057-0.035,0.114-0.07,0.173-0.102c0.24-0.126,0.514-0.184,0.785-0.201c0.271-0.015,0.541,0.021,0.801,0.08
			c0.261,0.057,0.512,0.142,0.753,0.229l-0.124-0.009c0.225-0.054,0.445-0.057,0.658-0.038c0.213,0.02,0.418,0.063,0.617,0.117
			c0.398,0.111,0.773,0.269,1.133,0.455l-0.09-0.016c0.196-0.002,0.386,0.021,0.571,0.058c0.183,0.038,0.36,0.094,0.534,0.153
			c0.173,0.061,0.34,0.137,0.504,0.215C62.634,36.189,62.794,36.275,62.944,36.377"/>
		<path fill="#231F20" d="M61.21,37.326c-0.26-0.096-0.52-0.187-0.78-0.272s-0.523-0.163-0.785-0.235
			c-0.133-0.035-0.263-0.07-0.396-0.098c-0.132-0.033-0.265-0.059-0.396-0.086c-0.266-0.047-0.53-0.08-0.793-0.095l-0.033-0.003
			l-0.04-0.018c-0.211-0.096-0.434-0.183-0.659-0.26c-0.227-0.079-0.456-0.147-0.687-0.213s-0.463-0.121-0.695-0.169
			c-0.232-0.047-0.466-0.086-0.693-0.102l-0.035-0.003l-0.026-0.011c-0.313-0.113-0.642-0.217-0.967-0.306
			c-0.327-0.089-0.656-0.169-0.987-0.204c-0.163-0.016-0.331-0.031-0.489-0.013c-0.082,0.002-0.152,0.026-0.23,0.041
			c-0.076,0.026-0.153,0.051-0.227,0.089c-0.143,0.072-0.277,0.17-0.371,0.304c-0.094,0.133-0.152,0.299-0.15,0.472
			c-0.04-0.169-0.016-0.357,0.064-0.521c0.077-0.169,0.215-0.306,0.366-0.409c0.076-0.053,0.158-0.095,0.24-0.136
			c0.088-0.03,0.18-0.07,0.271-0.083c0.046-0.007,0.093-0.019,0.138-0.023l0.137-0.013c0.092-0.011,0.181-0.005,0.271-0.008
			c0.36,0.011,0.711,0.063,1.057,0.134c0.347,0.073,0.682,0.165,1.021,0.278l-0.062-0.013c0.261,0.012,0.511,0.048,0.758,0.096
			s0.49,0.109,0.729,0.18c0.24,0.068,0.476,0.148,0.71,0.235c0.233,0.092,0.465,0.188,0.691,0.309l-0.074-0.021
			c0.287,0.031,0.566,0.088,0.839,0.16c0.135,0.039,0.271,0.076,0.404,0.121c0.132,0.044,0.264,0.095,0.394,0.144
			c0.26,0.103,0.513,0.218,0.762,0.341C60.733,37.043,60.978,37.177,61.21,37.326"/>
		<path fill="#231F20" d="M58.777,38.083c-0.194-0.074-0.393-0.131-0.592-0.18c-0.199-0.052-0.401-0.089-0.604-0.115
			c-0.201-0.031-0.405-0.041-0.605-0.041c-0.203,0-0.402,0.021-0.598,0.054l-0.038,0.006l-0.039-0.021
			c-0.269-0.134-0.544-0.259-0.82-0.377c-0.277-0.119-0.558-0.229-0.84-0.326c-0.141-0.051-0.284-0.093-0.426-0.135l-0.214-0.06
			l-0.215-0.049c-0.283-0.058-0.575-0.093-0.831-0.052l-0.09,0.015l-0.075-0.062c-0.108-0.086-0.271-0.159-0.431-0.216
			c-0.079-0.031-0.165-0.052-0.249-0.077c-0.085-0.019-0.169-0.043-0.257-0.057c-0.346-0.063-0.703-0.09-1.044-0.048l-0.127,0.015
			c-0.042,0.006-0.083,0.018-0.124,0.024c-0.084,0.015-0.159,0.044-0.238,0.067c-0.039,0.015-0.073,0.033-0.109,0.048l-0.055,0.024
			c-0.017,0.011-0.033,0.022-0.049,0.032c-0.032,0.021-0.064,0.039-0.097,0.063l-0.093,0.079c-0.117,0.106-0.204,0.229-0.206,0.326
			c-0.004,0.048,0.008,0.095,0.035,0.146c0.014,0.025,0.032,0.051,0.055,0.074c0.01,0.014,0.023,0.025,0.034,0.037
			c0.011,0.008,0.028,0.022,0.031,0.025l-0.065-0.027c0.489,0.121,0.977,0.241,1.462,0.377c0.243,0.07,0.485,0.14,0.727,0.216
			c0.243,0.077,0.481,0.148,0.727,0.261l0.093,0.046l0.078,0.041l0.166,0.081c0.112,0.053,0.226,0.104,0.34,0.155l0.687,0.309
			c0.229,0.102,0.458,0.208,0.686,0.318c0.112,0.056,0.226,0.112,0.335,0.173c0.108,0.063,0.225,0.121,0.313,0.21
			c-0.099-0.077-0.219-0.118-0.334-0.166c-0.116-0.045-0.233-0.089-0.352-0.133l-0.709-0.248c-0.237-0.085-0.475-0.165-0.712-0.251
			c-0.117-0.044-0.236-0.087-0.354-0.134l-0.179-0.071l-0.09-0.041l-0.08-0.032c-0.218-0.081-0.465-0.144-0.703-0.206
			c-0.24-0.064-0.483-0.121-0.727-0.178c-0.487-0.112-0.976-0.225-1.463-0.328l-0.036-0.008l-0.03-0.02
			c-0.036-0.024-0.054-0.039-0.079-0.06c-0.022-0.021-0.046-0.039-0.065-0.063c-0.042-0.042-0.08-0.092-0.113-0.146
			c-0.067-0.107-0.106-0.248-0.097-0.386c0.003-0.032,0.004-0.068,0.012-0.101c0.009-0.03,0.018-0.063,0.027-0.093
			c0.009-0.034,0.024-0.058,0.038-0.086c0.015-0.028,0.026-0.059,0.044-0.08c0.063-0.1,0.139-0.183,0.215-0.255l0.119-0.103
			c0.043-0.031,0.09-0.061,0.135-0.092c0.023-0.014,0.046-0.03,0.069-0.043l0.072-0.034c0.048-0.021,0.096-0.048,0.145-0.065
			c0.099-0.03,0.196-0.069,0.297-0.087c0.049-0.01,0.099-0.023,0.148-0.03l0.149-0.021c0.397-0.044,0.79-0.009,1.174,0.063
			c0.096,0.018,0.19,0.044,0.286,0.067c0.094,0.029,0.188,0.054,0.282,0.09c0.188,0.07,0.372,0.148,0.553,0.3l-0.166-0.046
			c0.351-0.044,0.672,0.012,0.98,0.083c0.309,0.072,0.603,0.176,0.891,0.291c0.576,0.229,1.126,0.504,1.656,0.818l-0.077-0.015
			c0.215-0.021,0.429-0.028,0.641-0.008c0.211,0.018,0.421,0.048,0.625,0.097C58.016,37.746,58.411,37.89,58.777,38.083"/>
		<path fill="#231F20" d="M56.25,39.397c-0.679,0.069-1.357,0.117-2.039,0.15c-0.34,0.019-0.681,0.03-1.022,0.039
			c-0.336,0.009-0.669,0.043-0.996,0.111c-0.326,0.066-0.646,0.164-0.941,0.304c-0.148,0.07-0.29,0.151-0.419,0.245
			c-0.13,0.094-0.247,0.202-0.334,0.323c-0.044,0.061-0.079,0.123-0.103,0.188l-0.015,0.048l-0.01,0.047l-0.005,0.05l-0.002,0.057
			c-0.003,0.076,0.007,0.147,0.023,0.193c0.021,0.048,0.031,0.056,0.077,0.07c0.045,0.013,0.12,0.013,0.196,0.007
			c0.078-0.007,0.161-0.019,0.246-0.029c0.171-0.024,0.354-0.036,0.523-0.042c0.689-0.021,1.373-0.006,2.059,0.035
			c0.342,0.021,0.685,0.048,1.026,0.086l0.258,0.03l0.257,0.038l0.503,0.083c0.657,0.095,1.337,0.137,2.013,0.175
			c0.677,0.036,1.355,0.062,2.034,0.083l1.021,0.036c0.172,0.006,0.34,0.012,0.518,0.022c0.185,0.011,0.36,0.043,0.528,0.072
			c0.169,0.03,0.335,0.063,0.499,0.09c0.162,0.028,0.331,0.053,0.465,0.049c0.032,0,0.061-0.005,0.067-0.006
			c0,0.001,0.016-0.006,0.023-0.009l0.029-0.011l0.06-0.021l0.236-0.09l0.473-0.186c0.63-0.25,1.255-0.514,1.875-0.787
			c0.621-0.275,1.245-0.554,1.878-0.813c0.632-0.261,1.271-0.51,1.927-0.712c0.329-0.101,0.66-0.195,1.001-0.262
			c0.34-0.067,0.683-0.112,1.028-0.13c0.344-0.019,0.689-0.016,1.032,0.009c0.343,0.029,0.684,0.071,1.02,0.139
			c0.673,0.134,1.325,0.345,1.953,0.609c-0.323-0.107-0.646-0.211-0.978-0.29c-0.328-0.087-0.662-0.148-0.996-0.199
			c-0.335-0.048-0.671-0.077-1.008-0.089c-0.337-0.009-0.673,0.003-1.008,0.035c-0.334,0.03-0.665,0.085-0.99,0.162
			c-0.326,0.075-0.646,0.179-0.965,0.289c-0.637,0.222-1.264,0.478-1.882,0.753c-0.62,0.273-1.235,0.564-1.854,0.849
			c-0.62,0.285-1.246,0.561-1.877,0.821c-0.159,0.065-0.316,0.129-0.476,0.192l-0.241,0.093l-0.06,0.023l-0.031,0.012
			c-0.012,0.004-0.015,0.007-0.036,0.012c-0.075,0.022-0.131,0.025-0.185,0.03c-0.206,0.003-0.376-0.026-0.55-0.053
			c-0.172-0.027-0.339-0.06-0.505-0.087c-0.167-0.029-0.328-0.057-0.483-0.065c-0.162-0.009-0.334-0.014-0.503-0.021l-1.021-0.03
			c-0.681-0.025-1.362-0.055-2.044-0.094c-0.342-0.021-0.683-0.042-1.024-0.072c-0.342-0.029-0.684-0.064-1.029-0.121l-0.502-0.091
			l-0.248-0.04l-0.249-0.032c-0.334-0.042-0.669-0.076-1.006-0.101c-0.337-0.026-0.674-0.044-1.012-0.057
			c-0.337-0.013-0.677-0.021-1.012-0.019c-0.169,0.001-0.327,0.007-0.494,0.025c-0.084,0.008-0.169,0.02-0.261,0.023
			c-0.094,0.005-0.191,0.011-0.311-0.023c-0.029-0.01-0.059-0.02-0.09-0.039c-0.014-0.007-0.029-0.016-0.043-0.026
			c-0.014-0.012-0.027-0.023-0.04-0.034c-0.052-0.05-0.085-0.112-0.104-0.168c-0.037-0.112-0.04-0.214-0.036-0.309l0.004-0.071
			l0.011-0.077l0.019-0.077l0.025-0.073c0.038-0.094,0.09-0.177,0.148-0.254c0.118-0.151,0.26-0.271,0.409-0.37
			c0.149-0.102,0.307-0.185,0.47-0.255c0.324-0.14,0.663-0.231,1.007-0.287c0.343-0.057,0.69-0.075,1.034-0.069
			c0.34,0.007,0.68,0.009,1.02,0.01c0.34,0.002,0.681-0.001,1.021-0.006C55.569,39.417,55.909,39.409,56.25,39.397"/>
		<path fill="#231F20" d="M56.027,39.71c0.303-0.117,0.608-0.225,0.914-0.328c0.308-0.104,0.615-0.202,0.924-0.298l0.063-0.02
			l0.032,0.057c0.059,0.104,0.104,0.205,0.146,0.312s0.079,0.216,0.106,0.328c0.055,0.224,0.074,0.469-0.005,0.706l-0.015,0.045
			l-0.049,0.01c-0.351,0.07-0.702,0.137-1.056,0.198s-0.707,0.119-1.064,0.165c0.345-0.104,0.691-0.192,1.04-0.281
			c0.349-0.086,0.699-0.169,1.05-0.248l-0.065,0.056c0.03-0.095,0.042-0.195,0.039-0.299c-0.003-0.103-0.022-0.208-0.045-0.312
			c-0.023-0.103-0.058-0.206-0.095-0.306c-0.039-0.1-0.083-0.202-0.13-0.295l0.094,0.039c-0.313,0.086-0.625,0.17-0.938,0.249
			C56.659,39.568,56.345,39.644,56.027,39.71"/>
	</g>
</g>
</svg>
