<?xml version="1.0" encoding="utf-8"?>
<!-- Generator: Adobe Illustrator 16.0.0, SVG Export Plug-In . SVG Version: 6.00 Build 0)  -->
<!DOCTYPE svg PUBLIC "-//W3C//DTD SVG 1.1//EN" "http://www.w3.org/Graphics/SVG/1.1/DTD/svg11.dtd">
<svg version="1.1" id="Camada_1" xmlns="http://www.w3.org/2000/svg" xmlns:xlink="http://www.w3.org/1999/xlink" x="0px" y="0px"
	 width="85px" height="55px" viewBox="0 0 85 55" enable-background="new 0 0 85 55" xml:space="preserve">
<g>
	<g>
		<path fill-rule="evenodd" clip-rule="evenodd" fill="#FF8300" d="M2.208,29.708c0.123-0.025,0.24-0.031,0.363-0.031
			c0.116,0,0.239,0.006,0.356,0.031c-0.026-0.601-0.033-1.167-0.033-1.515v-0.531c0.188,0.006,0.343,0.006,0.479,0.006
			c1.095,0,1.735-0.499,1.735-1.265c0-0.721-0.498-1.119-1.437-1.119c-0.298,0-0.629,0.031-0.998,0.031
			c-0.143,0-0.298-0.006-0.454-0.019c0.045,0.5,0.065,1.082,0.065,1.746C2.286,27.915,2.26,28.867,2.208,29.708L2.208,29.708z
			 M2.895,27.41v-0.987c0-0.165,0.006-0.455,0.033-0.86c0.2-0.013,0.356-0.019,0.446-0.019c0.673,0,1.042,0.336,1.042,0.879
			c0,0.651-0.44,0.994-1.314,0.994C3.037,27.416,2.965,27.416,2.895,27.41z"/>
		<path fill-rule="evenodd" clip-rule="evenodd" fill="#FF8300" d="M7.318,28.017v0.581c0,0.462-0.312,0.727-0.732,0.727
			c-0.318,0-0.526-0.213-0.526-0.556c0-0.367,0.279-0.569,0.869-0.676L7.318,28.017L7.318,28.017z M7.318,29.224
			c0.038,0.291,0.168,0.424,0.427,0.424c0.167,0,0.362-0.057,0.589-0.158v-0.132c-0.11,0-0.169,0.006-0.188,0.006
			c-0.253,0-0.279-0.102-0.279-0.36v-1.499c0-0.695-0.291-1.005-1.1-1.005c-0.415,0-0.765,0.12-1.044,0.373l-0.031,0.342l0.136,0.05
			c0.129-0.315,0.409-0.499,0.777-0.499c0.453,0,0.731,0.265,0.731,0.714c0,0.203-0.07,0.284-0.252,0.323l-0.59,0.126
			c-0.724,0.158-1.055,0.329-1.055,0.943c0,0.486,0.356,0.827,0.894,0.827C6.716,29.698,7.053,29.533,7.318,29.224z"/>
		<path fill-rule="evenodd" clip-rule="evenodd" fill="#FF8300" d="M8.631,29.708c0.111-0.019,0.215-0.031,0.325-0.031
			c0.11,0,0.22,0.013,0.329,0.031c-0.025-0.349-0.038-0.743-0.038-1.002v-0.53c0-0.046,0-0.09,0-0.127
			c0-0.278,0.013-0.547,0.239-0.795c0.124-0.132,0.305-0.215,0.506-0.215c0.104,0,0.246,0.026,0.434,0.07
			C10.413,27.001,10.4,26.9,10.4,26.798c0-0.101,0.012-0.202,0.025-0.297c-0.051-0.006-0.103-0.006-0.148-0.006
			c-0.44,0-0.765,0.228-1.017,0.708c0-0.025,0-0.05,0-0.075c0-0.171,0.019-0.361,0.051-0.563c-0.109,0.019-0.226,0.025-0.337,0.025
			c-0.116,0-0.226-0.006-0.343-0.025c0.053,0.374,0.053,0.714,0.053,1.025C8.684,28.601,8.676,29.385,8.631,29.708z"/>
		<path fill-rule="evenodd" clip-rule="evenodd" fill="#FF8300" d="M13.228,29.047c-0.201,0.246-0.486,0.373-0.842,0.373
			c-0.707,0-1.139-0.486-1.139-1.34c0-0.854,0.407-1.334,1.087-1.334c0.414,0,0.679,0.196,0.784,0.588h0.078
			c0.033-0.221,0.078-0.417,0.136-0.582c-0.292-0.165-0.641-0.247-1.036-0.247c-1.075,0-1.716,0.619-1.716,1.65
			c0,0.924,0.648,1.536,1.606,1.536c0.446,0,0.81-0.101,1.05-0.271l0.052-0.36L13.228,29.047z"/>
		<path fill-rule="evenodd" clip-rule="evenodd" fill="#FF8300" d="M14.486,28.073c0.265-0.006,0.538-0.013,0.822-0.013
			c0.441,0,0.906,0.013,1.393,0.025c0.006-0.063,0.006-0.127,0.006-0.19c0-0.873-0.512-1.385-1.367-1.385
			c-0.913,0-1.503,0.646-1.503,1.639c0,0.968,0.576,1.549,1.548,1.549c0.434,0,0.823-0.101,1.141-0.291
			c0.013-0.14,0.025-0.259,0.052-0.367l-0.084-0.019c-0.201,0.253-0.538,0.405-0.945,0.405c-0.667,0-1.063-0.462-1.063-1.297
			C14.486,28.111,14.486,28.093,14.486,28.073L14.486,28.073z M14.506,27.814c0.045-0.69,0.342-1.056,0.829-1.056
			c0.44,0,0.746,0.328,0.746,0.86c0,0.057-0.008,0.126-0.014,0.184c-0.518,0.006-0.933,0.013-1.25,0.013
			C14.699,27.814,14.596,27.814,14.506,27.814z"/>
		<path fill-rule="evenodd" clip-rule="evenodd" fill="#FF8300" d="M17.226,29.716c0.109-0.019,0.212-0.033,0.323-0.033
			c0.11,0,0.22,0.015,0.331,0.033c-0.033-0.476-0.045-1.205-0.045-2.002c0-0.361,0-0.822,0.045-1.207
			c-0.111,0.019-0.22,0.025-0.331,0.025c-0.111,0-0.214-0.006-0.323-0.025c0.038,0.353,0.044,0.84,0.044,1.29
			C17.27,28.644,17.257,29.342,17.226,29.716L17.226,29.716z M17.212,25.659c0,0.203,0.149,0.341,0.388,0.341
			c0.214,0,0.35-0.132,0.35-0.334c0-0.228-0.142-0.361-0.376-0.361C17.361,25.305,17.212,25.457,17.212,25.659z"/>
		<path fill-rule="evenodd" clip-rule="evenodd" fill="#FF8300" d="M18.386,29.708c0.11-0.019,0.214-0.031,0.324-0.031
			c0.109,0,0.22,0.013,0.331,0.031c-0.027-0.349-0.041-0.743-0.041-1.002v-0.53c0-0.046,0-0.09,0-0.127
			c0-0.278,0.014-0.545,0.24-0.792c0.123-0.133,0.304-0.215,0.505-0.215c0.103,0,0.245,0.025,0.434,0.07
			c-0.013-0.108-0.026-0.21-0.026-0.311s0.014-0.203,0.026-0.297c-0.053-0.006-0.104-0.006-0.15-0.006
			c-0.44,0-0.764,0.228-1.016,0.708c0-0.025,0-0.051,0-0.077c0-0.17,0.019-0.359,0.052-0.562c-0.111,0.019-0.226,0.025-0.336,0.025
			c-0.118,0-0.228-0.006-0.344-0.025c0.051,0.374,0.051,0.733,0.051,1.043C18.438,28.623,18.432,29.385,18.386,29.708z"/>
		<path fill-rule="evenodd" clip-rule="evenodd" fill="#FF8300" d="M23.874,28.104c0-0.987-0.608-1.594-1.593-1.594
			c-0.964,0-1.593,0.627-1.593,1.594c0,0.994,0.602,1.587,1.593,1.587C23.246,29.691,23.874,29.072,23.874,28.104L23.874,28.104z
			 M23.207,28.104c0,0.867-0.355,1.354-0.92,1.354c-0.569,0-0.932-0.486-0.932-1.354c0-0.872,0.356-1.359,0.932-1.359
			C22.856,26.746,23.207,27.226,23.207,28.104z"/>
		<path fill-rule="evenodd" clip-rule="evenodd" fill="#FF8300" d="M24.549,28.864c-0.058,0.215-0.117,0.429-0.168,0.638
			c0.279,0.127,0.583,0.189,0.914,0.189c0.81,0,1.283-0.398,1.283-1.019c0-0.492-0.279-0.676-0.869-0.852
			c-0.479-0.146-0.777-0.203-0.777-0.544c0-0.297,0.24-0.505,0.608-0.505c0.37,0,0.59,0.171,0.642,0.493h0.065
			c0.065-0.196,0.129-0.38,0.187-0.549c-0.284-0.133-0.563-0.204-0.841-0.204c-0.707,0-1.16,0.398-1.16,0.974
			c0,0.437,0.272,0.658,0.85,0.835c0.485,0.151,0.79,0.196,0.79,0.575c0,0.341-0.253,0.55-0.701,0.55
			c-0.426,0-0.667-0.184-0.763-0.581H24.549z"/>
	</g>
	<g>
		<path fill-rule="evenodd" clip-rule="evenodd" fill="#022169" d="M54.274,29.712c0.083-0.021,0.169-0.031,0.252-0.031
			c0.085,0,0.168,0.011,0.246,0.031c0.357-1.063,0.939-2.609,1.807-4.411c-0.097,0.013-0.193,0.025-0.29,0.025
			c-0.098,0-0.195-0.013-0.298-0.025c-0.156,0.588-0.389,1.246-0.681,1.992l-0.629,1.612l-0.692-1.82
			c-0.214-0.562-0.447-1.157-0.635-1.783c-0.136,0.019-0.271,0.025-0.408,0.025c-0.136,0-0.272-0.006-0.414-0.025
			C53.529,27.514,54.094,29.048,54.274,29.712z"/>
		<path fill-rule="evenodd" clip-rule="evenodd" fill="#022169" d="M59.768,28.108c0-0.987-0.61-1.593-1.595-1.593
			c-0.965,0-1.594,0.626-1.594,1.593c0,0.994,0.603,1.587,1.594,1.587C59.139,29.695,59.768,29.077,59.768,28.108L59.768,28.108z
			 M59.1,28.108c0,0.866-0.356,1.354-0.921,1.354c-0.569,0-0.932-0.487-0.932-1.354c0-0.873,0.356-1.359,0.932-1.359
			C58.75,26.75,59.1,27.23,59.1,28.108z"/>
		<path fill-rule="evenodd" clip-rule="evenodd" fill="#022169" d="M60.219,29.695c0.109-0.019,0.214-0.031,0.323-0.031
			c0.104,0,0.214,0.013,0.324,0.031c-0.033-0.359-0.045-1.517-0.045-3.326c0-0.108,0-0.215,0-0.315c0-0.417,0.006-0.399,0.045-0.766
			c-0.11,0.019-0.22,0.025-0.324,0.025c-0.109,0-0.214-0.006-0.323-0.025c0.031,0.316,0.039,0.247,0.039,0.601
			c0,0.184,0,0.367,0,0.556c0,1.043-0.013,1.923-0.013,2.632C60.245,29.134,60.237,29.393,60.219,29.695z"/>
		<path fill-rule="evenodd" clip-rule="evenodd" fill="#022169" d="M64.065,26.503c-0.104,0.019-0.214,0.025-0.317,0.025
			c-0.103,0-0.207-0.006-0.318-0.025c0.021,0.468,0.033,1.042,0.033,1.536c0,0.847-0.227,1.265-0.822,1.265
			c-0.485,0-0.699-0.266-0.699-0.829c0-0.315,0.013-1.036,0.058-1.972c-0.104,0.019-0.214,0.025-0.323,0.025
			c-0.11,0-0.214-0.006-0.324-0.025c0.025,0.41,0.025,0.854,0.025,1.15c0,0.121,0,0.228,0,0.329v0.57
			c0,0.771,0.312,1.144,1.037,1.144c0.459,0,0.79-0.194,1.062-0.618c-0.007,0.188-0.02,0.447-0.025,0.618
			c0.104-0.019,0.206-0.031,0.311-0.031c0.097,0,0.2,0.013,0.305,0.031c-0.046-0.386-0.046-0.866-0.046-1.282
			C64.02,27.597,64.026,26.9,64.065,26.503z"/>
		<path fill-rule="evenodd" clip-rule="evenodd" fill="#022169" d="M64.551,29.695c0.109-0.019,0.213-0.031,0.322-0.031
			c0.104,0,0.214,0.013,0.318,0.031c-0.02-0.474-0.032-1.029-0.032-1.523c0-0.847,0.233-1.264,0.81-1.264
			c0.232,0,0.421,0.082,0.551,0.239c0.136,0.172,0.148,0.405,0.148,0.734c0,0.101,0,0.208,0,0.322c0,0.393-0.019,0.943-0.045,1.492
			c0.11-0.019,0.213-0.031,0.324-0.031c0.103,0,0.214,0.013,0.316,0.031c-0.025-0.411-0.025-0.841-0.025-1.138
			c0-0.119,0-0.228,0-0.328v-0.601c0-0.323-0.007-0.57-0.201-0.797c-0.174-0.196-0.452-0.315-0.783-0.315
			c-0.466,0-0.849,0.215-1.107,0.62c0.006-0.189,0.013-0.456,0.019-0.632c-0.103,0.019-0.206,0.025-0.304,0.025
			c-0.104,0-0.208-0.006-0.311-0.025c0.045,0.386,0.045,0.879,0.045,1.296C64.596,28.614,64.59,29.297,64.551,29.695z"/>
		<path fill-rule="evenodd" clip-rule="evenodd" fill="#022169" d="M68.28,26.781l-0.02,1.038c-0.007,0.403-0.026,0.733-0.026,0.985
			c0,0.607,0.247,0.892,0.804,0.892c0.181,0,0.376-0.031,0.582-0.101V29.38c-0.123,0.019-0.22,0.031-0.29,0.031
			c-0.44,0-0.525-0.265-0.525-0.841c0-0.051,0-0.101,0-0.152l0.032-1.637c0.039,0,0.078,0,0.117,0c0.201,0,0.401,0.013,0.596,0.038
			c-0.006-0.056-0.013-0.106-0.013-0.158c0-0.057,0.007-0.107,0.013-0.157c-0.214,0.031-0.446,0.05-0.705,0.05v-0.208
			c0-0.159,0.019-0.393,0.063-0.716c-0.213,0.133-0.434,0.229-0.654,0.292c0.02,0.234,0.026,0.392,0.026,0.474v0.158
			c-0.175-0.006-0.35-0.019-0.531-0.05c0.013,0.05,0.013,0.101,0.013,0.157c0,0.052,0,0.102-0.013,0.158
			c0.149-0.025,0.298-0.038,0.44-0.038C68.222,26.781,68.254,26.781,68.28,26.781z"/>
		<path fill-rule="evenodd" clip-rule="evenodd" fill="#022169" d="M71.061,26.137h0.175l0.71-0.42
			c0.131-0.081,0.198-0.137,0.198-0.233c0-0.098-0.081-0.184-0.178-0.184c-0.073,0-0.165,0.048-0.253,0.142L71.061,26.137
			L71.061,26.137z M71.984,28.021v0.581c0,0.462-0.311,0.729-0.731,0.729c-0.317,0-0.524-0.216-0.524-0.558
			c0-0.367,0.277-0.569,0.867-0.677L71.984,28.021L71.984,28.021z M71.984,29.228c0.039,0.291,0.168,0.424,0.428,0.424
			c0.168,0,0.363-0.057,0.59-0.158v-0.132c-0.109,0-0.169,0.006-0.188,0.006c-0.254,0-0.279-0.102-0.279-0.36v-1.499
			c0-0.695-0.292-1.005-1.102-1.005c-0.414,0-0.765,0.12-1.042,0.372l-0.033,0.342l0.136,0.05c0.13-0.316,0.409-0.5,0.777-0.5
			c0.454,0,0.733,0.266,0.733,0.714c0,0.203-0.072,0.284-0.253,0.323l-0.59,0.126c-0.726,0.158-1.055,0.329-1.055,0.941
			c0,0.488,0.355,0.829,0.893,0.829C71.382,29.702,71.719,29.537,71.984,29.228z"/>
		<path fill-rule="evenodd" clip-rule="evenodd" fill="#022169" d="M73.487,29.702c0.109-0.02,0.214-0.031,0.323-0.031
			c0.11,0,0.221,0.012,0.33,0.031c-0.026-0.349-0.039-0.733-0.039-0.992v-0.531c0-0.045,0-0.089,0-0.127
			c0-0.277,0.013-0.548,0.24-0.794c0.122-0.133,0.304-0.215,0.505-0.215c0.104,0,0.246,0.025,0.435,0.069
			c-0.014-0.106-0.026-0.208-0.026-0.309c0-0.102,0.013-0.203,0.026-0.298c-0.053-0.006-0.104-0.006-0.149-0.006
			c-0.44,0-0.765,0.251-1.018,0.732c0-0.025,0-0.05,0-0.077c0-0.169,0.021-0.359,0.052-0.562c-0.109,0.019-0.227,0.025-0.337,0.025
			c-0.116,0-0.227-0.006-0.342-0.025c0.051,0.374,0.051,0.714,0.051,1.025C73.538,28.627,73.532,29.379,73.487,29.702z"/>
		<path fill-rule="evenodd" clip-rule="evenodd" fill="#022169" d="M75.779,29.702c0.109-0.02,0.214-0.031,0.323-0.031
			c0.11,0,0.22,0.012,0.331,0.031c-0.033-0.475-0.046-1.195-0.046-1.992c0-0.359,0-0.821,0.046-1.207
			c-0.111,0.019-0.221,0.025-0.331,0.025c-0.109,0-0.214-0.006-0.323-0.025c0.038,0.354,0.045,0.841,0.045,1.29
			C75.824,28.64,75.811,29.328,75.779,29.702L75.779,29.702z M75.766,25.655c0,0.203,0.148,0.341,0.389,0.341
			c0.214,0,0.351-0.132,0.351-0.334c0-0.228-0.144-0.361-0.376-0.361C75.914,25.301,75.766,25.453,75.766,25.655z"/>
		<path fill-rule="evenodd" clip-rule="evenodd" fill="#022169" d="M80.111,28.108c0-0.987-0.608-1.593-1.594-1.593
			c-0.964,0-1.593,0.626-1.593,1.593c0,0.994,0.603,1.587,1.593,1.587C79.483,29.695,80.111,29.077,80.111,28.108L80.111,28.108z
			 M79.444,28.108c0,0.866-0.355,1.354-0.92,1.354c-0.569,0-0.932-0.487-0.932-1.354c0-0.873,0.355-1.359,0.932-1.359
			C79.095,26.75,79.444,27.23,79.444,28.108z"/>
		<path fill-rule="evenodd" clip-rule="evenodd" fill="#022169" d="M80.765,28.868c-0.058,0.215-0.115,0.429-0.168,0.638
			c0.277,0.127,0.583,0.189,0.914,0.189c0.809,0,1.281-0.398,1.281-1.017c0-0.494-0.278-0.677-0.867-0.854
			c-0.479-0.146-0.777-0.203-0.777-0.544c0-0.297,0.24-0.506,0.608-0.506c0.37,0,0.59,0.171,0.642,0.493h0.065
			c0.063-0.196,0.129-0.378,0.188-0.551c-0.286-0.132-0.563-0.201-0.843-0.201c-0.706,0-1.158,0.397-1.158,0.973
			c0,0.437,0.271,0.658,0.848,0.834c0.485,0.151,0.789,0.196,0.789,0.576c0,0.341-0.251,0.55-0.699,0.55
			c-0.427,0-0.667-0.184-0.764-0.581H80.765z"/>
	</g>
	<g>
		<path fill-rule="evenodd" clip-rule="evenodd" fill="#FF8300" d="M39.52,28.808c-0.836-4.55,2.98-8.152,9.17-2.146
			c14.212,12.586,20.57,10.49,28.299,6.682c-8.926,5.039-16.931,4.647-26.521-3.008C44.201,25.054,42.063,24.374,39.52,28.808z"/>
		<path fill-rule="evenodd" clip-rule="evenodd" fill="#022169" d="M45.124,27.854c1.303,4.646-5.643,7.867-13.083,1.266
			C17.807,16.517,15.807,17.407,8.066,21.221c8.94-5.049,12.588-3.446,22.194,4.221C36.537,30.728,42.578,32.296,45.124,27.854z"/>
	</g>
</g>
</svg>
