<?xml version="1.0" encoding="utf-8"?>
<!-- Generator: Adobe Illustrator 16.0.0, SVG Export Plug-In . SVG Version: 6.00 Build 0)  -->
<!DOCTYPE svg PUBLIC "-//W3C//DTD SVG 1.1//EN" "http://www.w3.org/Graphics/SVG/1.1/DTD/svg11.dtd">
<svg version="1.1" id="Camada_1" xmlns="http://www.w3.org/2000/svg" xmlns:xlink="http://www.w3.org/1999/xlink" x="0px" y="0px"
	 width="85px" height="55px" viewBox="0 0 85 55" enable-background="new 0 0 85 55" xml:space="preserve">
<g>
	<polygon fill="#7ACFE5" points="23.33,24.038 23.358,24.017 21.904,21.366 20.414,24.021 20.418,23.986 17.515,23.14 18.339,26.07 
		18.317,26.042 15.667,27.497 18.321,28.985 18.286,28.981 17.44,31.885 20.371,31.062 20.343,31.083 21.797,33.733 23.287,31.079 
		23.282,31.114 26.185,31.959 25.362,29.029 25.383,29.058 28.034,27.603 25.379,26.113 25.415,26.119 26.26,23.215 	"/>
	<polygon fill="#3D375B" points="20.097,23.184 20.102,23.185 20.097,23.181 	"/>
	<polygon fill="#3D375B" points="17.521,25.701 17.522,25.703 17.527,25.7 	"/>
	<polygon fill="#3D375B" points="17.481,29.304 17.484,29.304 17.486,29.299 	"/>
	<polygon fill="#3D375B" points="20.001,31.879 20.003,31.878 20,31.872 	"/>
	<polygon fill="#3D375B" points="23.604,31.919 23.604,31.916 23.599,31.915 	"/>
	<polygon fill="#3D375B" points="26.173,29.399 26.179,29.398 26.178,29.397 	"/>
	<polygon fill="#3D375B" points="23.698,23.222 23.7,23.227 23.699,23.221 	"/>
	<polygon fill="#3D375B" points="26.215,25.802 26.218,25.796 26.216,25.795 	"/>
	<polygon fill="#C5C8C9" points="52.314,19.81 50.338,19.81 50.338,31.883 49.112,31.883 49.112,19.81 47.136,19.81 47.136,18.689 
		52.314,18.689 	"/>
	<path fill="#7ACFE5" d="M11.288,28.439l-0.002-0.195h-0.001c-0.403,0.949-1.5,1.391-2.45,0.988
		c-0.428-0.182-0.751-0.505-0.942-0.892c-0.693,0.61-1.187,1.404-1.438,2.273c0.878,1.06,2.201,1.734,3.684,1.736
		c0.063,0,0.126-0.004,0.189-0.006c-0.037,0.035-0.074,0.069-0.11,0.105c-1.022,1.022-1.481,2.39-1.385,3.727
		c0.764,0.4,1.632,0.592,2.512,0.54c-0.287-0.919,0.175-1.919,1.084-2.285c0.446-0.179,0.92-0.172,1.338-0.02
		c-1.366-1.644-2.241-3.705-2.406-5.962L11.288,28.439z"/>
	<path fill="#7ACFE5" d="M28.598,19.521l0.072-0.053c-0.286-0.92,0.175-1.919,1.083-2.287c0.488-0.196,1.009-0.171,1.454,0.026
		c0.102-0.964-0.094-1.925-0.54-2.76c-1.402-0.162-2.862,0.292-3.938,1.367c-0.044,0.045-0.088,0.091-0.13,0.137
		c0.001-0.05,0.003-0.101,0.003-0.151c0-1.456-0.651-2.757-1.675-3.636c-0.852,0.284-1.62,0.805-2.202,1.521
		c0.824,0.459,1.186,1.475,0.809,2.362c-0.187,0.438-0.521,0.764-0.92,0.952l0.024,0.139C24.894,17.296,26.954,18.165,28.598,19.521
		"/>
	<path fill="#7ACFE5" d="M23.483,40.495c-0.173,0.408-0.476,0.721-0.838,0.914c0.604,0.73,1.407,1.257,2.294,1.526
		c1.069-0.877,1.752-2.206,1.752-3.696c0-0.064-0.002-0.128-0.005-0.189c0.034,0.035,0.068,0.073,0.104,0.109
		c1.042,1.043,2.444,1.5,3.805,1.383c0.406-0.793,0.589-1.694,0.51-2.604c-0.955,0.38-2.038-0.084-2.422-1.037
		c-0.142-0.351-0.168-0.72-0.099-1.065c-1.61,1.323-3.616,2.175-5.812,2.358C23.525,38.676,23.845,39.645,23.483,40.495"/>
	<path fill="#7ACFE5" d="M13.826,37.898c-0.409,0.163-0.844,0.172-1.236,0.054c-0.07,0.928,0.136,1.847,0.571,2.647
		c1.369,0.129,2.78-0.331,3.827-1.377c0.045-0.046,0.088-0.091,0.13-0.138c-0.001,0.051-0.003,0.101-0.003,0.151
		c0,1.46,0.655,2.765,1.685,3.643c0.833-0.262,1.591-0.748,2.177-1.423c-0.91-0.423-1.328-1.492-0.932-2.423
		c0.158-0.371,0.422-0.663,0.74-0.858c-2.246-0.235-4.282-1.177-5.886-2.599C15.207,36.504,14.747,37.525,13.826,37.898"/>
	<path fill="#7ACFE5" d="M13.848,20.837l-0.096-0.126l0.092-0.094c-0.952,0.371-2.029-0.09-2.412-1.041
		c-0.187-0.463-0.173-0.957-0.002-1.386c-0.93-0.063-1.849,0.147-2.648,0.589c-0.139,1.38,0.315,2.81,1.374,3.868
		c0.044,0.044,0.091,0.087,0.137,0.13c-0.05-0.001-0.101-0.004-0.152-0.004c-1.438,0-2.725,0.634-3.603,1.639
		c0.262,0.827,0.746,1.579,1.415,2.163c0.466-0.804,1.467-1.154,2.345-0.781c0.465,0.198,0.807,0.562,0.989,0.993l0.086-0.014
		C11.563,24.519,12.462,22.467,13.848,20.837"/>
	<path fill="#7ACFE5" d="M20.938,17.151l0.022-0.164h0.029c-0.881-0.436-1.282-1.488-0.892-2.403
		c0.205-0.482,0.59-0.833,1.043-1.009c-0.612-0.729-1.423-1.249-2.316-1.512c-1.094,0.877-1.796,2.223-1.796,3.734
		c0,0.063,0.002,0.126,0.004,0.189c-0.034-0.037-0.068-0.074-0.104-0.11c-1.02-1.02-2.385-1.48-3.719-1.389
		c-0.399,0.788-0.582,1.68-0.504,2.581c0.893-0.228,1.838,0.232,2.192,1.109c0.183,0.453,0.174,0.935,0.014,1.357l0.139,0.098
		C16.667,18.253,18.703,17.352,20.938,17.151"/>
	<path fill="#7ACFE5" d="M32.402,26.625c0.467-0.802,1.467-1.15,2.343-0.778c0.461,0.196,0.802,0.556,0.985,0.984
		c0.764-0.606,1.313-1.425,1.596-2.333c-0.876-1.104-2.228-1.812-3.747-1.812c-0.063,0-0.126,0.002-0.188,0.004
		c0.036-0.035,0.074-0.069,0.11-0.104c1.04-1.04,1.498-2.439,1.381-3.798c-0.813-0.402-1.735-0.574-2.661-0.469
		c0.313,0.931-0.147,1.955-1.07,2.327c-0.442,0.178-0.911,0.173-1.327,0.023L29.81,20.69C31.237,22.308,32.179,24.361,32.402,26.625
		"/>
	<path fill="#7ACFE5" d="M35.721,28.323c-0.413,0.931-1.497,1.361-2.437,0.962c-0.376-0.161-0.671-0.431-0.867-0.757
		c-0.178,2.207-1.036,4.227-2.366,5.842c0.864-0.172,1.756,0.287,2.098,1.133c0.175,0.434,0.173,0.894,0.033,1.305
		c0.961,0.107,1.92-0.083,2.754-0.522c0.149-1.39-0.307-2.831-1.372-3.896c-0.045-0.044-0.091-0.088-0.137-0.13
		c0.051,0.001,0.101,0.004,0.151,0.004c1.479,0,2.798-0.673,3.675-1.725C36.968,29.681,36.443,28.906,35.721,28.323"/>
	<path fill="#F79A46" d="M12.549,28.616c0.185,1.831,0.9,3.508,1.986,4.878l2.946-4.19L12.549,28.616z"/>
	<path fill="#F79A46" d="M31.204,26.491c-0.228-1.815-0.975-3.472-2.09-4.813l-2.896,4.118L31.204,26.491z"/>
	<path fill="#F79A46" d="M12.57,26.563l4.952-0.863l-2.948-3.904C13.498,23.135,12.781,24.773,12.57,26.563"/>
	<path fill="#F79A46" d="M29.26,33.479c1.099-1.391,1.813-3.098,1.981-4.961l-5.062,0.881L29.26,33.479z"/>
	<path fill="#F79A46" d="M22.894,37.004c1.875-0.199,3.585-0.951,4.967-2.092l-4.257-2.993L22.894,37.004z"/>
	<path fill="#F79A46" d="M27.634,20.249c-1.352-1.048-2.995-1.738-4.788-1.92l0.853,4.892L27.634,20.249z"/>
	<path fill="#F79A46" d="M20.771,18.351c-1.774,0.211-3.396,0.919-4.726,1.981l4.052,2.85L20.771,18.351z"/>
	<path fill="#F79A46" d="M15.954,34.937c1.375,1.127,3.078,1.871,4.94,2.07l-0.893-5.128L15.954,34.937z"/>
	<path fill="#F79A46" d="M41.271,34.234c0,0.214,0.326,0.214,0.326,0S41.271,34.021,41.271,34.234 M41.535,34.915v2.243
		c0.004,0.394-0.091,0.698-0.545,0.698c-0.141,0-0.244-0.032-0.368-0.1l0.057-0.173c0.095,0.054,0.203,0.082,0.311,0.082
		c0.313,0,0.346-0.231,0.346-0.508v-2.243H41.535z"/>
	<path fill="#F79A46" d="M43.728,36.96v-0.367c-0.156,0.28-0.443,0.397-0.727,0.4c-0.546,0-0.922-0.335-0.922-0.9v-1.178h0.203
		v1.174c0,0.462,0.285,0.71,0.727,0.706c0.422-0.004,0.715-0.322,0.715-0.744v-1.136h0.203v2.045H43.728z"/>
	<path fill="#F79A46" d="M44.655,34.92v0.363c0.159-0.281,0.443-0.396,0.728-0.4c0.546,0,0.921,0.335,0.921,0.9v1.177h-0.203v-1.173
		c0-0.463-0.283-0.711-0.725-0.707c-0.422,0.004-0.716,0.324-0.716,0.744v1.136h-0.202v-2.04H44.655z"/>
	<path fill="#F79A46" d="M47.213,34.305v0.615h0.693v0.169h-0.693v1.243c0,0.276,0.058,0.472,0.376,0.472
		c0.099,0,0.211-0.032,0.313-0.083l0.069,0.165c-0.128,0.063-0.256,0.103-0.383,0.103c-0.435,0-0.575-0.255-0.575-0.656v-1.243
		H46.58V34.92h0.434v-0.595L47.213,34.305z"/>
	<path fill="#F79A46" d="M48.463,35.94c0,0.513,0.372,0.854,0.836,0.854c1.136,0,1.136-1.706,0-1.706
		C48.835,35.089,48.463,35.428,48.463,35.94 M50.335,34.92v2.04h-0.203v-0.433c-0.197,0.317-0.503,0.466-0.833,0.466
		c-0.57,0-1.037-0.43-1.037-1.053s0.467-1.045,1.037-1.045c0.33,0,0.663,0.152,0.833,0.471V34.92H50.335z"/>
	<path fill="#F79A46" d="M51.081,34.92v0.363c0.156-0.281,0.442-0.396,0.727-0.4c0.547,0,0.922,0.335,0.922,0.9v1.177h-0.203v-1.173
		c0-0.463-0.284-0.711-0.726-0.707c-0.422,0.004-0.716,0.324-0.716,0.744v1.136h-0.202v-2.04H51.081z"/>
	<path fill="#F79A46" d="M53.345,35.94c0,0.566,0.375,0.854,0.834,0.854c0.479,0,0.835-0.35,0.835-0.858s-0.365-0.856-0.835-0.856
		C53.72,35.08,53.345,35.366,53.345,35.94 M55.216,34.069v2.891h-0.199v-0.449c-0.17,0.31-0.503,0.483-0.851,0.483
		c-0.569,0-1.02-0.377-1.02-1.054c0-0.674,0.454-1.053,1.024-1.053c0.351,0,0.68,0.147,0.846,0.479v-1.297H55.216z"/>
	<path fill="#F79A46" d="M57.577,35.944c0-0.529-0.376-0.871-0.838-0.871c-0.463,0-0.839,0.342-0.839,0.871
		c0,0.528,0.376,0.847,0.839,0.847C57.201,36.791,57.577,36.473,57.577,35.944 M55.702,35.944c0-0.648,0.463-1.062,1.037-1.062
		c0.573,0,1.036,0.413,1.036,1.062s-0.463,1.046-1.036,1.046C56.165,36.99,55.702,36.593,55.702,35.944"/>
	<path fill="#F79A46" d="M59.484,35.879c0,0.42,0.29,0.784,0.755,0.784c0.423,0,0.766-0.364,0.766-0.784
		c0-0.517-0.343-0.795-0.766-0.795C59.822,35.084,59.484,35.346,59.484,35.879 M61.017,34.838l0.132,0.115l-0.197,0.231
		c0.144,0.156,0.251,0.363,0.251,0.694c0,0.354-0.21,0.714-0.549,0.867c0.359,0.127,0.558,0.379,0.558,0.73
		c0,0.549-0.43,0.813-0.972,0.813c-0.54,0-0.967-0.298-0.967-0.813h0.203c0,0.418,0.355,0.615,0.764,0.615
		c0.41,0,0.773-0.182,0.773-0.615c0-0.438-0.394-0.611-0.773-0.611c-0.589,0-0.958-0.441-0.958-0.986
		c0-0.638,0.431-0.996,0.958-0.996c0.208,0,0.423,0.074,0.579,0.185L61.017,34.838z"/>
	<path fill="#F79A46" d="M63.365,35.858c-0.004-0.505-0.333-0.785-0.825-0.785c-0.421,0-0.785,0.285-0.83,0.785H63.365z
		 M61.503,35.94c0-0.612,0.463-1.053,1.037-1.053c0.573,0,1.086,0.35,1.008,1.147H61.71c0.04,0.479,0.409,0.756,0.83,0.756
		c0.268,0,0.582-0.106,0.735-0.31l0.145,0.115c-0.198,0.26-0.555,0.392-0.88,0.392C61.966,36.988,61.503,36.589,61.503,35.94"/>
	<path fill="#F79A46" d="M64.27,34.92v0.363c0.157-0.281,0.443-0.396,0.728-0.4c0.545,0,0.921,0.335,0.921,0.9v1.177h-0.203v-1.173
		c0-0.463-0.284-0.711-0.727-0.707c-0.422,0.004-0.714,0.324-0.714,0.744v1.136h-0.203v-2.04H64.27z"/>
	<path fill="#F79A46" d="M66.825,34.305v0.615h0.695v0.169h-0.695v1.243c0,0.276,0.058,0.472,0.378,0.472
		c0.098,0,0.209-0.032,0.313-0.083l0.069,0.165c-0.129,0.063-0.256,0.103-0.383,0.103c-0.435,0-0.575-0.255-0.575-0.656v-1.243
		h-0.434V34.92h0.434v-0.595L66.825,34.305z"/>
	<path fill="#F79A46" d="M69.733,35.858c-0.004-0.505-0.335-0.785-0.826-0.785c-0.421,0-0.784,0.285-0.831,0.785H69.733z
		 M67.871,35.94c0-0.612,0.461-1.053,1.036-1.053c0.574,0,1.087,0.35,1.008,1.147h-1.839c0.043,0.479,0.41,0.756,0.831,0.756
		c0.268,0,0.583-0.106,0.734-0.31l0.146,0.115c-0.198,0.26-0.554,0.392-0.88,0.392C68.332,36.988,67.871,36.589,67.871,35.94"/>
	<path fill="#F79A46" d="M71.775,35.937c0,0.509,0.356,0.858,0.836,0.858c0.457,0,0.835-0.288,0.835-0.854
		c0-0.574-0.378-0.86-0.835-0.86C72.141,35.08,71.775,35.428,71.775,35.937 M71.773,34.069v1.297
		c0.164-0.331,0.496-0.479,0.847-0.479c0.569,0,1.022,0.379,1.022,1.053c0,0.677-0.448,1.054-1.019,1.054
		c-0.348,0-0.683-0.174-0.851-0.483v0.449h-0.198v-2.891H71.773z"/>
	<path fill="#F79A46" d="M75.919,35.944c0-0.529-0.376-0.871-0.839-0.871c-0.462,0-0.838,0.342-0.838,0.871
		c0,0.528,0.376,0.847,0.838,0.847C75.543,36.791,75.919,36.473,75.919,35.944 M74.043,35.944c0-0.648,0.463-1.062,1.037-1.062
		s1.036,0.413,1.036,1.062s-0.462,1.046-1.036,1.046S74.043,36.593,74.043,35.944"/>
	<path fill="#F79A46" d="M76.675,35.94c0,0.513,0.371,0.854,0.834,0.854c1.136,0,1.136-1.706,0-1.706
		C77.046,35.089,76.675,35.428,76.675,35.94 M78.545,34.92v2.04h-0.202v-0.433c-0.199,0.317-0.504,0.466-0.834,0.466
		c-0.57,0-1.037-0.43-1.037-1.053s0.467-1.045,1.037-1.045c0.33,0,0.664,0.152,0.834,0.471V34.92H78.545z"/>
	<path fill="#C5C8C9" d="M45.701,28.103l-0.876-5.056c-0.157-0.893-0.227-1.803-0.332-2.695h-0.069
		c-0.122,0.892-0.21,1.802-0.35,2.695l-0.771,5.056H45.701z M47.696,31.883h-1.313l-0.49-2.714h-2.8l-0.472,2.714H41.31
		l2.589-13.194h1.155L47.696,31.883z"/>
	<path fill="#C5C8C9" d="M56.129,28.103l-0.875-5.056c-0.157-0.893-0.227-1.803-0.331-2.695h-0.072
		c-0.122,0.892-0.209,1.802-0.349,2.695l-0.771,5.056H56.129z M58.124,31.883h-1.313l-0.489-2.714h-2.8l-0.472,2.714h-1.313
		l2.59-13.194h1.154L58.124,31.883z"/>
	<path fill="#C5C8C9" d="M60.345,30.763h0.352c2.361,0,2.66-1.663,2.66-5.477c0-4.532-0.475-5.477-2.8-5.477h-0.212V30.763z
		 M59.121,18.689h1.33c2.519,0,4.163,0.315,4.163,6.597c0,5.161-0.839,6.597-4.075,6.597h-1.418V18.689z"/>
	<path fill="#C5C8C9" d="M66.785,25.286c0,2.326,0.087,5.58,1.977,5.58s1.978-3.254,1.978-5.58c0-2.327-0.088-5.582-1.978-5.582
		C66.872,19.617,66.785,22.959,66.785,25.286 M72,25.286c0,2.466-0.176,6.771-3.238,6.771c-2.887,0-3.237-3.691-3.237-6.771
		c0-3.342,0.438-6.771,3.237-6.771C71.736,18.515,72,22.382,72,25.286"/>
	<path fill="#C5C8C9" d="M77.878,20.772c-0.523-0.595-1.102-1.067-1.941-1.067c-1.225,0-1.908,1.015-1.908,2.134
		c0,1.54,1.12,2.258,2.257,3.027c1.121,0.788,2.24,1.627,2.24,3.447c0,1.925-1.243,3.745-3.307,3.745
		c-0.735,0-1.488-0.21-2.082-0.666V29.8c0.56,0.595,1.294,1.066,2.134,1.066c1.296,0,2.012-1.137,1.996-2.326
		c0.016-1.54-1.121-2.222-2.241-3.009c-1.119-0.77-2.257-1.627-2.257-3.517c0-1.768,1.086-3.5,3.028-3.5
		c0.785,0,1.451,0.262,2.081,0.7V20.772z"/>
</g>
</svg>
