<?xml version="1.0" encoding="utf-8"?>
<!-- Generator: Adobe Illustrator 16.0.0, SVG Export Plug-In . SVG Version: 6.00 Build 0)  -->
<!DOCTYPE svg PUBLIC "-//W3C//DTD SVG 1.1//EN" "http://www.w3.org/Graphics/SVG/1.1/DTD/svg11.dtd">
<svg version="1.1" id="Camada_1" xmlns="http://www.w3.org/2000/svg" xmlns:xlink="http://www.w3.org/1999/xlink" x="0px" y="0px"
	 width="85px" height="55px" viewBox="0 0 85 55" enable-background="new 0 0 85 55" xml:space="preserve">
<g>
	<g>
		<g>
			<path fill="#7C7C7B" d="M35.734,25.299v6.277h1.404v-8.157l0,0h-1.942l-2.469,6.059l-2.395-6.059H28.31v8.157h1.318v-6.277h0.045
				l2.53,6.277h0.995l2.49-6.277H35.734z"/>
		</g>
		<g>
			<path fill="#7C7C7B" d="M39.165,23.24c-0.226,0-0.424,0.078-0.585,0.23c-0.164,0.153-0.245,0.347-0.245,0.572
				c0,0.225,0.081,0.414,0.242,0.563c0.161,0.149,0.358,0.224,0.588,0.224s0.43-0.074,0.591-0.222
				c0.164-0.15,0.247-0.34,0.247-0.564c0-0.218-0.082-0.409-0.24-0.566C39.604,23.321,39.403,23.24,39.165,23.24L39.165,23.24z
				 M39.838,25.731h-1.375v5.845h1.375V25.731L39.838,25.731z"/>
		</g>
		<g>
			<path fill="#7C7C7B" d="M43.938,25.59c-0.63,0-1.192,0.136-1.671,0.4c-0.479,0.268-0.85,0.649-1.103,1.136
				c-0.25,0.482-0.378,1.049-0.378,1.678c0,0.553,0.124,1.061,0.368,1.506c0.245,0.447,0.591,0.797,1.029,1.041
				c0.437,0.242,0.943,0.365,1.503,0.365c0.653,0,1.211-0.131,1.659-0.389l0.017-0.01v-1.26L45.304,30.1
				c-0.203,0.148-0.43,0.266-0.674,0.35c-0.241,0.086-0.462,0.129-0.658,0.129c-0.539,0-0.972-0.168-1.287-0.502
				c-0.315-0.332-0.474-0.801-0.474-1.391c0-0.592,0.166-1.071,0.495-1.425c0.326-0.354,0.761-0.532,1.289-0.532
				c0.451,0,0.893,0.153,1.309,0.455l0.058,0.042v-1.327l-0.019-0.01c-0.156-0.089-0.369-0.161-0.636-0.216
				C44.442,25.618,44.185,25.59,43.938,25.59L43.938,25.59z"/>
		</g>
		<g>
			<path fill="#7C7C7B" d="M47.776,26.744v-1.013h-1.375v5.845h1.375v-2.99c0-0.51,0.115-0.927,0.342-1.242
				c0.225-0.312,0.523-0.469,0.89-0.469c0.124,0,0.264,0.02,0.414,0.06c0.148,0.039,0.256,0.085,0.319,0.13l0.058,0.041V25.72
				l-0.022-0.009c-0.128-0.055-0.308-0.082-0.538-0.082l0,0c-0.345,0-0.654,0.111-0.919,0.329c-0.232,0.192-0.399,0.456-0.529,0.785
				H47.776z"/>
		</g>
		<g>
			<path fill="#7C7C7B" d="M52.985,25.59c-0.962,0-1.729,0.282-2.273,0.84c-0.547,0.557-0.823,1.326-0.823,2.291
				c0,0.916,0.27,1.652,0.803,2.188c0.532,0.537,1.257,0.809,2.154,0.809c0.933,0,1.685-0.287,2.229-0.85
				c0.546-0.564,0.821-1.33,0.821-2.271c0-0.929-0.259-1.669-0.77-2.203C54.614,25.859,53.894,25.59,52.985,25.59L52.985,25.59z
				 M52.924,30.578c-0.505,0-0.903-0.168-1.185-0.496c-0.281-0.332-0.425-0.805-0.425-1.406c0-0.619,0.144-1.105,0.425-1.443
				c0.282-0.334,0.676-0.505,1.173-0.505c0.483,0,0.867,0.163,1.143,0.484c0.277,0.322,0.417,0.803,0.417,1.428
				c0,0.637-0.132,1.123-0.393,1.449C53.821,30.414,53.433,30.578,52.924,30.578L52.924,30.578z"/>
		</g>
		<g>
			<path fill="#7C7C7B" d="M58.793,25.59c-0.655,0-1.197,0.167-1.612,0.497c-0.416,0.333-0.628,0.77-0.628,1.297
				c0,0.274,0.046,0.519,0.136,0.725c0.091,0.207,0.229,0.391,0.416,0.545c0.185,0.15,0.468,0.309,0.847,0.471
				c0.315,0.131,0.552,0.242,0.702,0.328c0.147,0.086,0.252,0.172,0.311,0.256c0.057,0.082,0.086,0.191,0.086,0.33
				c0,0.395-0.293,0.586-0.899,0.586c-0.225,0-0.48-0.049-0.761-0.141s-0.542-0.225-0.779-0.395l-0.058-0.043v1.34l0.021,0.012
				c0.198,0.09,0.446,0.166,0.739,0.229c0.292,0.059,0.557,0.09,0.787,0.09c0.712,0,1.285-0.168,1.703-0.502
				c0.42-0.334,0.634-0.781,0.634-1.326c0-0.395-0.115-0.732-0.342-1.006c-0.226-0.27-0.614-0.518-1.158-0.738
				c-0.434-0.173-0.711-0.317-0.825-0.428c-0.11-0.107-0.166-0.259-0.166-0.449c0-0.171,0.068-0.307,0.211-0.417
				c0.144-0.11,0.342-0.168,0.593-0.168c0.23,0,0.468,0.037,0.705,0.108c0.235,0.073,0.442,0.168,0.615,0.286l0.058,0.039v-1.272
				l-0.022-0.009c-0.159-0.068-0.37-0.126-0.626-0.174C59.226,25.614,58.993,25.59,58.793,25.59L58.793,25.59z"/>
		</g>
		<g>
			<path fill="#7C7C7B" d="M64.135,25.59c-0.964,0-1.729,0.282-2.275,0.84c-0.546,0.557-0.821,1.326-0.821,2.291
				c0,0.916,0.27,1.652,0.801,2.188c0.534,0.537,1.258,0.809,2.156,0.809c0.933,0,1.684-0.287,2.229-0.85
				c0.545-0.564,0.821-1.33,0.821-2.271c0-0.929-0.259-1.669-0.771-2.203C65.762,25.859,65.042,25.59,64.135,25.59L64.135,25.59z
				 M64.073,30.578c-0.506,0-0.904-0.168-1.185-0.496c-0.282-0.332-0.426-0.807-0.426-1.406c0-0.619,0.144-1.105,0.426-1.443
				c0.28-0.334,0.675-0.505,1.173-0.505c0.483,0,0.866,0.163,1.142,0.484c0.277,0.322,0.418,0.803,0.418,1.428
				c0,0.637-0.132,1.123-0.394,1.449C64.971,30.414,64.581,30.578,64.073,30.578L64.073,30.578z"/>
		</g>
		<path fill="#7C7C7B" d="M74.38,26.853v-1.122h-1.391v-1.743L72.94,24l-1.309,0.401l-0.024,0.008v1.321h-2.064v-0.736
			c0-0.342,0.077-0.604,0.229-0.779c0.148-0.174,0.362-0.261,0.637-0.261c0.196,0,0.4,0.046,0.605,0.138l0.052,0.023v-1.181
			l-0.025-0.009c-0.191-0.069-0.45-0.104-0.772-0.104c-0.407,0-0.775,0.089-1.097,0.265c-0.323,0.175-0.575,0.425-0.753,0.743
			s-0.268,0.686-0.268,1.092v0.81h-0.969v1.122h0.969v4.723h1.393v-4.723h2.064v3c0,1.236,0.584,1.863,1.732,1.863
			c0.189,0,0.389-0.023,0.591-0.066c0.207-0.043,0.348-0.088,0.431-0.135l0.019-0.012v-1.131l-0.057,0.037
			c-0.075,0.049-0.169,0.092-0.28,0.121c-0.111,0.031-0.202,0.047-0.274,0.047c-0.269,0-0.469-0.072-0.592-0.217
			c-0.125-0.143-0.188-0.395-0.188-0.75v-2.758H74.38z"/>
	</g>
	<rect x="10.62" y="20.694" fill="#EA5B0C" width="6.468" height="6.468"/>
	<rect x="17.761" y="20.694" fill="#95C11F" width="6.468" height="6.468"/>
	<rect x="10.62" y="27.839" fill="#009FE3" width="6.468" height="6.467"/>
	<rect x="17.761" y="27.839" fill="#FDC300" width="6.468" height="6.467"/>
</g>
</svg>
