<?xml version="1.0" encoding="utf-8"?>
<!-- Generator: Adobe Illustrator 16.0.0, SVG Export Plug-In . SVG Version: 6.00 Build 0)  -->
<!DOCTYPE svg PUBLIC "-//W3C//DTD SVG 1.1//EN" "http://www.w3.org/Graphics/SVG/1.1/DTD/svg11.dtd">
<svg version="1.1" id="Camada_1" xmlns="http://www.w3.org/2000/svg" xmlns:xlink="http://www.w3.org/1999/xlink" x="0px" y="0px"
	 width="85px" height="55px" viewBox="0 0 85 55" enable-background="new 0 0 85 55" xml:space="preserve">
<g>
	<path fill-rule="evenodd" clip-rule="evenodd" fill="#2FB6BC" d="M52.859,27.5c1.372-1.373,2.221-3.268,2.221-5.362
		c0-4.188-3.395-7.583-7.583-7.583s-7.583,3.396-7.583,7.583c0,2.095,0.849,3.99,2.221,5.362c-1.373,1.372-2.221,3.268-2.221,5.362
		c0,4.188,3.395,7.583,7.583,7.583s7.583-3.395,7.583-7.583C55.08,30.768,54.231,28.872,52.859,27.5z"/>
	<path fill-rule="evenodd" clip-rule="evenodd" fill="#E30134" d="M38.417,36.653V21.487c0-2.094-1.698-3.791-3.792-3.791
		c-2.094,0-3.792,1.697-3.792,3.791v15.166c0,2.095,1.697,3.792,3.792,3.792C36.719,40.445,38.417,38.748,38.417,36.653z"/>
	<path fill-rule="evenodd" clip-rule="evenodd" fill="#E30134" d="M71.094,17.696H60.369c-2.093,0-3.791,1.697-3.79,3.791
		c0,2.094,1.697,3.792,3.79,3.792h1.571v11.375c0,2.095,1.698,3.792,3.792,3.792s3.791-1.697,3.791-3.792V25.279h1.57
		c2.095,0,3.792-1.697,3.792-3.791C74.886,19.394,73.188,17.696,71.094,17.696z"/>
	<path fill-rule="evenodd" clip-rule="evenodd" fill="#E30134" d="M25.544,40.445c2.094,0,3.792-1.697,3.792-3.792
		c0-2.094-1.697-3.791-3.792-3.791h-4.056c-2.094,0-3.792-1.697-3.792-3.792c0-2.094,1.697-3.792,3.792-3.792h4.056
		c2.094,0,3.792-1.697,3.792-3.792c0-2.094-1.697-3.791-3.792-3.791h-4.056c-6.281,0-11.375,5.092-11.375,11.374
		c0,6.283,5.093,11.375,11.375,11.375H25.544z"/>
	<g>
		<path fill-rule="evenodd" clip-rule="evenodd" fill="#E30134" d="M42.135,27.5c-1.373-1.373-2.221-3.268-2.221-5.362
			c0-4.042,3.163-7.345,7.149-7.57c-0.649,0.1-1.274,0.401-1.777,0.904c-1.24,1.24-1.256,3.235-0.034,4.456l14.08,14.045
			c1.48,1.48,1.48,3.882,0,5.362s-3.881,1.48-5.362,0L42.135,27.5z"/>
	</g>
</g>
</svg>
