<?xml version="1.0" encoding="utf-8"?>
<!-- Generator: Adobe Illustrator 16.0.0, SVG Export Plug-In . SVG Version: 6.00 Build 0)  -->
<!DOCTYPE svg PUBLIC "-//W3C//DTD SVG 1.1//EN" "http://www.w3.org/Graphics/SVG/1.1/DTD/svg11.dtd">
<svg version="1.1" id="Camada_1" xmlns="http://www.w3.org/2000/svg" xmlns:xlink="http://www.w3.org/1999/xlink" x="0px" y="0px"
	 width="85px" height="55px" viewBox="0 0 85 55" enable-background="new 0 0 85 55" xml:space="preserve">
<g>
	<path fill="#27348B" d="M70.798,28.601l1.031,0.553c0.595,0.317,0.966,0.548,1.135,0.69c0.254,0.226,0.375,0.479,0.375,0.778
		c0,0.342-0.126,0.589-0.364,0.766c-0.246,0.185-0.345,0.273-0.884,0.278c-1.121,0.008-1.972-0.674-2.453-1.188v1.047
		c0.502,0.347,1.402,0.819,2.548,0.819c0.776,0,1.428-0.191,1.94-0.584c0.515-0.393,0.775-0.887,0.775-1.471
		c0-0.437-0.146-0.822-0.438-1.146c-0.288-0.313-0.776-0.647-1.447-1.001l-1.061-0.563c-0.389-0.205-0.665-0.397-0.837-0.573
		c-0.16-0.16-0.242-0.354-0.242-0.587c0-0.258,0.103-0.444,0.3-0.578c0.218-0.148,0.471-0.259,0.761-0.222
		c1.192,0.151,2.455,1.057,2.455,1.057v-1.772c0,0-0.327,0.438-0.888,0.349c-0.018-0.002-0.199-0.042-0.609-0.164
		c-0.395-0.121-0.745-0.186-1.047-0.186c-0.705,0-1.287,0.185-1.729,0.565c-0.438,0.377-0.658,0.852-0.658,1.411
		c0,0.436,0.191,0.833,0.559,1.184C70.218,28.246,70.479,28.426,70.798,28.601z"/>
	<path fill="#27348B" d="M32.213,29.422v-4.373h-1.924c0.763,0,1.174,0.859,1.174,1.665v2.708c0,0.654-0.082,1.117-0.228,1.401
		c-0.257,0.501-0.762,0.771-1.576,0.771c-0.734,0-1.198-0.257-1.443-0.749c-0.135-0.273-0.208-0.671-0.208-1.204v-4.59h-2.522
		c0.763,0,1.174,0.86,1.174,1.664v2.852c0,0.654,0.112,1.199,0.348,1.621c0.44,0.793,1.264,1.168,2.418,1.168
		c1.167,0,1.999-0.383,2.439-1.185C32.103,30.738,32.213,30.149,32.213,29.422z"/>
	<path fill="#27348B" d="M41.904,26.715v5.494h1.349V25.05h-2.523C41.493,25.05,41.904,25.911,41.904,26.715z"/>
	<path fill="#27348B" d="M48.087,28.143l-1.06-0.563c-0.39-0.205-0.666-0.397-0.837-0.573c-0.161-0.16-0.242-0.354-0.242-0.587
		c0-0.258,0.102-0.444,0.3-0.578c0.216-0.148,0.471-0.259,0.76-0.222c1.191,0.151,2.454,1.057,2.454,1.057v-1.772
		c0,0-0.325,0.438-0.887,0.349c-0.019-0.002-0.2-0.042-0.609-0.164c-0.396-0.121-0.745-0.186-1.046-0.186
		c-0.705,0-1.288,0.185-1.73,0.565c-0.438,0.377-0.657,0.852-0.657,1.411c0,0.436,0.19,0.833,0.558,1.184
		c0.197,0.184,0.459,0.363,0.778,0.538l1.031,0.553c0.595,0.317,0.966,0.548,1.136,0.69c0.253,0.226,0.375,0.479,0.375,0.778
		c0,0.342-0.127,0.589-0.365,0.766c-0.246,0.185-0.345,0.273-0.884,0.278c-1.12,0.008-1.972-0.674-2.453-1.188v1.047
		c0.503,0.347,1.402,0.819,2.548,0.819c0.776,0,1.429-0.191,1.939-0.584c0.516-0.393,0.777-0.887,0.777-1.471
		c0-0.437-0.146-0.822-0.438-1.146C49.245,28.831,48.757,28.496,48.087,28.143z"/>
	<path fill="#27348B" d="M34.354,26.715v5.494h0.75v-5.297l4.274,5.297h0.492V25.05h-1.924c0.763,0,1.174,0.86,1.174,1.665v3.056
		l-3.779-4.721h-2.162C33.943,25.05,34.354,25.911,34.354,26.715z"/>
	<path fill="#27348B" d="M65.206,32.354c0.944,0,1.755-0.31,2.425-0.931c0.75-0.695,1.121-1.634,1.121-2.792
		c0-1.141-0.357-2.068-1.083-2.765c-0.668-0.644-1.492-0.963-2.463-0.963c-0.968,0-1.79,0.319-2.458,0.958
		c-0.728,0.701-1.088,1.63-1.088,2.771c0,1.086,0.337,1.987,1.02,2.69C63.35,32.011,64.196,32.354,65.206,32.354z M63.74,26.304
		c0.405-0.493,0.893-0.732,1.466-0.732c0.553,0,1.034,0.23,1.449,0.704c0.404,0.464,0.622,1.237,0.622,2.355
		c0,1.105-0.216,1.876-0.618,2.347c-0.407,0.478-0.89,0.707-1.453,0.707c-0.577,0-1.063-0.237-1.466-0.727
		c-0.398-0.485-0.61-1.251-0.61-2.327C63.13,27.551,63.342,26.786,63.74,26.304z"/>
	<path fill="#27348B" d="M20.089,30.823v-3.347c0-0.519,0.017-3.141,2.058-3.865c0.503-0.188,1.398-0.172,1.461-0.973
		c0.031-0.345,0.157-1.57,0.157-1.57c0.142-1.272,1.477-1.681,2.31-1.886H23.42c0,0-2.765,0.031-2.984,1.884
		c0,0-0.126,1.227-0.158,1.572c-0.063,0.801-0.958,0.786-1.461,0.973c-2.026,0.724-2.058,3.3-2.058,3.865v3.347
		c0,0.926-0.738,1.665-1.665,1.665c-0.911,0-1.666-0.739-1.666-1.665V25.01h-3.33v5.813c0,2.763,2.246,4.995,4.996,4.995
		C17.859,35.818,20.089,33.586,20.089,30.823z"/>
	<path fill="#27348B" d="M51.523,26.715v5.494h1.35V25.05H50.35C51.113,25.05,51.523,25.911,51.523,26.715z"/>
	<path fill="#27348B" d="M59.66,26.715v3.056l-3.777-4.721h-2.162c0.763,0,1.174,0.86,1.174,1.665v5.494h0.751v-5.297l4.273,5.297
		h0.493V25.05h-1.925C59.25,25.05,59.66,25.911,59.66,26.715z"/>
</g>
</svg>
