<?xml version="1.0" encoding="utf-8"?>
<!-- Generator: Adobe Illustrator 16.0.0, SVG Export Plug-In . SVG Version: 6.00 Build 0)  -->
<!DOCTYPE svg PUBLIC "-//W3C//DTD SVG 1.1//EN" "http://www.w3.org/Graphics/SVG/1.1/DTD/svg11.dtd">
<svg version="1.1" id="Camada_1" xmlns="http://www.w3.org/2000/svg" xmlns:xlink="http://www.w3.org/1999/xlink" x="0px" y="0px"
	 width="85px" height="55px" viewBox="0 0 85 55" enable-background="new 0 0 85 55" xml:space="preserve">
<g>
	<path fill-rule="evenodd" clip-rule="evenodd" fill="#17130F" d="M21.537,29.691l-0.817,1.396h-3.771
		c-4.205,0-6.717-3.228-6.717-6.448c0-3.354,2.513-6.537,6.717-6.537c2.3,0,4.232,1.283,5.15,2.959l-1.987,1.699
		c-0.774-1.141-1.9-1.94-3.212-1.94c-2.417,0-4.088,1.764-4.088,3.915c0,1.808,1.368,3.914,4.088,3.914h1.895L21.537,29.691
		L21.537,29.691z M29.297,31.088h-2.782v-2.444l2.782,1.047V31.088L29.297,31.088z M34.96,31.088h-2.727v-9.786v0l2.727,1.026v1.6
		h1.718c1.103,0,2.01-0.55,2.01-1.531s-0.941-1.605-2.01-1.605h-5.729v-2.055h6.547c2.137,0,4.021,1.521,4.021,3.619
		c0,2.097-1.916,3.618-4.021,3.619H34.96V31.088L34.96,31.088z M45.712,31.088h-2.727v-9.787l0.001,0.001l2.726,1.026v1.6h1.718
		c1.103,0,2.01-0.55,2.01-1.531s-0.941-1.605-2.01-1.605h-5.73v-2.055h6.548c2.136,0,4.021,1.521,4.021,3.619
		c0,2.097-1.916,3.619-4.021,3.619h-2.535V31.088L45.712,31.088z M73.079,31.088h-2.782v-2.438l2.766,1.041l0.017-0.092V31.088
		L73.079,31.088z M56.52,31.088h-2.727v-9.786l2.727,1.026v1.599h1.718c1.103,0,2.01-0.55,2.01-1.531s-0.941-1.605-2.01-1.605
		h-5.729v-2.055h6.547c2.137,0,4.021,1.521,4.021,3.619c0,1.488-0.965,2.687-2.277,3.257l1.763,3.036l2.756,1.049l-0.813,1.391
		h-3.587l-2.604-5.113H56.52V31.088L56.52,31.088z M29.297,25.975h1.651v2.157H19.14l6.282-9.396h3.875V25.975L29.297,25.975z
		 M73.079,25.975h1.651v2.157H62.907l6.298-9.396h3.874V25.975L73.079,25.975z M23.718,25.963l-0.006,0.012h2.803v-4.792
		L23.718,25.963L23.718,25.963z M67.494,25.975h2.803v-4.792L67.494,25.975L67.494,25.975z"/>
	<path fill-rule="evenodd" clip-rule="evenodd" fill="#17130F" d="M39.973,34.37h-1.042c-0.003,0.04-0.007,0.095-0.013,0.163
		c-0.005,0.068-0.011,0.139-0.017,0.213c-0.005,0.073-0.011,0.146-0.017,0.215c-0.005,0.069-0.011,0.124-0.016,0.165
		c0.414,0.016,0.718,0.104,0.912,0.265c0.193,0.16,0.29,0.379,0.29,0.655c0,0.123-0.021,0.237-0.064,0.342
		c-0.042,0.104-0.106,0.193-0.193,0.269c-0.086,0.075-0.195,0.135-0.327,0.177c-0.132,0.043-0.288,0.064-0.47,0.064
		c-0.071,0-0.144-0.005-0.218-0.016s-0.143-0.024-0.206-0.04c-0.063-0.017-0.119-0.032-0.169-0.049
		c-0.049-0.016-0.085-0.029-0.106-0.04l0.074-0.325c0.046,0.021,0.122,0.049,0.229,0.084c0.105,0.035,0.234,0.053,0.389,0.053
		c0.123,0,0.228-0.014,0.311-0.041c0.084-0.026,0.151-0.063,0.204-0.107c0.053-0.046,0.09-0.099,0.113-0.159
		s0.035-0.124,0.035-0.191c0-0.102-0.018-0.191-0.054-0.271s-0.099-0.146-0.189-0.199s-0.211-0.094-0.362-0.122
		s-0.342-0.043-0.572-0.043c0.017-0.131,0.029-0.254,0.039-0.369c0.01-0.116,0.019-0.229,0.026-0.338
		c0.009-0.109,0.016-0.219,0.021-0.327c0.006-0.108,0.012-0.224,0.017-0.344h1.376V34.37L39.973,34.37z M45.313,36.897
		c-0.2,0-0.383-0.032-0.548-0.096c-0.164-0.064-0.306-0.158-0.424-0.281c-0.118-0.124-0.209-0.275-0.273-0.457
		c-0.065-0.181-0.097-0.388-0.097-0.62c0-0.233,0.035-0.44,0.108-0.621s0.171-0.333,0.295-0.456
		c0.123-0.123,0.268-0.217,0.432-0.281c0.165-0.064,0.341-0.097,0.527-0.097c0.118,0,0.225,0.009,0.319,0.024
		s0.177,0.035,0.247,0.056c0.07,0.022,0.127,0.044,0.171,0.064c0.044,0.021,0.074,0.038,0.091,0.049l-0.115,0.321
		c-0.025-0.016-0.061-0.033-0.107-0.052c-0.047-0.02-0.1-0.038-0.158-0.057c-0.06-0.02-0.124-0.034-0.194-0.047
		c-0.069-0.012-0.141-0.018-0.212-0.018c-0.15,0-0.286,0.025-0.407,0.076c-0.12,0.051-0.224,0.125-0.309,0.222
		c-0.085,0.096-0.15,0.213-0.195,0.351c-0.046,0.139-0.068,0.293-0.068,0.465c0,0.166,0.02,0.317,0.06,0.454
		c0.04,0.136,0.1,0.253,0.179,0.352c0.08,0.098,0.18,0.173,0.299,0.227s0.259,0.08,0.418,0.08c0.184,0,0.336-0.019,0.457-0.056
		c0.121-0.038,0.212-0.071,0.271-0.101l0.104,0.321c-0.02,0.013-0.054,0.03-0.104,0.051c-0.049,0.02-0.11,0.039-0.185,0.058
		s-0.161,0.035-0.26,0.049C45.535,36.891,45.428,36.897,45.313,36.897L45.313,36.897z M55.44,36.564c0.244,0,0.42-0.047,0.525-0.141
		s0.158-0.22,0.158-0.378c0-0.102-0.021-0.188-0.066-0.258c-0.043-0.069-0.101-0.125-0.172-0.166
		c-0.072-0.042-0.155-0.071-0.25-0.088c-0.094-0.018-0.191-0.027-0.29-0.027h-0.099v-0.305h0.136c0.068,0,0.14-0.007,0.212-0.021
		c0.073-0.013,0.14-0.037,0.2-0.072c0.06-0.035,0.109-0.082,0.147-0.143c0.039-0.061,0.059-0.136,0.059-0.227
		c0-0.075-0.015-0.14-0.042-0.193s-0.063-0.098-0.108-0.133c-0.046-0.034-0.098-0.06-0.157-0.074
		c-0.059-0.015-0.121-0.021-0.188-0.021c-0.131,0-0.243,0.019-0.335,0.056s-0.17,0.077-0.232,0.116l-0.148-0.284
		c0.033-0.022,0.074-0.046,0.126-0.07c0.05-0.026,0.107-0.05,0.171-0.07c0.063-0.022,0.131-0.04,0.203-0.055
		c0.073-0.015,0.149-0.022,0.229-0.022c0.151,0,0.281,0.019,0.392,0.055c0.109,0.036,0.2,0.087,0.271,0.152s0.125,0.144,0.161,0.233
		c0.035,0.09,0.053,0.187,0.053,0.291c0,0.145-0.042,0.269-0.127,0.372c-0.086,0.103-0.188,0.182-0.31,0.235
		c0.074,0.021,0.146,0.052,0.215,0.092c0.068,0.04,0.128,0.091,0.179,0.153c0.051,0.062,0.092,0.132,0.124,0.213
		c0.031,0.08,0.047,0.169,0.047,0.269c0,0.12-0.021,0.232-0.063,0.336c-0.043,0.103-0.108,0.191-0.198,0.267
		c-0.089,0.075-0.201,0.135-0.335,0.177c-0.135,0.043-0.294,0.064-0.478,0.064c-0.072,0-0.146-0.005-0.221-0.016
		s-0.146-0.024-0.212-0.04c-0.066-0.017-0.124-0.032-0.173-0.049c-0.05-0.016-0.085-0.029-0.107-0.04l0.074-0.325
		c0.047,0.021,0.124,0.049,0.232,0.084S55.284,36.564,55.44,36.564L55.44,36.564z M68.206,36.897c-0.2,0-0.383-0.032-0.548-0.096
		c-0.165-0.064-0.306-0.158-0.424-0.281c-0.118-0.124-0.209-0.275-0.273-0.457c-0.065-0.181-0.098-0.388-0.098-0.62
		c0-0.233,0.036-0.44,0.109-0.621c0.072-0.181,0.171-0.333,0.295-0.456c0.123-0.123,0.267-0.217,0.432-0.281s0.34-0.097,0.527-0.097
		c0.118,0,0.224,0.009,0.319,0.024c0.095,0.016,0.177,0.035,0.247,0.056c0.069,0.022,0.127,0.044,0.171,0.064
		c0.044,0.021,0.073,0.038,0.09,0.049l-0.115,0.321c-0.024-0.016-0.061-0.033-0.106-0.052c-0.047-0.02-0.1-0.038-0.158-0.057
		c-0.06-0.02-0.124-0.034-0.194-0.047c-0.07-0.012-0.141-0.018-0.212-0.018c-0.151,0-0.287,0.025-0.407,0.076
		c-0.121,0.051-0.224,0.125-0.31,0.222c-0.085,0.096-0.15,0.213-0.195,0.351c-0.045,0.139-0.067,0.293-0.067,0.465
		c0,0.166,0.02,0.317,0.06,0.454c0.04,0.136,0.099,0.253,0.179,0.352c0.08,0.098,0.18,0.173,0.299,0.227s0.259,0.08,0.418,0.08
		c0.184,0,0.336-0.019,0.457-0.056c0.12-0.038,0.211-0.071,0.271-0.101l0.103,0.321c-0.019,0.013-0.053,0.03-0.103,0.051
		c-0.05,0.02-0.111,0.039-0.186,0.058s-0.16,0.035-0.259,0.049C68.429,36.891,68.321,36.897,68.206,36.897L68.206,36.897z
		 M73.686,36.564c0.244,0,0.419-0.047,0.524-0.141s0.158-0.22,0.158-0.378c0-0.102-0.021-0.188-0.065-0.258
		c-0.044-0.069-0.102-0.125-0.173-0.166c-0.071-0.042-0.154-0.071-0.249-0.088c-0.095-0.018-0.191-0.027-0.291-0.027h-0.099v-0.305
		h0.136c0.069,0,0.14-0.007,0.213-0.021c0.072-0.013,0.139-0.037,0.199-0.072s0.11-0.082,0.148-0.143s0.058-0.136,0.058-0.227
		c0-0.075-0.014-0.14-0.041-0.193c-0.028-0.054-0.064-0.098-0.109-0.133c-0.045-0.034-0.098-0.06-0.156-0.074
		c-0.06-0.015-0.122-0.021-0.188-0.021c-0.132,0-0.243,0.019-0.336,0.056c-0.092,0.037-0.169,0.077-0.232,0.116l-0.148-0.284
		c0.033-0.022,0.075-0.046,0.126-0.07c0.051-0.026,0.107-0.05,0.171-0.07c0.063-0.022,0.131-0.04,0.204-0.055
		c0.072-0.015,0.148-0.022,0.229-0.022c0.15,0,0.281,0.019,0.391,0.055c0.11,0.036,0.2,0.087,0.271,0.152
		c0.072,0.065,0.125,0.144,0.161,0.233s0.054,0.187,0.054,0.291c0,0.145-0.043,0.269-0.128,0.372
		c-0.085,0.103-0.188,0.182-0.309,0.235c0.074,0.021,0.146,0.052,0.214,0.092s0.128,0.091,0.179,0.153
		c0.052,0.062,0.093,0.132,0.124,0.213c0.031,0.08,0.047,0.169,0.047,0.269c0,0.12-0.021,0.232-0.063,0.336
		c-0.043,0.103-0.108,0.191-0.197,0.267c-0.09,0.075-0.201,0.135-0.336,0.177c-0.135,0.043-0.294,0.064-0.478,0.064
		c-0.071,0-0.145-0.005-0.221-0.016c-0.075-0.011-0.146-0.024-0.212-0.04c-0.065-0.017-0.123-0.032-0.173-0.049
		c-0.049-0.016-0.085-0.029-0.106-0.04l0.074-0.325c0.046,0.021,0.124,0.049,0.232,0.084S73.528,36.564,73.686,36.564L73.686,36.564
		z M12.649,35.443c0,0.24-0.039,0.45-0.116,0.629c-0.076,0.178-0.185,0.325-0.324,0.441c-0.141,0.117-0.308,0.204-0.503,0.262
		s-0.409,0.086-0.642,0.086c-0.116,0-0.243-0.004-0.381-0.014c-0.14-0.01-0.265-0.027-0.377-0.055v-2.7
		c0.112-0.026,0.237-0.045,0.377-0.054c0.138-0.01,0.265-0.015,0.381-0.015c0.232,0,0.446,0.029,0.642,0.087
		s0.362,0.145,0.503,0.261c0.14,0.117,0.248,0.264,0.324,0.442C12.61,34.992,12.649,35.202,12.649,35.443L12.649,35.443z
		 M18.134,36.837h-0.371v-0.711h-1.276v-0.253c0.053-0.118,0.124-0.255,0.215-0.412c0.09-0.156,0.192-0.317,0.307-0.483
		c0.113-0.166,0.235-0.33,0.366-0.49c0.13-0.161,0.262-0.306,0.394-0.435h0.366v1.768h0.337v0.306h-0.337V36.837L18.134,36.837z
		 M23.223,36.837h-0.399c0.017-0.214,0.056-0.439,0.117-0.677s0.139-0.468,0.229-0.691c0.091-0.223,0.19-0.431,0.299-0.622
		s0.215-0.348,0.319-0.469h-1.388v-0.325h1.815v0.31c-0.091,0.102-0.19,0.242-0.301,0.42c-0.109,0.178-0.213,0.378-0.311,0.599
		s-0.182,0.457-0.251,0.707C23.282,36.339,23.239,36.588,23.223,36.837L23.223,36.837z M29.646,36.837h-0.37v-0.711h-1.276v-0.253
		c0.052-0.118,0.123-0.255,0.214-0.412c0.091-0.156,0.192-0.317,0.307-0.483s0.236-0.33,0.366-0.49
		c0.131-0.161,0.262-0.306,0.394-0.435h0.366v1.768h0.338v0.306h-0.338V36.837L29.646,36.837z M50.867,36.837h-0.384v-2.266
		c-0.032,0.029-0.073,0.06-0.121,0.093c-0.048,0.032-0.101,0.063-0.156,0.092c-0.057,0.029-0.115,0.058-0.177,0.084
		c-0.063,0.027-0.122,0.05-0.18,0.069l-0.119-0.281c0.156-0.06,0.309-0.135,0.457-0.228c0.148-0.092,0.284-0.208,0.407-0.348h0.272
		V36.837L50.867,36.837z M60.863,36.837h-0.392v-2.784h0.317c0.129,0.134,0.267,0.29,0.414,0.468
		c0.146,0.179,0.292,0.362,0.436,0.551c0.145,0.189,0.28,0.374,0.408,0.557s0.235,0.344,0.323,0.486v-2.062h0.392v2.784h-0.334
		c-0.061-0.099-0.13-0.21-0.208-0.333s-0.163-0.251-0.253-0.384c-0.091-0.133-0.185-0.267-0.282-0.404
		c-0.098-0.136-0.194-0.269-0.291-0.396c-0.096-0.127-0.188-0.247-0.279-0.359s-0.174-0.212-0.251-0.297V36.837L60.863,36.837z
		 M11.097,36.521c0.379,0,0.662-0.095,0.849-0.283c0.187-0.189,0.279-0.454,0.279-0.794c0-0.341-0.093-0.605-0.279-0.794
		s-0.47-0.283-0.849-0.283c-0.112,0-0.199,0.001-0.262,0.004c-0.062,0.003-0.104,0.005-0.129,0.008v2.13
		c0.024,0.003,0.067,0.005,0.129,0.008C10.897,36.519,10.984,36.521,11.097,36.521L11.097,36.521z M17.763,34.495
		c-0.082,0.085-0.165,0.182-0.249,0.287s-0.165,0.216-0.245,0.331c-0.079,0.115-0.154,0.233-0.224,0.354
		c-0.07,0.12-0.133,0.237-0.188,0.353h0.905V34.495L17.763,34.495z M29.275,34.495c-0.082,0.085-0.166,0.182-0.249,0.287
		c-0.084,0.105-0.166,0.216-0.245,0.331c-0.08,0.115-0.154,0.233-0.225,0.354c-0.07,0.12-0.133,0.237-0.188,0.353h0.906V34.495
		L29.275,34.495z"/>
</g>
</svg>
