<?xml version="1.0" encoding="utf-8"?>
<!-- Generator: Adobe Illustrator 16.0.0, SVG Export Plug-In . SVG Version: 6.00 Build 0)  -->
<!DOCTYPE svg PUBLIC "-//W3C//DTD SVG 1.1//EN" "http://www.w3.org/Graphics/SVG/1.1/DTD/svg11.dtd">
<svg version="1.1" id="Camada_1" xmlns="http://www.w3.org/2000/svg" xmlns:xlink="http://www.w3.org/1999/xlink" x="0px" y="0px"
	 width="85px" height="55px" viewBox="0 0 85 55" enable-background="new 0 0 85 55" xml:space="preserve">
<g>
	<path fill="#3B3735" d="M17.275,28.594c0.001-0.718,0.001-1.244,0.001-1.244c0,0-0.007-1.698-2.279-1.698l-0.004,2.942h-2.528l0,0
		c0.051-0.243,3.237-6.74,3.237-6.74c-2.188-0.789-2.792,0.695-2.792,0.695s-1.977,4.009-2.643,5.341
		c-0.813,1.63,0.466,2.987,1.712,2.987c0,0,2.413-0.003,3.014-0.002v1.962c0.389,0.062,0.766,0.092,1.132,0.092
		c0.377,0,0.76-0.03,1.147-0.092c0,0,0-1.676,0-1.96c0.009,0,0.013,0,0.013,0s1.698-0.008,1.698-2.279L17.275,28.594z"/>
	<path fill="#3B3735" d="M27.899,21.667c0.385-0.061,0.765-0.09,1.14-0.09c0.364,0,0.739,0.029,1.125,0.09v8.064
		c0,0.311,0.019,0.563,0.057,0.752c0.037,0.19,0.096,0.339,0.176,0.444c0.08,0.104,0.184,0.178,0.313,0.217
		c0.129,0.04,0.29,0.061,0.482,0.061c0.085,0,0.179-0.005,0.281-0.016c0.102-0.01,0.201-0.024,0.297-0.045
		c0.118,0.411,0.177,0.813,0.177,1.203v0.218c0,0.065-0.011,0.139-0.032,0.218c-0.171,0.051-0.377,0.085-0.618,0.105
		c-0.241,0.02-0.463,0.03-0.667,0.03c-0.825,0-1.485-0.213-1.984-0.64c-0.498-0.426-0.747-1.12-0.747-2.082V21.667z"/>
	<path fill="#3B3735" d="M32.311,21.667c0.385-0.061,0.765-0.09,1.14-0.09c0.364,0,0.739,0.029,1.125,0.09v8.064
		c0,0.311,0.019,0.563,0.057,0.752c0.037,0.19,0.096,0.339,0.176,0.444c0.081,0.104,0.185,0.178,0.313,0.217
		c0.129,0.04,0.29,0.061,0.482,0.061c0.085,0,0.179-0.005,0.281-0.016c0.102-0.01,0.201-0.024,0.297-0.045
		c0.118,0.411,0.177,0.813,0.177,1.203v0.218c0,0.065-0.011,0.139-0.032,0.218c-0.172,0.051-0.377,0.085-0.618,0.105
		c-0.241,0.02-0.463,0.03-0.667,0.03c-0.825,0-1.485-0.213-1.984-0.64c-0.498-0.426-0.747-1.12-0.747-2.082V21.667z"/>
	<path fill="#4D9E34" d="M35.41,39.154l-1.97-1.97c-2.478,2.477-5.9,4.008-9.68,4.008s-7.203-1.531-9.681-4.008l-1.97,1.97
		c2.982,2.981,7.101,4.824,11.65,4.824S32.428,42.136,35.41,39.154"/>
	<path fill="#4D9E34" d="M23.76,11.021c-4.55,0-8.668,1.844-11.65,4.825l1.97,1.97c2.478-2.477,5.9-4.009,9.681-4.009
		s7.203,1.532,9.68,4.009l1.97-1.97C32.428,12.865,28.31,11.021,23.76,11.021"/>
	<path fill="#3B3735" d="M24.427,27.18c0-0.261-0.044-0.474-0.131-0.637s-0.207-0.291-0.359-0.384
		c-0.152-0.093-0.34-0.155-0.563-0.188c-0.223-0.033-0.472-0.07-0.743-0.049c-2.308,0.181-2.335-1.008-2.335-1.355
		c0.479-0.164,0.958-0.283,1.437-0.359c0.479-0.076,0.925-0.115,1.339-0.115c1.133,0,2.018,0.272,2.654,0.816
		c0.637,0.546,0.956,1.416,0.956,2.613v4.899c-0.381,0.121-0.844,0.234-1.388,0.343c-0.544,0.109-1.159,0.164-1.845,0.164
		c-0.556,0-1.064-0.049-1.527-0.147c-0.463-0.098-0.86-0.262-1.192-0.49c-0.332-0.228-0.588-0.522-0.768-0.882
		c-0.179-0.359-0.27-0.8-0.27-1.322s0.112-0.961,0.335-1.315c0.223-0.353,0.512-0.637,0.866-0.849
		c0.354-0.212,0.749-0.364,1.184-0.457c0.435-0.093,0.871-0.14,1.306-0.14c0.316,0,0.664,0.017,1.045,0.05V27.18z M24.427,28.861
		c-0.131-0.021-0.272-0.04-0.424-0.057c-0.153-0.017-0.289-0.024-0.409-0.024c-0.534,0-0.956,0.095-1.266,0.286
		c-0.31,0.19-0.465,0.498-0.465,0.923c0,0.283,0.06,0.5,0.18,0.652c0.12,0.153,0.264,0.265,0.433,0.336
		c0.168,0.07,0.349,0.113,0.539,0.13c0.19,0.016,0.356,0.024,0.498,0.024c0.164,0,0.327-0.014,0.49-0.041
		c0.163-0.026,0.304-0.052,0.424-0.073V28.861z"/>
	<path fill="#3B3735" d="M44.158,25.235v-2.054c0-0.509,0.135-0.884,0.405-1.125s0.625-0.361,1.062-0.361
		c0.445,0,0.802,0.112,1.07,0.338c0.269,0.225,0.403,0.508,0.403,0.849c0,0.123-0.023,0.206-0.068,0.249
		c-0.046,0.044-0.119,0.065-0.219,0.065c-0.183,0-0.277-0.066-0.287-0.198c-0.026-0.523-0.322-0.784-0.886-0.784
		c-0.605,0-0.907,0.322-0.907,0.968v2.054c0,0.646,0.309,0.969,0.928,0.969c0.177,0,0.324-0.025,0.443-0.075
		c0.117-0.05,0.205-0.123,0.262-0.218c0.057-0.096,0.095-0.178,0.113-0.246c0.018-0.068,0.034-0.159,0.047-0.272
		c0.014-0.132,0.11-0.198,0.287-0.198c0.1,0,0.173,0.023,0.219,0.068c0.045,0.046,0.068,0.13,0.068,0.252
		c0,0.346-0.137,0.634-0.406,0.863c-0.271,0.229-0.629,0.345-1.074,0.345c-0.433,0-0.784-0.12-1.055-0.362
		C44.293,26.12,44.158,25.744,44.158,25.235"/>
	<path fill="#3B3735" d="M47.623,25.413v-0.696c0-0.35,0.133-0.655,0.399-0.917c0.266-0.262,0.581-0.393,0.944-0.393
		s0.68,0.13,0.948,0.389c0.269,0.26,0.402,0.566,0.402,0.921v0.696c0,0.346-0.135,0.652-0.406,0.921
		c-0.271,0.269-0.585,0.402-0.944,0.402s-0.673-0.133-0.941-0.399C47.757,26.071,47.623,25.763,47.623,25.413 M48.188,25.41
		c0,0.213,0.078,0.4,0.232,0.563s0.337,0.244,0.546,0.244c0.214,0,0.397-0.083,0.553-0.248c0.154-0.165,0.231-0.351,0.231-0.56
		v-0.69c0-0.204-0.077-0.387-0.231-0.55c-0.155-0.163-0.339-0.244-0.553-0.244s-0.396,0.081-0.549,0.244s-0.229,0.346-0.229,0.55
		V25.41z"/>
	<path fill="#3B3735" d="M50.999,26.477v-2.831c0-0.059,0.026-0.106,0.079-0.143c0.052-0.036,0.119-0.055,0.201-0.055
		c0.067,0,0.128,0.02,0.181,0.059c0.052,0.04,0.078,0.087,0.078,0.142v0.284c0.073-0.147,0.19-0.271,0.352-0.373
		s0.349-0.152,0.563-0.152c0.323,0,0.604,0.129,0.843,0.386s0.357,0.564,0.357,0.924v1.76c0,0.064-0.028,0.114-0.085,0.15
		s-0.124,0.055-0.201,0.055c-0.073,0-0.138-0.019-0.194-0.055s-0.085-0.086-0.085-0.149v-1.756c0-0.204-0.078-0.388-0.232-0.551
		s-0.336-0.245-0.546-0.245c-0.195,0-0.367,0.074-0.518,0.221c-0.15,0.147-0.226,0.34-0.226,0.575v1.756
		c0,0.05-0.029,0.097-0.088,0.14c-0.06,0.043-0.126,0.064-0.198,0.064c-0.077,0-0.144-0.021-0.197-0.062
		C51.026,26.579,50.999,26.531,50.999,26.477"/>
	<path fill="#3B3735" d="M54.308,25.413v-0.717c0-0.35,0.133-0.652,0.399-0.907c0.266-0.254,0.585-0.382,0.958-0.382
		c0.354,0,0.661,0.119,0.921,0.356c0.259,0.237,0.389,0.534,0.389,0.892c0,0.134-0.017,0.241-0.048,0.321
		c-0.031,0.081-0.08,0.138-0.146,0.173c-0.066,0.034-0.127,0.057-0.184,0.065c-0.058,0.009-0.134,0.014-0.229,0.014h-1.493v0.205
		c0,0.25,0.089,0.45,0.269,0.6c0.18,0.15,0.413,0.226,0.7,0.226c0.149,0,0.28-0.023,0.392-0.068c0.111-0.046,0.201-0.09,0.27-0.133
		s0.123-0.065,0.164-0.065c0.063,0,0.118,0.028,0.163,0.086c0.046,0.057,0.068,0.114,0.068,0.174c0,0.104-0.104,0.211-0.311,0.32
		c-0.206,0.109-0.462,0.164-0.767,0.164c-0.446,0-0.811-0.122-1.092-0.365C54.448,26.128,54.308,25.809,54.308,25.413 M54.874,24.84
		h1.262c0.118,0,0.197-0.015,0.238-0.045c0.041-0.029,0.062-0.087,0.062-0.174c0-0.204-0.075-0.384-0.226-0.538
		c-0.149-0.155-0.333-0.232-0.552-0.232c-0.214,0-0.398,0.071-0.553,0.215s-0.231,0.319-0.231,0.529V24.84z"/>
	<path fill="#3B3735" d="M57.486,25.413V24.73c0-0.391,0.114-0.709,0.345-0.955c0.229-0.245,0.566-0.368,1.013-0.368
		c0.282,0,0.519,0.051,0.713,0.15c0.192,0.1,0.29,0.207,0.29,0.32c0,0.063-0.024,0.126-0.072,0.188s-0.104,0.093-0.167,0.093
		c-0.018,0-0.097-0.039-0.235-0.116s-0.302-0.116-0.487-0.116c-0.273,0-0.48,0.07-0.621,0.21c-0.142,0.141-0.211,0.34-0.211,0.597
		v0.678c0,0.539,0.279,0.808,0.838,0.808c0.191,0,0.357-0.04,0.498-0.119c0.142-0.08,0.224-0.12,0.246-0.12
		c0.072,0,0.133,0.03,0.181,0.089c0.048,0.06,0.071,0.121,0.071,0.185c0,0.113-0.1,0.223-0.3,0.327s-0.446,0.157-0.736,0.157
		c-0.45,0-0.791-0.122-1.02-0.365C57.601,26.128,57.486,25.809,57.486,25.413"/>
	<path fill="#3B3735" d="M60.433,25.651v-3.513c0-0.055,0.029-0.101,0.089-0.14c0.059-0.039,0.123-0.058,0.19-0.058
		c0.073,0,0.139,0.019,0.198,0.058s0.089,0.085,0.089,0.14v1.31h0.859c0.05,0,0.091,0.022,0.122,0.068
		c0.032,0.045,0.049,0.098,0.049,0.157c0,0.059-0.017,0.11-0.049,0.153c-0.031,0.043-0.072,0.064-0.122,0.064h-0.859v1.744
		c0,0.194,0.042,0.33,0.126,0.409s0.23,0.118,0.44,0.118h0.211c0.077,0,0.138,0.025,0.181,0.074c0.043,0.05,0.065,0.11,0.065,0.182
		c0,0.07-0.022,0.132-0.068,0.185c-0.046,0.052-0.104,0.078-0.178,0.078h-0.211C60.811,26.682,60.433,26.338,60.433,25.651"/>
	<path fill="#3B3735" d="M62.35,25.837c0-0.357,0.137-0.606,0.409-0.746c0.272-0.141,0.668-0.21,1.187-0.21h0.328v-0.145
		c0-0.229-0.063-0.428-0.188-0.598c-0.125-0.169-0.313-0.254-0.563-0.254c-0.19,0-0.358,0.034-0.505,0.103
		c-0.146,0.068-0.225,0.103-0.238,0.103c-0.064,0-0.115-0.031-0.153-0.093c-0.039-0.062-0.059-0.126-0.059-0.194
		c0-0.104,0.104-0.196,0.311-0.276c0.207-0.079,0.426-0.119,0.658-0.119c0.445,0,0.774,0.126,0.985,0.379
		c0.212,0.252,0.317,0.567,0.317,0.944v1.746c0,0.06-0.026,0.108-0.078,0.146c-0.052,0.039-0.119,0.059-0.201,0.059
		c-0.072,0-0.135-0.019-0.185-0.057c-0.05-0.037-0.075-0.085-0.075-0.143v-0.266c-0.309,0.347-0.652,0.52-1.029,0.52
		c-0.273,0-0.495-0.077-0.665-0.23C62.435,26.353,62.35,26.13,62.35,25.837 M62.923,25.774c0,0.171,0.048,0.3,0.143,0.387
		c0.096,0.088,0.224,0.132,0.383,0.132c0.19,0,0.376-0.077,0.556-0.231c0.179-0.154,0.27-0.313,0.27-0.474v-0.359h-0.239
		c-0.132,0-0.245,0.004-0.341,0.011s-0.194,0.021-0.297,0.041s-0.187,0.051-0.252,0.09c-0.066,0.039-0.12,0.093-0.16,0.159
		C62.942,25.596,62.923,25.678,62.923,25.774"/>
	<path fill="#3B3735" d="M65.617,26.477v-2.831c0-0.059,0.025-0.106,0.078-0.143c0.052-0.036,0.119-0.055,0.201-0.055
		c0.068,0,0.128,0.02,0.181,0.059c0.052,0.04,0.078,0.087,0.078,0.142v0.284c0.073-0.147,0.19-0.271,0.352-0.373
		s0.349-0.152,0.563-0.152c0.323,0,0.604,0.129,0.843,0.386s0.357,0.564,0.357,0.924v1.76c0,0.064-0.028,0.114-0.085,0.15
		s-0.123,0.055-0.2,0.055c-0.073,0-0.139-0.019-0.195-0.055s-0.085-0.086-0.085-0.149v-1.756c0-0.204-0.078-0.388-0.232-0.551
		s-0.336-0.245-0.546-0.245c-0.195,0-0.367,0.074-0.518,0.221c-0.15,0.147-0.226,0.34-0.226,0.575v1.756
		c0,0.05-0.029,0.097-0.088,0.14c-0.06,0.043-0.125,0.064-0.198,0.064c-0.077,0-0.144-0.021-0.197-0.062
		C65.644,26.579,65.617,26.531,65.617,26.477"/>
	<path fill="#3B3735" d="M68.925,25.413v-0.696c0-0.359,0.121-0.667,0.361-0.924c0.241-0.257,0.527-0.386,0.859-0.386
		c0.205,0,0.385,0.051,0.539,0.152s0.273,0.226,0.354,0.373v-2.23c0-0.06,0.027-0.106,0.082-0.144
		c0.055-0.036,0.123-0.055,0.204-0.055c0.083,0,0.149,0.019,0.202,0.055c0.052,0.037,0.078,0.084,0.078,0.144v4.775
		c0,0.055-0.027,0.102-0.081,0.143c-0.056,0.041-0.121,0.062-0.199,0.062c-0.067,0-0.128-0.021-0.18-0.063
		c-0.053-0.042-0.079-0.09-0.079-0.146v-0.276c-0.077,0.147-0.202,0.274-0.375,0.38s-0.361,0.159-0.566,0.159
		c-0.318,0-0.598-0.134-0.839-0.402C69.046,26.065,68.925,25.759,68.925,25.413 M69.491,25.41c0,0.209,0.077,0.395,0.231,0.56
		s0.334,0.248,0.539,0.248c0.2,0,0.38-0.075,0.539-0.228c0.159-0.151,0.238-0.283,0.238-0.396V24.72
		c0-0.235-0.077-0.427-0.231-0.573c-0.154-0.147-0.334-0.221-0.539-0.221c-0.209,0-0.392,0.081-0.546,0.244s-0.231,0.346-0.231,0.55
		V25.41z"/>
	<path fill="#3B3735" d="M72.295,25.413v-0.696c0-0.35,0.132-0.655,0.398-0.917c0.266-0.262,0.581-0.393,0.945-0.393
		c0.363,0,0.68,0.13,0.947,0.389c0.269,0.26,0.402,0.566,0.402,0.921v0.696c0,0.346-0.135,0.652-0.405,0.921
		s-0.586,0.402-0.944,0.402c-0.359,0-0.674-0.133-0.942-0.399C72.429,26.071,72.295,25.763,72.295,25.413 M72.86,25.41
		c0,0.213,0.077,0.4,0.232,0.563c0.154,0.163,0.336,0.244,0.546,0.244c0.213,0,0.397-0.083,0.552-0.248s0.232-0.351,0.232-0.56
		v-0.69c0-0.204-0.078-0.387-0.232-0.55s-0.339-0.244-0.552-0.244c-0.214,0-0.397,0.081-0.55,0.244s-0.229,0.346-0.229,0.55V25.41z"
		/>
	<path fill="#3B3735" d="M44.124,32.538v-2.831c0-0.059,0.026-0.106,0.078-0.143c0.053-0.037,0.119-0.055,0.201-0.055
		c0.073,0,0.134,0.019,0.185,0.055c0.05,0.037,0.075,0.086,0.075,0.146v0.283c0.082-0.152,0.201-0.278,0.358-0.377
		c0.156-0.1,0.339-0.148,0.549-0.148c0.208,0,0.396,0.063,0.563,0.188c0.166,0.127,0.29,0.294,0.371,0.5
		c0.114-0.226,0.265-0.396,0.45-0.513c0.187-0.117,0.383-0.176,0.587-0.176c0.318,0,0.593,0.118,0.822,0.354
		s0.344,0.555,0.344,0.955v1.76c0,0.05-0.028,0.097-0.085,0.14s-0.124,0.065-0.2,0.065c-0.073,0-0.139-0.022-0.195-0.065
		c-0.057-0.042-0.085-0.09-0.085-0.139v-1.756c0-0.245-0.072-0.438-0.215-0.582c-0.144-0.143-0.311-0.214-0.501-0.214
		c-0.191,0-0.361,0.072-0.509,0.218c-0.148,0.146-0.222,0.331-0.222,0.558v1.782c0,0.064-0.028,0.113-0.086,0.146
		c-0.057,0.034-0.123,0.052-0.2,0.052c-0.073,0-0.138-0.018-0.195-0.052c-0.057-0.033-0.085-0.082-0.085-0.146V30.77
		c0-0.227-0.069-0.413-0.208-0.562c-0.139-0.147-0.306-0.221-0.501-0.221c-0.196,0-0.366,0.072-0.512,0.218
		s-0.218,0.338-0.218,0.578v1.756c0,0.049-0.028,0.097-0.085,0.139c-0.058,0.043-0.125,0.065-0.202,0.065s-0.143-0.021-0.198-0.063
		C44.151,32.641,44.124,32.593,44.124,32.538"/>
	<path fill="#3B3735" d="M49.362,31.474v-0.695c0-0.351,0.133-0.656,0.399-0.918c0.266-0.261,0.581-0.392,0.944-0.392
		c0.364,0,0.681,0.13,0.948,0.389s0.402,0.566,0.402,0.921v0.695c0,0.346-0.135,0.652-0.405,0.922
		c-0.271,0.268-0.586,0.401-0.945,0.401s-0.673-0.133-0.941-0.398C49.497,32.132,49.362,31.824,49.362,31.474 M49.929,31.472
		c0,0.213,0.077,0.4,0.231,0.563s0.337,0.244,0.546,0.244c0.214,0,0.398-0.083,0.553-0.248s0.231-0.352,0.231-0.56V30.78
		c0-0.203-0.077-0.387-0.231-0.549c-0.154-0.163-0.339-0.244-0.553-0.244s-0.396,0.081-0.549,0.244
		c-0.152,0.162-0.229,0.346-0.229,0.549V31.472z"/>
	<path fill="#3B3735" d="M52.738,32.538v-2.831c0-0.059,0.026-0.106,0.079-0.143c0.052-0.037,0.119-0.055,0.201-0.055
		c0.072,0,0.134,0.019,0.184,0.055c0.051,0.037,0.075,0.086,0.075,0.146v0.283c0.082-0.152,0.201-0.278,0.358-0.377
		c0.157-0.1,0.34-0.148,0.549-0.148c0.21,0,0.397,0.063,0.563,0.188c0.166,0.127,0.29,0.294,0.373,0.5
		c0.113-0.226,0.263-0.396,0.449-0.513s0.382-0.176,0.587-0.176c0.318,0,0.592,0.118,0.822,0.354
		c0.229,0.236,0.344,0.555,0.344,0.955v1.76c0,0.05-0.028,0.097-0.085,0.14s-0.124,0.065-0.201,0.065
		c-0.072,0-0.138-0.022-0.194-0.065c-0.057-0.042-0.085-0.09-0.085-0.139v-1.756c0-0.245-0.072-0.438-0.216-0.582
		c-0.143-0.143-0.31-0.214-0.501-0.214s-0.36,0.072-0.508,0.218s-0.222,0.331-0.222,0.558v1.782c0,0.064-0.028,0.113-0.085,0.146
		c-0.058,0.034-0.125,0.052-0.202,0.052c-0.072,0-0.137-0.018-0.193-0.052c-0.058-0.033-0.086-0.082-0.086-0.146V30.77
		c0-0.227-0.069-0.413-0.208-0.562c-0.139-0.147-0.307-0.221-0.501-0.221c-0.195,0-0.366,0.072-0.512,0.218
		s-0.219,0.338-0.219,0.578v1.756c0,0.049-0.028,0.097-0.085,0.139c-0.058,0.043-0.124,0.065-0.201,0.065
		c-0.078,0-0.144-0.021-0.198-0.063C52.767,32.641,52.738,32.593,52.738,32.538"/>
	<path fill="#3B3735" d="M57.978,31.474v-0.716c0-0.351,0.133-0.652,0.398-0.907c0.267-0.255,0.586-0.382,0.959-0.382
		c0.354,0,0.661,0.119,0.921,0.355c0.259,0.238,0.389,0.536,0.389,0.893c0,0.134-0.016,0.24-0.048,0.321s-0.081,0.138-0.146,0.172
		c-0.066,0.035-0.128,0.057-0.185,0.066c-0.057,0.009-0.133,0.014-0.229,0.014h-1.494v0.204c0,0.25,0.091,0.45,0.271,0.601
		c0.179,0.15,0.412,0.225,0.698,0.225c0.15,0,0.281-0.022,0.393-0.068c0.111-0.045,0.201-0.089,0.27-0.132
		c0.068-0.044,0.123-0.065,0.163-0.065c0.064,0,0.119,0.028,0.164,0.086c0.046,0.057,0.068,0.114,0.068,0.174
		c0,0.104-0.104,0.211-0.311,0.32s-0.463,0.163-0.768,0.163c-0.445,0-0.809-0.121-1.091-0.364
		C58.118,32.188,57.978,31.869,57.978,31.474 M58.543,30.901h1.263c0.118,0,0.197-0.016,0.238-0.045s0.062-0.088,0.062-0.174
		c0-0.204-0.075-0.384-0.225-0.538c-0.15-0.155-0.335-0.232-0.553-0.232c-0.214,0-0.398,0.071-0.553,0.215
		c-0.155,0.144-0.232,0.319-0.232,0.528V30.901z"/>
	<path fill="#3B3735" d="M61.272,32.538v-2.831c0-0.059,0.025-0.106,0.078-0.143c0.052-0.037,0.119-0.055,0.201-0.055
		c0.068,0,0.128,0.02,0.181,0.059c0.052,0.039,0.078,0.087,0.078,0.143v0.283c0.073-0.147,0.19-0.272,0.352-0.373
		c0.161-0.102,0.349-0.152,0.563-0.152c0.323,0,0.604,0.128,0.843,0.386c0.238,0.257,0.357,0.564,0.357,0.924v1.76
		c0,0.063-0.028,0.114-0.085,0.15s-0.124,0.055-0.201,0.055c-0.073,0-0.138-0.019-0.194-0.055s-0.086-0.087-0.086-0.149v-1.756
		c0-0.204-0.077-0.388-0.231-0.551c-0.154-0.164-0.336-0.245-0.546-0.245c-0.195,0-0.367,0.073-0.518,0.221
		c-0.15,0.148-0.226,0.339-0.226,0.575v1.756c0,0.049-0.029,0.097-0.088,0.139c-0.06,0.043-0.126,0.065-0.198,0.065
		c-0.077,0-0.144-0.021-0.198-0.063C61.299,32.641,61.272,32.593,61.272,32.538"/>
	<path fill="#3B3735" d="M64.689,31.713v-3.514c0-0.054,0.029-0.101,0.088-0.14c0.06-0.038,0.123-0.058,0.191-0.058
		c0.073,0,0.139,0.02,0.198,0.058c0.059,0.039,0.089,0.086,0.089,0.14v1.311h0.859c0.049,0,0.091,0.022,0.122,0.068
		c0.032,0.045,0.048,0.098,0.048,0.157c0,0.059-0.016,0.109-0.048,0.153c-0.031,0.043-0.073,0.064-0.122,0.064h-0.859v1.744
		c0,0.193,0.042,0.33,0.125,0.408c0.085,0.079,0.231,0.119,0.44,0.119h0.212c0.077,0,0.137,0.024,0.181,0.074
		c0.043,0.05,0.064,0.11,0.064,0.182c0,0.07-0.022,0.132-0.068,0.184c-0.046,0.053-0.104,0.079-0.177,0.079h-0.212
		C65.066,32.743,64.689,32.399,64.689,31.713"/>
	<path fill="#3B3735" d="M66.64,31.474v-0.695c0-0.351,0.133-0.656,0.399-0.918c0.266-0.261,0.581-0.392,0.945-0.392
		c0.363,0,0.679,0.13,0.947,0.389s0.402,0.566,0.402,0.921v0.695c0,0.346-0.135,0.652-0.405,0.922
		c-0.271,0.268-0.586,0.401-0.944,0.401c-0.36,0-0.674-0.133-0.941-0.398C66.774,32.132,66.64,31.824,66.64,31.474 M67.206,31.472
		c0,0.213,0.077,0.4,0.232,0.563c0.154,0.163,0.336,0.244,0.546,0.244c0.213,0,0.397-0.083,0.552-0.248s0.231-0.352,0.231-0.56
		V30.78c0-0.203-0.077-0.387-0.231-0.549c-0.154-0.163-0.339-0.244-0.552-0.244c-0.215,0-0.397,0.081-0.55,0.244
		c-0.152,0.162-0.229,0.346-0.229,0.549V31.472z"/>
	<path fill="#3B3735" d="M69.818,32.279c0-0.06,0.02-0.117,0.059-0.174c0.038-0.057,0.085-0.086,0.14-0.086
		c0.036,0,0.088,0.029,0.156,0.086s0.166,0.112,0.294,0.167c0.127,0.055,0.277,0.081,0.449,0.081c0.228,0,0.393-0.041,0.495-0.124
		c0.103-0.082,0.153-0.187,0.153-0.31c0-0.152-0.057-0.272-0.171-0.362c-0.113-0.09-0.252-0.158-0.415-0.204
		c-0.164-0.046-0.328-0.097-0.492-0.151c-0.163-0.056-0.302-0.147-0.416-0.276c-0.113-0.129-0.17-0.299-0.17-0.511
		c0-0.256,0.092-0.479,0.276-0.666c0.184-0.187,0.465-0.28,0.842-0.28c0.241,0,0.462,0.036,0.662,0.109
		c0.2,0.072,0.3,0.155,0.3,0.248c0,0.055-0.021,0.115-0.064,0.184c-0.044,0.068-0.097,0.103-0.16,0.103
		c-0.019,0-0.105-0.033-0.263-0.101c-0.156-0.066-0.313-0.1-0.467-0.1c-0.21,0-0.365,0.05-0.468,0.148s-0.153,0.21-0.153,0.334
		c0,0.129,0.057,0.23,0.171,0.304c0.113,0.074,0.253,0.131,0.419,0.173c0.166,0.041,0.331,0.092,0.495,0.151
		c0.163,0.061,0.302,0.162,0.416,0.307c0.113,0.146,0.17,0.333,0.17,0.563c0,0.279-0.1,0.5-0.3,0.662
		c-0.2,0.163-0.479,0.243-0.839,0.243c-0.31,0-0.573-0.056-0.792-0.167C69.928,32.519,69.818,32.401,69.818,32.279"/>
</g>
</svg>
