<?xml version="1.0" encoding="utf-8"?>
<!-- Generator: Adobe Illustrator 16.0.0, SVG Export Plug-In . SVG Version: 6.00 Build 0)  -->
<!DOCTYPE svg PUBLIC "-//W3C//DTD SVG 1.1//EN" "http://www.w3.org/Graphics/SVG/1.1/DTD/svg11.dtd">
<svg version="1.1" id="Camada_1" xmlns="http://www.w3.org/2000/svg" xmlns:xlink="http://www.w3.org/1999/xlink" x="0px" y="0px"
	 width="85px" height="55px" viewBox="0 0 85 55" enable-background="new 0 0 85 55" xml:space="preserve">
<g>
	<polygon fill-rule="evenodd" clip-rule="evenodd" fill="#1D1D1B" points="71.37,23.259 71.37,21.445 62.258,21.445 61.63,23.259 
		71.37,23.259 	"/>
	<polygon fill-rule="evenodd" clip-rule="evenodd" fill="#1D1D1B" points="46.11,38.667 46.11,40.445 55.147,40.445 55.147,38.667 
		46.11,38.667 	"/>
	<polygon fill-rule="evenodd" clip-rule="evenodd" fill="#1D1D1B" points="55.147,37.038 55.147,35.222 46.11,35.222 46.11,37.038 
		55.147,37.038 	"/>
	<polygon fill-rule="evenodd" clip-rule="evenodd" fill="#1D1D1B" points="59.445,23.259 58.814,21.445 49.742,21.445 
		49.742,23.259 59.445,23.259 	"/>
	<polygon fill-rule="evenodd" clip-rule="evenodd" fill="#1D1D1B" points="55.147,30.147 55.147,28.334 49.742,28.334 
		49.742,30.147 55.147,30.147 	"/>
	<polygon fill-rule="evenodd" clip-rule="evenodd" fill="#1D1D1B" points="55.147,26.704 55.147,25.26 55.186,25.26 55.703,26.704 
		65.37,26.704 65.925,25.26 65.963,25.26 65.963,26.704 71.37,26.704 71.37,24.889 61.075,24.889 60.556,26.259 60.52,26.259 
		60,24.889 49.742,24.889 49.742,26.704 55.147,26.704 	"/>
	<polygon fill-rule="evenodd" clip-rule="evenodd" fill="#1D1D1B" points="55.147,33.593 55.147,31.778 49.742,31.778 
		49.742,33.593 55.147,33.593 	"/>
	<polygon fill-rule="evenodd" clip-rule="evenodd" fill="#1D1D1B" points="64.185,30.147 64.815,28.334 56.26,28.334 56.888,30.147 
		64.185,30.147 	"/>
	<polygon fill-rule="evenodd" clip-rule="evenodd" fill="#1D1D1B" points="62.999,33.593 63.63,31.778 57.445,31.778 58.075,33.593 
		62.999,33.593 	"/>
	<polygon fill-rule="evenodd" clip-rule="evenodd" fill="#1D1D1B" points="61.778,37.038 62.409,35.222 58.631,35.222 
		59.259,37.038 61.778,37.038 	"/>
	<polygon fill-rule="evenodd" clip-rule="evenodd" fill="#1D1D1B" points="59.813,38.667 60.444,40.445 60.666,40.445 
		61.259,38.667 59.813,38.667 	"/>
	<polygon fill-rule="evenodd" clip-rule="evenodd" fill="#1D1D1B" points="46.11,18 46.11,19.815 58.26,19.815 57.63,18 46.11,18 	
		"/>
	<polygon fill-rule="evenodd" clip-rule="evenodd" fill="#1D1D1B" points="57.074,16.371 56.444,14.555 46.11,14.555 46.11,16.371 
		57.074,16.371 	"/>
	<path fill-rule="evenodd" clip-rule="evenodd" fill="#1D1D1B" d="M24.444,18v1.815h20.037C44.37,19.148,43.815,18,43.815,18H24.444
		L24.444,18z"/>
	<path fill-rule="evenodd" clip-rule="evenodd" fill="#1D1D1B" d="M44.333,23.259c0,0,0.335-1.222,0.335-1.814h-5.779v1.814H44.333
		L44.333,23.259z"/>
	<path fill-rule="evenodd" clip-rule="evenodd" fill="#1D1D1B" d="M43.444,30.111c0,0-0.963-1.223-1.592-1.777H28.074v1.777H43.444
		L43.444,30.111z"/>
	<path fill-rule="evenodd" clip-rule="evenodd" fill="#1D1D1B" d="M24.444,35.222v1.816h19.371c0.333-0.558,0.555-1.186,0.666-1.816
		H24.444L24.444,35.222z"/>
	<path fill-rule="evenodd" clip-rule="evenodd" fill="#1D1D1B" d="M24.444,38.667v1.778h12.778c4.111,0,5.259-1.778,5.259-1.778
		H24.444L24.444,38.667z"/>
	<path fill-rule="evenodd" clip-rule="evenodd" fill="#1D1D1B" d="M41.704,26.704c0.703-0.519,1.296-1.111,1.813-1.815
		c-0.036,0-15.444,0-15.444,0v1.815H41.704L41.704,26.704z"/>
	<path fill-rule="evenodd" clip-rule="evenodd" fill="#1D1D1B" d="M44.703,33.593c0-0.629-0.111-1.224-0.333-1.814h-5.481v1.814
		H44.703L44.703,33.593z"/>
	<polygon fill-rule="evenodd" clip-rule="evenodd" fill="#1D1D1B" points="28.074,31.778 28.074,33.593 33.482,33.593 
		33.482,31.778 28.074,31.778 	"/>
	<polygon fill-rule="evenodd" clip-rule="evenodd" fill="#1D1D1B" points="28.074,21.445 28.074,21.445 28.074,23.259 
		33.482,23.259 33.482,21.445 28.074,21.445 	"/>
	<path fill-rule="evenodd" clip-rule="evenodd" fill="#1D1D1B" d="M42.481,16.333c-1.518-1.223-3.259-1.778-5.222-1.778H24.444
		v1.778H42.481L42.481,16.333z"/>
	<polygon fill-rule="evenodd" clip-rule="evenodd" fill="#1D1D1B" points="13.629,31.778 13.629,33.593 19.037,33.593 
		19.037,31.778 13.629,31.778 	"/>
	<polygon fill-rule="evenodd" clip-rule="evenodd" fill="#1D1D1B" points="22.629,35.222 10,35.222 10,37.038 22.629,37.038 
		22.629,35.222 	"/>
	<polygon fill-rule="evenodd" clip-rule="evenodd" fill="#1D1D1B" points="10,38.667 10,40.445 22.629,40.445 22.629,38.667 
		10,38.667 	"/>
	<polygon fill-rule="evenodd" clip-rule="evenodd" fill="#1D1D1B" points="10,16.371 22.629,16.371 22.629,14.555 10,14.555 
		10,16.371 	"/>
	<polygon fill-rule="evenodd" clip-rule="evenodd" fill="#1D1D1B" points="22.629,18 10.037,18 10.037,19.815 22.629,19.815 
		22.629,18 	"/>
	<polygon fill-rule="evenodd" clip-rule="evenodd" fill="#1D1D1B" points="19.037,21.445 13.629,21.445 13.629,23.259 
		19.037,23.259 19.037,21.445 	"/>
	<polygon fill-rule="evenodd" clip-rule="evenodd" fill="#1D1D1B" points="13.629,24.889 13.629,26.704 19.037,26.704 
		19.037,24.889 13.629,24.889 	"/>
	<polygon fill-rule="evenodd" clip-rule="evenodd" fill="#1D1D1B" points="13.629,28.334 13.629,30.147 19.037,30.147 
		19.037,28.334 13.629,28.334 	"/>
	<polygon fill-rule="evenodd" clip-rule="evenodd" fill="#1D1D1B" points="71.37,30.147 71.37,28.334 65.963,28.334 65.963,30.147 
		71.37,30.147 	"/>
	<polygon fill-rule="evenodd" clip-rule="evenodd" fill="#1D1D1B" points="71.37,33.593 71.37,31.778 65.963,31.778 65.963,33.593 
		71.37,33.593 	"/>
	<polygon fill-rule="evenodd" clip-rule="evenodd" fill="#1D1D1B" points="75,37.038 75,35.222 65.963,35.222 65.963,37.038 
		75,37.038 	"/>
	<polygon fill-rule="evenodd" clip-rule="evenodd" fill="#1D1D1B" points="65.963,38.667 65.963,40.445 75,40.445 75,38.667 
		65.963,38.667 	"/>
	<polygon fill-rule="evenodd" clip-rule="evenodd" fill="#1D1D1B" points="75,19.815 75,18 63.519,18 62.853,19.815 75,19.815 	"/>
	<polygon fill-rule="evenodd" clip-rule="evenodd" fill="#1D1D1B" points="75,16.371 75,14.555 64.815,14.555 64.111,16.371 
		75,16.371 	"/>
</g>
</svg>
