<?xml version="1.0" encoding="UTF-8"?>
<!DOCTYPE svg PUBLIC "-//W3C//DTD SVG 1.1//EN" "http://www.w3.org/Graphics/SVG/1.1/DTD/svg11.dtd">
<!-- Creator: CorelDRAW X8 -->
<svg xmlns="http://www.w3.org/2000/svg" xml:space="preserve" width="4.3859mm" height="4.3094mm" version="1.1" style="shape-rendering:geometricPrecision; text-rendering:geometricPrecision; image-rendering:optimizeQuality; fill-rule:evenodd; clip-rule:evenodd"
viewBox="0 0 1968 1934"
 xmlns:xlink="http://www.w3.org/1999/xlink">
 <defs>
  <style type="text/css">
   <![CDATA[
    .str0 {stroke:#666666;stroke-width:34.2003}
    .fil0 {fill:#666666;fill-rule:nonzero}
   ]]>
  </style>
 </defs>
 <g id="Layer_x0020_1">
  <metadata id="CorelCorpID_0Corel-Layer"/>
  <path class="fil0 str0" d="M444 1917c-5,0 -10,-1 -14,-3 -9,-6 -15,-16 -15,-26l0 -418c-257,-133 -398,-367 -398,-659 0,-453 416,-794 967,-794 552,0 967,341 967,794 0,452 -415,793 -967,793 -18,0 -36,-1 -53,-2l-1 0 -470 310c-5,3 -10,5 -16,5zm540 -1841c-518,0 -908,316 -908,735 0,194 66,459 381,615 10,5 16,15 16,26l0 381 432 -285c5,-4 12,-6 18,-5l11 0c16,1 33,2 50,2 518,0 909,-316 909,-734 0,-419 -391,-735 -909,-735z"/>
 </g>
</svg>
