<?xml version="1.0" encoding="UTF-8"?>
<!DOCTYPE svg PUBLIC "-//W3C//DTD SVG 1.1//EN" "http://www.w3.org/Graphics/SVG/1.1/DTD/svg11.dtd">
<!-- Creator: CorelDRAW X8 -->
<svg xmlns="http://www.w3.org/2000/svg" xml:space="preserve" width="7.5932mm" height="7.5932mm" version="1.1" style="shape-rendering:geometricPrecision; text-rendering:geometricPrecision; image-rendering:optimizeQuality; fill-rule:evenodd; clip-rule:evenodd"
viewBox="0 0 29 29"
 xmlns:xlink="http://www.w3.org/1999/xlink">
 <defs>
  <style type="text/css">
   <![CDATA[
    .fil0 {fill:#D96125;fill-rule:nonzero}
   ]]>
  </style>
 </defs>
 <g id="Layer_x0020_1">
  <metadata id="CorelCorpID_0Corel-Layer"/>
  <g id="_1693262128704">
   <path class="fil0" d="M29 14c0,-8 -7,-14 -15,-14 -8,0 -14,6 -14,14 0,8 6,15 14,15 8,0 15,-7 15,-15zm-28 0c0,-7 6,-13 13,-13 8,0 13,6 13,13 0,8 -5,13 -13,13 -7,0 -13,-5 -13,-13z"/>
   <path class="fil0" d="M15 23l0 -9 3 0 0 -2 -3 0 0 -2c0,0 0,-1 1,-1l2 0 0 -3 -3 0c-2,0 -3,2 -3,4l0 2 -1 0 0 2 1 0 0 9 3 0z"/>
  </g>
 </g>
</svg>
