<?xml version="1.0" encoding="UTF-8"?>
<!DOCTYPE svg PUBLIC "-//W3C//DTD SVG 1.1//EN" "http://www.w3.org/Graphics/SVG/1.1/DTD/svg11.dtd">
<!-- Creator: CorelDRAW X8 -->
<svg xmlns="http://www.w3.org/2000/svg" xml:space="preserve" width="7.5931mm" height="7.5932mm" version="1.1" style="shape-rendering:geometricPrecision; text-rendering:geometricPrecision; image-rendering:optimizeQuality; fill-rule:evenodd; clip-rule:evenodd"
viewBox="0 0 40 40"
 xmlns:xlink="http://www.w3.org/1999/xlink">
 <defs>
  <style type="text/css">
   <![CDATA[
    .fil0 {fill:#D96125;fill-rule:nonzero}
   ]]>
  </style>
 </defs>
 <g id="Layer_x0020_1">
  <metadata id="CorelCorpID_0Corel-Layer"/>
  <g id="_1693262112768">
   <path class="fil0" d="M18 23c0,4 -1,7 -3,8 -1,-5 1,-8 1,-12 -1,-2 1,-7 3,-5 4,1 -3,8 2,9 4,1 6,-8 3,-11 -4,-4 -11,0 -10,6 0,1 1,2 0,4 -2,-1 -3,-3 -3,-6 0,-4 4,-7 8,-8 4,0 9,2 10,7 0,5 -3,10 -8,10 -1,0 -2,-1 -3,-2z"/>
   <path class="fil0" d="M40 20c0,-11 -9,-20 -20,-20 -11,0 -20,9 -20,20 0,11 9,20 20,20 11,0 20,-9 20,-20zm-38 0c0,-10 8,-18 18,-18 10,0 18,8 18,18 0,10 -8,18 -18,18 -10,0 -18,-8 -18,-18z"/>
  </g>
 </g>
</svg>
