<?xml version="1.0" encoding="UTF-8"?>
<!DOCTYPE svg PUBLIC "-//W3C//DTD SVG 1.1//EN" "http://www.w3.org/Graphics/SVG/1.1/DTD/svg11.dtd">
<!-- Creator: CorelDRAW X8 -->
<svg xmlns="http://www.w3.org/2000/svg" xml:space="preserve" width="7.5931mm" height="7.5932mm" version="1.1" style="shape-rendering:geometricPrecision; text-rendering:geometricPrecision; image-rendering:optimizeQuality; fill-rule:evenodd; clip-rule:evenodd"
viewBox="0 0 32 32"
 xmlns:xlink="http://www.w3.org/1999/xlink">
 <defs>
  <style type="text/css">
   <![CDATA[
    .fil0 {fill:#D96125;fill-rule:nonzero}
   ]]>
  </style>
 </defs>
 <g id="Layer_x0020_1">
  <metadata id="CorelCorpID_0Corel-Layer"/>
  <g id="_1693001850800">
   <path class="fil0" d="M25 10c0,0 -1,0 -2,0 1,0 2,-1 2,-2 -1,1 -2,1 -3,1 0,-1 -1,-1 -2,-1 -3,0 -4,2 -4,4 0,0 0,1 0,1 -4,0 -7,-2 -8,-4 -1,0 -1,1 -1,2 0,1 1,2 2,3 -1,0 -2,0 -2,0l0 0c0,1 1,3 3,3 0,1 -1,1 -1,1 0,0 0,0 -1,0 1,1 2,2 4,2 -1,1 -3,2 -5,2 0,0 -1,0 -1,0 2,1 4,2 6,2 8,0 12,-6 12,-12l0 0c0,-1 1,-1 1,-2z"/>
   <path class="fil0" d="M32 16c0,-9 -7,-16 -16,-16 -9,0 -16,7 -16,16 0,9 7,16 16,16 9,0 16,-7 16,-16zm-31 0c0,-8 7,-15 15,-15 8,0 14,7 14,15 0,8 -6,14 -14,14 -8,0 -15,-6 -15,-14z"/>
  </g>
 </g>
</svg>
