<?xml version="1.0" encoding="UTF-8"?>
<!DOCTYPE svg PUBLIC "-//W3C//DTD SVG 1.1//EN" "http://www.w3.org/Graphics/SVG/1.1/DTD/svg11.dtd">
<!-- Creator: CorelDRAW X8 -->
<svg xmlns="http://www.w3.org/2000/svg" xml:space="preserve" width="8.0549mm" height="8.1033mm" version="1.1" style="shape-rendering:geometricPrecision; text-rendering:geometricPrecision; image-rendering:optimizeQuality; fill-rule:evenodd; clip-rule:evenodd"
viewBox="0 0 113 114"
 xmlns:xlink="http://www.w3.org/1999/xlink">
 <defs>
  <style type="text/css">
   <![CDATA[
    .str0 {stroke:#8560A7;stroke-width:5.93367}
    .fil0 {fill:none}
    .fil1 {fill:#8560A7;fill-rule:nonzero}
   ]]>
  </style>
 </defs>
 <g id="Layer_x0020_1">
  <metadata id="CorelCorpID_0Corel-Layer"/>
  <g id="_1692342055712">
   <circle class="fil0 str0" cx="56" cy="56" r="53"/>
   <path class="fil1" d="M56 69l1 0c5,0 9,-2 12,-5 7,-8 5,-21 5,-22 0,-9 -5,-14 -8,-16 -3,-1 -6,-2 -10,-2l0 0c-2,0 -6,0 -9,2 -4,2 -8,7 -9,16 0,1 -1,14 6,22 3,3 7,5 12,5zm-13 -27c0,0 0,0 0,0 0,-12 9,-14 13,-14l0 0c5,1 13,2 14,14 0,0 0,0 0,0 0,1 1,12 -5,19 -2,2 -5,3 -9,3l0 0c-4,0 -7,-1 -9,-3 -5,-7 -4,-18 -4,-19z"/>
   <path class="fil1" d="M92 91l0 0c0,0 0,-1 0,-1 0,-3 0,-11 -8,-14 0,0 0,0 0,0 -8,-2 -14,-6 -14,-7 -2,0 -3,0 -4,1 0,1 0,3 1,3 0,1 7,5 16,8 4,1 4,5 4,9 0,1 0,1 0,1 0,1 0,4 0,5 -3,2 -14,12 -31,12 -16,0 -28,-10 -31,-12 0,-1 0,-4 0,-5 0,0 0,0 0,-1 0,-4 1,-8 5,-9 8,-3 15,-8 16,-8 1,0 1,-2 0,-3 0,-1 -2,-1 -3,-1 0,0 -7,5 -14,7 -1,0 -1,0 -1,0 -7,3 -7,11 -8,14 0,0 0,1 0,1l0 0c0,1 0,5 1,8 0,0 1,0 1,1 1,0 13,14 34,14 21,0 34,-14 34,-14 1,-1 1,-1 1,-1 1,-3 1,-7 1,-8z"/>
  </g>
 </g>
</svg>
